<svg id="图层_1" data-name="图层 1" xmlns="http://www.w3.org/2000/svg" viewBox="0 0 461.6 259.62"><defs><style>.cls-1{fill:#225152;}</style></defs><title>1-1</title><path class="cls-1" d="M74.16,78.24c-1.92-3.29,1.72-7.78,3.12-9.6.86.92-2.23,9-3.12,10.08Z" transform="translate(0.49 0.17)"/><path class="cls-1" d="M129.12,41.76A4.66,4.66,0,0,1,131.28,47l-.48.24C129.62,45.86,129.08,44.5,129.12,41.76Z" transform="translate(0.49 0.17)"/><path class="cls-1" d="M270.48,259.2h-3.6c-.33-1.43-1.06-2.18-1-3.36A10,10,0,0,1,270.48,259.2Z" transform="translate(0.49 0.17)"/><path class="cls-1" d="M229.92,4.8l-.24.72,1-.24Zm1.2-2.64c.33-.46,0-.14.48-.48a1.72,1.72,0,0,0-.72-.72l-.72,1v.24Zm1,8.88c.86-.53,1.51-.79.72-1.68Zm1.44-3.6L234,6h-.72c-.23,1.08-.49.6,0,1.44ZM223,7.34C224.17-1.15,232.05-.3,241.92,0l.72,1-.24.48-2.16.24.48,1.44,1.68-1-.24,1.68a4.12,4.12,0,0,1,2.88.72c-1,1.94-4.35,1.81-6,.48V4.8l1.44-1L239,3.36c-.73.64-.19.52-1.2.48,1.42,3,4.28,2.4,5,5.76l-.72.24c-2.63-1.11-2.38.53-4.8-.24.41,1.84,2.07,3.44,1,5.28l-.24.48-.72-.48c-.44-2-.93-4.38-1.44-6h-.48a8,8,0,0,1-3.6,5.28c-1.59,1-1.92.41-1.68-1L228,15.12h-1.2c.32-2.46,1.29-5.48,3.12-6.48-1.44-1.29-2.46-.73-2.4-3.84a13.19,13.19,0,0,0-2.18,2.84Z" transform="translate(0.49 0.17)"/><path class="cls-1" d="M205.68,46.8c1.29-2.89,3.26-7.62,5.28-10.08C213.51,39.47,207.68,46,205.68,46.8Z" transform="translate(0.49 0.17)"/><path class="cls-1" d="M178.32,49h-1c-1.72-1.35-4.16-2.9-4.08-5.28C175.7,44.58,178.19,45.71,178.32,49Z" transform="translate(0.49 0.17)"/><path class="cls-1" d="M158.88,43.2c-1.63,2.94-8.76,4.84-11.76,6.24V49.2c2.08-4.22,5.35-4.12,9.84-6Z" transform="translate(0.49 0.17)"/><path class="cls-1" d="M279.12,259.2H274.8c-1.07-3.34-4-4.95-5-7.92C274.28,251.51,277.11,256.33,279.12,259.2Z" transform="translate(0.49 0.17)"/><path class="cls-1" d="M285.36,259v.24H283.2c-1.87-2.49-4.15-4.7-4.32-8.88C280.77,253.61,281.72,257.46,285.36,259Z" transform="translate(0.49 0.17)"/><path class="cls-1" d="M306,259.2H287.28c1.36-4.7-1.3-8.89-2.4-12l1,.72c1.51,3.61,4.85,5.63,5.76,10.08l.24-.48L298.32,246l.72.48c-1.88,3.38-.79,8,.24,11.52h.24v-.48c1.86-3,2.76-7.43,3.36-11.52h.24a64.18,64.18,0,0,1,1.2,10.8l1.68-1.44c.81-2,1.57-4.23,2.64-6.72h.24C309.32,253.21,308.53,257,306,259.2Z" transform="translate(0.49 0.17)"/><path class="cls-1" d="M371.28,259.2a11.19,11.19,0,0,1-4.56-.48c-1.34-6.15-2.25-13.09-.48-19.68l-.48,4.8C366.81,249.81,369.3,254.5,371.28,259.2Z" transform="translate(0.49 0.17)"/><path class="cls-1" d="M109.44,249.12h.48c-1.11,1.81-1.48,6.56-1.44,10.08h-3.36l4.08-10.8Z" transform="translate(0.49 0.17)"/><path class="cls-1" d="M114.48,243.6c2.2,4.77.65,11.1-.24,15.6h-4.08A35.65,35.65,0,0,0,114.48,243.6Z" transform="translate(0.49 0.17)"/><path class="cls-1" d="M175.2,156.24l-2.64.72a3.72,3.72,0,0,0-1.92,3.6c1.79-1.34,3.47-2.88,5.28-4.32Zm-18.48-1.68c-6.21-4.93-11.46-6.44-14.4-14.88a9.24,9.24,0,0,1-9.12-6.24,4.61,4.61,0,0,1,2.16-2.88h.24c2.26,2,3.22,4.71,6,6.24h.24c-.53-4.38.88-8.67,3.84-10.32l1,.72c-.21,4.47-1.6,7.26,0,11.28l.48-.24c1.32-2.71,4.8-3,6.48-5.28.65-.86.6-2.57,1.2-3.36l.72.24.48.48a5.31,5.31,0,0,1,.24,3.6c-1.42,3.13-8.71,5.7-6.72,10.8,1.67,3.35,7.28,5.91,10.56,7.68-.12-3.19-.64-6.61,1-8.4l1,.48c1.18,7.81,2.43,11.41,4.56,18h.24l-.24-6.72c.5-1.63,1.93-2.87,1.44-6-.31-1.94-1-4.38-.48-6.48h.24l1.2.72.72,7,1.44,1.44c3.85-.82,8.13-5.32,9.6-8.64-1.09-5.57-10.52-6.26-8.64-13.68h1.2c1.32,4,4,8.34,8.16,9.36l1-1.44c2.61-5.48-5.83-6.6-3.6-11.76h1c1.89,1.9,4.38,5,5.28,7.68.41,1.24.09,2.49.72,3.36,2.78-1.36,4.22-3.91,5.76-6.48,1.41.26,1.41.64,2.16,1.44,0,4.76-4.37,7.24-8.16,8.16,0,6.71-6,11.33-10.8,13.2v.24c7.2-.18,8.14-2.75,12.24-5.28l1.2.24c1.66,4.67-3.72,4.19-5.52,6.72-2.2,4.07-.43,8.61-5,10.32,1,5.13,5.48,5.51,8.4,8.64,0,8.91-7.13,6.57-13.92,8.64-1,10.35-.84,13.93,7,17.28,2.78,1.19,5.86,2.93,9.36,3.6l6.48-.24c6.83-1.1,16.9-.41,22.08,1.2,8.32,2.59,8.48,10,14.16,13.68l3.12,1.2c-1.76,2.63-4.63,5.45-8.88,5.52l1,12V247c.61,1.87,4.7,3.46,6,5.28l-1.44,7H224.4l.48-2.16c-1.4-2.86-5.31-3.68-7.92-5.28,1.3,2.26,2.07,4.36,1,7.44H211.2c.24-.94.34-1.31-.24-1.92-6.24-6.06-17.4-4.93-21.84-14.64-4.11.77-9.32-.4-13.44-.72l-.48,17.28c-2.31.08-8,.73-9.36-.48l-3.6-15.12-2.4,15.6h-6.72c-2.45-1.4-5.15-16.13-6-20.4-3.18-15.88-.72-35,3.36-48,2.12-6.77,5.17-13.33,6.48-20.88-5.28-1.4-8.91-7.34-9.12-13.68l.48-.48a107.55,107.55,0,0,1,13.44,5.76c-2.81-8.08-17.69-3.84-19.2-12.72l.24-.48H143l1,.24c1.42.81,1.16,2.83,2.4,3.6Z" transform="translate(0.49 0.17)"/><path class="cls-1" d="M342.72,12.24l-.24-2.64c.49-1.32,2.3-1.86,2.88-3.6l.48.72c-.22,3.18-1.81,3.7-2.4,6.24l1.92-1.44.24.48,1,.72.72-2.16,3.84-1c.45,2.09,3.34,2.51,5,3.36v2.16l-1,1.44-3.12-2.4h-1.92l-.48.24c.22,2.24,1.25,2.63,2.4,3.84l-1.68,1.2h-.24v-.72c-3.15-1.39-5.67-1.07-9.84-1.68l-.48-.24v-.72Z" transform="translate(0.49 0.17)"/><path class="cls-1" d="M367.2,29.76l-1.2.48v.24C367.29,30.38,367,30.22,367.2,29.76Zm-5-1v1.44h1.44l-.24-1.2Zm-9.6-2.64.48,1,.48-.48Zm1.68,9.12-.48-.72-.24.48v.24Zm.72-2.16.72-.72-.48-.24Zm-4.56-1.68-1.2,1.44,1.92-.48v-.24A1.72,1.72,0,0,0,350.4,31.44Zm-8.16-7.2a4,4,0,0,1-3.6.48V24l3.12-1-1.2-1.44v-.24c4.58-.21,5.51.75,7.68,3.36a5.63,5.63,0,0,1,3.12.24c.41-1.1,1-1.2,1.92-1.68a7,7,0,0,1-.72-3.6h2.16c.62,1.24,1.93,3.63,3.36,4.08v-.48a5.68,5.68,0,0,0,.63-2.24l1.05.08,1.2-1,1.68.72v.48l-1.68.72-.24.72,2.16,1.2,1,1.68,1.2,2.64.72,1.2,1-.72h.72l.24.24h.21v1.78c-.26.25-.17,0,0,.62h.24l1.68,1.44a8.52,8.52,0,0,1,.24,3.36h-2.64L361.68,31c-.78.45-2-.27-3.12.24l1.2.72c.48-.5,2.45.2,2.88,1.92-1.18.39-1.46,1.25-2.4,1.92l2.16,2.16-.48,1-.72.24c-1.52-.35-1.91-1.1-3.12-1.68l1,3.36L357.84,43l-.48-.24A19.66,19.66,0,0,0,353,36.48V37c-1.88,2.19-1.22,5.36-4.08,6.72-.08-2.36-.48-2.58.24-3.36L350.4,37c-1.83.6-4.29,1.54-6.48,1.44l-1.44-1.2V37c1.31-.44,5.65-1,6.48-2.16a5.68,5.68,0,0,1-4.08-.72l.48-.72,2.64-.72-2.16-1.44v-.72l.48-.48,2.88-.48v-.24c-.18-.33-5.23-5.35-5.52-5.52h-.24v1.92l-.48-.24Z" transform="translate(0.49 0.17)"/><path class="cls-1" d="M338.64,15.36c.69-.4,1.22-.48,1-1.2ZM335,18.48c-.25-1-.08-.67-.72-1.2l.48,1.2Zm-1.44.72c.5-.54.4-.25.24-1Zm-2.4.24V19.2l-.72-.72-.24-.48-.48.24v1.2Zm1.68-3.36c-.37-1,0-.59-1-1A2.68,2.68,0,0,0,332.88,16.08Zm-11.28-6c-.47-.5-.09-.25-1-.48Zm4.08,13.44c-.3-.73,0-.29-.48-.72Zm-9.84,1.2h-.24l-.24.48Zm1.68-3.6c-.09,2.19.2,4.37,1.2,5.52H319c.91-2.11,2.69-3.2,4.08-4.8l-.48-.48-1.92.48c.51-.84,1-.85.72-1.92l-.24-1.2c-3.5,0-3.3-.65-6.24-1.2l-.24.72.24.72h2.4c-.77,1.76-.17,1.74-1,3.12h-.24l.24-1-2.88,2.16v.24c1.49-.41,2-1.18,3.84-.72Zm2.16-10.8-1-.24c-.57,1-1.2,1.64-.72,2.4h.24c.09-1.2.19-1.39,1.44-1.92Zm-5.76,15.36-1,.72-.24,1,1.44.24C314.18,26.35,314.34,26.23,313.92,25.68Zm-7.2-1.44c1.43.14,1.47.63,1.92-.72l-2.88-3.6C306.07,21.62,306.66,22,306.72,24.24Zm.48-10.32.72-.24.24-.48-1-.72-.24.72Zm-.72,15.6,2.64,1c0-.37-.21-.78.24-.48l.72-.48c0-1.39.12-1.28-1-1.68-.67.88-1.43,1.08-2.88,1.2Zm2.88,4.08c-.41-1.58-.9-1-.72-2.4l-2.4-.48a7.27,7.27,0,0,1,.72,2.4ZM299.52,29l.72-.48V25.92L299,28.8Zm7.68-14.88a2.45,2.45,0,0,1-1.68.48l.24.72C307,15.13,307.17,14.92,307.2,14.16ZM305.76,26.4l-.24.48C306,26.58,305.65,26.67,305.76,26.4Zm-17-2.4.48-.72v-1.2l-.72-.48.48.72-1.2,1Zm.24,2.4v.72l.24-.72Zm3.84,15.12c-.07-1,0-1-.48-1.44l.24,1.44Zm.24-3.36c0-1.44-.29-1.63-1.44-2.4Zm5.52-6c1.56.33,1.72.83,3.6,1l-1.44-2.64c-.56.93-1.25.9-2.16,1.44Zm.24-7.92c-.11-1.33-.28-3-1-3.84-.62,1.19-.64.62-1.68,1a8.11,8.11,0,0,1,2.4,3.12l-1.68,1.44.24,1c1.3-.87,3-2.26,2.88-3.36l.72-1.92c-.51-.43-.58-.32-1-1-.69.34-.35.38-1.2.24l.72,3.36h-.48Zm-15.6,7.2c.41.6.14.28.72,0ZM288,37.2l.72.24c.83-.13.06-.2,1.2.24l.24-2.4c-1.41.32-.8,0-2.16-.72Zm.48-5c-.66.32-.07.15-.72.24l-.72-1,.72-.48-1-.72a23.13,23.13,0,0,1-2.64,4.56h1.44c.12-1.41.33-1.78,1.2-2.4l2.16.72ZM274.32,14.4v-.72h-.48l-.24.24.48.48Zm4.56,13.44.48-.72-.48-.24Zm.48,1.68c-.22-.88,0-.49-.48-1l-.24,1ZM277.2,24c1.29.17,1.63.51,2.64.24V24l-.24-1.68h-1A3.56,3.56,0,0,0,277.2,24Zm1.92-2.64a23.76,23.76,0,0,1,3.36-.48v-.72H282l-1.44-.24Zm0,11,1-1-.48-.72-1.44-.48-1.44,1.2.72.48Zm2.4,1.2c0,.95-.22.5.24,1.2H282l-.24-.72.24-.48ZM262.8,4.08,263,5.52h.24V4.8Zm7.68,12.72.48-.72-.48-.48-.24,1.2Zm1.2-2.16-.48,2.16c1,.19.23-.23,1,.48l.24-.48,1.44-1.2-.48-.48-.72.72A1.8,1.8,0,0,0,271.68,14.64Zm-10.56-8.4.24-2.64-.72-.48-.72,3.6Zm1,8.16-.24.72C262.17,14.61,262.28,15,262.08,14.4Zm-9.6-13.2c-.16,1.43-.27,2-1.44,2.88h-.24v-1L252.24.48c-1.4.16-1.8.54-2.4-.48h5l.48,1.2.48-.48V0c3.68,1.24,17.19,0,23,0h54.48c-.74,1.3-1,1.37-.72,2.64-.8-.05-.55-.22-1.2.24l1.2,1.68h.24c.35-1.3.2-1.38,1.2-1.92a2.8,2.8,0,0,0,2.4.24l-.24.48-2.64.24-.48,2.88,1.2-.24-.48.72,1.2-.24.24-1.44.24.48c2.22,1.81.35,3.29,1.44,6v-.48l2.4-3.6-1-1,.62-.34.58,1.06,1.2-1,1.68-2.16a1.73,1.73,0,0,0,1.31.51L345.36,6c-.58,1.74-2.39,2.28-2.88,3.6l.24,2.64-2.88,3.84v.72l.48.24c4.17.61,6.69.29,9.84,1.68V19c-3.7-.28-4.87.83-7.68,1.44-1.05.23-2.34-1.08-4.32-.24a8.32,8.32,0,0,1,2.4,2.88l-2.4.48.48.48v.72c-.28,1.31-1,1-1.68,2.4a3.63,3.63,0,0,1,3.36.72l.24,1.2c-2.51.65-3.49-.33-5.52-1.2l1.2-2.64h-1c-.18,1.05.16.63-1,1.2-.77-.88-.35-.51-1.68-.24l-.72,3.12c-5.49,1.37-4.48.22-8.4,3.6l-.48-.72c-1-2.15,1-4.86,2.16-5.76h.24v.48l.24,1.68,1.68-1a5.4,5.4,0,0,1,1-4.32l-.48-.72H326.4c-.33.46,0,.14-.48.48.34,1.07,0,.3,0,1.2L323.76,23c-.05,3.69-2.7,3.95-3.84,5.52a3.55,3.55,0,0,1,2.4,1.2l-1,1.92-3.6-.48c-.54,2.56-1.52,3.15-2.64,4.8A7.76,7.76,0,0,1,319,37.68l.24,1.68C317.31,39,314,37.63,313,36.24a4.06,4.06,0,0,0-.24-2.88,5.21,5.21,0,0,1-1.92-.24c.17-1,.48-.28-.24-1h-.24v.24l.48,2.4c-5.12.84-8.21-.87-13.2-1v.24l2.88,3.12-.72,3.36h-.24L295.2,38.4c.33,2,.54,3.31-.24,4.8-1.18.11-1.08.12-1.92-.48l-.48,1.92h-1c-2.52-2.5-4.63-5.49-7.2-7.92h-.24c-.14,1.92-1.07,2.33-1.44,3.6-1.6,5.48.65,7.55-3.6,10.08v-.48c-1.72-3.32,1.59-6,2.16-8.4.4-1.7-.26-2.87.24-4.32l-.24-.24h-.72c-1.64,3.12-10.26,6.81-14.16,4.32l-.24-.48.24-.48,9.84-3.84L277,35c-2.52,1.07-5.36,1.27-7.2-.48l.72-1L275,31.68c-1.65-.58-3.57-1.11-4.56-2.4l.48-1.44c1.6-.83,3.28-1.07,5.28-1.92l-1.2-1.2-.48-1.2c-1.64-.13-2.89-.34-4.08.24-.75,1.71-1.85,2.52-2.16,4.8h-.24a8.77,8.77,0,0,1,1.68-6.24L269,21.6h-.24c-1,1.22-1.79,2.85-2.88,4.08a7.79,7.79,0,0,1,1.44-4.8l-6.72,1.44c1.72-3.13,3.71-3.91,6.72-4.56-2.26-2-5.34-.87-8.4-1v-.24c1.24-2.7,5.06-4.38,8.64-3.36-1.81-2.91-4.73-2.13-8.4-2.88a11.83,11.83,0,0,1-1.68-6.24l.24-.48,1,.72,1-1.68V2.4h-1.44l-1.44,1c0,2.65-.87,3.33-1.92,4.8H253.2V7.68c-.34-1.12.32-1.82.72-2.88-.75-.24-.77-.2-1.2-.72.94-.32.77-.09,1.2-1C253.52,2.1,253.44,1.7,252.48,1.2ZM329,6l-.24-.72h-.24l-.24.48V6Z" transform="translate(0.49 0.17)"/><path class="cls-1" d="M456.48,48l.48-.48-.72-.24Zm.24-42.48V5.28L455.52,5l.72,1Zm1.44,1.68.48-.24-.48-.48Zm.48-2.64a1.78,1.78,0,0,0,.72.72A1.78,1.78,0,0,0,458.64,4.56Zm-6.72,2.16-.24,1h.72C452.18,6.8,452.41,7.19,451.92,6.72Zm1.2,39.6a1.72,1.72,0,0,0,2.4,0Zm1.68-39.6.48-1.44-2.16-.72-.24,1.2Zm0,7,.24.48.24-.48Zm0,1,.24,1.44,1-.24V15.6C455.52,14.87,455.76,15,454.8,14.64ZM440.88,25c.33.46,0,.14.48.48Zm1.2,7.92c.11.64-.15.36.48,1Zm1.44-1.44c.33-.51.44-.13.24-.72l-.48.24Zm.24-19c.3-1.1.38-.78,1-1.44l-.48-.24H443l.24,1.92Zm1.68,1.44.24,1.2.24-.72Zm1.68-2.16c1.05,0,1.09.55,1.68-.48h-1.44Zm2.64-10.08c-.84.1-.51.12-1.2-.24-.45,1-.81,1.4-.24,2.16C448.59,2.92,449.45,3.08,449.76,1.68Zm-.24-1.2h-.72C449.44.81,449,.92,449.52.48Zm-16.08,30,.48-.48h.48l-.48-.24-.72-.48-.72.48v.48ZM435.6,36l.72-.24.48-.24-.24-.48h-1.44Zm1.92-2.88v-.24l-2.88-1.44a3.69,3.69,0,0,0,2.16,1.92Zm2.4,1,.48.48C440.07,34.1,440.38,34.42,439.92,34.08ZM427,25V23.28L426.72,25ZM428.64,35h.24c-.24-1.37-.5-1.84-1.68-1.68l-.48-.24A5.13,5.13,0,0,0,428.64,35Zm0,2.16.48-1.2-1-.24c-.06,2-1.17,2.1-.72,2.64A3.62,3.62,0,0,0,428.64,37.2Zm6.72-3.6-.72-.48-.24.24,1,.48Zm-2.16,2.88V35l-.48.24-.48-.24C432.36,36.35,432.14,36.09,433.2,36.48ZM402.48,4.8,402,7.44,403.2,7Zm15.6,7.44.24-.72h-.24Zm0,.48v.48C418.31,12.78,418.3,13.15,418.08,12.72Zm5.52,23,.72-.48L423.6,35Zm.24.24.48.72h.24v-.24Zm4.8,2.16c-.12,2.34-1.51,3.81-3.12,3.36l2.4,9.6c3.83-1.81,10.63-4.18,12.72-7.68.59-1,.08-1.86,1-2.88l.24,1.44,1-1c.15-.88.83-1.4,1-3.12l-1-.24c-1.52,1-2.9,1.24-5.28,1l1.2-1.92-.24-.24h-1.2a9.39,9.39,0,0,1-3.12,1.44l-.24,1.68-1.68-1.44v1a6.24,6.24,0,0,1,1.2,3.36,2.24,2.24,0,0,1-1.92-1.2l-1.2-4.56ZM426,24.24c.45-.3.13-.21.24-.48Zm.72,1.68c-.46,1-.73.8-1,2.16H426c.66-1.09.49-.17,1.44-.72v-1ZM397.92,5.28,398.4,5l-.48-.48Zm2.16,36.48c.73-.3.29,0,.72-.48h-.48Zm-7.92-36c.43.49,0,.17.72.48Zm2.4,9.6c1.76-.32,3.15-.83,5-.48v.24a6.88,6.88,0,0,0-3.84,1.44l3.36,3.6L402,22.32c.59-1.49,1.43-2,3.6-1.92v-.24l-.72-1.68a6.37,6.37,0,0,1-3.6-2.16v-.24l2.64-1.92-2.88,1-1.2-.48c.14-1.32.86-2.67.48-2.88L397.2,9.6c-.71,1.42-2,1.45-3.6,1.92-.21,2-.17,2.58.72,3.84ZM396.24,5c.58,1.85,1.72,1.92,1.44,4.08,1.53-1,2.79-1.33,2.88-3.84h-.48l-1-.24c-.07,1.38-.15,1.93-1.2,2.4ZM394.8,2.88l.24,1.2.72-.24V3.6l-.24-.48Zm-25,23.52h.24c.22-3.15,3.43-1.9,4.32-4.56h-.24l-5,3.12v.24A2.29,2.29,0,0,1,369.84,26.4Zm9.6-2.64a1.78,1.78,0,0,0,.72-.72l-.48-1Zm3.6-3.12.72-.24v-.48h-1Zm.72-19-.24.48C384,1.84,383.88,2.2,383.76,1.68Zm.72,19.44c-.59.47-.1.14-.72.24l.24.48h.72l.24-.72Zm1.68,4.8c-.31-.72-.15-.54-.72-1ZM363.6,19.2c.45-.3.13-.21.24-.48Zm.72-7.44v.72l.48-.48Zm-3.12,7,.48-.48-1.2-1.92ZM363.84,13l-1.2-1-.48,1.92h.24l1.44-.72Zm-1.2,2.64.24,1.2.48-1.2Zm-9.6-11-.48.24V5C353.18,4.77,353,4.66,353,4.56Zm.48,2.64-.48,1,1-.72Zm0-3.36c.43.86-.13.28.72.72ZM349.2,7.92A17.63,17.63,0,0,0,347,5.76c-.2,1.45-.71,2.13,0,3.12Zm.48-2.4v1l2.88.72.24-.48Zm-14.16-1.2V4.08c1.7-.53,1.94-1.44,4.32-1.68l-.24-.72L339.12,1l-1.2.48.24-1.2L335,.72,334.8,0h4.8c-.18,1-.56.45.48,1.2h.24V0h52.56a5.35,5.35,0,0,1,.48,1.2l.24.48-1.44-.48V2.64l1,.48-1.2,1.68a7.26,7.26,0,0,0,2.64-2.16l-.24-.48-.72-.48c1.35,0,2.28.15,3.12-.72l-2.4-1c17.12,0,37.32,0,55.92,0,.32.92,0,.5.72,1l-.48-1h1.68c2.56,1,4,2.8,6.48,2.88L457.2,0h3.6V41.52c0,3.37,1.06,12.45-.72,13.68a3.28,3.28,0,0,0,0-2.64l-.24.48-1.2,3.36v-.48c-.48-1.27.29-2.55.72-3.6a13.46,13.46,0,0,0-4.8,2.16v-1L456,49.2h1.44l-.24-.48h-4.8c-.46,1.31-1,1.59-2.16,2.16l.48-3.36-1.2,1C447.45,53,437.1,63.1,432.24,64.8c1.91,13.24,5,25.54,7.44,39.36l1,23v-.48l5.52-16.56c3.72-9.55,7.37-18.7,10.08-29.52l4.56-23.52v31.2c-4.09,22.44-14,41.78-19.44,63.12l-2.88,20.4c-3.73,16.88-7,34.78-10.56,52.8l-3.6,26.88c5.62-4.72,9-16.18,18-17v.24h-.48c-6.93,4.74-7.94,15.41-10.56,24.48H377.52a46.09,46.09,0,0,0-7.68-25.44c4.26,1.41,12.5,16.55,13.92,21.6H384c1.63-9.42.76-20.4-2.64-27.36l.24-.24h.24c1.27,3.79,5.19,8.78,8.16,11l13.2-38.4c4.51-12.88,7.41-26.28,11.52-39.84,4.57-15.08,10.21-36.37,7.2-56.64V92.64a258.34,258.34,0,0,0-7.68-33.36c-1.52-4.93-1.45-10.64-4.8-13.68a3.26,3.26,0,0,1-1,2.16h-.24l-.48-2.16-1.68,1.68c-1.95.79-2.74,2.25-4.08,3.6v-.72c1.15-2.79,3.23-4.49,4.8-7-2.9.69-6.09.24-9.36-.24l.24-.72c2.54-1.61,3.28-1.53,7-1.2l-2.88-2.88L387.12,21.84v.72c.65,1.26,1.39,2.65,1,4.32-1.44.16-.69.48-1.68-.24a9.84,9.84,0,0,1-.24,6.48l-.24-.48a4.37,4.37,0,0,1-2.4-2.88,8.4,8.4,0,0,1-2.64-.24,3.58,3.58,0,0,1-1.68,1.92c-.72-2.7.23-4.5,1.2-6.72l-.72.48a5,5,0,0,1-2.4,2.4h-.72l-.24-.72,1-2.64H377l-.48.24c-.95,4.09-2.57,7.4-6.72,8.4l-1.68-1.44v-1a4,4,0,0,1-.27.34V29h0l.24-.72h-.48l-.24.48h-.72L365,28.32l-1.2-2.64,1.92-1.44-.48-.72-1.44-.24-1,.72-2.16-1.2c.5-.55.28-.09.24-.72l1.68-.72c.23-.42.22-.05,0-.48L361,20.16l-1-.24-.24,1.2L358.71,21a2.6,2.6,0,0,1,1.05-2.32l-.72-.48c-.72,1-1,.89-1,2.16l-3.36-.72h-2.16l-2.64-.24h.48l1.68-1.2c-1.15-1.21-2.18-1.6-2.4-3.84l.48-.24h1.92l3.12,2.4,1-1.44V13c-1.7-.85-4.59-1.27-5-3.36l-3.84,1-.72,2.16-1-.72-.24-.48L343.44,13c.59-2.54,2.18-3.06,2.4-6.24L345.36,6l-1.57-1.17,1.09,0-.72-1.2,1.68.48V3.84l-1-1.68-3.12-.48-.24.24a2.68,2.68,0,0,0,1.68.72l-.48.72c-1.54.61-2.39,1.31-4.56,1.44L339,6.38l-.62.34.48.72A5.2,5.2,0,0,1,335.52,4.32Zm115.68,13-.72-1-.24.24ZM433.44,25l1.44.24-1-.48Zm-65.52-3.6-.24-.72-.48-.24-.72,1.2Z" transform="translate(0.49 0.17)"/><path class="cls-1" d="M225.6,33.36l.48-.48a2.5,2.5,0,0,0-.72-1.2c-.35,1.19-.6.9-1.2,1.68Zm1-6,.48-.24.24-.72h-.48l-.48.24v.72ZM228,25.92l1.2-.24-.48-1ZM217.92,44.64c.43.49,0,.17.72.48C218.21,44.63,218.64,45,217.92,44.64Zm-1.44-20.16-.24-1.92c-.27.68-.21.35-.24,1-.31.65-.11.46.24,1Zm.72,9.36H217l-.48.24v.72h.24Zm2.88-25.2-1.44-.48C218.88,8.72,219.36,8.82,220.08,8.64ZM217.2,22.32c.39,1.08.12.64.24,1.68,1-.84.74-.56,2.16-.24l.24-.72-.24-.48-1.68-.72v1ZM211,4.8l1.2-1-1.92-1-.48,1.44.48.24Zm3.6,4.32h.72V7.44l-1.2-.24ZM214.8,12c.32.89.13,1,1,1.44.13-.75-.33-.22.24-.72-.33-.46,0-.14-.48-.48ZM216,31.92c0,1.33-.16,1.43.72,1.92l.48-1C216.74,32.23,216.81,32.27,216,31.92Zm-13,7.44c.33.46,0,.14.48.48Zm.48-7.68c.32.64.56.7.72,0Zm1,6.72c-.43-1.36-1.87-3-1.2-6.24h-.72c-.13,2.63-.67,3.45.72,4.56l.48,2.16ZM209,31.92a9,9,0,0,1-3.84,2.88L205,37.2l4.32-3.6Zm-18.72,8.64c-.14,1-.28,1,.24,1.68.49-.71.35-.59.24-1.68ZM196.8,35l-.72-1.2-.72.24C195.85,35.33,195.9,34.77,196.8,35Zm.48-1.2,1.92,1h.24v-1l-.24-.72-1.2.72c0-.76.58-.63-.24-1l-.72.48Zm0,5.52.72-1.92-.48-.48h-1.68c.69,1,1.23,1.28,1,2.64ZM185,39.84l1-2.64a7.77,7.77,0,0,1-4.08-1L180,37l.48.72ZM171.6,41.52c-.3-.73,0-.29-.48-.72Zm1.68-5.76.48-1h-.48Zm4.08-4.08,1.2-.48-.48-1Zm-2.64-1,1.44-.72a3.48,3.48,0,0,1-1.68-.24v1Zm4.8,9.12-1-2.16c-1.81,1.29-3.06.45-5.52.24v1c2.67,0,3.9,1.23,6.48,1.92Zm-3.36-11.76c.36-.4.38,0,.24-.48ZM164.88,8.4l.24-.72-.72-.48-.72.48.48.72Zm1.2,1.44v.72l.48-.48Zm2.16,17.52.72-.72h-.48Zm-4.8-.72V29l2.16-.48-.48-1.68A4.45,4.45,0,0,1,163.44,26.64Zm0,6c.32.92,0,.5.72,1Zm0-13.92a6.55,6.55,0,0,1,1.2,3.12l1.2-.72c-.32-.67-.41-1.41-.72-1.68Zm2.16,3.84-1.2-.24-.24,1.2,1.44.24Zm-3.84-8.64c-.69,1.06-1.13,1.24-.24,2.16h.24l.72-1.68Zm0,4.56a3.76,3.76,0,0,0-1.68-.72,3.27,3.27,0,0,0,1.44,2.16Zm-3.84,19.68c-.1-.22.19-.16-.24-.48Zm.48-21.84-.48.24S158.92,16.46,158.4,16.32ZM155,14.88l3.12,1.2c-.62-1.43-1.78-1.75-3.12-2.4ZM150.48,3.6l.48-.24-.48-.48ZM151.92,5l.24.72h.48C152.26,5.11,152.56,5.43,151.92,5Zm1.92,6.24c-.33-.46,0-.14-.48-.48Zm1.44,15.36h-1.2c-1.38,2.87.75,1.25,1,4.8l-.24.48-.72-.48-1.2-2.4-1,.72-.24,1.68,1.68,1a4.53,4.53,0,0,0-1.92,1.92l5,2.4.24-.48V36l-1.44-1.92,1-2.64h1.2a9.3,9.3,0,0,1-2.64-3.36l1.2.24ZM155,22.56l-.48.72L157.92,25l.24.72-.48.48L156,25l-.24,1.44c1.07,1.7,1,2,1.68,3.12,2.9.22,3.56,2.26,4.32,4.56.78-.18.52-.69,1,0a2.2,2.2,0,0,0-.24-1.44C163.26,28.65,158.65,24.19,155,22.56Zm-9.12,9.36h1l.48-.48-2.16-.72Zm1-30.48-.48,1.44h.24l1-1,1-.48Zm2.64,33.36.48.72V34.8Zm-.24-11.52-.72-1.2,1-.72c1.2.73,1.37,1.43,3.12,1.68-.18-.83-.29-.62.24-1.2h1.44l-2.88-4.32c-1.18,2.69-3.14,2.56-3.6,6.24Zm-4.56,4.56c1.81.34,4.53.89,5.76,0l-5.52-1-.24.72Zm4.56,3.36h1.2l1-1c0-.95.5-1.14-.24-1.44l-2.4.72Zm-11-29.28c.39-.68-.22-.3.48-.72L137.28.72l-.48,1,.72.48ZM120,41l-.24-.72-.72.24.24.72Zm-2.4-1.2.24-.48h-.48Zm.24-37v1L119,3.6l-.48-.72Zm-6,18.72,1-1.68c-1.06-.22-.75-1-2.16-1.44A3.93,3.93,0,0,0,111.84,21.6ZM114,19.2l.72,1.92h1l.72-1.92-.72-.72A3.76,3.76,0,0,1,114,19.2Zm-12.72,9.6c-.24-.93-.09-.72-.72-1.2l-.72-.24-.48,1.44Zm6.24-6.24v-.24h-1l.24,1ZM109,35c3.14-1.86,7.45-.47,10.32.48l-.72,1h.24l1.68-.48c-.09.8.11.86-.24,1.68-.85.12-1.2.31-1.68,1.44l1.44-1c.46.64.41.6.24,1.44l1.68-.72v1L121.2,41h.24l2.16-2.16V36.24h4.32V36c-.43-.79-.3-.81-1.2-1.2-.53.93,0,.65-1,.48-.4-.56-.67-.57-1.2-1l1-.48-.24-.72c-.72-.38-.27-.15-1.68-.24.09-.75.4-.31-.24-.72-.18.94.1,1.73-1.68,2.16-.1-1-.08-.94-.48-1.44-.7.41-.9.71-1.68.48-2.48-.89-2.93-2.85-4.32-4.8a5.76,5.76,0,0,1-3.12,4.32c-1,.31-1.64.44-2.16,0-1.27-1.51-1.63-3.58-2.16-5.52l-1.44-.24-1,.24-1,1.92.72,1C107.41,31.25,107.87,32.78,109,35Zm.24-8.16.48-.24,2.16-3.6h-.48l-1-.24-.48.24.48,1.68H109ZM95.76,35c-.33-.46,0-.14-.48-.48Zm-.24-7.2.48.48C95.67,27.86,96,28.18,95.52,27.84Zm-6.24,29c.33.46,0,.14.48.48Zm1.44-1.44a5.52,5.52,0,0,0,1.2,2.88C91.72,57.18,91.56,56,90.72,55.44ZM79.92,61.2l.48-.48h-.48l-1-.24Zm.24-37.44c.23-.42.22-.05,0-.48Zm3.36,28.8v-1H82.8C83.12,52.42,83,52.1,83.52,52.56Zm-1,10.08c1.14-.69,1.51-.37,1.68-2.16h-1l-1.2,1.68.24.48ZM85.68,43.2c0-.91-.48-.48.48-1,.35,1.14-.17.6,1,1a14.12,14.12,0,0,1,1.2-5h-1.2l-1.92.72c-.73,1.54-1.67,3.27-1.2,4.56A2.68,2.68,0,0,1,85.68,43.2ZM67.2,68.88l.48.48C67.35,68.9,67.66,69.22,67.2,68.88Zm.72-32.4-.48.24V37c.88-.22.49,0,1-.48Zm1.68-.72c.52.72.16.64,1,.48Zm3.12.72c.43.49,0,.17.72.48Zm-.48-2.16c1.24.48,1.29,1.07,2.64,1.44l.48-.48a6.75,6.75,0,0,0-2.16-2.16l-1.2.72Zm0,26.4a2.69,2.69,0,0,0,1.92.48l.24-.48v-.24l-.48-.24L72.24,60l-.48.24v.48ZM57.84.48,57.6,1h.72Zm4.8,69.36c.59-1.67,1.78-3.84,3.36-4.56l-.48-1.2c-.72.4-.58.4-1.2.48.1-1.09.28-1-.24-1.68-1.37,2.1-2.87,3.31-2.16,6.72l.48.24ZM66,61.92c.33.46,0,.14.48.48Zm-.24-25a5,5,0,0,0,2.16-2.16v-.24H66L65.52,37ZM67,65.52l-.24.72v1.92c1.53-.42,3.75-1.17,4.56-2.4v-.24L69.36,65v1C68.08,65.44,68.65,65.91,67,65.52ZM32.64,74.88l-.24.48c.88-.22.49,0,1-.48ZM47.28,37.2V31.92a8.78,8.78,0,0,0-.48,5.52Zm4.56,9.6L49.2,48.72a2.52,2.52,0,0,0,1.92,1.2Zm-.72,0c.8-.36,1.73-.65,1.44-1.44l-1.2.48Zm4.32-8.88L53,39.36l-1-.24v-.24a28.37,28.37,0,0,1,2.4-8.16,7.45,7.45,0,0,1-4.08-.24c-.87,1.74-.53,5.16-1.44,7l1.92-.72-.24.72c1,3.41-1.89,4.74-3.36,6.48h.48l1.68.24C51.16,41.67,53.59,40.18,55.44,37.92ZM29,64.32c.49-.21.27,0,.24-.48Zm1.2,172.08v3.12h.24Zm1.2-162,1.92-1h-.48ZM25.68,66l.24-.72L25,65l-.72.24.24.48Zm0,.24v.48C25.91,66.3,25.9,66.67,25.68,66.24ZM24,86.88c.32.64.56.7.72,0Zm-2.16,1.44c.33-.46,0-.14.48-.48l-.24-.48-.72-.24v1.44Zm3.6-11c-1,1.67-2.4,2.16-4.32,2.88l.72,1.44h-1l.72,1.2,1.92-.48c-.79-.39-.77-.49-1.2-1.2l.24-1h.24l1.44,1,.48,1.68-1.44,1c3,.09,4.62-.32,7.68,1.44l-.72.48c-1,.22-2-.55-3.12-1a1.39,1.39,0,0,1-.24,1.68v.48C25.7,86.49,25.82,86,25,85.44v.72c.79,1.93,2.1,2.29,2.4,4.56l-.24.48h-1L24.48,89c-1.31,1.1-.95,1.52-3.12,1.44.52,1.65,1.44,2.27,1.92,4.32l-1.68,1a3.18,3.18,0,0,1,1.92,1.68c-2.76.47-3.28-.24-5.28-1.44,3.21,7.41,7.37,15.64,13.44,20.16h.24l1-36.72-3.12-4.56,3.6-2.4L33.12,72l-1.44-.48-.24.24.24,1.2c-1.83-.72-1.5-1.3-3.12-1.92-.72.69-1.23.41-2.4,1.2l-.72,1.92c2.78,1.6,4.85,3.21,5.76,8.4-1.92-.5-2.13-.33-4.56-.24l.24-.48a3.56,3.56,0,0,0,1.68-.72l-1-.72-.48-1a10.27,10.27,0,0,1-1.68,1.68v-1.2l-.48.72.72-3.84c-.38-1-.39-1.1-1.44-1.44-.14,1.88-.5,1.46-1.68,2.16ZM10.08,103c.45-.3.13-.21.24-.48Zm1.44-5v-.24h-1.2l-.24.72,1.2.48Zm2.64-15.84-.72-.24L13.2,83Zm.72,5.28c.67.44,0,.17,1,.24Zm1-5.52.72.48C16.13,81.83,16.56,82.15,15.84,81.84Zm2.64,7.44c.1-1.11.87-1.7.24-1.92L17,89.52Zm1.2-3.36c.93-.5,1.86-.94,1.68-1.92l.24-.48L20.88,83ZM9.36,105.36A6.65,6.65,0,0,1,8.16,108l-.48-.24L5,104.4l-.24,1.2c-1.85-.11-2.09-.6-3.12-.24A3.64,3.64,0,0,1,0,108c.66-8.1,0-22.73,0-33.84V0H217.68l-2.4,2.64c.74.68,1.44.82.72,1.68-1.24.43-1.77-.11-2.64.72,3.74.16,6.57,3.21,9.6,2.64,0-.12,0-.23,0-.34l2.34.3c-1.41,2.15-3,4.85-3.34,5.56,1.54-.75,1.82-1.7,4.08-1.92-.17,2.13-1.19,3-2.16,4.32,1.3-.49,1.73-1,2.88-.48H228L227,19l.24.24c3.34-2.13,12.76-3.74,14.88,1v.24a39.1,39.1,0,0,1-10.56.24l-1.2,1.44c3.63-.1,5.32.77,6.72,2.88a26.69,26.69,0,0,1-6,.72c1,1.41,2.45,1.86,3.36,3.36v.72l-.72,1a10.15,10.15,0,0,1-5.52,0c1.42,4.92,6.55,4.3,6,10.56h-2.16c-3.56.7-5.46-5.81-8.16-7.2-.21-.11-3-.42-4.08-.72a1.72,1.72,0,0,1-.24,1c1.74,1.32,4.45,1.59,3.6,4.8H223c-1.44-.22-1-1-1.44.48a4.4,4.4,0,0,1-3.12,0c0,3.95,2.18,6.57-.48,9.84l-.24-.48c-1.47-1.56-4.37-9.45-3.84-12.24l1.44-.48V35c-.78-.35-1-1.82-1.68-2.88h-.72c-.23,1.6-.61,2,.24,2.88.57-.44,0-.14,1.2,0l-.48.48c-1.09-.41-1.66-.79-2.4-.24l1,.24c-4,1.13-3.42,5.75-8.64,5.52-.94-.55-1.53-1.63-3.36-1.92,1.49,2.7,2.18,9.13,2.88,12-2.9-1.93-4.85-6.54-3.84-11.52l-.72.48c-.72,1.76-1.64,2.82-2.16,5h-.24L196.08,42l-.48.24c-1.37,2.95-4.49,5.84-6.24,8.64l-.48-.24c-.43-3.67-.07-8.56-1.2-11.76l-2.16,1.68,1.68,1.68c.46,1.09,1.41,4.08-.24,4.8-2.33,1-3.37-2.19-5.28-1.68V43.44l-1.92,3.12h-.48V42.72c-3.68.57-4.79-.93-6.72-2.64v.72c-.58.48-.53.51-.72,1.44-.93-.73-3.05-1.49-4.56,0a5.28,5.28,0,0,1,4.56,3.36V49A8.92,8.92,0,0,1,164.16,41l4.56-2.4-1.68-1-.48,1.68a3.2,3.2,0,0,0-2.64-.48c.49-.94.74-.55.24-1.44a1.78,1.78,0,0,0-.72-.72l-1.68,1.2.48-1.2c-2.23.72-2.3,2.87-4.08,3.84-3.25.83-10.75-3.71-13.68-5,.27-.68.21-.35.24-1l-2.4-.72-1,.72c1.22,3.17,2.89,5.08,4.32,7.68l-.48,1.2c-4.49-.45-8.49-3.46-9.36-7.68.63.24.3.17.48-.48l-3.12,1.44.48-1.2v-.24h-1.2c-.1,1.63-.47,1.68,1,2.16v.24c-1.32-.06-1.5-.18-2.16.24l.24.48c1.57.7,2.19,2.26,3.36,3.36l1.2-3.6v.72c1.69.95,4.73,5.91,3.6,8.64A3.08,3.08,0,0,1,138,49.2c-1.61-.9-2.36-2.33-2.4-4.8l-2.88,1.68,1.2-3.12c-2.59-.53-2.64-1.93-3.6-4.08l-1.44,1,.48-1.2h-.24c-.57.37-1.75-.11-3.36-.72.89,1.68,1.84,2,1.92,4.8l-1.44,1.92-.48-.48c-1.47-.69-1.64-1.75-2.16-3.36l-.72.24L121,42.24l.48.24,3.12,1.2-.24.48h-1.2a5.58,5.58,0,0,0-2.88-1l1,3.36H121l-1.68-1.68c.5-.89,0-1,.24-1.68l-1.92-.48-.48.72.72,1.44c.67-.43.41-.35,1-.48v3.12h-1c-.22-1.32-.73-3.35-1.44-3.84l-1-.72c.24,1.16.22,1.21-.48,1.92l-.48-.24.24-1.92c.59-.81.7-.34,1-1.68-1.05-.17-1.66-.19-2.16-1l-1.2-2.88,1.2.24.72,2.16,1.44-1.2.72.48-.48,1.44c.46-.33.14,0,.48-.48l.48-.48c-.15-.49.29-2.54-.24-2.88l-7-1.2c-1.26.3-1.79,2.31-4.32,1.44-2.93-1-4.2-4.52-6.24-7.2a6.83,6.83,0,0,1-2.88.48c0-1,.19-.48-.48-1.2l-.72.48.48.72c2.72.65,2.25,2.47,3.36,3.84.1-1,.08-.94.48-1.44,0,1.74-.4,1.83-.72,3.12.65.15.88-.19,1,1.2-.72-.4-.58-.4-1.2-.48l-.24,2.16-.48-.24c.15-1.37.61-1.33,0-2.16-.83.8-.34,1.48-1,2.4l-.24-1.68-1.68,1V37.2l1.2-.48c-.72-.59-1.4-.59-1.92-1.44l1.44.48a5.38,5.38,0,0,0-2.88-2.16l-.24.24c1.75,3.3,3.35,6.66.24,9.6-.67-1-.47-.87-1.68-.48a11.14,11.14,0,0,0,.24-4.8H89.76c.45,3-.7,3.58-1.68,5.52.77.4.89.79,1,2.16,2-1.17,3.27-2.26,6-2.16,0,4.5-4.85,7-8.4,7.2-.26-.82.14-.6-.72-.48l-.24.72a2.68,2.68,0,0,1,1,1c-.84.2-.35-.3-.72.48l.48.24c2.86-1.57,6.49-1.86,9.12,0L96,54l-.48,1-2.64.72a32.44,32.44,0,0,0,3.84,7.68,7.06,7.06,0,0,1-4.56-4.8c-2-.14-3-.35-3.84,1,1.88-.09,2.79,0,3.6,1L91.2,61l-4.08.48c.21,2.35,1.28,2,.48,3.6a2.89,2.89,0,0,0-1.92,1.2l-6.24-1.68c.08-1.28.16-1.27-.24-2.16a3.08,3.08,0,0,1-2.88-.24c.05,1.54.31,2.38,0,2.88v-.48l-.48-1.68H75.6l-.24.24c.16,2.52.12,9.07-2.88,8.64-.72-.1-1.2-1.39-2.64-1.68-1,1.47-.71,4-1.92,5.28l-.72-.48V71.52l-2.64.72L65,70.56l-1.44.72,1.92,3.12L62.16,73c.05,2.67-.48,4.77-2.16,5.76-2.43-.61-2.06-1.85-2.88-4.08v.48c-9.38,9.62-5,33.55-4.8,50.64l1.92,50.16,1.68,34.56,2.88,23.28,3.12,18.48.72-.48,4.56-9.36h.24c0,4.82.82,8.79.48,13.68l.48-.24c2.39-7.23,14.68-21.08,22.32-23-5.81,8-12.35,14.3-14.4,26.4H0c-.13-11.23-2.27-38,3.6-42.72-1.87,6.2-2.5,19.56-1,27.84h.24l3.6-30.72A233,233,0,0,1,8.4,239.52l.48-.24c1.38-5.69,4.74-14.89,8.64-18.48h.24C17.15,227.86,16,237.59,17,246h.24c.5-5.23.32-11.55,1.2-16.56.92.32.5,0,1,.72l1,4.8c1.1,2.91,3,5.43,3.84,9.12h.24v-.48l2.16-18.72h.24l2.64,11.52.48-.24c2-7.69.39-17.27,1.68-25.92,1.22-8.18.72-17.6.72-26.64,0-19,.7-38.81-4.32-53.52l-7.44-16.32c-1.73-3-4.21-5.54-5.28-9.12l-.48.24-.72,1.44-2.4-1.2-.48,1.68ZM160.08,9.12h-.48l-1,.48v.24l1-.24C160.2,9.31,159.84,9.75,160.08,9.12ZM147.36,7.44l.48-.48-.48-.48-.72.24v.72ZM119.52,29.28l.24-.48h-.48Zm-1-3.36v-.48c-1.49-.19-1.29-.53-2.4-1l-.24.24c.66,1,1.24,1.7,2.16,1.2Zm-39.84,6v-.24l-1.92-.24c.16,1-.42.37.48,1C78.16,32.61,78.12,32.55,78.72,31.92ZM74.16,28.8c.22-.62.62-.36,0-.72l-.24,1.2h.24ZM62.4,48.48l1-1.2-1.2.48ZM52.56,27.6l-.72-1-.48-.24h-1.2c.32.92,0,.5.72,1A1.86,1.86,0,0,0,52.56,27.6ZM46.8,57.36c.23-.42.22,0,0-.48ZM24,55.44V55.2l-1-.48-.24.48ZM20.88,51.6h-.24l-.48.72A1.78,1.78,0,0,0,20.88,51.6Zm-1.44,6.24c-.32-.92,0-.5-.72-1C19,57.6,18.87,57.42,19.44,57.84ZM5.28,81.36l.48.48C5.43,81.38,5.74,81.7,5.28,81.36Z" transform="translate(0.49 0.17)"/></svg>