<svg id="图层_1" data-name="图层 1" xmlns="http://www.w3.org/2000/svg" viewBox="0 0 461.03 259.2"><defs><style>.cls-1{fill:#417172;}</style></defs><title>1-2</title><path class="cls-1" d="M221,62.4l1,1.2a2.46,2.46,0,0,1-1.68-1.2L219.6,61a2.4,2.4,0,0,1,2.16,1.68Z" transform="translate(0.23 0)"/><path class="cls-1" d="M357.36,55.93l-.72,2.39,1.44-1.2v-.24ZM344.92,238.86c.3.54.61,1.08.92,1.62C345.58,240,345.26,239.42,344.92,238.86Zm-191.19-3.63c.15-.39.26-1,.59-1.95l.24.48c.6.69,3,5.06,2.64,2.16l.24-2.16-1.44-1.2,1.68-1.2c.26,5.33,3.16,6.24,4.56,10.08l.48-.48-1.44-2.64.72.24,1.44,2.88-.72-1.68.72-.24.72,1.2-.72-1.68c.59-.33.41-.38.24-1.68a5.69,5.69,0,0,1,1.92,1.92v.24l-.48.24-.72-.72v1l.24.72a3.62,3.62,0,0,1,2.64,1.68l-.72.48,1.2-.24c.2-.84-.3-.35.48-.72-.26-1-1.08-1.55-.48-1.92v-.72c1,.29,1.53-.12,1.68.24l2.64,2.4-.48-1.44,1.2,1-.48-1.2.48.24a3.5,3.5,0,0,0,2.4,2.16l-3.12-4.8.24-.24,1,.24L173,236.4c1.67,1.51,1.78,2.06,3.6,2.64a6.47,6.47,0,0,0-2.16-2.16l2.4.24a2.7,2.7,0,0,0,1.92,2.16l-1.92-3.12c1.69.68,3.1,3,4.8,4.08-.25-1.06-.54-.92,0-1.68a4.21,4.21,0,0,0,1.68,2.16v-.24l-1.92-3.6c1.24.78,1.75,2,2.88,2.88l-.24-2.4,3.36,2.16-1.2-2.64H187l4.56,5.52c-.58-1.55-1.22-2-1.68-3.36l1.2.48-2.64-4.32c1.08-.16.33.18.72-1,.66.66.61.49.48,1.44l2.4.72L191,235l2.4,1.68-2.16-2.88,2.4,1.92c.36-.46.43-.42,1-.72.44.82.31.79,1.2,1.2l-.72-1,2.88,1.44-3.6-5.52,1.44.72c.86.65,1.46,2.87,3.12,4.08l-.48-1.44,3.84,2.88c-.53-1.07-.55-1.37.24-2.16h.24a8.5,8.5,0,0,0,2.88,3.12c.53-.61.29-.14.24-1,2.2,1.21,2.56,4.49,4.56,6-1.3-3.21-3.31-5.5-4.32-8.88l1,.72V234c.82,1.34,1.58,1.58,1.92,3.6l-.48-.24-1-1.92c.33,1.32.58,2,1.92,2.4l-.24-1,.48.24a5.13,5.13,0,0,0,2.4,2.64c-.2-1.15-.39-2.09.24-2.88v.48l1.44,2.64-.72-.24,1.92,2.88c-.55-2.67-1.64-6.4-3.36-8.64v1l-.48-.24-2.64-6.48.48.24c.69,2.24,2.57,1.13,3.12,4.08h.24l.24-1.2v.48a13.05,13.05,0,0,1,2.64,4.56h.24c.07-1.63,1.42-2.39.48-4.56l.72.24c-.14,2.47-.19,2.94,1,4.08l-.72-2.88.48.24,1.2,3.12c-.76.09-.81.37-1,1.2l1.2.72v-1.92l.24.48c-.07,1.6,1.3,2.81,2.4,3.36v-2.4l.48,1V237.6a29,29,0,0,0,4.08,7l-.72-2.4h.24l.72.48V241.2h.24l.48,2.16h.24l-.24-1.44c.82.39.8.39,1.2,1.2l-.72-.48,1.2,2.16v-.48l.72-1-.24,2.4,1.68.72-.24-1.44.48.24c.78,1.68,1.17,2.45,2.64,2.88v-.24c-1.23-1.67-2.69-2.91-3.36-4.56.83-.22.64.1.48-1l5.28,4.56-1-1.68.24-.48,1,.72-2.64-3.12c2.22.47,2.62,1.16,4.56,2.88a16.15,16.15,0,0,1-1-3.36c1.2,1,1.68,2.13,3.36,2.64l-1.2-1.92a7.47,7.47,0,0,1,2.88,2.64c-.38.34-.53.16,0,1l.48.72.24-.24v-1.2l.24.48a6.88,6.88,0,0,0,1.92,1.92c-.65-2.95-2.64-3.54-3.6-6.24,2.35,1.28,2.75,2.63,3.9,3.54l-.06.06h.13c.11.09.23.16.35.24v-.24h-.35s-.05,0-.07-.06l.66-.66.48.24c.25,1.16.12,1.08,1.2,1.44l-1-1.2,1.68-1a2.84,2.84,0,0,0-1.68-1.44h-.24v.24a6.2,6.2,0,0,0,1.2,1.2h-1.2c-.59-1.27-.05-.07-1.2-.72l-.24-1.92,1.2.24-.24-.72c0-.83-.2-.39,0-1.2l1,.72.48,1-.24-.72c1.18.66,1.62,1.85,2.64,2.64-1-2.31-.81-3.11-1-5h.48c-.08,2.07.2,2.92,1.2,3.84H251c.11-1.07-.57-.82.48-1l.24-.48a3.92,3.92,0,0,0,1.68,2.16l-.72-1.92.72.48-.72-1.44H253l.72,1v-1.2l5,3.6c-.29-.7-.9-1.55-.48-2.16l1,1.2-.72-1.68c2.31.77,2,.82,3.6,2.4a4.2,4.2,0,0,0-1.2-2.4l.24-.24,1.68.72c-.45-1.19-1.81-2.64-1.44-3.12l.48-1h1c.32.75.26.89.72,1.2l1.2.48-.72-1.68,1.92.72-1.2-1.44H265l1.92,1.68c-.92-1.92-2.83-2.76-3.36-4.8,1.86,1.57,4.37,4.87,7,6V239l-4.08-4.56c.83-.54.43,0,.24-1l1.44.48-.48-1.44c-.41-.82-1.67-1.73-1-2.16v-.48l.48.24c.57,1.35,1.25,1.64,2.4,2.4a1.78,1.78,0,0,0-.72.72l1-.48a3.43,3.43,0,0,0,1.68,2.64l-1-2.16h.24a10.63,10.63,0,0,0,3.6,2.88L272.4,233l1,.48-.24-1.2.72.48.72,1.44-.72-.24a4.11,4.11,0,0,0,1.92,2.16l-1-2.16c.65-.38.33-.08.72-.72h.24a3.55,3.55,0,0,0,1.2,2.88h.24v-2.88c1.21,1.53,1.5,3.67,3.36,4.56v-.72a6,6,0,0,1-.72-3.6h.24c.39,2.42,1.5,5.47,3.36,7-.67-1.83-2.47-4.61-2.4-7.2l.48.48c.11,1.34,1.77,4.77,3.12,5.76l-1-3.12h.24c.86,1.23,2.67,2.35,3.84,4.08l.48-.24V240c-.91-1.18-1.44-3.08-.72-3.84l2.16,4.08.48-.24v-1.44l.72,1-.24-1.68a4.27,4.27,0,0,0,1.44,1l-.24-2.64c.93.24.11.37,1,0l-.24-2.16.48.24,1,3.6a7.78,7.78,0,0,1,1.44.48v-.24c-.53-1.2-1.64-4.81-1-5.76a9.69,9.69,0,0,0,1.92,4.08c.12-.81-.25-.31.48-1a4.57,4.57,0,0,0,1.92,3.6,27.93,27.93,0,0,0-2.16-4.8l.24-.24,1.44,2.16.24-.72-.24-4.32c.29,1.92.87,4,2.16,5,.38-.38,0-.08.48-.24,0,.8-.32.65.48,1.2v-.72c1.31,1.06,2.51,1.27,3.12,3.12h-.24l-1-1c.41,1.18.5,1.92,1.68,2.4l-.24-4.32.48.24,1.2,3.36H307l-.48-2.88h.24c.48,1.09.77,2.63,1.68,3.6l-.72-2.16c.74-.16.57.18.72-1.2-.73-.3-.29,0-.72-.48.86-.18.3.13,1-.72v.48L312,241l-1.68-4.08h.24v.48l1.68,1.68a24.41,24.41,0,0,0-2.64-6.72l5.28,4.08c-.7-1.79-2.54-3.44-2.4-5.28a15.21,15.21,0,0,0,.72-1.68c2.19,1.84,3.41,5.41,5.52,7.44l.48-.48-.48-1a9.71,9.71,0,0,1,1.2,1.2c-.13-1.1-.68-2,.48-2.64a8.81,8.81,0,0,0,2.64,4.56,14.2,14.2,0,0,0-1.92-5.28c.91-.1.3.27,1-.24-.32-1.07-.86-2.06-.48-3.12v.48c1.73,2.74,1.35,7.3,4.8,8.64v-.72l.48.24L324.72,233c.46-.33.14,0,.48-.48l.48.48c-.51,1.63.59,2.91,1.68,4.32l.48-.24-.48-2.88,1.2,1,.72,1.92h.24l.72-2.64c-.12,2.65.1,3.44,1.44,4.32l-1-2.16,1,.24-1.68-3.6.72-.24,1.92,5.52h.24v-.72l-.72-1.92.48.24,1.2,1.92-.48-2.64c-.38.38,0,.08-.48.24l-1-3.12c.94.51,1.83.66,2.16,1,1.38.93,1.73,2.79,2.64,2.88l.24.48-.48-1.44.48.24.48,1-1.2-3.84,1-.72a14.15,14.15,0,0,0,3.36,8.16c-.31-2.86-.6-2.54-1-5l1.2,1a5.89,5.89,0,0,0,2.16,3.6v-1.68l.48.24a4.37,4.37,0,0,0,1.44,3.12V238.8a13.39,13.39,0,0,1-2.4-6.48h.24l1.2,1c-.3-1-.42-1.36,0-1.92h.24c.46,2.49.83,3.55,2.88,4.8-.13-1.6-.68-2.43-.24-3.12l.24.48-.72-2.64h1v1.92l.72-.48.48-1.68.48.24c0,2.79.62,4,1.2,6,.64-.41.08-.44.72-.24l1,1.44-1.44-5.28,1.68,1.44c.65-.31,0-.24.72,0-.17-1.19-.47-1,0-1.68l.48,2.88H353l-.24-1,.24,1.68,1.2-.48-1-4.08c2.12,1.18,2.66,3.67,4.32,5.28a32.52,32.52,0,0,1-1.2-6.72l1.44.72.24-1.92c.37,3.53.76,4.83,1,6.72.69-.15.39-.64.72,0l1.68,2.88c1.14-.38.29-.72,1.2,0l-.48-1.2c1.52-.35,1.39-2.7,1.68-4.56l.48-.24c.15,3.16-1.14,5.36,1.44,7.92l-.48-4.8c.76,0,.34,0,.72-.24.58-1.4-.38-2.55.48-4.32,0,3.12,0,9,1.44,10.32.55,0,.75,1.12,1.68,1.2l-.24-4.08.72.72-.24-2.64-.48.48v.48c-.8-.73-.66-1.8-.72-3.12h.72l.48,1c-1.26-12.7,1.42-32.05-1.2-45.36l-1-15.6c-1.35-4.75-9.63-12.51-12.48-17.28l-4.8-10.56C349.29,145,330,138.09,326.88,138c-.2-1.59-.78-3.74,0-4.8l19.68,6.48c-2.92-14.36-13.43-25.42-23.52-32.88l-7-3.12c-6.34-4.33-8.85-13.14-14.64-18l-7.44-6c-1.62-1-5.24-1.79-6.24-3.36l.48-3.12h1.44c5.5,1.89,10.94,4.2,14.64,7.92,3.24,3.26,4.19,7.95,8.4,10.32l1-.24c1.66-4.26-1.73-33.45-3.84-37.68l-.48.24c-.25,4.44-1.28,6.94-4.56,8.4-.06-4.59,2.59-5,3.36-7.92.32-1.19,0-2.18.48-3.36v-.24a2.38,2.38,0,0,0-1.68,1.2c1.7,4.22-3.62,2.41-5,1.44l-1.44,1c.19,2.81,1.85,5.17,2.4,7.68l-1.44,2.4c-4.36-1.1-5.24-6.71-6-11-1.7-.3-.83-.69-2.16,0a5.68,5.68,0,0,1-.72,4.08h-.24a2,2,0,0,1-.72-1.44l-1.2,1c-1.69-.57-1.9-2.11-3.6-2.64.2,5.8-.39,8-4.08,9.84-.08-3.82.28-11.32,2.64-13.2.91.12,3.05.09,4.08-1l-1-.48c1.19-.11,1.58,0,1.68-1.2-.86-1.25-.58-1.17-1.44-2.4-1.07.2-1.53.86-1.92.24l-4.08-6.24h-.48l-.24.72v1.92l-.48.24h-1a6.16,6.16,0,0,1-1.68-2.88l-.48.24c-.88,2.59-.66,5.33-3.12,6.48l-.48-.24-.72-1.2c.19-3.52,2.32-5.7.24-8.64h-.24l-.24,1a2.52,2.52,0,0,1-.48,2.4l-1,.24c-.39-1-1.18-1.7-1.92-3.36l-.24.48c-1,1.15-2.57,3.24-2.4,4.08,1.8.63,5.24,4.28,3.12,7-2.52,1.26-6.71-5.08-7.92-7.2h-2.16c1.83,2.32,3.13,3.2,2.88,7.2h-.24c-2-1.11-3.12-2.54-4.8-3.84l-.48,1.2a5.09,5.09,0,0,1,.24,4.08c-2.06.16-2.39-.34-3.84-1.2-.35,1.51-1.27,1.76-2.88,1.92a16.46,16.46,0,0,1-.48,6.48l-1.92,1a3.71,3.71,0,0,0,2.64-.48c.44,1.27,1.06.27,2.4,1l-.72,1.2-3.36.72.48-1.44h-2.16a2.64,2.64,0,0,1-.48,1.2l1.2,1.92c1.12-.81.43.24,1.44-.48.5-.57.21,0,.24-.72,1.68,0,2.69.36,3.12,1.68l-4.32.24c1.08,1.79,2.67,2.44,2.88,5l-.72-.24a12.08,12.08,0,0,0-2.88-3.6A7.36,7.36,0,0,1,247,69.36l-.48-.24v-1.2l1.2-3.12h-.24c-.69.86-.66,1.29-1.92,1.68l.48-2.16-2.16.72.48-2.4V62.4l-3.6,1.44-1-.48v-1c1.68-1.07,3.77-1.57,4.8-3.36l-.24-.24-1.92,1-.24-.48a6.62,6.62,0,0,1,.72-2.16c-5.75.15-3-3.23-5.28-5.52l-.72.24V47.76c-3.41,3.91-.11,6.93-6.24,9.6-.06-3.11.87-4.37,1.92-6.24l-1.68.24L231.6,48c-1.1.2-.75.57-1.44-.72l-.24.48-1.68,2.4-2.16.24-.48-2.64h-3.12a9.18,9.18,0,0,1-3.36,3.6l.48.48,8.16.48v.24c-1.55,2.53-4.67,4.62-7.2,6.24-1.45-1-3.32-2.26-4.56-1l-1,1.68a3.22,3.22,0,0,0-1.2-.72c-.43,1.27-.47,1.27-1.68,1.2.34,1.07,0,.3,0,1.2l4.56-.48c0,3.41-1,4.75-2.88,6.24l-.48-.24-.48-2.16c.61-1.44,1.42-2,2.16-3.12l-5,.24.72-.72c.39-.7.65-.72,1.2-1.2l-1.68.24V58.08c.88-.22.49,0,1-.48l-1,.48-1.92,1c-.25-1.21-1.44-1.54-2.88-1.92-.05,2.44-.91,1.93-2.16,3.36l1,.48-.72,1c-1.68.57-3.27,1.68-5.28,1.2v-.24l.24-.48c.92-1.83,3.06-3.49,4.32-5.28l-.24-1c-2.95-.82-6.35-.52-8.64-2.16V53h.48c1.6-.69,3.43.37,4.56,1,2.38-1.42,3.26-3.32,1-5.28-2.37.14-4,0-4.8-1.44l-.48-.48.24-.24a12.07,12.07,0,0,1,4.32.48c-.26-1.9,1.2-3.57.24-4.56l-3.6,1.92.24-.72L198.24,42v-.48c-1.77.54-2,1.9-3.6,2.64.88-2.47,1.07-5.45,4.8-6.72-.19-1.73-.59-6.38-1.44-6.48-2.07-.53-3.68-.71-4.8-2.16h2.16l-2.64-.48c-.78,1.37-1.34,2.22-3.36,2.4l-.48-.48c.3-3.81,2.67-4.48,2.88-8.4-1.91,1.46-9.53,5.13-9.12,0a8.72,8.72,0,0,1-5-1L180,18.25l.45-.49,5-2.4c-1.09-.42-.74-.3-1-1a4.91,4.91,0,0,1-4.56-.48l.48-.48a6.5,6.5,0,0,1,3.36-2.64l-.72-.72c-1.06.64-2-1.06-3.6-.48l-1.2,4.08c1.16,1,1.5,2.11,1.44,4.32-2.76-1.19-3.57-3.34-5.28-5-1.55.47-2,.26-2.88,1.44,2.44.57,4.65,1.18,5.76,3.12v.24l-7.44,2.88v1c1.68.26,1.8.93,2.88,1.68l-.24.48-2.16,1v1.2c1.75.82,5,.95,7.2,1.44v.48c-1.74.3-1.33.51-1.68,1.68l-1.44-.24c.3-.72.31-.44.24-1.2l-2.88-.48.72,1.92A6.3,6.3,0,0,0,169.2,31v4.56l.48.24,3.84-.24L175,37.2c-1.74.93-1.39,3.45-2.4,4.08.43,2,1.63,2.48,2.88,3.6l-.24.48a2,2,0,0,0-1.92.48l.48,1.2a19.42,19.42,0,0,0-5.76-1.2c.24-.9.46-.19,0-1-.54.08-.1.16-1-.48l-1.68.48L167,47.52l.48-.24c-.25-.63-.38-.4-.24-1l3.84,1.92c-.66,1.67.53,2.4,1,3.6h.24l-.24-1a6.85,6.85,0,0,1,3.12,2.64c-.28,1.24.2,1.67-.48,2.4-2.13-1.38-3.15-3.84-5.28-5.28,1,2.87,5.14,4.33,4.56,6.48l-.72.24-1.68-1.2c.09-1.2.51-.41,0-1.2-.2.44-.11.15-.48,0l-1-1.2-.48.24c-.16,1.59-.29,1.18-1,1.68.32-2.4-1.43-1.84-2.4-3.84,1.3.58,1.91,1,2.88.72l.48-.72c-2,.1-.53-.32-2.4-.72l-2.16,1.2v1c1.06.14.49-.48,1,.48h-1.44A8.34,8.34,0,0,1,161,53l-.48.24c.16,1.34,1.13,3.8-.24,4.32-.58,1.08-5.76,5-7,5.76-.1-4.48,1.58-4.69,1-7.2h-.24l.24,1.2-1.2-.24c-.26-.78,0-.68-.48-1.2L151,55.68c.68-.38-.88-2.38-1.2-2.64.12,1.27-.39.68-.48,2.64h1l-.24,1-.72-.48a4.58,4.58,0,0,1-1,2.88c-.75-.38-.43-.34-1.44-.24A9.1,9.1,0,0,1,148,55.57a10.69,10.69,0,0,0,1.5-4.45c-1.92.87-2.8.87-5.52,1.68l.24-1.44h-.72c-.14.38-.11.38-.72,0l.72-.48a9.91,9.91,0,0,1-5.76-1c-.44,4.55-3.94,6.51-5.52,9.84,5.77-.14,10.64-2.72,15.12-4.56l.24.24c-1.14,1.81-3.12,2.1-5.28,2.88v.24l1,.48-.72.72c-1.28,2.18-8.26,2-10.8,2.4,1.73,2.12,5.05,4.26,5.76,7.2l-.24.24c-2.72,0-5.19-1.17-6.24-2.88l1-.48-.72-2.88-.24.48-1.2.72.24-2.64-2.16,1.2c.43.71.65.65.48,1.44-.87,1.79-2.31,1.42-3.84,1.92H125l3.12,2.64v-.48l.72-2.16.48.24c1,2,4.09,4.19,3.36,7l-1.2,1.68c-1.67-.56-2.45-1.82-2.64-3.84l-2.4,1.68,1-2.64c-1.94-1-2.38-1.71-3.84-2.88v1.2c.76,1.73,1.56,2.76,1.68,5l-.24.48-1.2-1-1-2.16h-.24v.48c-.25,1,.31,1.35.72,2.4-.92.14-1.2.18-1.68.72l-.24.72c1.25.82,1.83,1.9,2.88,2.88l-.24.48h-.48a3.78,3.78,0,0,1-3.36-.48c-4.29,14-17.31,22.1-21.6,36-4.67,15.12-5,40.59-1.92,58.08,1.79,10.28.85,20.84,2.64,30.24,1.82,9.6,1.25,22.13,4.32,29.28.95-.4.73-.42,1.68,0a6.41,6.41,0,0,0,3.84,3.6L107,232.8c2.5.65,3.88,3.59,5.76,5l-6.72-9.12,2.4,1c-1.15-1.19-3-1.06-3.84-2.64l1,.24-.24-1.44,3.12,2.88-.48-1,2.4,2.16-2.4-3.36c1,0,0-.28,1-.24a4.57,4.57,0,0,0,2.4,2.88V229L109,225.6l.24-.48.48.24c.78,1.91,2.95,3.69,4.56,4.8l-.72-1.68.24-.24,2.4,2.16-1.44-2.64c1.21-.13.84.4,1.2-1h.24c-.06,2.34.28,3.53,1.68,4.08v-3.6l2.64,5.52-2.64.72.24.48,2.88-1,.48,1c0-1.34-.23-.92.72-1.68,1.11,4.11,3.27,9.36,6.24,11.76v-.72l-.24-.72a2.51,2.51,0,0,1-1.92-1.2v-.72a5.12,5.12,0,0,1,3.12,1l-.72-1.68,3.84,1.2c-1.17-1.29-1.81-1.26-2.64-3.36l.24-.48,6,3.12v-.24l-2.88-4.32c-.2.84.3.35-.48.72l.24-.72v-.72a9.74,9.74,0,0,1,3.12,1.2c-.87-1.69-3.21-2.63-4.32-5l.72.24c.18,1.09.17,1.2,1,1.68l-.24-2.4.72.48c.27,1.18.3,1.53,1.44,1.92.45-.74-.14-.54.72-.48l1.2,3.12,1-.48-1-1.68a7.25,7.25,0,0,1,3.84,1.92c.15-.31,0-.49.24-.24.88.64.61.44.48,1.68-.75-.69,0-.28-1-.48l.48.24c.92,1.34,2.1,3.8,3.6,4.56.17-.66-.19-.57.48-.48l-2.4-5c1.43,1,1.27,2.09,2.64,2.88a4.64,4.64,0,0,1-1-2.64l2.88,1.92c-.86.9,2.92,3.12,5.28,4.32l-1.44-2.16.24-.24,1.2,1c-1.28-3.72-5.1-5.14-7.44-6.72l.24,1-.48-.24c-.14-1.91-1-2.49-1.68-3.84l5.76,4.32-2.88-5.52a7.19,7.19,0,0,1,4.8,4.32l-.48-.24a3.08,3.08,0,0,0-1.68-1.68l.24.72c.84.17,1.26.94,1.68,2.16h-.24L148.56,233l1.68,2.88c1.31-.5.4-.56,1.68,0l-.48-1.2C153.17,235.8,153.5,235.91,153.73,235.23Zm-19.08,1.17,1.67,1.44a1.84,1.84,0,0,0-1-1.2ZM140.16,47a1.43,1.43,0,0,0,1.44-.24l-.72-.72a4.18,4.18,0,0,0,3.6-2.16l-.48-.24c-.94,1-2.41,1.11-4.08.72l.24,1.92c.72.31.54.15,1,.72ZM72,227.75c1.14.52,2.31,1.19,2.17,1.69.67.35-.13.12.48,1l1,.24v-.24A26.65,26.65,0,0,1,73.44,227l.24-.72.48.24c1,2.22,3.12,3.19,5.28,4.32v-1c-1-1.54-2.19-2.31-2.64-3.84l.72.48L79,228.24l.24-.48c-.82-2.86.63-6.47,0-10.56l-1.44-31c-1.66-10.28-.86-21.32-2.64-32.16-1.21-7.36-2.81-17.74-1.2-26.16,2.19-11.42,3.33-23.91,5.76-36.24l3.6-18.24c-3.54-3.91-6.68-9.29-9.36-13.92l.48.24a3.45,3.45,0,0,0-1.92-2.4c-.4.89-1,.45-1.92,1.2l.24.48c1.2-.31,2.2-.35,2.64,1.2.77.4.27-.12.48.72-.79-.19-.63-.42-1.44.48a1.27,1.27,0,0,1,.72,1.4A6.08,6.08,0,0,1,71,66V65l-.24,1.2h-.24c0-2.35.54-2.69,1.2-4.08h-1.2l-.72.48L67.92,64.8l.72,3.12-.48-.24-1.44-1.92L64.56,67.2c2.06.27,2.42,1.47,3.84,1.92,2.36.75,4.83.46,6.72,1v-.24c-.89-2.08-2-4.08-1.48-6.93a2.51,2.51,0,0,1,0-.27h.48c1,3.08,2.55,7.69,3.84,11a2.89,2.89,0,0,0-2.4,1c-.92-2.31-8.07-4.15-11-4.56,1.39,3.69,8.27,12.27,2.16,15.84-.8-3.34-2.19-6.08-2.64-10.8L62.4,74.4v.24a11.56,11.56,0,0,1,.24,5.28L61.2,81.84l-1.44-.48-.06.23L59,81.36v-.24l-1.2-.24.72-.72,1-1.92-.72-2.16V74.16H59c.61-2,.62-2.73-1-4.08-.46,1.15-1.06,1-1.92,1.68H55l-.72-.48-2.45.49c-.06-.32-.13-.65-.19-1l-1-.24L50.88,72l-1.2-1-1.22-.41s0,0,0-.07l-1.92,2.16h-.24c.34-1.43,1-1.8,1.68-2.88V69.6c-2.25.25-2.2,1.38-4.56,1.68a2.6,2.6,0,0,1,.48-1.68c-1.85.65-2.38,2.37-4.32,3.12V73l2.16-.48-.72,1c-1.86.39-2.92.84-3.84,2.16v.24l1,.48-1,1.92h-1L36,80.4l.11,2.51c-.32,0-.48.37-.35,1.33C33.83,88,33,92.09,27.6,93.12a3.94,3.94,0,0,0-.72-2.4L26.16,90l-3.6,2.88h-.72c.42-1.36.75-2.75,2.64-3.36l-1-1L21.36,89l-.24,1.68-.72-.48A2.75,2.75,0,0,0,19,88.56c.18,4.56-.44,6.75-3.12,8.4a10.13,10.13,0,0,1,.48-6.24h-.24l-1,.24c-.48,2.36-1.88,3-3.36,4.32H10.08l.72-7-1.68,1a6.59,6.59,0,0,1-1.44,4.56l-.24-.48a49.6,49.6,0,0,1-4.32-5.28L5,86.64V86.4l-2.16-.48L2.16,87.6l-.48-.24C-1.14,80.77,0,68.28,0,59V0H97.92c-.46.88-.68.16-.24,1,.35-.15.46.15,1.44.24L98.4,0h88.08c0,.92-.06,1,.72,1.68V0h43V.24c-.5.47-.25.09-.48,1a11,11,0,0,1,7.2-1l.24.24c-1,1.4-2.59,1.34-3.84,2.4v.24l2.88-1,.72,1c-.64.79-.91.65-1.2,1.92h.24c.9-.41.52.28,1-.24l.48-.48.48.72,2.4-1.92V2.88l-2.16-.72,2.88-1-.24-.48L239.28.24,460.8,0c0,18.92-.25,40.26,0,57.6-1.46-.22-2.91,1.12-3.84,2.16,1.89,2.48,3.89,4.14,3.84,8.64h-.24c-2.68-1.19-5-2.19-6.48-4.56l1.68.24L455,60l-2.16,1.68,1-3.6-1,.24a5.07,5.07,0,0,0-.48,4.32l-.72-.72v1.92c2.33,1.61,4.31,5.5,4.56,9.12l-1.92,2.4-1.44-.48L451.2,70.8H451l-1.2,6-1.68,59.28.24,21.12.48,30.48v15.84l1,36.24H450l.48-1.92.24.48c1.31,2-.4,3.75,1.92,5.76-.3-4.34-1.13-4.83-2.16-8.64a1.72,1.72,0,0,0,1-.24,3.11,3.11,0,0,0,1.68,2.64l.48-2.4h.24A8.07,8.07,0,0,0,455,240l-.72-.24.48,2.4H455V240l1.2-.24c.55,1.14.61,1,1.2,1l-1.92-4.32.72-.24,3.12,5.76h.24l.24-1.2c-.55-.06-1.47-2.2-1.68-3.84h.24l1.6,2.72.8,1.36V259.2H0V242.88c.86.66.88,1.83,1.86,1.69l.3.47-.24-.48H1.86L.48,242.4c1.17.36,1.1.77,2.16,1.2l-1.2-1.2,1,.24c-.75-1.15-1.92-1.82-2.4-3.12H.48L.24,239l2.88,1C1.64,238.65.27,237.93,0,235.92l4.8,2.88-.24-1,.72.48L3.6,236.4v-.24c2.89.15,1,.72,4.08,1.92L5.76,235.2l7,4.56-.48-.48c-.8-1.63-2.13-2.06-2.64-4.08l.48.24,2.16,2.88-.24-1c2.16.26,2.3.49,4.08,1.92l-1-2.88.48.24a7.81,7.81,0,0,0,2.88,3.6c.4-.77-.12-.27.72-.48a1.72,1.72,0,0,0,.72.72L19.2,239h.24l1.92,1.68-2.16-3.6c.75-.53.71.3.72-.72l-.24-1.92h.24V235l2.64,3.36-1.44-4.08.48.48c1.34.39,2.61,3.65,4.32,4.56V239l-1.44-3.12.72.48c.5,1.15,2,2.26,3.36,3.12a10.7,10.7,0,0,0-1.68-3.6l2.64,1.2v.24h-1.2a3,3,0,0,0,1.92,2.4L28.8,237.6c1.05-.21.79.11,1.2-.48,1.31,1.23.65,1.18,2.64,1.44v1.2h.24c.22-1.52,0-.67,1-1.2l-.48-.48-.48-1.44h-.24v1.2l-1.44-1.2c.67-.78.46,0,.48-1.2L30.48,234c1.1.4,3.74,1.91,4.8,1.44-1.58-1.53-4.17-2.56-4.8-5l2.4,2.4c-.35-.86,0-.88-.48-1.92,1.09.49.54.65,1.2,1.2,2-1.41,3.08,2.52,5.28,1.2l-.48-.48c-1-.19-2.15-2-2.88-3.12l.24-.24c2,1.45,2,2.44,4.32,3.36-.67-.89-1-.89-1.2-2.4h.24l.72.72,2.4,1.68-2.16-4.32,1.2.48L41,228l2.4,1.92v-.72l1.2,1-1-1.68,2.88,2.16v-.24l-1.68-2.88.48.24a9.41,9.41,0,0,0,3.36,3.36l.48-1.2a4.48,4.48,0,0,0,1.2,2.16l.48-.24v-.24c-.4-1.69-.42-1.06-1.2-2.16,1.22-.19.52.17,1.2-1l.48,3.6c3-.73,2.79.91,4.56,2.16l-.48-1,.72.48-1.92-2.4c1.26.21.86.4,1.2-.48l1,.24a12.23,12.23,0,0,0,5,6l-1.2-3.84h.24v.48l1.44,3.12h.24v-1.2l-1-1.68,1,.48-.24-2.64c.69,1.17.61,2,2.16,2.4l.72-1c.26,1.19.65,1.1,1.68,1.68h.72c-.11-1.26.39-1.62,0-2.88,2.48.8,2.93,2.2,4.08,3.36l-.24-1.2,2.16,1.68v-1.44l-4.32-3.36L72,232.56A22.87,22.87,0,0,0,70.32,227C70.72,227.2,71.35,227.45,72,227.75ZM457.2,243.6c.51.15.42.48,1.2.72a2.54,2.54,0,0,0-1-1.2Zm-5.52,1.92,1.44,2.64A5.15,5.15,0,0,0,451.68,245.52Zm-1.2-3.6.24-.72H450Zm-9.6-181V60h-.24c-.7.82-.57.52-1-.48-.74-.07-1.45.23-1-.48l.72-.48a3.7,3.7,0,0,0-2.16-1l-1.68,1.2v-.24l.48-.72,1.68-1-.72-.24-3.84,1.92c-1.62-.5-2.59-1.53-4.32-1.2-.17,1.26-.49,1.55,0,2.16L432.24,61l-.72.48c-2.57,1.25-8.28-.34-11.52,0l.24-.48c1.72-.77,2.48-1.45,5.28-1.44v-.24c-1.18-2.93.1-5,.48-7.92-2.53-1.09-1.41-2.52-2.16-4.32-2.76,1.67-3.6,4-8.16,4.08a11.42,11.42,0,0,1,2.16-3.6,6.39,6.39,0,0,1,0-4.56l-1.2,1.2c-.77.54-.5.71-.72,1.92-2.27.63-3.33-.21-5.28.24.23.75.76.72,0,1.2-1.57,1.1-3.21.25-4.08,1L407,49A8.16,8.16,0,0,0,409,52.08h2.4l-.24.48-1.2.48.24.48c2.13.42,3.18,1.74,4.32,3.12-4.42.86-5.93-.72-8.88-2.16v.24l1,6.24h2.16c-.23,2.06-1.21,1.94-1.68,3.12l3.12,17c5.12,20.28,12.71,31.53,27.36,42v-.48l.72-16.56A187.61,187.61,0,0,0,440.4,76.8V70.56l-1.92-1.44c-1.32-2-.89-5.29-1.2-7.68h.48Zm-1.2-6.48v-.72l-1-.48-.24,1.2ZM427.2,46.56h-.48L425,48.48C426.54,48.26,426.9,48,427.2,46.56Zm-2.64-1.44.72-1.44-.72-.72c-.52,1.13-1,1.23-2.16,1.68.23-1.65.94-2.76,0-3.36L418.8,47Zm-6.48,193c1.86-21.06,6.07-51.64,2.4-74.4L419.76,150l-5.52-16.08-6.72-9.12-7-16.08c-2.91-7.48-4-16.74-5.76-25.2-1-4.79-.81-11.2-3.12-13.92-1.74,2.78-2.52,5.7-5,7.68l.24.48c2,.13,3.23.83,3.6,2.64l-1.68,1.2a11.51,11.51,0,0,1-7.2-3.84v-.24l2.64-.72-3.12-3.36-.48.24a2.83,2.83,0,0,1,.24,1.68h-.24c-.42-1.17-.77-1.06-1.92-.72a9.57,9.57,0,0,1-1.44,4.56l2.64-.48-1.2,1.68,3.12.48c.58-1.47.73-.5,1.68.24.63,1.76,1.87,3.33,1.2,5h-1a59.43,59.43,0,0,0-6.24-5.28c-.2,2.24.13,6.9-.48,8.88-.37,1.2-2,1.53-1.92,3.12l5,24.24c3.9,16.92,4.66,34.86,8.4,51.12l2.88,28.08,1.92,33.36c1.17,6-.83,10.95,1.68,13.68v-1.44l.48-.72h.24c.14,2.34,2.11,3.14,3.12,4.08.26-2.33-1.09-4.8-.48-6.72V239c1.54,2.58,2.17,6.47,3.12,7.92l.48-.24v-.24c-.24-1.14-2.21-5-2.4-7.44l.48.24c.93,2.62,2.73,5.8,3.12,7.68h.24v-1a9.31,9.31,0,0,1-1.2-4.8h.24l1.44,3.6.48-.48-1-1.44.24-.24a9.13,9.13,0,0,1,3.84,5h.24v-1c-.63-1-3.31-4.79-2.16-6,.19.79,3.27,4.33,5,4.32v-.24a6.21,6.21,0,0,1-.72-3.6h.24l.24.48h.48v2.88c.57.11.82.6,1.44.48l-.24-.48-1-4.56.72.48,1.92,3.12a3.55,3.55,0,0,0-1-2.64c1.25,0,1-.43,1.68-.48l1.2,3.12.48-1.2.72,1.44.24-.48a4.45,4.45,0,0,0,.24-4.8c-.6-1.23-1.55-2.38-2.16-3.6a4.62,4.62,0,0,1,2.64,3.12Zm1-197-1-.72a4.3,4.3,0,0,1-2.16,1.2c0,1-.18.71-.48,1.92l.48.24C416.74,42,418.2,42.22,419,41Zm-4.8,202.32.48-1h-.48Zm-2.16,3.6-.48-.72C411.9,247,411.6,246.53,412.08,247Zm-9.12,1-.72-1.68v1.68Zm-9.6-178.08c0-1.13,0-1.64-.48-2.16-.32,1.16-.65,1.24-.24,1.92l.24.48Zm0-2.64V65.28l-.72-.24.48,2.16Zm-6,4.08V71L384,70.56l.72,1.44C385.82,71.8,386.54,72.1,387.36,71.28Zm-.48-5.52.24-1.2h-1C386,65.59,385.77,65.32,386.88,65.76Zm-.48-5,.48.48C386.55,60.74,386.86,61.06,386.4,60.72Zm.24,7.68-.24-1.2L385.2,67l-.24.48Zm-.24,7.2L385.68,73l-1-.48-.24,1L382.56,72l-.48.72V73a3.43,3.43,0,0,1,3.36,3.12Zm-.24-11.28c.23-.42.22,0,0-.48ZM384,56.88v-1l-1-.72-.72.72.48,1.44H383Zm-1.44,14.4V71l-.72-1.44.24,1.68h.48Zm0,.24h-.72C382.44,71.91,381.88,71.76,382.56,71.52Zm-1.44-7h-.24L380.64,66C381.13,65.38,380.92,65.18,381.12,64.56Zm-.72,0,.48-.48h-.24Zm-2.16-7.44h-.72C377.93,57.72,377.66,57.4,378.24,57.12ZM378,67.44V66c-.69.21-.29.58-.72,0h-.48C377.1,67,377.09,67,378,67.44Zm-1-8.16-.24-.72h-.48l.24,1.2Zm-.48,17.52h-.72C376.36,77.3,376,77.19,376.56,76.8Zm-1.44,2.64.24-.48h-.48Zm-.48,7.92c.87-1.37,1.43-4.63,0-6-.79,1.67-1.46,4.69,0,6.48ZM373,77.52l1-1-1.44-1.2Zm.48-9.12.24-1-.72.24-1.68-.48.48,1.92A3.74,3.74,0,0,0,373.44,68.4Zm-.72-5h-.48l-.72.48v.24C372.4,63.83,372.23,63.88,372.72,63.36Zm-.24,8.16-.72-1.44.24,1.44Zm-6,82.8c3.62-2.76,4.75-21.76,3.6-28.8-3.85-23.54-6.48-45.36-11.76-67.44-3.56.88-3.53,4.72-7.44,5.76A19.76,19.76,0,0,0,355,56.4l-.24-.24h-.24c-.76,4.54-5,6.39-7,8.16V62.88l3.6-7.92-3.84-.24c-.1,1.45-3,6.49-4.56,4.56L343.2,55,341,54.48l.48-.72A8.62,8.62,0,0,1,336,52.32l-.48-1,1.92-1c-1.15-1.64-.93-3.39,0-5.28-4.3.56-6.31,2.63-10.08,1.2l.24-1.44c1.48-2.8,3.8-2.16,6-4.08-.9-1.82-1.85-2.35-.72-4.56L332.4,36l-1.68.72.24,1.44-1.44-.48c-1.62,2.66-5.66,3.29-6.24,6.24,1,1.21,2.18,1.61,2.64,3.36h-1.2a7.48,7.48,0,0,1-3.36-3.36v-.24l1.2.24c-.4-1.69-1.95-2.91-3.12-3.84h-.24v1.2a19.2,19.2,0,0,1,1.92,7.2l3.12-.24-2.4,2.16h.48L325.2,53l-.48,1.68c-5.37,1.13-7-5.56-12.24-6.72l-.48.48v.72l.24.24h2.4l-.24.48-1.68,1h.48l2.64,1.44.24-1,.72.24c.51,1.55,1.73,4.33,1,6.24l-.72,1c-1.77-1.1-2.21-3.28-3.84-4.56,2.51,12.64,1.88,31.25,7.2,41.76,6.67,13.17,20.89,19.49,29.28,31l11,18.48c1.29,3,.94,7.45,3.84,8.88Zm3.12,90.48h-.72v1C369.84,245.28,369.16,245.49,369.6,244.8Zm-.72-.24v-1l-.72-1,.24,1.92h.48Zm-1.68,0-.72-1.92A2.08,2.08,0,0,0,367.2,244.56Zm-2.64-3.84v-.24l-.48-.48-.24.24Zm-3.12,1.2-.48-1.2C361.11,241.59,361.06,241.45,361.44,241.92Zm-3.12-5.52-.72-2.16.48,2.16Zm-1.44-181-.24.48C357.09,55.62,356.77,55.71,356.88,55.44Zm0,182.64-.48-1.2v1.44ZM356.64,52.8v-.72c-.32-1-.26-1.45-1.2-1.92,0,1,.54,1.46,1,2.64Zm-1,185.76-.24-.72-.24.24Zm-.48-1v-1l-.72-1a9.23,9.23,0,0,0,.24,2.16ZM353.76,55l.72-.24-.72-.72Zm-3.12-3.36-.48-.72H348l-.48.72Zm-7.2,182.64.72,1C343.84,234.28,344.16,234.7,343.44,234.24ZM341.52,240l-.72-1.2C341.05,239.68,341,239.51,341.52,240ZM340.08,49l1.2-.24-1-.24ZM337.2,38.4l.24-.72-1.2-.48-1,1,.48.48C336.67,38.26,336.26,38.65,337.2,38.4Zm-.48,3.12.72.48C337,41.51,337.44,41.83,336.72,41.52ZM335.28,241.2l-.48-1C335,241.12,334.79,240.73,335.28,241.2Zm-1-3.36.48-.24c-.05-1-.06-1.16-.48-1.68Zm.24,2.16-.24-1.44h-.24C334.18,239.53,334.16,239.5,334.56,240Zm-2.88-1,1.44,2.4A3.33,3.33,0,0,0,331.68,239Zm-.72.48-1.2-2.16A3,3,0,0,0,331,239.52Zm-2.4,1.44-1.2-2.64C327.36,239.56,327.42,240.23,328.56,241Zm-.24,1.44v-.72l-.48-.48.24,1.2Zm-3.6-1.2.24-.72h-.24Zm0-204.48-.48-.72-2.16-.24-1,.24A9.76,9.76,0,0,0,324,39.36l.48-.24Zm-1,203.76-1-1.68C323,240,323.06,239.9,323.76,240.48Zm-.72-4.56-.24-1v1Zm-2.16,7h-.24c-.21.63.1.84-.48.48l-.48-.72.24,1.2C320.52,243.7,320.7,244.11,320.88,242.88Zm-1-1.2h-.24l-.24.72C319.93,242,319.61,242.4,319.92,241.68ZM319.68,49v-.24C319,47.3,318,44.81,317,44.16c-.09,1.44,1.08,2.91,1.44,4.8ZM319,240.72V240l-.72-.24C318.56,240.58,318.39,240.26,319,240.72Zm1.2.48a4,4,0,0,0-1.68-2.88A5.85,5.85,0,0,0,320.16,241.2Zm-3.6-204.48v-.24l-1-.48.24,1.68.48-.24Zm-1.2,199.44.48-.48a3.69,3.69,0,0,0-1.44-1.44Zm.24,5.28c-.42-2.4-.92-4.39-2.64-5.52l1.44,2.4h-.24l-1.44-1.68A9,9,0,0,0,315.6,241.44ZM310.08,31.92l.48-.72-.48-.24-.24,1Zm-1.92,7.44-.24-1-.24,1h.48Zm-.48,202.32-.48-1.2v.72ZM306,19.44l-.24-.48-1.2-.24-.48.24.24,1C305.36,19.87,305.48,19.86,306,19.44Zm-3.12,19.68,1.2-.48-1-.24ZM301,37.68V37l-.48-.72H300l.48,1.44Zm-1.68-7.2L299,30h-1.68l1.2,1Zm-1-5.52.48.48C298.47,25,298.78,25.3,298.32,25Zm-.72,14.88V39.6l-.48-1.2h-1.44l1,1.92.48-.48ZM297.12,239l-1-1.68.24,1.68Zm-1.2.72-.72-1.2C295.45,239.44,295.4,239.27,295.92,239.76Zm-2.4-187.68-.24-.48H291.6c.48.38.33.31,1.2.48-.31.69-.36.14-.24,1ZM291.6,40.56c-.37-1,0-.59-1-1l-.48.48C290.78,40.57,291,40.36,291.6,40.56Zm-1-5.28V35H289.2l.24,1.92h1Zm-.24,6,.24-.48h-.48Zm-2.64,2.4.72-.72H288Zm.24-6.24-.48-.72-.72.72.24.48h.72ZM286.8,52.8l.24-.48h-.48Zm-1.44-17,1.2-.48-.72-.48-1.2.48.48.24Zm.24-2.64-1-.24C285.19,33.25,284.93,33.32,285.6,33.12ZM285.12,60l.48.48C285.27,60,285.58,60.34,285.12,60ZM282,38.64c0-1.16.23-1-.24-1.44l-1-.72-.72,1.2v.24Zm-4.56.24v-.24l-.72-.72-.72.48.24.72.48.24Zm-4.08-5.28h-1.2l-1.44.72,2.4,1C272.86,34.35,272.79,34.65,273.36,33.6Zm-1-3.36c-1.91.45-2.06-.58-3.84-1L265,30.72h.48C266.26,31.53,271.27,31.4,272.4,30.24Zm-.72-5.76-1-1.92c-2.24.36-2.11-.34-3.84-1.2l-3.12.72c1,1.2,2.29,1.68,3.12,3.12-1.13,1.81-3.36,1.7-4.8,3.12.4,1.22.73,1.44,1.68,1.44,1.25-3.93,4.16-3,7.68-4.56ZM270,34.32h-1.68c-.15,1,0,1.07-.48,1.44a4.53,4.53,0,0,1-3.84,0l.24.48,1,.24v.24c-2-.22-2.44-1-4.32-.72v.72c2.41.41,3.33.93,4.56,3.12l1.92-1.68C267.92,36.29,268.87,35.54,270,34.32Zm-2.4-6.48-.48-.72-.24.48Zm-3.36,216.24c.23-.42.22-.05,0-.48Zm-.24-.72v-.24c-.46-.65-.39-.61-1.2-1l-.24.48Zm-2.16,1h.72l-1.68-1.68Zm-1.2-211.44v-.24l-1-.24-.48.72v.24l1-.48Zm-.72-9.6.24-.72h-.72ZM258,32.16v-.72l-.48-.48c-.56.51,0,.11-.72.24l.48.24Zm-.24,10.56-.48-2.4-2.4-1,1.2,2.64Zm-8.88-34.8h.48c-.38-.65-.08-.33-.72-.72ZM247.2,4.08l.24-.72h-.24ZM247,63.36v-1h-1l.48,1.2Zm0-16.8-.48-1-.72-.24.72,1.68Zm-1.68,11.52c1.48-.68,1,.19,1.68-.24-.74-1.34,0-1.63-.48-2.64Zm1.2-6.24c-.11-.77.22-.82-.24-1.44C246.2,51.16,246,51.23,246.48,51.84Zm-1-48.48.24-.72-1.2-.48ZM244.8,61v-.24h-.72l-.24.48C244.49,61.51,244.3,61.31,244.8,61Zm0-3.12V55.2L242.4,54l-1,1.92h2.64Zm0-52.08-1.2-1.44h-.24l-.24,1.2,1.2.48Zm0,49.2a5.93,5.93,0,0,0-2.16-2.64A6.33,6.33,0,0,0,244.8,55Zm-5.28-3.6L241,49.68h-1.2C239.47,50.38,239.26,50.62,239.52,51.36Zm-3.12,193,1.92,2.4A2.83,2.83,0,0,0,236.4,244.32Zm-1,7-1.2-1.92C234.43,250.58,234.61,250.76,235.44,251.28Zm-2.88-5.52,1.2,1.2A3.82,3.82,0,0,0,232.56,245.76Zm-1-2.16,1.92,1.44A4,4,0,0,0,231.6,243.6Zm.48-195.84.24-1.2h-.24C231.83,47.48,231.61,47.05,232.08,47.76ZM229.92,2.88l.72.48C230.21,2.87,230.64,3.19,229.92,2.88Zm-.72,1.68-1-.48C228.71,4.58,228.33,4.33,229.2,4.56Zm-.72-1,.24-.24L228,2.88ZM226.8,245.76l.48-.24-.48-.48ZM225.36,53,221,52.8l-.72.24a2.5,2.5,0,0,1,0,2.4l.48.48L223,53.76c1.28.32.78.73,1.68.24C225.1,53.64,225.06,53.57,225.36,53Zm-1.92,194.64,1.44,1.68A3.68,3.68,0,0,0,223.44,247.68Zm.72-1.2-1.44-4.8c-.35,2.19.48,3.24,1.2,4.8Zm-2.16-4.8.24-1.92h-.48v1.92Zm-1,6.48.72.72A1.72,1.72,0,0,0,221,248.16Zm-1.2-6.72,1.44,1.2C220.89,241.6,221.08,241.68,219.84,241.44Zm.72,2.88H221c-.31-1-.13-.75-1-1.2Zm-.72-187.44.48.48C220,56.9,220.3,57.22,219.84,56.88Zm-.48-10.32c.47-1.58,1.07-2.07.72-4.08h-1L218.64,47Zm.48,203.28-.48-1.2v.72ZM218.16,42.48v-.72l-1.68-1.2c-.68,1-1.34,1.3-1.68,2.64l.48.48Zm-.24,202.08v-.72l-.24-.72-.48.72c.06-2.67.07-5.88-2.16-7.2,0,3.19,1,6.57,2.16,7.92C217.7,244.14,217.21,244.44,217.92,244.56ZM217,19l-.24-.48v-.72l-.72,1Zm-.48,36,.24.48C216.62,55.22,216.91,55.28,216.48,55Zm-.24,1c-.4-.87-.07-.56-1-1l-.24.48v.24C216,55.73,215.48,55.56,216.24,55.92ZM215,13.68l-1.2-.48C214.34,13.88,214.29,13.87,215,13.68Zm-1.2,33.84.48-4.08c-.79,1.34-1,1.32-1,4.08h.48Zm0,4.56v-.72h-.72l-.24.24ZM212.4,233.76,210,230.4A5.67,5.67,0,0,0,212.4,233.76ZM210.72,13.68l1.68,1.68A2.65,2.65,0,0,0,211,13.44Zm.48,32.16,1.2-.24a1.72,1.72,0,0,0-.72-.72Zm0-12c.78-.38.51-.06.48-.72Zm.48,209v-.72L210.24,239C210.36,240.4,210.55,241.91,211.68,242.88Zm0-204.48-1-1.68-2.16.72-.24,2.16ZM211.44,5h-.72L210,7.92C211.19,7.46,211.3,6.44,211.44,5ZM211,58.8l.24.48C211.1,59.06,211.39,59.12,211,58.8Zm-.48-31.68v-1l-.72-.24-.72-.24v1.44l1,.24ZM210,15.6l-.24-1-.72.72v.24ZM208.32,53l.72-.48h-1c.31-1.12.36-1.09-.72-1.92-.33,1.59-.11,2.09,1,2.88Zm-1-22.56v-.24c-.29-.38-5.51-4.92-5.76-5-.17,2.33-1.23,4.22.24,5.28L204,31l-.48-.72A12.46,12.46,0,0,1,207.36,30.48ZM205.92,43.2l.72-.72-.48-.24Zm1.44,3.6a4.69,4.69,0,0,0-1-2.4C206,45.81,206,46.2,207.36,46.8Zm-1.68-13,.24-.72L201.36,31l.72,3.6Zm-.24,4.08v-.24H203l-1.44,2.16.48,1.44.48.24h.24A10.48,10.48,0,0,1,205.44,37.92ZM204.24,35V34.8l-.48-.24-.24.24.24.48Zm-.72,9.12.48.48C203.67,44.18,204,44.5,203.52,44.16Zm.24,10.32v-.72h-.48l-.48.24v.48Zm-.48-19V35h-.72l-.24.24C203,35.72,202.35,35.45,203.28,35.52Zm-1,202.8.48-.48-.72-.24ZM201.6,22.8h.48c-.3-.73,0-.29-.48-.72Zm-1.92,213.84c.49-.43.17,0,.48-.72a1.72,1.72,0,0,1-1-.24ZM199.2,28.08v-1a9.32,9.32,0,0,0-1-2.64l-3.12,3.12A7,7,0,0,1,199.2,28.08ZM199,22.56l-1.2-2.88h-1c.92-.42.7-.07,1-1.2-.52-1.73-.2-1.19-1.2-2.16-.46,1.65-1.44,1.48-1.92,3.12.31.79.22.29.24,1.2l1.2-.24c-.77,1-1,1.55-1,3.6l1.92-.24v-.24l-1.2-1.44v-.24Zm-.72,18.72L197,39.6l-.72.72Zm-6-21.6a1.73,1.73,0,0,0,.24-2.4h-.24l-1.92,1.92h.48ZM189.12,18v-.72h-1.2C188.4,17.92,188.19,17.75,189.12,18Zm-.48-10.32.48-.24-.72-.72-.48.24Zm-1.2,12v-.24l-.72-.72h-.24l-1.2,1.44ZM185.52,240l.48.72C185.7,240,186,240.43,185.52,240Zm-.24.72-.48-1.44v1.44h.48Zm-3.36.72-.24-1V241l-.48-.24ZM176.64,9.12l-.24-1h-2.64l1.68,2.64v-.48Zm-1,231.36-1-.72C175.18,240.34,174.87,240.15,175.68,240.48ZM172.56,7.2l.24-2.4h-.48V7.2Zm-2.64,234.48h.24a1.8,1.8,0,0,0-1-1.2ZM169,15.12l.48-1.44L168,15.36Zm-.72,38.16.48.48C168.39,53.3,168.7,53.62,168.24,53.28Zm-1.68-36V17l-.72-1-.24,1Zm-1.68,32.16L166.56,48c-.31-1-.13-.75-1-1.2Zm.48-2.88c.23-.42.22-.05,0-.48Zm-1.92-21.12h.48a1.78,1.78,0,0,0-.72-.72c.15.87.1.73.48,1.2Zm.24,24.24c.23-.42.22,0,0-.48Zm-.24-7.2.24-.48-1-.24v1Zm.24,200.64-.72-1.44.48,1.44Zm-.48-193L163,47.52l-1,1c1.07,1,.83.44,0,1.68v.24Zm-.72,3.12-.48-1h-.24l-.24.48Zm-1.44-1c.5-.55.28-.09.24-.72Zm-.24-49c.43-.32.36,0,.24-.48ZM160.56,240a4.12,4.12,0,0,0-2.4-2.64C158.59,239,159.51,239.17,160.56,240ZM159.12,54.48l.24.48C159.26,54.74,159.55,54.8,159.12,54.48ZM158.4,13.2h1l-.48-.48c-.33-.46,0-.14-.48-.48Zm.48,230.4.48-.24-.72-.48ZM157.44,4.8l1-.48h-.72Zm1,10.8c-.28-1.18-.13-1.53-.24-1.68l-.24-.48-1,.48-.24,1.68C157.85,15.45,157.64,15.92,158.4,15.6Zm-1,223.92c.61.28.1.43.72.24-.14-.63,0-.84-.48-1.44-.14,1.06.48.49-.48,1-.47-.81-.38-.71-1.44-1C156.28,239.4,156.26,239.67,157.44,239.52ZM155.28,14.16c.33-.51.44-.13.24-.72Zm.24,36.72v-.72h-1l-.24,1h.24Zm0,8.64-.72-1-.48,1.68C155.2,60,155,60,155.52,59.52Zm-1-37.68.48-.48-.72-.48Zm-.48,220.08,1,1.2C154.71,242.26,154.82,242.36,154.08,241.92Zm.48-234.48L154.32,7l-.24.48Zm0,238.08a1.72,1.72,0,0,0-.72-.72A1.78,1.78,0,0,0,154.56,245.52Zm1.2-4.08a6.2,6.2,0,0,0-2.4-3.36A7.91,7.91,0,0,0,155.76,241.44Zm-2.4-4.08v-.72l-1.2-.48Zm0-230.88h-.24c-.76.59-.83.34-1.2,1.44l.48-.48C153.26,7.3,153,7.75,153.36,6.48Zm-.24,19.68c.23-.42.22-.05,0-.48Zm-1.92-7,.24-.48-.72-.48L150,19h.48Zm-.72,33.6L150,51.12C149.66,52.14,149.7,52.25,150.48,52.8Zm-1.92,188.64,1.92.48a3.44,3.44,0,0,0-2.16-1.2Zm1.2,3.12-.24-.48h-.24Zm1.92,0a6.45,6.45,0,0,0-2.4-2.4A7.07,7.07,0,0,0,151.68,244.56Zm-2.64-.24c-.29-.91-.31-.94-1-1.44a1.72,1.72,0,0,1-.24,1A2,2,0,0,1,149,244.32Zm-3.6-229.44v-.72l-.48.24ZM145.2,28.8v-.24l-1-.72.72,1Zm-.48,19.44c.33-.51.44-.13.24-.72Zm-1-6.24v-.24l-1.92-1.68v-.24l1.92-.72-1.68-1c-.76.7-.3,0-.48,1a2.5,2.5,0,0,1-1.2-.72c-1-.64.39-.51-.72-1-.78,1.21-1.44,1.61-1.68,3.84l.72.24C140.34,42.3,141.16,42.59,143.76,42Zm-2.88-7.92,2.88.24-1.68-1.68c-.39-.75-.22-.56-1-1l-.48,2.4ZM143.76,13c-.41-1-.13-.67-1.2-1C143.09,12.88,143.11,12.47,143.76,13Zm-.24,37.68c-.43-.49,0-.17-.72-.48C143.23,50.65,142.8,50.33,143.52,50.64Zm-1,190.8-5.52-5,.24,1.44C139.17,239.42,140.09,241,142.56,241.44ZM141.12,37.2l.72-.48h-.48Zm-.48-17.52,1-1h-.24Zm1,6.48-.48-.72h-1.2V24h-.24a5.26,5.26,0,0,1-4.8-.24c.11,1.83,1.23,5.06,2.4,6C138.21,27.89,140.23,27.55,141.6,26.16Zm-1.44,4.56-.72-1c-.65.9-1.61,2.13-1.2,3.36l.48-.24Zm.24,206.4c-.42-.58-.25-.4-1-.72C139.8,236.86,139.87,236.82,140.4,237.12ZM139.68,43c.23-.42.22-.05,0-.48ZM139,235.2l.48.48C139.11,235.22,139.42,235.54,139,235.2Zm-1.2-187.92,1-.48H138ZM138,20.16a7.6,7.6,0,0,0-1.68-3.84c-.22,1.82-.44,3.63-.65,5.45l-.07.07v.48c0-.18,0-.37.07-.55A5.47,5.47,0,0,1,138,20.16Zm-2.16,25.68.72-.72h-1.2Zm-1.2,187.92,1.44,1A2,2,0,0,0,134.64,233.76Zm3.36,6.72a3.53,3.53,0,0,0-2.4-2.4A5.9,5.9,0,0,0,138,240.48ZM134.64,48c.63-.67.72-.47,1-1.68-1.77.14-1,.28-2.4-.48-.73.81-.9.63-1.44,1.2a11.4,11.4,0,0,0,.24,4.8l1-.24c-.14,2.2-1.07,2.9-1.92,4.32l1.68-.48c.25-3.88,1.16-4.83,2.64-6.72A1.78,1.78,0,0,1,134.64,48Zm-.48,198.48.48.48C134.31,246.5,134.62,246.82,134.16,246.48Zm-1-211.92,1,1.44C133.85,35.18,133.92,35,133.2,34.56Zm1.68,209.76c-.43-.87-.82-1.69-1-1.92l-.48.48C133.7,244.18,133.73,244,134.88,244.32Zm-1.92-1,.24-.24-1.68-1.68-.24.72ZM129.6,59.52l.72.48C129.89,59.51,130.32,59.83,129.6,59.52Zm-1.2-6,.24.48C128.54,53.78,128.83,53.84,128.4,53.52Zm0,4.08v-.24c0-1.06,0-1.18-.48-1.68a5.33,5.33,0,0,0-1,3.12ZM119,235.68l1-.48h-.72Zm.72,1.92-.48-.48C119.61,237.58,119.3,237.26,119.76,237.6Zm-1.44-1.2.48-.48h-.24Zm-5-2.16,2.88,2.64A5,5,0,0,0,113.28,234.24Zm.48-178.8,1.44-4.56h-.72l-1.68,1.44,1,3.6ZM111.6,234l.72.72C111.94,234.07,112.24,234.39,111.6,234ZM113,59c-.57-3.18-1.24-5.36-4.08-7l-.72,2.64-.48-.24c-2,.31-3.1-1.23-4.32-2.4l-.24,3.12-1.68.24L99.36,72.72c-1,6.29-.08,12.86-1.2,18.48h.24l.48-.24,8.64-15.36-1-.48,3.12-5-.24-.24c-1.24.66-4,1.89-5.52.72a1.78,1.78,0,0,1-.72-.72l.48-1.2,2.88-.48v-.24c-.82-1.75-1.92-1.65-1.92-2.4,1.42-.75-.09-.79.72-1.44,2-1.62,4,.38,5.76.48l-.24-.48,1-1.44-.48-.48a3.88,3.88,0,0,1-3.84-.24v-.24c.52-1.31,1.08-1.24,2.16-1.92l-.72-1a6.41,6.41,0,0,1-2.88-2.64l2.88-.24C110.51,56.72,112,58.77,113,59ZM111.6,230.88h-.72C111.48,231.27,110.92,231.12,111.6,230.88Zm-1.44-163,.24-1.2-1.68,1.2.24.48h1.2ZM108,67l.48-1h-2.4Zm-3.36-15.12V51.6l-.72-1-.24,1.2Zm-1,183.12c.38,1,.41,1,1.44,1.44A3.9,3.9,0,0,0,103.68,235ZM85.92,22.56l-.24-.48H85.2l-1.68,1.68ZM85.2,56.88c0-1.69.18-3-.72-3.84l-.48.48c.09,1.75.41,1.87,1,3.36ZM84,1.92l-.48-1h-.24L83,1.44Zm-1,48v-.24l-1.2-.48-1,.48v.48l1.2.24Zm-2.16-29-1,.48c-.56.66-.33.75,0,1.68v.24h-.24c-.92-.66-.77-1-1.68-.48l-2.16.72L75.36,25l.24.72,2.16-.24V25.2l-.24-1.68c1.51.17,1.52.54,2.4,1.2l.48,1A26,26,0,0,1,80.88,20.88ZM79,42.48,79.2,42h-.48ZM76.8,29.28l1.44-.72c-.44-1.07-.32-1.39-1.2-1.68a5.76,5.76,0,0,1-3.36.24v.24l1.44,2.16a2.73,2.73,0,0,0-1.2,1.2c1.53,0,3.13-.12,3.84-1Zm-.48,5.52c1.08-.79,1.09-.34,1-1.92-.75.55-.91,1-1.92.72a2.68,2.68,0,0,0,1-1,5.33,5.33,0,0,1-2.88-.72l.24,2.16C74,33.52,75,34.63,76.32,34.8Zm-1.44-8.88-.24-.72c-.24-.93-.09-.72-.72-1.2-1,1.11-1.16.84-.72,2.4ZM74.4,237.36v-.24l-1-.72.72,1ZM73.2,19l.48.48C73.35,19,73.66,19.3,73.2,19Zm.24,1.92L73,19.44C72.65,20.58,72.22,20.4,73.44,20.88Zm-2.64,215,.72,1.2C71.27,236.24,71.32,236.41,70.8,235.92Zm-1-.72v-1l-1.2-1Zm-.72.72v-1l-1.44-1,.24,1.44,1,.48ZM67.44,59.76v-1.2c-1.76-.09-1.78-.27-2.64.72l-1.44,1,.48.72,1.2.24A3.32,3.32,0,0,1,67.44,59.76ZM66,62.4l.24-.72L65,61.44l.72,1Zm-1.44,2.4.24-.72-2.4-1.44a1.78,1.78,0,0,1-.72.72l.24-1.2-2.16-1.68c-.26,1.06,0,1.81-.72,2.64l-.24-1.2h-.24v.24l.72,1.68c-1-.51-1.18-1.19-1.92-1.92v1.92a7.54,7.54,0,0,1,5,2.88l.48-.24V63.36l1.44,1.92h.24Zm.24,172.08-.48-.48C64.65,236.86,64.34,236.54,64.8,236.88ZM64.08,235c.23-.42.22-.05,0-.48ZM62.4,69.36h-1C62.23,69.67,61.71,69.81,62.4,69.36ZM61.92,58.8l.24-.48c-.29-.54-.26-.6-.72-1l-.48.72.72.72Zm-1.2,8.64V67.2H60C60.56,67.71,60,67.31,60.72,67.44Zm-1.2-11.52-.72-1.44C58.9,55.73,58.64,55.44,59.52,55.92Zm-1.68.72.72-1.44H56.88l-1.2,1,.24,2.4h.24l.48-.72c-.25-.63-.38-.4-.24-1C57.35,57.15,56.81,57.22,57.84,56.64Zm.24,179.52-1-1C57.51,235.81,57.42,235.78,58.08,236.16ZM51.6,61.92l1.2-1L49,60.48a1.72,1.72,0,0,0,.24,1l.48.24,1.2-.72c.19,1.06.14.89.72,1.44Zm-3.12,7.2v-1.2c-.46-.58-.15-.39-1-.72A7.64,7.64,0,0,1,47,68.88l.72.24Zm-1.2-6.72.48-.48-1.92-.48C46.4,62.09,46.23,62.12,47.28,62.4Zm.24,3.84-.24.48C47.73,66.42,47.41,66.51,47.52,66.24Zm.24-26.64a1.72,1.72,0,0,0-.72-.72A1.78,1.78,0,0,0,47.76,39.6ZM45.84,63.12l.24-.72-1.92-1.68c-.22,1.38-.16,1,.72,2.16Zm-2.4-3.6h1.2L43,58.8,42,59l.24.48.72.24ZM44.16,233l.48.48C44.31,233.06,44.62,233.38,44.16,233Zm-2.64-3.12,2.16,1.2c-.49-.85-1-1-1.92-1.44ZM43.44,233l-1.68-1.92C42.41,232.1,42.45,232.63,43.44,233ZM42.24,34.8v-.24l-1-.48.48,1Zm0,199-1.68-1.44A2.75,2.75,0,0,0,42.24,233.76Zm-1.92-198-1.68-.48V36l-1.2.24,1,2.88.48-.24A8,8,0,0,1,40.32,35.76ZM36,38.88l.48,1C36.26,39,36.49,39.35,36,38.88Zm-1.44,199.2h1.68l-2.4-1Zm-1-171.6,2.4-1L35.52,65a1.84,1.84,0,0,0-1-1.2Zm3.12,175c-.42-.72-.42-.8-1.2-1.2A2.12,2.12,0,0,0,36.72,241.44Zm-1-166.32V74.4l-1-.48C34.88,75.08,34.3,74.78,35.76,75.12ZM35,241.92l.24-.24-.72-.48ZM33.6,71.52l1.68-.72c-.48-.38-.33-.31-1.2-.48-.55.58-.44.17-.72,1.2ZM35,239l-.24-.48-.72-.24V239ZM34.56,63.36v-.24l-.24-1-1.2-.24,1,1.68Zm-.72,173.52-.48-.48C33.69,236.86,33.38,236.54,33.84,236.88Zm-1.68,3.84-.48-1.2C31.83,240.39,31.78,240.25,32.16,240.72ZM28.8,88.56l2.88-1.2-3.6-1.44A4.21,4.21,0,0,0,28.8,88.56ZM30.48,241,30,240v1ZM26.88,84l-.48-.72V84Zm-2.64-.24V81.84a2.35,2.35,0,0,0-.48,1.44ZM24,244.56v-.24l-1.92-1.68,1.68,1.92ZM13.44,240l1,1A2.68,2.68,0,0,0,13.44,240ZM12.72,84c-.42-.73-.13-.57-1-1l-.24,1.44A2.14,2.14,0,0,0,12.72,84ZM9.6,80.16l.72-.72H9.6ZM6.48,83.52,7,83l-.48-.24L6.24,83ZM2.88,242.88l.48-.24-.72-.48Z" transform="translate(0.23 0)"/><path class="cls-1" d="M283.68,47.28l.48,1.44a7.47,7.47,0,0,1-5.28-.48l.48-.72.48-.24Z" transform="translate(0.23 0)"/><path class="cls-1" d="M283.2,49.44l-.48.72a10,10,0,0,1-9.6,5.76l.24-.48c3.59-.66,6.12-4.11,8.88-6Z" transform="translate(0.23 0)"/><path class="cls-1" d="M229.2,61.92c-2.06-.49-6.81-.05-8.4-1.2v-.24c1.72.07,1.25.37,2.64-.48C226,59.93,228.1,60.47,229.2,61.92Z" transform="translate(0.23 0)"/><path class="cls-1" d="M211.2,64.32c.64,1.36-.27,2.93-1.44,3.84l-.48-.24V67Z" transform="translate(0.23 0)"/><path class="cls-1" d="M210.24,62.16l.48.24c-.82,1.46-1.66,1.81-3.36,2.4l.72,1.92a2.38,2.38,0,0,1-1.68-1.2l-.48.24A4.9,4.9,0,0,1,204,68.88h-.48l-1.2-1.2c.25-3.46,2.39-4.55,3.84-6.72.51.52.58,1.78.72,2.64l2.64-1.92Z" transform="translate(0.23 0)"/><path class="cls-1" d="M180.24,32.4h.48c-.53,1.51-1.28,1.77-1.68,2.88-1.16,0-.82-.23-1.44.24.62.1.13-.23.72.24l-2.88,1C176.86,35.05,179,34.22,180.24,32.4Z" transform="translate(0.23 0)"/><path class="cls-1" d="M179.28,47.28l-.24.48h-5.52l4.08-1Z" transform="translate(0.23 0)"/><path class="cls-1" d="M178.08,33.12,174,35.52l.24-.72,2.88-2.64C178,32.76,177.54,32.36,178.08,33.12Z" transform="translate(0.23 0)"/><path class="cls-1" d="M166.56,58.08l-.72.24a2.72,2.72,0,0,0-1.68-1.44l1,2.16-1-.48a23.18,23.18,0,0,0,0,7.2h-.24v-.48c-2.4-1.91-1.52-7.08-1-9.6l1,.24.48.72-.72-1.92C165.66,54.92,166.55,55.9,166.56,58.08Z" transform="translate(0.23 0)"/><path class="cls-1" d="M61.44,84.24l-.72,1.44-2.4.72L57.6,85l-.24.24c-.08.58-.57,1-.48,1.44,0,1,.41,1.11.72,2.4L55,92.64h-.24c-.19-1.93.49-2.53,1.44-3.84-1.39.06-1.15-.13-2.4-.48l.72-1.44c.87-.15.73-.1,1.2-.48-3.41.12-3.52,2.09-6.48,1.68.57-2.17,2.29-2,3.36-3.6-1.68,0-2.32-.29-2.16-1.44-4,.88-6.57,3.8-10.8,3.12-.91-1-2.7-3.25-3.49-3.25L36,80.4c.4-.43.4-.19,1.2-.48l.24-.72-.24-1,1-1.92,1,.48c-.65-.64-.87-.61-1.2-1.68,1.77.37,1.49,1.13,3.36,1.44l.24-2.4h.24l.24.24-.24,3.36c3.12-1.79,5.42-3,6.7-7.13l1.22.41.48,1.44L51.84,72c0-.08,0-.15-.05-.23l2.45-.49.72.48h1.2l.24.48c1.47.4,1.52,1,2.4,1.92v1.92l-.72,3.6c-1.32.26-1.31.53-2.4,1.2v.24l1,1.92c1.46-.11.54-.52,1.44.24l1-1.92.66.23c-.35,1.17-1,1.55-.9,2.41v1A2.92,2.92,0,0,1,61.44,84.24Zm-11.52-6,4.32,1.68c-.64-2-.91-3.94-1.44-5.76l-2.4,1.68Zm3.84,5,.24-.72c-.48-.38-.33-.31-1.2-.48l.48,1.2Zm0,2.64L54,85.2h-.72Zm-1.44-5v-.24l-3.36-1-.24.72Zm-1.2,1.92.48-.48h-.24ZM43,79l.72-1H42.24l-.48.24.72,1.92C43,79.61,43.19,79.73,43,79Zm.48,2.4-.48-1-.48,1.2Zm-1,1.2v-.24a3.27,3.27,0,0,1-.72-.72l-.48,1.2Z" transform="translate(0.23 0)"/><path class="cls-1" d="M39.12,88.56c4.94,0,8.66,2.17,10.08,5.76C46.88,93.29,40.24,90.92,39.12,88.56Z" transform="translate(0.23 0)"/><path class="cls-1" d="M39.84,92.88H39.6c-1.47-.8-2.13-2.55-2.64-3.6l.48-.72h.72C39.34,89.52,39.84,90.7,39.84,92.88Z" transform="translate(0.23 0)"/></svg>