<svg id="图层_1" data-name="图层 1" xmlns="http://www.w3.org/2000/svg" viewBox="0 0 460.86 259.86"><defs><style>.cls-1{fill:#5a989b;}</style></defs><title>1-3</title><path class="cls-1" d="M163.2,61.44c.5,1.13,0,2.55-.24,3.6h-.24l-.48-.24V63.36Z" transform="translate(0.06 0.66)"/><path class="cls-1" d="M195.12,37.68h1a3.43,3.43,0,0,1-2.4,2.88v-.24Z" transform="translate(0.06 0.66)"/><path class="cls-1" d="M420.24,129.36c1-2.07,1.86-2.22,3.43-3.47C423,128.24,421.58,131.61,420.24,129.36Z" transform="translate(0.06 0.66)"/><path class="cls-1" d="M410.88,88.8l.24,3.6-.24-.72c-.71.14-.06.28-.72,0a5,5,0,0,1-.24-2.88Z" transform="translate(0.06 0.66)"/><path class="cls-1" d="M457.92,84.24l1,.48a12,12,0,0,1-1,3.84c-.47-.59-.14-.1-.24-.72-.56-.22-.49-.5-.48-1.92Z" transform="translate(0.06 0.66)"/><path class="cls-1" d="M457.2,61.2c1.52,1.12-.82,3.35-2.16,3.84l.24-.48c-.6-.29-.24.15-.48-.48Z" transform="translate(0.06 0.66)"/><path class="cls-1" d="M438.24,78c.35.74.17,1.4-.72,2.16h-.24v-.24Z" transform="translate(0.06 0.66)"/><path class="cls-1" d="M421.44,83.52l.24.48-.24.48c-2.1.11-3.59,0-4.56-1L418.8,83Z" transform="translate(0.06 0.66)"/><path class="cls-1" d="M441.6,89l-2.16-1.44-.72-1.92A10.15,10.15,0,0,1,441.6,89Z" transform="translate(0.06 0.66)"/><path class="cls-1" d="M456.48,85H457c-.64,2.7-4.87,5.2-6.72,7v-1.2C451.72,87.69,453.79,86.75,456.48,85Z" transform="translate(0.06 0.66)"/><path class="cls-1" d="M460.8,159.36l-.24,3.6-4.8-3.6,2.16-.24,1.68.72C460.17,158.89,459.68,159.28,460.8,159.36Z" transform="translate(0.06 0.66)"/><path class="cls-1" d="M440.88,154.08v.24c-1.61.13-4.18,1.51-5.76-.24l3.6-.24Z" transform="translate(0.06 0.66)"/><path class="cls-1" d="M424.8,143.76c.52.22.24-.1.72.72a6.58,6.58,0,0,1-3.84-1.92C423.24,142.54,424.22,142.78,424.8,143.76Z" transform="translate(0.06 0.66)"/><path class="cls-1" d="M425.28,99.84c1.32.84,1.83,3,1.44,4.8l-1-.72-1-3.36C425.29,99.85,425.48,100.64,425.28,99.84Z" transform="translate(0.06 0.66)"/><path class="cls-1" d="M425.52,106.56v.24l-1.44.24a7.09,7.09,0,0,1-2.4-2.64l-.48.24-.72,2.64L420,107c-1-2.64-2.76-3.82-2.88-7.68l1.2-1.44H419c1.27.94,1.83,2.19,1.92,4.32l2.4-1.2v.24l-1,2.16A4.43,4.43,0,0,1,425.52,106.56Z" transform="translate(0.06 0.66)"/><path class="cls-1" d="M429.84,102.48c2.29,1,2.32,4.21,1.92,7.2-1.4-.23-2.65.47-3.6-.48h2.16l-3.84-1,2.16,2.88c1-.5.66-.86,1.2.24.81.45.3.4.48,1.68l.48.06-.1,2.1c-1-.07-.95.21-1.34-.24l-.48-.24c.09.88,0,2.09,0,3.38l-1.2,0-1.44-.48-.48,2.4-1.92.24a3.68,3.68,0,0,1-1.92,3.36l.72.48-.06.4c-3.18-.53-2.72-1.39-3.54-4.48l-.48.24a5.5,5.5,0,0,1-2.88,3.6l-.24-.48c-.51-2.47.46-3.77,1.2-5.52l-1.68.24-1.68,4.56c2.2,1.77,2.29,4.71,2.88,8.16h-1.68l1.2.24h-1.92c.08-.47.31-.12,0-.48a6.72,6.72,0,0,0-2.52-.48l0-.62a5.27,5.27,0,0,0,2.5-.34h-.48c-1.42-1.6-3-1.78-5.52-2.4l-.72-2.64c-2.13-.37-1.37-.52-3.12-1-.11.84-.28.12.24,1-.34,0,0,.16.24.24s.14.35.23.53l-1.18,0-.73-.55-1.92-.48.48-.72h-.48l.74-.92a2.09,2.09,0,0,0,.22.2l.48-.24,1-1.68c-.73-.31-.69-2.26-1.68-2.64l-.72-.72v-.48l1.06-1.27.38.31h.24c0-2.07,1-3.87,1.68-6l2.16-.72v1.44l-.72,1.44a15.41,15.41,0,0,1,6.72.24l4.56-.48v-.24c-1.6-2.12-4.53-5-5-7.92l.48-.48a8.59,8.59,0,0,1,5.76,3.84h-1.2l.48,3.36L419,109l-.72,2.88h.24a6.38,6.38,0,0,1,6-.24,13.73,13.73,0,0,1-1-3.12c1.2,0,.93.51,1.44-.72-.77-.4-.27.12-.48-.72l5.52,1.2c-1.79-2.29-2-3.57-.72-6.24Zm-3.84,7.2.24-.24c-.62-.63-.59-.38-1.2-.72Zm0-1.44-.48-.48C425.85,108.22,425.54,107.9,426,108.24Zm-1,2.4h.48c-.3-.73,0-.29-.48-.72Zm-1.92,7s1-.1.48-.24Zm-.72-.24-.48-.72c-.66-.41-.64-.75-1.2-1.2l-1.44,1.44.24,1.92ZM421,113.52v-.72h-.48l-1-.24Zm-1.68.72-1.44-.48C418.46,114.62,418.17,114.36,419.28,114.24Zm-3.36-.48-4.08-.72c-2,.93-4.45.5-5.52,2.4H407l1.92-.72.24.24a4.44,4.44,0,0,1-1.2,3.12C410.85,118.47,415.06,116,415.92,113.76Zm-6.48,11.76.24-.48h-.48Zm-1.2-2.88c.7-.47,2-1.66,1.2-2.16l-1.68,1.2Zm.48-2.88-.48-.72-1,1.2.72.48.48-.24Zm-4.08-1.68h1.44a2.68,2.68,0,0,0-.72-1.92l-.72.72Zm.72-4.32v-.24l-1-.24V115l.24-.48Zm-2.4,4.56.48.48C403.11,118.34,403.42,118.66,403,118.32Z" transform="translate(0.06 0.66)"/><path class="cls-1" d="M432.24,5.52c.72.49,1.83,1,2.16.48.62-.1.13.23.72-.24l-1.2-2.16-.48.72.72,1.2ZM410.16,130.81l-.24.47C410.36,131,410.06,131.07,410.16,130.81ZM141.52,235a8,8,0,0,0-1.36-.48c-.43.49,0,.17-.72.48l.24.48c1.33-.22,1.53,1.13,3.12,1.92l-1.68-2.4Zm0,0c.13,0,.27.12.39.18.52,1.09,1.64,2.06,2.56,2v-.24a18.52,18.52,0,0,0-2.56-1.74,1.42,1.42,0,0,1-.08-.18Zm155.32,5.91-.17-.22c.31-.46.62-.91.92-1.37a4.24,4.24,0,0,0,2.16,4.32l-1-1.2c1-.56.12-1.71-.24-3.12l1.68,1.2.24-1.2a5.91,5.91,0,0,0,2.4,4.8l.24-.72-1-2.64a4.66,4.66,0,0,0,1.44.48,2.81,2.81,0,0,0,1,2.16V240l.48.24.24,1.2c.83-.16.46.18,1.2-.24a3,3,0,0,0,1.68,2.88L307,241.2c.72-.31.54-.15,1-.72-.62-.1-.13.23-.72-.24l.48-1.44c.92.36.29.49,1-.24.1,1.88,2.31,4.92,3.12,5-.49-1-1.28-2.88-.72-4.32.61,1.61,1.15,1.63,2.4,2.4.25-.88.2-.71.72-1.2.12,1.41.19,1.44,1.2,1.92l-1.68-4.08c1.25.83,1.18.32,1.92.72a3.26,3.26,0,0,0,1.68,3.12l-1-1.92.48.24-1.44-2.4.24-.24a3.21,3.21,0,0,0,1.92-.72l-.24-1.2a30,30,0,0,1,4.08,2.88l-1.2-3.12v-.24c1.19.43,1,1,2.16,1.44-.15-1.13-.28-.06,0-1.2l.48.24a2.35,2.35,0,0,0,1.44,2.16c.22-.49.56-.66,1.2-.48l1,1.2c-.62-1.45-1.78-2.77-2.4-5.76l.48.24,1,1.68.48-1.2a4,4,0,0,0,1.44,2.4l-.24-.48h1l-1.92-5.28c2.08,1.52,1.9,4.61,3.6,6.48l-.24-1L328.8,234l.72-.48a5.29,5.29,0,0,0,1.68,3.6c.25-.29.87.13.48-.24.41-.34-.81-4.31-1.44-6l.24-.24.48.72,1,3.36.72-1a5.3,5.3,0,0,0,1.44,3.36c0-.84.23-.76,1.44-.48v-1.92c1.16,1.17,1,3.4,2.4,4.32l-.24-.72,1,.72a15.5,15.5,0,0,0-2.64-5.28l.24-.24.72.72v-2.88a15.57,15.57,0,0,0,4.8,7.2c-.7-1.66-1.79-2.44-2.16-4.56l1.2-2.4a21,21,0,0,1,2.64,5.76c.44-.68.29-.24.24-1.2,1,.71,1.4,2,2.16,2.16-.6-1.83-.47-2.17-.48-4.32l.72,1c-.61,2,.75,3.07,1.68,4.8H348v-1c-.5-1.18-1.18-2.15-.72-2.88l.24-.48.72.48a11.4,11.4,0,0,0,4.56,7.92v-1.68l-1-2.16-.48.72v.48l-1-3.36.72.48-.24-.72a2.64,2.64,0,0,0-.48-1.44l.24-.24c2,1.62,2.71,3.94,6,6l-1.92-5,1.2-1.44.48.24c.28,2.25,3.11,6.74,4.8,7.2l-.48-1.92H361l.48,1.68h.24v-1.2c-1.16-1.66-2.79-2.09-2.88-5.52l.48.24a23.11,23.11,0,0,0,2.16,4.08l.72-.24-1-4.08.48-.72,1-.24c.3.91,0,.45,1,.24,0,3.58,1.39,4.59,2.4,7.68,1.28-.5.14-.43,1.44.24l-1.68-5.28H366c1.05.62,1.35,1.36,2.16,2.16l1-5c0,1.67-.13,4.8,1.2,5.76l.48-5.52c0,3.51,0,10.29,1.92,11.76a8.25,8.25,0,0,1-.26-2.29l.26.13c-.15-.57-.15-.71-.27-.84h0a16.3,16.3,0,0,0-.93-6.35L373,239l.24-1.2v.48l.72,1.2h.24c-.11-2.45.59-2.4,1.68-3.12-.12,2-.49,4,.72,5,.22-.47,0-.55,1.2-.72-.1,1.66-.12,2.88.72,3.6.24-1.07.27-1.47,1.2-1.92l-.24,2.64c1.29-.08.38-.52,1.2.48l-.48-3.12c1.66-.17,1-.54,1.68-2.16-.09,1.8,0,2.85,1,3.6a7.8,7.8,0,0,0,0-3.12H383v.48c.52.46.71,1.43,1.2,1.2l1.44-.72.72,1.92.48-2.16,1.44,4.56h.24c0-1.87-1.49-6.93-.48-8.4l.24,1.44h.24v-1.68l1.68,3.84h.24l-.48-3.36h.24c.38,1.39,1.26,3.86,2.4,4.56-.33-.83-.92-3.31,0-4.32l.48,2.4c.68-.27.35-.21,1-.24a4.36,4.36,0,0,0,1,3.36,61.91,61.91,0,0,0-1.68-6l.72.43v.05l.48.24-.48-.29v-.43c1,0,.44.12,1.2-.24l1.68,4.32.24-.72.48.48c.16-2.62-.31-3.12-1.44-4.8l1.44.48c-.11-.86-.09-.68,1-.48.63-32.77-7.72-50.53-17.28-72.24l-6.72-16.32c-4.56-7.07-10.57-14-15.12-21.36-2.67-4.33-3.92-9.74-6-14.64l-6.24-13c-1.53-3.91-1.62-8-2.88-12.48-2.22-7.86-5.31-17.49-5.76-26.64l-2.4-.24-1.68-1.2c1.38-2.16,1.52-3.78,1.92-6.72h-.24a3,3,0,0,1-2.64,1.92l-.48-.72a69.1,69.1,0,0,1,.48-7.2c.64-.85,1.39-.49,1.92-1.68h-1l-3.36,1.68c-1.19,1-3,6.45-6,3.84v-2.4c1.4-1.81,3.08-2.47,4.08-4.8v-.24a10.59,10.59,0,0,1-4.56-.24V40.8c.51-1,1.22-1.15,1.92-1.92l-.24-.48a7.67,7.67,0,0,1-3.84-.48l.48-.48c.69-1.44,2.16-1.75,4.32-1.68v-.24l-1.2-1-4.56,1-1,1.68-.48-.24a2.89,2.89,0,0,0-1.68-2.4l1.92-2.64-1-2.88h-.24c-.71,2.2-3.44,3.65-5,5A6.43,6.43,0,0,1,311,33.6l1-1c1.2-1.81,3.7-2,4.8-3.84l-.24-.24a6.24,6.24,0,0,1-3.36,1.2l-1-.48.48-.48,2.16-1.92v-.24l-2.64-.24L312,25.2c1-1.23,2.42-1.76,2.4-2.64l-1-.72-.48.24-.48,1.2c-2.4-.6-2.74,1.37-5.28.72v.24l.48,2.4c-1.51-.17-1.52-.54-2.4-1.2-.7-2.39-2.07-5-2.64-7l-.48.24c-.47,1.55-.73,3.82-1.44,4.8l-.48-.48c.07-.57.34-.44-.48-.72a3.82,3.82,0,0,1-1.44,2.4h-.24l-.72-1.2.24-1.44-2.4-.48c.3,1.88.55,4.71.72,5-1.8-.3-3-1.11-3.36-2.88l1.68,1.2-1-3.12-1.68-.48v.24l1.2.72c-1.8.7-.3.9-1.2,1.68l-.48-.48v1.2l2.16,1.44c-.12,1.88,1,3.9.48,6.48h-.48c-.2-.76-.23-1-.72-1.44l.24,1.68c-.87-.62-.74-.89-1.2-.72a3.43,3.43,0,0,1-2.64.72l-.24-.24c-1.89-.92-2.37-3.26-3.12-5.28l-.48.24a10,10,0,0,1-4.8,5.28l-.72-.24c-.85-2.33.15-4.33-1.44-6.72l-.48.24a4.29,4.29,0,0,1-.48,2.64l-1-1-.72,1L275,27.36l-.48.24V30c-.68-.27-.35-.21-1-.24l.72-2.88c-.63-.39-.2-.28-1-.24l.48-1.44a1.86,1.86,0,0,0,2.4,0c-.59,0-.78-.88-1-2.16l-.72.24c-2.67,4.81-7.9,7.52-11.28,11.76-16.54,20.75-43,35.1-73,42.24-10.69,2.55-32.74,4.34-44.16.72-3.63,4.33-4.65,11.83-7,17.28-3.6,8.48-9.24,16.28-11.76,25.68,3.29-2.45,5.47-6.18,8.64-8.64,5.3-4.12,13.77-8.86,21.12-10.32l.24.24c.09,2.26.06,4.48-.72,5.76-13.8,3-22,15.54-29.52,25.2-2.63,3.39-7.59,7.69-8.88,12l1.2,23.28.72,15.84,4.32,28.08,1,13.2,2.16,14.16,1.68,1-1.44-.24a3.44,3.44,0,0,0,1.68,2.64c1.16-.29,1.42.16,1.68,0h.48l-2.4-2.4h.48v-.48c2.24.37,3,1.89,3.84.48l-2.4-1.68.24-.48a44.4,44.4,0,0,0,4.8,1.92c-.36-1.83-.3-2.53-1.68-3.84.75-.84.15-.29.48-1.2,2.53,1.57,2.63,2.11,5.28,3.12-.92-1.55-2.67-2.2-2.64-3.36l1.2,1-1.68-1.92.48-.48,1.44,1.2.48-.24-1.44-3.12,2.16,1.92c.58-.82.49-.4,1.2.48l1.68,1.2c.47-.59.14-.1.24-.72,1,.87.9,2.16,2.16,2.88l-1-1.92c.47-.34.38,0,.24-1l2.64,2.4-1-3.12c1.37,1.58,1.07,3.82,2.88,4.56l.24-.48v.48l2.16,3.12.72-.24a12.27,12.27,0,0,1-1.92-2.88l1.92,1.92.48-.24a5.1,5.1,0,0,1-.72-2.88l.48.48,1.44,1.92V239l.48-1.2c-.17,3.09.77,6.59,2.88,7.68a18.64,18.64,0,0,1-1.68-4.8l1.44.48V240a4.34,4.34,0,0,0,3.36,2.88c-1-1.56-1.83-2.75-1.68-4.32.87,0,.2-.55,1,0,2.34,1.48,3.64,3.29,6,4.56l-1-2.4c1-.2.76-.84,1.92-1.44-.21,1.46.56,2.33,1.68,3.12H169l.24-.48-1.92-2.4c1.1-.77-.22-1.79-.72-3.12l1,.72,2.88,4.32-.72-1.68.48-.24V240l1.68,1.92-.48-.24.72,1.44c.62-.77.1-.26,1,.24l-3.84-6.72c1.84,1,5.83,4,6.24,3.84-.16-.87-.32-1,.24-1.68a5.56,5.56,0,0,0,2.16,3.84c.23-1.09,0-1.25,1-1v-1.44l.48.72h.24l-.24-1,1.92,1.68a4.9,4.9,0,0,0-1.2-2.16l1.2.48-1.44-1.92,1.92,1-1.92-2.4c1.1.19.38.43,1.2,0a3.37,3.37,0,0,1,.48-1.44l.72.48,3.6,2.64-1-1.44a4.29,4.29,0,0,1,1.68,2.4L187,239l-1-4.32.72.48-.24-1,1.92,1-2.16-3.84c1.2.74,1.51,1.88,2.64,2.64.1-.62-.23-.13.24-.72a8.71,8.71,0,0,0,3.12,3.36l-1.2-2.4.48-1,.48,1c1.38.62,1.07,1.19,2.16,1l.24,2.16.72.24v-1.92l.24.48,1.44,2.16-.72-2.16.48.24.24-.48,1,1.68c-.22-.72-.54-2.92,0-3.6.42,1.52,1.17,1.59,1.68,3.12h.72c-.22-1.2-.69-.93.24-1.44l1.44,1.44-1.92-3.84c1.27.69,1.46,1.7,2.4,2.64a1.27,1.27,0,0,1,1.68.48c.15.66.69,1,1.44,1.68a6.65,6.65,0,0,0-1.2-2.64l.24-1,.48.24,2.88,2.64-1-1.92.24,1-.48-.24.24-1.2.72.48,1.68,3.12c-.22-1.3.05-1,0-2.64l.48,1,2.4,1.44c-.64-1.78-1.46-2.27-1.92-4.08l.48.24c.84,2,2.21,2.18,3.6,3.36L212.4,234l.48-2.16.48.24c.73,2.82,3.21,4.94,5.52,6.24.66-.32.07-.15.72-.24l-.72-2.16.24-2.88.24.48c1.38,1.61.82,3.79,3.12,5.52l-2.88-6.48,1,1-1-2.64.48.24c1,2.69,2.55,6.79,5,8.64-.54-1.1-1.32-2.26-1.2-2.64v-.48l.48.24,1,1.2c-1.12-2.07-2.55-3.13-2.88-5.76l3.36,2.64h1v-1.44c.33,1.77,1.47,2.24,2.88,3.12-.57-1.61-1.25-1.83-1.92-3.36l3.36,1.92v-1.44l.72.48c.35,2.1.68,1,1.68,2.16-.78.3.43,1.25,1,1.68l-2.4-5.52.24-.24,1.68,1.44-1.68-2.4c1.33-.09.47,0,1-1a25.82,25.82,0,0,0,4.08,3.12l-.72-1.68.24-.24,1.68,1.44c-.54-1.73-2.68-3.68-2.16-3.84v-.48l.24.48c2,1.8,3.1,3.69,5.28,5l-1.2-2.4.24-.24c.87,1,1.36,2,2.64,2.64V234l-1.44-2.16c.91-.42.68-.47,1.2-1.2.21,2.11.56,3.33,1.68,4.08l-.24-3.6.48.24c.85,2.58,1.93,3.76,3.36,5.76.16-1,0-.29.48-1.2,1.9,1,.73,2.73,3.12,3.84l-1-1.68,2.16,1.92-.48-.48-2.88-3.84c1-.57.31-.42.72-1.44v.48l2.64,2.4-.48-1.2h.24v.48l1.92,1.68-4.56-6.72.48-.24.72.48c.41,1,5.44,5.92,7,6.72l-4.8-8.16.24-.24h.24l2.4,3.6c.83-.14.19-.33,1.2.24l.48,2.16c.95-.49.17-.66,1.2-.24.33.46,0,.14.48.48l.24-1L259.2,233c1.14.52,1.51,1.54,2.64,2.64V235l1,1-.48-1.2.24-.24,1.92,2.4-1-2.16c.87.43.86.09,1.2.48,1.77,1.48,2.1,1.93,3.6,3.36v-1.2l.24.48,1.92,3.12-.24-5.28c.33-.06.3.09.24-.24.89.78,1.25,2.92,1.44,4.32h.48c-.18-1.71-.72-2.77.24-3.6a3.5,3.5,0,0,0,1.92,3.36,10,10,0,0,0-2.16-4.8l2.4,1.2-.24-1h1l.24,1-.48.24c1.14.2,1.15,1,2.64,1.44l-1.44-1.44-1.68-2.88c.24-.93.09-.72.72-1.2.2.83-.28.3.48.72l-.24-1.2.72.48c1,3.1,3.6,4.27,5.76,5.76h.24c.13-.7-.19-1.18.48-.72l-1.2-4.8.48-.24h.24c.34,1.58.64,3.47,1,4.56,1.51,0,1.55,1.35,2.88,2.16l-.72-3.12c0,.34-1.7-2.92-2.16-4.8l.72.48a20.38,20.38,0,0,0,6.72,9.84l-.48-2.4.48.24.72,1.44h.24v-1c-1.14-1.27-2.22-1.46-2.64-3.12l.24-.24,1.2.48-.72-2.64,1.2,1c.15,1.28.29,1.86,1.2,2.4l-.48-.48.72-2.64.24.48c-.37,1.2,1.78,8,1.92,8.16.63-.76,0-.46,1-.24.38.65.08.33.72.72l.48-1.68-1.44-1,.72-.72.52.65a.25.25,0,0,1,0,.07Zm0,0,.26.33C296.87,240.86,297,241,296.86,240.87ZM292.31,17.51c.5-.46,1-.83,1.45-.71l-.24-2.16c-1.33,1.78-2.07,2.23-2.88,4.08h.24A7.36,7.36,0,0,0,292.31,17.51Zm56.68,27,0-.07h0c-.12-.21-.2-.2-.71-.48.47.73.08.26.71.48A.43.43,0,0,1,349,44.47ZM460.8,166.8v15.84l-5,5.76-9.84,15.12-11.28,26.4c-.66,2.33.68,3.3.24,4.56l-.48-.24-.48-1.2h-.24l-.48,2.64,1.44,2.88-.24-3.84h1l.24.24v2.64l.48-.48v-3.07c.16,2.35.51,2.56,1.2,3.55l.72-.72-.24,1.68.48-.24a35.22,35.22,0,0,1,.72-3.6c.24.91.3,1.2,1,1.68.05-1,.06-1.16.48-1.68l1,3.12.24-.48.24-5.76a20.89,20.89,0,0,0,1.44,4.56c.55-.47,0,0,.72,0-.09,1.58-.08,2.44.72,3.12l.24-1,.24,1.68h.24c-.23-3.41-.46-6.83-.68-10.24,1.13,2.3,1.11,5.09,1.64,8.08.1,0,1.54.45,1,.24.59-.64.36-.76.24-1.92l.72.24,1,2.16-1.68-7.2h.24c.46,2.54,1.29,4.79,2.64,5.76l.48-.72,1.2,2.64.24-.48h.48a16.07,16.07,0,0,1-.5-2.16h0l0-.07c-.1-.67-.15-1.44-.21-2.57h.24l.48,1c.15-.66,0-.33.48-.48a3.8,3.8,0,0,1,2.64,1.2l-.24-.72c.52-1.51.23-2.36,0-4.08H456l1.2,5h.24l.48-3.36v.48a5.37,5.37,0,0,1,1,3.36h-.24l-.24-1,.48,3.6a2.27,2.27,0,0,1,1.68,0v.48l.24,19.92H0c-.08-3.82-.22-24.64.72-25-.78-1.13-.78-3-.72-5l5,4.56a1.72,1.72,0,0,1,.24-1l2.88,1.92.24-.48-3.6-4.8L5,229.2c2.29,2,4.93,2.69,8.16,3.6V233l-1.2.24c1,.2.92.83,1.2,2.16l-.72-.48a3,3,0,0,0,1.44,2.4v-.48l.48-.48-1-2.16,4.08,5,1-.72c1.63,1.33,3.7,2.8,4.32,2.4.87-.15.73-.1,1.2-.48l-1.2-1h-.24c.1,1.38.62.64-.24,1.44l-.48-1.44c.47-.34.38,0,.24-1l4.08,2.88-1-1.44,2.4,1.44v-.24l-1-1.68c.46-.33.14,0,.48-.48h.24c.19,1.31.24,1.56,1.44,1.92v-.72l-.48-1.44h.24v.48c2,1.77,2.69,3,5.52,3.84-.26-1.12-.6-.64.24-1.44,1.19.44.64,0,2.16.24-.08.75-.32.21.24.72.42-.54.42-.35,1.68,0l-.72-1.2,1.2,1c-.33-1.49-.74-1.17-1.44-2.16,1.71.45,1.62,1.81,2.88,1.2-1-.14-.76-.8-1.92-2.4,1.4.52,1.39,1.42,2.88,1.92l.24-.72-.48-.48c-.33.42.05.29-.48.24.11-1.39-.18-1.11-.72-1.92l1.92.72c-.4-16.14-.12-35.36-.24-52.08-.09-12.51.4-24.65-1.68-35.76-2.77-14.8-7.44-27.37-11.76-40.8a7.87,7.87,0,0,1-4.8-1.2l-.24-.72,3.12-2.4-1.92-5.76c-1.22.76-1.08.53-2.4-.24-1.39.84-1.15,1.69-1.92,3.12-1.82-.88-2.15-1.62-2.88-3.6h-1.2v.24c.88,2.51.4,6.23.72,8.64l-2.88-1.44-.24,1.2-.48-.24c.15-1.58.47-3-.48-3.84a2,2,0,0,1,0,.25h-.23a6.51,6.51,0,0,1-.72-2.64,8.15,8.15,0,0,1-3.6.48l.48,1.2-1-.24a4.4,4.4,0,0,0,.72,1.92,4.21,4.21,0,0,1-2.4,2.64H5l.24-1.44c.8-.56,1.16-2.12,1.44-3.12l-1-.72c-2.37.4-3.3,1.31-5.76.72V94.32H.48a12.12,12.12,0,0,1,2.4.24c.28.84.32,1,1,1.44.05-1.48.12-1.54,1-2.16v1.44c1.26.2,1.18.39,1.92,1,.72-.59.74-.77.72-2.16a7,7,0,0,1,3.36-.24l.24-2.4c-2,.43-3.68-2.91-5.52-.72C3.81,89.63,3.22,87.36,2.16,89v2.64H1.44L0,91v-5l1.44.48c-.45-.61-.71-.63-1.44-1V10.56c2.59-.35,3.33-5.18,4.08-7.44L6.24,1.68c.35,1,.34.94,1.2,1.44L9.12,1.68V0h73.2L83,.48l.48,1.44c-2.23,1.61-2.86,3.47-4.56,6l1.44,2.16,1.2-.24L80.4,6l1.92,1,1.2-4.08h.24l.48,1c.52-1,.4-.45,1-1A5.87,5.87,0,0,1,84,0c20.6-.1,49.28,0,71.52,0l.24,2.16.48-.24c1.07-3.55,13.47-1.92,18-1.92H231.6c.47.36,5.25.37,10.48.27L241,.72V1a4.77,4.77,0,0,1,3.12,2.64c-1.05.5-.92.45-.72,1,.11.73,1.13.88,1.92,2.16-1.15.58-1.06.49-.72,1.44,2,.09,3.63,1.62,4.08.72-1.48-.44-2.34-1.76-3.12-2.88l.24-.24L246,6a3.9,3.9,0,0,1,2.88,1.44l1.68,3.36-.72.24c-2.11-.5-5.66-1.35-7-3.84-.64-1.23.54-1.89-1-3.12l-1.44.48a38.67,38.67,0,0,0,1.2,7.2l-.72,1h-1c-.94-1-1.24-1.76-3.12-1.92l.24.48c-.4,3.87,5,4.88,4.08,9.84-3.08.06-4.29-.2-6.72.48l.72,1,4.08-.48v.24a5.79,5.79,0,0,1-5,4.32l.24.48,1.44.48c2.9-1.48,4.85-3.05,9.36-3.12-.1,4.41-8.83,7.32-12.48,5.76l-.48.48.72,1c1,.57.88,1.54,1.68,2.16,2.88,2.24,5.24,1.77,7,5.28-6.17.4-6.88-4.71-11.76-6.48L229.68,37l1.68-.24c-.57,2.5-2.12,3.54-2.16,6,3.12-.2,5.34-.19,6,2.16l-.24.24c-2.32,0-5.21-1-6-.48h-.48l.48.24,2.64,1.2.24.72-.24.48L228.72,47c.46,1.27,1.05,1.2,1.44,2.64l-.72.24a4,4,0,0,1-2.88-.24c.35,2.82,2.26,2.6,2.64,5.52,12-6.31,24.4-16,32.64-26.16,2.8-3.46,6.82-6.13,9.12-10.08l-.72-.72a7.17,7.17,0,0,1-9.36-6h.24c3.11,1.15,5.86.21,6.48-2.64h-.24a40.63,40.63,0,0,1-6.72.24,3.64,3.64,0,0,0-1.2-2.4l-.48.24c-.1,1.47-2.3,3.88-3.84,2.64.83-2.36,1.28-4.51,3.6-6L258,1.92h-.24a2.68,2.68,0,0,1-2.4,1.44l-.24-.24a3.61,3.61,0,0,1,.48-1.92c-1.47.31-1.24.45-2.4-.24l-1,.72v.24l1.68-.24v1c-.46,1.22-.1,3.22-1.44,4.08h-1.2c-.11-2.11.63-3,.48-5h-.24c-1.15.75-1.69,1.19-2.88.72l.48-2.16c-3.68,2.31-3.24,1.15-6.85,0C247.73.18,253.61,0,255.6,0h67V.24c-.5.49-.33.24-.48,1.2h.24C329.84-1.66,344.07,0,354,0l11.52.24c-.88.22-.49,0-1,.48C380.88-1.86,409.13,0,430.8,0c.13,1,.11.83,1.2,1.44h.24L432,0c4.23-.12,12-1,13.92,1.44-.71,1.84.2.71.48,2.88L444,6.24v.24l1.44.72-.24.48-1.92.72c.66.66.49.61,1.44.48l.48.48V9.6h-2.4v1.2h2.4V11l-.48,1-2.4,1.2,1.44,2.16,2.4,1L445,17.76c1.58.24,2.25,1,3.12.48l4.08-1.68c.45.94.14.77,1,.72-1.1,3-2.05,3.21-6.24,4.32v.24h.48l4.8,1.44.72,2.16.48-.24c.59-1.8,2.23-4.92,1.92-6.72h1l.72,2.16a2.5,2.5,0,0,1,2.16-1l.48.48a7.81,7.81,0,0,1-.24,5l1.44.48c-.62,16.31,0,36.59,0,54.48a1.72,1.72,0,0,0-1,.24c-.29-1.19-.06-.89-1.2-1.2l-.48,1.19c-.68-.81.1-.63-1-.47l-1.44,3.36c-2.94.69-6.8,0-10.32-.48l-.24-.48,1.68-1.68c2.37-.61,4.48-.08,7,.24-.36-1.07-.84-1.16-1.44-1.92.11-2.43.36-1.49,0-3.36h2.16l2.4,2.16.72-.72c-2.61-4.7-3.6-3.1-7.92-6l-2.64-3.6L444.24,66l2.16-.24-.72-.48c-1.18,0-2.66-.3-3.6.48,2.19.56,4.27,5.08,4.8,7.68h-.24l-2.4-1.2a3,3,0,0,0-1.68-2.16,2.44,2.44,0,0,1-2.88,1.44v1.92c-1.16-.37-1-.67-1.68-1.44a8.35,8.35,0,0,1,.48,4.08c-.83,1-1.11.8-2.16,1.2l1,.48c-.76.75-1.37,2.62-.72,3.6l.72,1.2a2.71,2.71,0,0,1,1.2-2.16c.73.3.29,0,.72.48.23,1.16-.72,2.21-1.68,2.88l-1.68-1.2-.24.72c.73.52.44,1.16.24,2.16l1.92,1a12.28,12.28,0,0,1-.48,5L436.8,91c-.64-.77-.32-.51,0-1.44l-.72.48.24-2.88a2.92,2.92,0,0,1-2.64.48c.24-1.31.59-1.34,1.2-2.16L434.4,85c-1,1.53-2.94,4.28-4.8,5l-.24-.72C429,87.69,430.52,86.62,431,85h-.24a3.79,3.79,0,0,1-2.64.24V85l1-1.92h-.24l-1.92.48-.24-.48.24-.72,1.92-1v-.24l-.48-.24a6.54,6.54,0,0,1-4.32,1L425,80.2a.08.08,0,0,1,0,0l5.28-.24-.72-.72c-.8-1.89-3.15-2-4.08-3.6-.58-1-.14-2.56-.72-3.36h-.24c-1.44,3.14-5.06,1.34-6.48,4.32l.24.48c2.54-.31,5-.29,6.72.72.22,1.07.47,1,0,1.68a1.78,1.78,0,0,1-.57.45,4.88,4.88,0,0,1-3.51-.21l.48,2.64-1.68-1.44c-1.69.54-2.32,1.37-4.56,1a19.28,19.28,0,0,0,3.12,4.8l-.48.72a7.68,7.68,0,0,1-6.72-1.2l1-2.88-1.2-.24v.24l.48,1c-.88.22-.49,0-1,.48L409,84l-.24.24,1,3.84c0,2.85-1.76,4.61-1.2,7-1.2-.14-1-.51-1.68,0a4.22,4.22,0,0,1-1,2.4h-.24V94.32l-.72.48-.24,1.92h-.48l.48-2.4-2.16,1c-.67-.73-.45,0-.24-1l1.68-.24c-.47-.28-.84-.32-1.2-.72.95-.71.23-.19.24-1.2l1-.24L402,90.48l-.72.24c-1.74,6.51-.51,16.35-.48,23.76l1.06.89-1.06,1.27v.48l.72.72c-.43.71-.65.65-.48,1.44-.46,1.4-.25,2.21.5,2.92l-.74.92v.72l1.92.48a1.64,1.64,0,0,0,.64.55c.08,0,.19.09.32.17l-.23-.17,1.18,0a8.74,8.74,0,0,0,6.63,4.61l0,.62a3.77,3.77,0,0,0-1.56.24l3.84.72v.24l-.24.24h-2.64l1.68,1.92,1-1.2a9.9,9.9,0,0,0,1.68,1c-.46.88-.68.16-.24,1,.25.88.2.71.72,1.2,1.06-.23.56-.19,1.68.48l4.08-2.64c4.11,1.5,5.11,5.11,9.12,6.24.1-.62-.23-.13.24-.72l.72,1c-.32,1.36.62,1.34,1.2,2.88L427,143l-5-5.76-.72.72.72,2.4a6.53,6.53,0,0,1-2.64,1.68,2,2,0,0,1,.24,1.68h-1l-1.68-1.2A32.2,32.2,0,0,0,415.2,137l-.72,1.2-1-.48c.67,1.5,1.7,2.74.48,4.8,1.11,3.79,3.16,6.54,4.8,10.32L417.12,156c-6.61-3.24-3.33-6.69-8.16-10.32h-.24c.14,2.37-1.61,7.58-4.32,5.76-.85-.57-1.38-3.73-1.68-4.56h-.48c-.47,2.36-2.33,4-2.64,5.76l1,6.72c1,5.23.82,10.47,2.64,14.88l8.64,18.24c1.14,4.37,1.23,8.78,2.4,13.44,1.7,6.79,3.79,13.7,4.56,21.36l.48-.24L426,215.52A374.69,374.69,0,0,1,450.24,181C453.8,176.37,456.36,170.5,460.8,166.8ZM459.6,64.08v-.24c-.51-1.91.29-4.76-1-5.52l-.72-.48c-1,2.07-3.09,1.78-4.08,3.36-.69,1.1.08,2.37-1,3.12v.24c-1.65.92-2.76-.28-4.32,0l.48.72,6.48,4.32,2.4.24-1.44-5,1-1Zm-1.2,13,.24-.24-.72-.48Zm0-4.08-.72-1.2-1.2.24.24,1.68H457ZM457,25l.24-3.6-.48,2.16c-.06-1.34,0-1.45-1-1.92v.48A3.82,3.82,0,0,0,457,25Zm0,1-1-.48-.24.72v.24C456.63,26.25,456.49,26.3,457,25.92Zm-.72,214.32.48-.24a4.34,4.34,0,0,0-1-2.88Zm-.48-3.36-.24-1v1Zm-.48-179.76L455,56.4a4.6,4.6,0,0,0-1-1c-.73.89-.71,1.21-.48,2.64h.24Zm-1.2-22.8V32.88l-1,.72.24.48Zm-3.84-9.84-1-.48C449.87,24.64,449.61,24.37,450.24,24.48Zm-.72,57.12-.48-.72h-.72l-.24.48Zm-1-56.16-.24-.72h-.24C448.38,25.45,448.08,25,448.56,25.44Zm-.48,32.88.48-.24c-.14-1,0-.72-.48-1.2l-.72.48Zm-2.64,13.92-.24-.72-.48-.24v1Zm-1.92-14.16,1-.72h-1Zm.48,6.48h.48c-.3-.73,0-.29-.48-.72ZM442.08,59l.24-.48h-.48ZM440.64,3.36l-.24-.48h-2.16l-.48.48.24,1.2h1Zm-.72,11.28-.24-.48c-.87-.21-.9-1-1.92-1.68a3.16,3.16,0,0,0,1.92,2.64Zm0,5.76c-.43-.49,0-.17-.72-.48C439.63,20.41,439.2,20.09,439.92,20.4Zm-.72,50.16L439,69.12v1.44Zm-1,169.68a2.13,2.13,0,0,0,.48-2.16Zm-.72-169.68.24-.72h-1l-.24,1ZM437,16.8l.72-.48-.48-.48ZM435.6,80.64V78.48l-1.44.48c.31-1.53,2.79-6.72,1-7l-.48-.72V72c-.7.48-.69,1.07-1.2,1.68-.92-.56-1.63-1.09-1.92-1l-.48.48-.48-.24.24-1.68-.48.24c.06,1.36.17,1.67-.72,2.16l-1-2.4-.72,1.2c.4.72.4.58.48,1.2h-1.2l.24,1.92,4.08,3.6c-.09-1.92.23-4.07,1.44-4.56l.72,3.12c-1.58.38-1.32,1.26-1.68,2.4a4.48,4.48,0,0,1,2.16,1.2l1.2-.24Zm-1.68-70.8.48-1h-.48l-.24,1Zm-1,75.6V85.2l-.72-.48-.24,1Zm-1.68-2.16.24-1.2h-1.2l-.48.72,1.2.48Zm-2.4-13,.48-.24-.72-.48Zm-2.4-52.8.72.48C426.77,17.51,427.2,17.83,426.48,17.52Zm0,51.12c.45-.3.13-.21.24-.48l-1,.72v.24H426Zm-4.8,1.92v-.24a1.72,1.72,0,0,0-.72-.72l.48,1Zm-.48-1.92v-1l-1.68-1,1.2,2.16ZM421,136.08l-.24-.72-.48.48Zm-.72-63.84-.48-.72L417.6,71l.24,1.2Zm-3.12-2.64,1.68-.48c-.22-.88,0-.49-.48-1ZM418.32,13l-1-.48c-.18.83-.29.62.24,1.2C417.82,12.86,417.35,13.26,418.32,13Zm-.48,13.44v-1h-.72l-.24.48Zm-1.68,54v-.24l-1.2-.48c-.23.86-.31.68-.24,1.44Zm-1.44-.72-.24-.48-1.2-.48L413,79C413.8,79.82,413.86,80,414.72,79.68Zm-1,5h-.48l-.24.48C413.77,84.9,413.33,85.2,413.76,84.72ZM413,148.56l.48.48C413.19,148.58,413.5,148.9,413,148.56Zm-.24-77,.48-.48-.72-.72Zm.48-36.24-.48-.48C413.13,35.26,412.82,34.94,413.28,35.28Zm-.24,107-1.92-.48c-.58,1.95-.08,1.75-.24,3.36l.72-.72C412.8,144.08,412.83,143.65,413,142.32Zm-5-8.88.48-.48-.48-.48-.24,1Zm-.24,8.88L407,143C408,142.67,407.6,142.73,407.76,142.32Zm-.48-11.76-.24-.48c-1.65-.65-3.12-2.78-5.28-3.12l-.24,3.84c-1-.29-.5-.61-1.2.48.48.86-.81,3.12,0,5,1.23-.72,6-1.94,6.24-2.4-.65-.49-.46-1.14,0-2.16l-1-.48h1.2ZM407,91l-.48-1.68a4.39,4.39,0,0,0-.24,2.64Zm-.72,38.16.48-.48h-.24Zm.48-45.6c-.1-1-.08-.94-.48-1.44C406.36,83.16,406.08,82.76,406.8,83.52Zm-.48,59.28v-.48l-1.92-.72-.24-1.2L402,142.56l.72,2.4H403A9.15,9.15,0,0,1,406.32,142.8Zm0-49.2-.24-1-.48,1.2h.24Zm-1.68-2.4h.72L403.92,90l-.48.24c.54.76.83.56.72,1.44C404.62,91.35,404.3,91.66,404.64,91.2Zm-.48,2.16.48-.24-.48-.48Zm1-6.72a3.19,3.19,0,0,1-2.16-1.2l-1.68,1.92v.72h.24C402.76,87.75,404.53,87.72,405.12,86.64Zm-1.68,51.6v-1H401ZM402.24,42l1-1.44c-.38-.65-.08-.33-.72-.72L401,41.76V42h1.2Zm.24,40.8.72-.48c-.3-.73,0-.29-.48-.72l-1.2.72v1Zm-1.2,56.64v-.24h-1.44l.48.72ZM398.4,242.16l.24-.72h-.24Zm-4.32.72-.48-.48C393.93,242.86,393.62,242.54,394.08,242.88ZM391.92,79.44c.13-2.09,0-3.26-1.44-3.84Zm-.24,1.44-.48.24A2.11,2.11,0,0,1,390,82.8h-.24c-.47-1.37-1.7-2-2.16-2.88-.75-1.52.68-3-.24-4.32-.67.76-.93,3-1.68,4.08L385,79.2l-1.2-3.6-.72.48c-.24,3.4,1.21,3.83,1.92,6.48a5.63,5.63,0,0,1-3.36-1.44l-1.68-3.36h-.24c-.05,2.37-1.69,2.32-2.4,3.12l-1-.72-.24-1-.72.48v.24l.48,2.64-1-.24c.34,2.73,0,3.7-1.2,5.28l-1.2-.72-.72,1.2-1.68-.24c-2.45-1.31-3.15-6.21-3.12-8.64h-.24l-.24.48c-1.16.8-1.65,1.25-1.68,2.64H365l1-.72.24,1a19.81,19.81,0,0,1-2.16,5.52c-1.09-.21-.71,0-1.2-.72-.76-1.72-.76-4.45-.72-7.2L359,82.56l-.48-1.2a18.85,18.85,0,0,1-5.28,4.32c9.29,19.58,25.33,33,34.8,52.32h.72l.24-.24C388.94,118,391.56,100,391.68,80.88Zm-.48-10.8-.48-.48C391.05,70.06,390.74,69.74,391.2,70.08Zm-.72,2.64.24-1.2h-1.2ZM390,244.8l-.48-.72v.72ZM386.88,67.92v-.24a4,4,0,0,0-2.4-2.16l-.24,1.2C384.65,67,386.11,68.26,386.88,67.92Zm-2.64,5.76c0-1.11.22-.72-.24-1.44l-.72-1c.09.75-.32.87.24,1.68l.48.72Zm-1.92,7.44c.5-.55.28-.09.24-.72Zm-1.92,165.6V246l-.48-.72.24,1.44Zm-1-171.36-.24-1-1.44.72v.48H379Zm-4.56,165.36c.11-1,.67-.82,0-1.2C374.63,240.44,374.41,240,374.88,240.72Zm-.48,1.92v-.72l-.48-.48.24,1.2ZM371.52,7l.48-.72h-.24Zm.24,65.28-.72-.48C371.47,72.25,371,71.93,371.76,72.24Zm-.48,9.12.48.48C371.43,81.38,371.74,81.7,371.28,81.36Zm0,2.64h.24c-.3-.73,0-.29-.48-.72Zm-1.68-6.72V77c-.75-.41-.61-.6-1.44-1-.56.68-.63.59-.72,1.92h.24Zm-.72,163c.24.93.09.72.72,1.2A2.5,2.5,0,0,0,368.88,240.24Zm-1.2,1.44v-1A1.72,1.72,0,0,0,367,240,2.6,2.6,0,0,0,367.68,241.68Zm-1.2-178.56-.48-.24-.48.24.48.48C366.33,63.14,366,63.46,366.48,63.12Zm-.72,183.12H366c-.3-.73,0-.29-.48-.72ZM365.28,77h-.48l-1.2.48v1C364.71,78.14,364.74,77.87,365.28,77Zm-1.44,166.32.48-.72-1-.24Zm-1-170.4h-2.4A1.72,1.72,0,0,0,362.88,73Zm-1.2,2.64-.48.72C362,75.89,361.55,76.08,361.68,75.6Zm-1.92-64.8.48-.48-1-.72ZM360,64.32v-.24h-6l.48,2.64C356.15,67.79,358.55,66.12,360,64.32Zm0,13.44-.48-.48c-2.36.86-5.69-.48-8.64-1l1.92,7,.48-.48C356.3,81.55,357.73,79.57,360,77.76ZM358.08,60c1.29-.41,1-.33,1-1Zm.24,11v-.72h-.48l-.24.48Zm-.72-16.8.72.48C357.89,54.23,358.32,54.55,357.6,54.24Zm-.48,20.64,1-.72c-2.45-.59-3.74-1.58-4.56-3.84,1.42-1.74-.56-5-1.92-6.24-1.06,3.52-2.13,4.27-1.68,8.4C353.14,72.7,354.9,74.66,357.12,74.88Zm.48-33.12c.37-1.26.85-.6,0-1.44l-.72,1.44ZM357.36,53V52.8l-3.6-1.68-.24.24A4.06,4.06,0,0,0,357.36,53Zm0,7-.24-.72c-2.88-.54-3.4-1.63-5.28-2.88l-.48.24c.74,1.3.74,3,1.44,4.8L354.72,60l-.48,1.68h1Zm-.48-13.2v-.24l-1-.48Zm0,3.6-.24-.48h-.24l-.24.48Zm-1.68,191,1.2,1.68A2.38,2.38,0,0,0,355.2,241.44Zm1-231.6-1-.48C355.79,10,355.53,9.73,356.16,9.84Zm-2.64,27.6-.72-1-2.88-1L348,38.4l.72,2.4C350.35,39.27,352.09,38.94,353.52,37.44Zm-1.2,17-.48-.48C352.17,54.46,351.86,54.14,352.32,54.48Zm-1.68-9.36,1.2-.48-1.92-.24-.48,1.68.24.48h1.2l.48-.72Zm1,15.6-.72-1.2-.24.48Zm-.72,1.92.24-.48h-.48Zm-.48-13.2.24-.24-1-.48A1.78,1.78,0,0,0,350.4,49.44Zm-1.2,192.72-.24-.48c0-.63.14-1.09-.48-1.68C348.56,241.19,348.41,241.42,349.2,242.16Zm-.48-192L348,48.72h-1Zm0,1-1.2-.24-.24,1,.72.24C348.58,51.62,348.39,51.93,348.72,51.12Zm-1-7.44.48-.48-1-.24Zm.24-7-.48-1-.24.72ZM346.56,31l1.2-.48c-.24-.93-.09-.72-.72-1.2Zm.72,8.16-1,.72v-1.2c-.31.72-.15.54-.72,1a2.6,2.6,0,0,0,.72,1.68C347.15,40.67,347.27,40.63,347.28,39.12ZM347,47.76c.23-.42.22,0,0-.48Zm-.72-17.52-.24-1v1Zm-1.2,208.32-.72-1C344.72,238.52,344.4,238.1,345.12,238.56Zm-5-4.56.48-.48h-.24Zm-6.48,5.28h.24c-.16-1.08-.06-.93-.72-1.44ZM332.4,32.4a45,45,0,0,0-1.2-11.52h-1l-2.64,2.88,1.68-.72-1,1.92a4.4,4.4,0,0,1,3.12,1.2v1l-2.16.72c.42,2.51,1.72,2.8,2.64,4.56Zm0,11v-.72h-1.2l.24.72Zm-1.2-5.52-.72-.48-1.2-.24-1,.72.24.48,2.16,1.2C330.75,38.54,330.7,38.42,331.2,37.92Zm-.72-20.16-.24-.48h-.72l-1.2.24.72,1.2.72-.72ZM330,33.12v-.24c-1.92-2.39-3-5-5.28-7a8.37,8.37,0,0,0-2.4,1.92c1.9.1,2.08.36,2.4-.48,1.8.51,2.81,2.35,3.12,4.32l-.48.24-5.76-3.6-.24,3.6Zm-1,204.72-1-1.92C328.23,237.14,328.35,237.24,329,237.84ZM328.8,13.2l-.24-.48-1.68.48c-.18-.81-.92-.77-2.16-1C326,13.85,326.85,13.79,328.8,13.2Zm-1-7L327.6,5l-3.36-1.2-1.68,1V5Zm-2.4,15.6-.72-1-.48.48.24.48h1Zm-2.88-1.92-.48-.48C322.41,19.9,322.1,19.58,322.56,19.92Zm-1-10.32.72-.72-.48-.24Zm-.24,17.52,1-.24-1-.24Zm-.72-9.6h-.48l-.24.72C320.57,17.86,320.25,18.16,320.64,17.52Zm-1.92-8.88,1.68.24c-.31-1-.13-.75-1-1.2l-.72,1-.72,1v.24h1C318.55,8.94,319,9.38,318.72,8.64Zm1.68,17-.48-.48C320.25,25.66,319.94,25.34,320.4,25.68ZM318,239l.48-.24-.72-.48Zm.24-213.6V25.2l-1.44-1-.72,2.16c1.16,0,1,.23,1.44-.24Zm-.48-16.32-1.44-.48c-.09,1.44-1,.38,0,1.44C317.21,9.76,317.31,10,317.76,9.12ZM317,19l-2.16-1.2C315.3,19,316.4,19.36,317,19Zm-3.84-1,.48-1.68-1.44-1-1.44,1c.21,1.09,0,.71.72,1.2Zm-4.56,229-.72-1.2.24,1.44ZM307,14.16l-.24-.48L305.28,13l1,1.68Zm-.24,9.12-1-4.56h-1C305,20.92,305.47,22.18,306.72,23.28Zm-1,219.36-1-.24c.25,1.33,0,2.59,1.2,3.84A6.74,6.74,0,0,1,305.76,242.64Zm-6.48-223.2-.48-1.2C298.87,19.06,298.63,18.76,299.28,19.44Zm-1.2-9.36.24-.48h-.48Zm-4.8,231.36-.48-.48C293.13,241.42,292.82,241.1,293.28,241.44Zm-1.2-227.28.48-.48h-.24Zm.48,13.92-.48-1.44v1.92Zm-.24,1.44.24-.72h-.24Zm-.48,208.8-.48-1C291.47,238.05,291.1,237.74,291.84,238.32Zm-.24-217.2h.24c-.3-.73,0-.29-.48-.72Zm-1.44,221-1-1.44C289.45,241.7,289.45,241.68,290.16,242.16ZM288.24,19.68l-.24-1v1Zm-.72,219.6.72,2.16C288.21,240.15,288.12,239.9,287.52,239.28Zm-1.44,0,1.44,1.44A3.9,3.9,0,0,0,286.08,239.28Zm-.24-221.76L285.6,17h-.48l-1.92,1.44.24.72.48.24,1.2-.48ZM285.6,240c-.2-.66.14-.67-.48-1.2C285.38,239.58,285.08,239.48,285.6,240Zm-1.2-1.68v-.24c-1.22,0-.1,0-1.44-.72l1,1.68h.24ZM283.44,25h.48c-.3-.73,0-.29-.48-.72ZM283.2,241.2h.24a2.92,2.92,0,0,0-1.44-1.92Zm-1-216c.82-.43,1-.36.72-1.2C282.6,24.63,282.55,24.42,282.24,25.2Zm-1.92,216.24-2.64-3.12A6.49,6.49,0,0,0,280.32,241.44Zm-1.44-3.6.72,1C279.29,238.08,279.45,238.26,278.88,237.84Zm0-.48v-.24l-1.44-1.44,1.2,1.68Zm-1-213.6c.33-.51.44-.13.24-.72Zm-1.44,3.6,1-1.2-.24-.24h-1.44l-.48,1.2c.46.33.14,0,.48.48Zm-1-8.16-.24.48C275.73,19.38,275.41,19.47,275.52,19.2Zm-.24,6.72h-1C274.94,26.61,274.63,26.3,275.28,25.92ZM272.88,240l.48.72C273.06,240,273.36,240.43,272.88,240Zm-1-224.16,1.2-.72-1-.24ZM271.2,240l1,1.92c-.14-.63,0-.84-.48-1.44S271.66,240.34,271.2,240Zm-.72-224.88-2.4-3.6-1.2,1.68v.24ZM269,241c.23-.42.22-.05,0-.48Zm-1.92-1.68-.72-1.2C266.65,239,266.6,238.79,267.12,239.28ZM264.48,4.56h1.44l-.48-.48c-.43-.49,0-.17-.72-.48Zm-3.36,232.56.48.24c-.31-.52-.63-1-1.2-1.92l.24,1.92C261.15,237.19,260.85,237.59,261.12,237.12Zm.24-231.84V5h-1.2c.06,1.22-.21.88,0,1.68h.24l.48-.72Zm-.24-3.6-.24-.48h-1.44l.24,1Zm-5,235.68v-.24l-2.4-2.64c.41,1.18.64,1.84,1.68,2.4ZM246.72,1.2l-.24-.72L246,1.2ZM239,6l.48-.72L239,5c-.33.46,0,.14-.48.48Zm-1.2,11.52-1.2-1.44c-.21,1.13-.35.47,0,1.44Zm-.48,217.92c-.39-.75-.22-.56-1-1A2.68,2.68,0,0,0,237.36,235.44ZM235.2,15.36l1.44.48-1.2-1Zm.24,218.88s1-.1.48-.24Zm1-221a2.6,2.6,0,0,0-.72-1.68A3.56,3.56,0,0,0,236.4,13.2Zm-2.16-9.12c.67-.08.78-.08.48-.48l-.48.24Zm-.48-.48.72-.48-.72-.24c-.95,1.47-.47.54-.48,2.4h1V4.56C233.81,3.89,233.89,4.15,233.76,3.6Zm-.24,8.16.48.72C233.7,11.75,234,12.19,233.52,11.76Zm-1.68,227.52.72.72C232.18,239.35,232.48,239.67,231.84,239.28Zm.48-215V24a8.34,8.34,0,0,1-3.36-.72,4.16,4.16,0,0,1,0,2.64h2.4Zm-2.4,4.32.72.72C230.26,28.63,230.56,29,229.92,28.56Zm-1.68,4.8v-.24H226.8l-2.64,1V37.2l1.68,1.2A6.39,6.39,0,0,1,225.6,35h.24l.72,1Zm-8.4,26.88,7.92-4.32c-3.16-1.08-2.53-4.7-6.48-5.52v.24l.48.72c1.1.51,1.21.77,1.2,2.4h-.72s-2.84-.25-2.88-.24c1,2.32.88,3.59-.24,5.52l-.48-.24v-.48a12.39,12.39,0,0,1-1-6.48l2.16-1.2a1.72,1.72,0,0,1,.24-1l-1-1.44c.9-.69.48.06.72-1l-.48-.24c-.43,1.22-1,1.9-1.92,1.44-2.07-.89-3.7-5.78-4.08-7.44h-.48c-.19,1.06-.15.89-.72,1.44V42l-.48-2.4-.48.48c-1.9,1.21-1.56,2.92-4.56,2.64a5.56,5.56,0,0,0-1.92-3.36c-.89,1.38-3.06,2-3.36,2.4a9.38,9.38,0,0,0-1,2.5l-1.17-.34.24-2.4c-1.24.36-1.43.89-2.16,1.68.71-2.77,3.17-4.33,1.44-7.68-.54.8-.61,1.14-1.44,1.68l-1.44-.72L195.12,35c-.65.64-.87.61-1.2,1.68.43.32.36,0,.24.48l-1.44.24h-1.2c-.94,1.63-1.92,1.34-3.36,2.4l-.24-.24v-.24c-.48-.73-.24-.62-1.2-1l-.72-1V37c.55-1,1.36-3.11,1.2-3.84a6.47,6.47,0,0,1-3.84,1l.27.39-1.14,1.14-2.25-2.25a1.86,1.86,0,0,0,.24,1.68c1.16,0,.82-.23,1.44.24l-.48,1-2.88.72-.24.48H179l.89,2.37-1.37.51.24.72,1.07-.24.37,1.68-.72.24v1.92h-1.44v-.48l-.24-.48L176.16,43a6.55,6.55,0,0,1-2.64,1.92l1,1,.72,1h.23v1.48c-1.07-.63-2.38-1.1-3.35-1.72V48l4.08,2.64,1.2,1.2.72,2.4,1.6.27-.4,2.37h-.48l-1,.72v.24h.24l1.2-1H181l-1,1.92-.72,1,2.16,3.12-2.4-.72,1,4.08,1.44-.48v1c-1.09,2.37-2.57,4.76-4.8,6l-1-.72c.07-3.69,1.61-7.23,2.16-11-1.25.72-2.94.49-4.56,1.2-3.35,1.48-4.68,4.58-9.84,2.88l1.92-1.92c-1.19-1.7-.79-2.5,0-4.32h-.24l-2.88,1a2.86,2.86,0,0,1-1.92,2.88l.72,1.68h-.24l-1.44-.72a5.17,5.17,0,0,1-1,3.12c-3.32-.49-.94-5.85.48-6.72l1,1.92v-.48A15.21,15.21,0,0,1,162,59.28a4.19,4.19,0,0,1-1.2-1.92L157,56.88l.48,1.68h-.24l-1-.48v2.4c.94.78.08.94-.72,1.92l-2.88,1v-.72l3.12-5.28v-.24l-2.88-.24a3.51,3.51,0,0,0-.72.72l-5,17.28c11.88.67,25.68,2.11,36.24-1.44V73.2c-1.24-2.53-.14-7.33.24-9.12h.24l2.4,2.64h.24a26.35,26.35,0,0,1,1.22-4.16l.22.08c1,0,1.4-.47,1.68.24,1,2.58-1.74,3.84-1.44,5.28a3.5,3.5,0,0,1,1.92,1.68l-3.36-.48.72,3.36h.24C199.56,69,209.8,65.36,219.84,60.24Zm7.92,180.48L227,240A1.78,1.78,0,0,0,227.76,240.72Zm-.24-194.16-.48-.72h-1.2l-.48.24.48,1.44ZM227,43c.65-.74.68-.08.24-1l-.48,1ZM226.32,41l.48-.24a4.1,4.1,0,0,0-1.2-1.92A4.26,4.26,0,0,0,226.32,41Zm-1.2,9.36v-.72h-1l-.24,1,.72.24Zm-1,184.08a4,4,0,0,0,2.4,3.12A6.39,6.39,0,0,0,224.16,234.48Zm-2.4-189.36L224.64,43l-1.44-.72c.41-.3.63-.32,1-.72l-1.44-.72A3.85,3.85,0,0,1,220.08,43v1.92h.24C221.41,44.26,220.52,44.42,221.76,45.12Zm1.92,196.32c-.32-1.22.06-1.3-.72-2.16C223.24,240.48,222.47,240.22,223.68,241.44ZM222,241v-.24l-1-.72.72,1Zm-3.6-1.2,2.4,2.64A3.74,3.74,0,0,0,218.4,239.76Zm1.2-1.44.48.48C219.75,238.34,220.06,238.66,219.6,238.32ZM218.4,46.8l1-2.16c-.86-.84-.8-2.55-1.68-3.36-.52,1.24-.3,1.73,0,3.12-.93-.33-.5-.42-1.44,0A7.53,7.53,0,0,1,217.92,47h.24Zm-.24-7-.72-1.2C217.68,39.57,217.53,39.36,218.16,39.84ZM217,37.2l.48,1C217.22,37.28,217.45,37.67,217,37.2Zm-.48,203.28L216,240C216.33,240.46,216,240.14,216.48,240.48Zm-13.92-4.32,1,1.68A2.18,2.18,0,0,0,202.56,236.16Zm-.24-197.52.24-1.68h-.24l-.48,1,.24.72Zm-.48,199.2-1-1C201.27,237.49,201.18,237.46,201.84,237.84ZM196.08,24.72l.48-.48h-.24Zm-1.68,8.64c.23-.42.22,0,0-.48Zm-2.64,201.12,1.2,2.16A3.33,3.33,0,0,0,191.76,234.48ZM189.6,31.92c.45-1.06,1.5-2.08,1.2-3.12a9.3,9.3,0,0,0-1.92,2.88l.24.48Zm.48-10.32-1-1,.24,1.2-.48-.24c-.18-1.22,0-1-1-1.44l-1.92.48-.24.48.24.72c1.57.36,1.25.07,1.68,1.68A4.86,4.86,0,0,0,190.08,21.6Zm-6.72,215.52h-.48l-.48.24.24.48A1.72,1.72,0,0,0,183.36,237.12ZM175.68,58.8l-.24-.48a9.76,9.76,0,0,1-5.52-1.44c.15-.69.64-.39,0-.72l-3.6-1.44c-.6.89-.87.51-.72,1.68l-.48.24c-.61.8-.7-.13-1.44,1.44a3.51,3.51,0,0,1,3.12-.24,12.76,12.76,0,0,1-.48,4.8h.24C170.21,61.37,173.32,61.22,175.68,58.8Zm-1-4.56-.48-.72-2.64-1.68c-.17,1.6-.09,1.78,1,2.64Zm-2.16-11,1.92-3.12A9.9,9.9,0,0,0,171.36,36c-1.12,2.9-.3,5,.72,7.68C172.54,43.35,172.22,43.66,172.56,43.2ZM174,241.44v-.24l-1-1c.25.88.2.71.72,1.2Zm-2.88-2.88,1.44,2.16C172.35,239.39,172.16,239.05,171.12,238.56Zm-1.92-223,1-.24-1.2-1-.48,1Zm.48,20.16.48-.24-.72-.48Zm0-8.16.24-.48h-.48Zm-1,219.12-.24-.48h-.24ZM168.48,2.64,168,2.16C168.33,2.62,168,2.3,168.48,2.64Zm-1.2,47.28a24.24,24.24,0,0,1,2.16-8.16c-1.28-.22-1.15-1.14-2.64-1.68.08,1.29-.48.71.48,1.2-.57,3.06-2.48,3.24-2.88,7.68ZM168,38.64l-.24-.48-.24.48Zm-3.36,14.88-.48.24V54C164.78,53.73,164.57,53.62,164.64,53.52ZM163,51.84h.48l-.48-.48v-.48h-1v1.2C162.73,52.07,162.34,52.31,163,51.84Zm-.48,192-.24-.48H162ZM161.76,43,162,40.8l-1.2-1.2.72,3.36Zm-.72,7.2a4.89,4.89,0,0,0,.48-2.88h-1.44l-2.16-2.88h-.24l-1,1.44h-.48c-.4-.7-.67-1.51-1.44-1.92l-1,2.64-1-1c-.2,3-.41,6.54,2.4,7v-.24a4.91,4.91,0,0,1-1-4.08l.72.24a5.66,5.66,0,0,0,2.16,2.16,5.8,5.8,0,0,1,.48-2.88h.24c1.56.56,1.82,1.38,2.64,2.64ZM158.88,54l.72-1.44-2.16-.72L157.2,53Zm-.48,1.44-.48.72C158.67,55.73,158.27,55.92,158.4,55.44Zm-1.2,187.68-.24-.48h-.24Zm-.48-187.68L157,55h-.48Zm-4.08,186.72,1.44,2.16A2.5,2.5,0,0,0,152.64,242.16ZM155,55c-1.71-.38-1.55-1.09-2.64-1.92l-.24,3.12h.72C153.73,55.85,154.58,55.77,155,55ZM153.12,2.64V2.4c-.3-1-.39-1.21-1.2-1.68L150.48.24V1l2.16,1.92Zm-1.44,12.48c.2-1.18.33-2-.24-2.88v2.88Zm0-3.12V10.56H151V12Zm-1.2-7.2H151c-.3-.73,0-.29-.48-.72Zm-2.4,238.08c-.38-.65-.08-.33-.72-.72A1.78,1.78,0,0,0,148.08,242.88Zm-6-181.44c1.3-5,5.84-16.87,2.88-20.64-.84,1.61-5.81,6.7-7.68,5.28l-1.2-1.68.24,6,1.68-.48.48.48c-.19,2.69-1.7,2.77-2.4,4.8l3.84-.72,1,.72-4.8,3.6.48.72Zm0,180-.48-.48C141.93,241.42,141.62,241.1,142.08,241.44ZM138.72,72.72l2.88-9.36c-2.41-1-3.31-2.13-5.52-2.4l1.68,6.72-1.44,1.92-1-.72L135.6,72Zm-1.44,166.8,3.6,3.12c-.52-1.62-1.83-2.63-3.36-3.6ZM139.2,15.84l.48-1H139v1Zm-.48-1.44H138C138.41,15,138.14,14.68,138.72,14.4Zm-.72-7h-.72C137.69,8,137.42,7.72,138,7.44Zm-1.68,35.28,1.44-3.84a13.48,13.48,0,0,1-1.44-2.16c.73-.46.39,0,.72-1h-.72A11,11,0,0,0,136.32,42.72ZM134.88,83l2.64-7.2-2.4-.72-.72,8.16Zm1.92,161.52.48.48C137,244.58,137.26,244.9,136.8,244.56Zm-.72-187.92.48-.48-.48-.24Zm.24,187.2-1.68-1A2.21,2.21,0,0,0,136.32,243.84ZM133,47.76c.07-2.08.25-6.15-.72-7.44v1.92c-2.28.1-3.38,1.3-5,2.16l.24.48C129.57,45.25,130.91,46.94,133,47.76Zm0,9.6V54.24h-.72c-.38.6-.33.14-1,.72v.24h1a2.4,2.4,0,0,0-.72,1.68Zm0-6.24-1.92,1v-.24l1.44-2.16v-.24c-2.37-.1-3-1-4.8-1.68l-.24.72,2.64,1.68c.53,1.62-.38,2.58-1.68,3.12l.48.24a2.48,2.48,0,0,0,2.4,0C132.29,52.89,132.86,52.78,133,51.12Zm-.72,18.72c.17-1.93.56-4.45-.48-5.76L130.32,66l-1.2-.48c-.26-1-.11-1-1-1.44l-1.68.72V67Zm0-7.2c.2-1.15.24-1.42-.48-2.16l-1.2.72.24.48ZM130.8,86.88c.79-3.4,2.06-9.35,1-13.44-4.61-.1-5.47-3.4-9.36-4.56l1.2,2.4c.5.47,2,.68,2.64,1l1.2,5.52-1.92-1.2-.72-3.12a3.72,3.72,0,0,1-2.64,1.68v-.48c-.35-1,.06-1.57.48-2.4l-.48-.24h-.24A42.07,42.07,0,0,0,120,78.48l-1.2.72-.72-.48c-.41-2,.29-3.21.24-5.28h-.24l-1,1-1.2.72.72,19.44-.24,30,.48-.24,6-11C126.55,104.94,128.47,96.92,130.8,86.88Zm-1.44,159.84v-1.44c-.33.46,0,.14-.48.48Zm-.24-205.2-.72-1c-1-.71-1.19-1.92-2.16-2.64a3,3,0,0,1,.24,2.16h-1.92v2.4l.24-.48,1.68-1.2L127,41v.24c-.67,1.48-1.84,1.58-2.4,3.12C127.13,44,127.37,42.61,129.12,41.52Zm-.48,21.84.24-.72h-.48l-.48.72Zm-1-8.64c.59.45.66.52,1.2.48Zm-.24-3.36.48-.48-1-.48ZM126,53l.72.48C126.29,53,126.72,53.35,126,53Zm-.24,6.48c.56-.55.71-.43.48-1.2a2.14,2.14,0,0,0-.72,1.2Zm.24,1.2v-.24l-2.64-.24-.72-1.44c0,1.37-.41,2.86,1.2,2.64v1Zm-2.88-29.28L122.4,31C122.83,31.45,122.4,31.13,123.12,31.44Zm-.72,13.92v-.24l-1.2-.72-.48,1,.24,1Zm-.24,9.6.24-.48-.48-.24h-1.2l.72.72Zm-1.68,13V67.2l-.72-.48v1.44Zm-.72,5.76.72-.48-.72-.48Zm-.24-27.84.72-.72-.72-.72Zm-1,13.68,1-.24-1-.24Zm0-10.08-.24-.48-.24.48Zm-.48-4.08.24-1.2-1-.48.72-.48-1.92-1.44c0,1,.94,2.25,1.44,3.6Zm.24,10.08-1-1.2C117.69,55.21,117.6,55,118.32,55.44Zm-.24-5.28v-.24l-.72-.48.48,1Zm-.24,21.36-.24-1.2h-1l-.48,1.2h1.68Zm0-4.32h-.48l-.24.48C117.85,67.38,117.41,67.68,117.84,67.2ZM116.4,49.92l-.24-.48h-.24Zm-.48,17h.24a7.94,7.94,0,0,1-.24-3.36h-1.2l.48,3.12Zm-.24-14.4v-.72l-.48-.48-.48,1.2ZM115.2,59c-.6-1.64.61-2.32,0-4.56h-1C113.92,55.78,114.14,58.3,115.2,59Zm0-7.92-.24-1.2h-1C114.38,51,114.33,50.67,115.2,51.12Zm-.72-4.56L114,44.4C114,45.54,114,46,114.48,46.56Zm-4.8,189.6,2.16,2.64A3.65,3.65,0,0,0,109.68,236.16Zm1.92,0v-1l-1.68-23.76c-4.15-25.81-2.06-54.7-6.24-80.88-1.08-6.76,2-29.33-1.44-32.4-.3,2.78-1.1,7.75-3.6,8.88v-.48c-.9-2.28,1.31-5.69,1.68-8.16l-.24-.24-.48.24c-1,2.19-7.33,4.54-9.36,2.16,1.65-1.63,5.86-1.49,7.2-3.36V97H97.2c-7,2.67-8.41-.77-13.44-2.4L84,96.24,83.52,96l-.24-1.68-1.2.72c.44-.84.2-.65,1.2-1v-.24c-.41-.83-.55-1.27-1.44-1.68v1c.86.09,0-.06.72.48-2.15,2.88.83,7,.24,11.28h-.24l-.48-.48c-2.52-1.22-3-10-3.12-13-2.61,2-4.83,4.76-7.44,6.72l-1.44-.24c0-3.27,1.49-6.25,3.6-7.44l.24,1.44,3.36-1L75.6,89c1,.28,2.25.73,3.36.24A12.09,12.09,0,0,1,77,84a8,8,0,0,0-2.88.24c.31-.91.53-.7,0-1.44l-.48.24a8.18,8.18,0,0,1-3.36,3.84l.24.48c1.71-.1,2.66-.06,3.12,1.2-3.05,1.19-4.23,3.91-8.4,4.32L63.12,91.2c.94-2.19,3.5-2.47,4.56-3.6L67,87.12l-2.16.72V86.4l1-2.16-1.44-.72c.75-.92,1.69-1.17,2.16-2.4L65,81.6a2.29,2.29,0,0,1-.72-2.4l-.48-.48h-1a5.1,5.1,0,0,1-3.36,3.6v-1.2l2.64-3.6h-.72l-2.64,1c0,24.63-4,51.43.48,76.08,1.31,7.19.47,14.36,1.68,20.88l1.44,22.8v7c1.5,9,.51,19.35,2.16,27.36C65.05,235,64,239.82,66,241c.14.58.63,1,1.92,1.44v-.24l-2.64-2.4.24-.72,1.44,1.2c.73,1.32,1.85,1.23,2.88,1.68l-1.44-2.64.48.24c.6,1.27,1.81,1.87,2.88,2.64-.2-.44-1.43-2.49-.48-1.44V240l1,.24.72,1-.48-1.44c.61-.11.08.16.72-.24l-1-1.44c1.62.36,2.21,1.1,3.6,2.16v-1l1.68,1.2c-.25-1.75-.88-2.31-1.44-3.6l3.84,2.4-1-3.36,1,.72c.12,1.19.11,1.1.72,1.68l-.24-.48c.4-.33.42-.55.72-1l1.2,1.2,3.84,2.4c-1.27-1.66-1.87-2.06-2.4-4.32l.72-.24c.19.73.2,0,.72-.24.8,2.42,2.65,2.18,4.32,2.88a2,2,0,0,1,.48-2.4h.24l1.44,1.68L91,235l.48.24c.41,1.85,1.77,4.85,2.88,5.28.23-1.11.11-1.08.72-1.92l.48.24c.24,1.15.28,1.22,1.2,1.68L96,238.8l.24-.24,1.92,1c.2-.83-.28-.3.48-.72.38.65.08.33.72.72l-.72,1.2a3,3,0,0,1,1.44,1.44h.24c-.31-1.27.1-1-.24-1.68l2.16,1v-.24l-.48-.72,2.88,1.44-1.44-1.44.72.24L102,237.36c.72-.7.5.08.48-1.44a34.08,34.08,0,0,0,2.82,2s0,0,.08.06l.22.15-.06-.06q.48.27,1,.54l-1.92-2.4.72.24c-.89-1.13-2.79-1.54-3.6-3.84,3.27,1.84,5.49,4.19,9.12,6.72l-5.76-8.4c1.65,1.17,2.14,3.21,4.08,4.08l-.48-1,1,.72C110.13,235.68,110.35,235.94,111.6,236.16Zm-3.84,1.92a5,5,0,0,0-2.4-2.4A5.46,5.46,0,0,0,107.76,238.08Zm-5-182.64,1.68-1.92-1.2-1.2V53c-1.58,1-2.2,2.65-3.12,4.32a4.63,4.63,0,0,0-4.32,0V59c.62.1.13-.23.72.24-.33.8-.3.47-.24,1.44a7.46,7.46,0,0,1,2.88,1,4,4,0,0,0,1-1.2v1.2l2.88.48L101.76,59c1.34.46,1.58.94,2.4.72v-3.6l-1.44.24Zm1.44-17.28-.48-1a3.51,3.51,0,0,0-.72.72Zm0,35-.72-1c-.29,2.09.26,4.63-.48,6.72l-1.2-.24,1.68,1.92h.24Zm-1.44-7.92c.72-.1,1.56-.68.72-.48l-.72.24Zm1,31.68V95.28l-.48.24-.72,1.2V97Zm-1-26.16V68.4l-2.4-1.2c-.24,1.31-.59,1.34-1.2,2.16.55.37.29.44,1,.24Zm0,12.48-2.88-3.12c-.59,1.57-2,2.32-3.84,2.64-.45-.61,0-.35-.72-.24-.3,1.06-.3,1-1.2,1.44l1.2,1.44,1.92,1.2v-1c.83.74,1.16,1.54,2.16,2.16,1.07-.22,2.12-.06,2.64-1A11,11,0,0,1,97,85l.24-.48A13,13,0,0,0,102.72,83.28ZM102,29.52l.24-1.2h-.48C101.6,29.09,101.27,28.67,102,29.52Zm0,65.76-.24-.72-.24.24ZM101,36l-.24-1.68c-.41,1.25-.73,1,0,1.68Zm-1,57.84-1.44-1-1.2,1.92c1.41.29,1.31.54,2.16-.48C100.06,94,99.74,94.3,100.08,93.84Zm-.24-15.12v-1l-.24-.24c-.87.51-1.09,1.13-1.68,0h.48c-.31-1-.13-.75-1-1.2-.71,1.47-1.64,2.68-.72,4.56A5.93,5.93,0,0,1,99.84,78.72Zm0-48.48-1-1.2-.72-.24L97.92,30a3.51,3.51,0,0,0-.72-.72V31h.24ZM99.6,89.76c-.29-1.08,0-.77-1-1.2C98.93,89.64,98.66,89.33,99.6,89.76ZM97.2,15.84l1.68-1a8.7,8.7,0,0,1-1-1l.24.72-1.68.24Zm3.6,16.56a5.81,5.81,0,0,0-3.12-1.2l.48.24c-.34,2.77-1.52,3.28-2.4,5.28H96C97.64,35.22,99,33.82,100.8,32.4ZM97.2,91l-.72-.72-1-1.2h-1.2l-1.44,3.12c-1.15-.65-4.76-.88-6.72-1.44l.48,1.68C89.75,93.45,93,95.24,96,95V94.8l-.48-.72-2.16-.72v-1A5.25,5.25,0,0,1,97.2,91Zm-.48-75.12-.48-.72-2.64-.24C94.12,15.85,95.24,15.9,96.72,15.84ZM95.76,6c.33-.51.44-.13.24-.72ZM96,9.6l-.48-.48C95.85,9.58,95.54,9.26,96,9.6ZM95.76,30l-.24-.48a1.87,1.87,0,0,1-1.2-.24l.72,1.2Zm-.24,211.44a1.72,1.72,0,0,0-.72-.72A1.78,1.78,0,0,0,95.52,241.44ZM94.08,10.56l-.24-1.2L92.16,10.8Zm-.24,15.6.24-2.4h-.24l-1.92-.24a3.51,3.51,0,0,0,1,2.64l.24.48ZM92.64,90c.23-.42.22,0,0-.48Zm0-86.4-.24-.48-1.2-.48-.48,1Zm0,84.72-1.2-1.44H89.28l-1,.72.48.24,3.12,1.68ZM92.4,240.24V240L91,238.8l1,1.68Zm-1-195.12.48-1h-.48l-.48.72ZM89.52,239.76l.72.72C89.86,239.83,90.16,240.15,89.52,239.76ZM90,39.6v-.24l-.72-.48L89,39.6ZM89,5.28,89.52,5l-.72-.48ZM88.8,74.64l.24-.48h-.48ZM86.16,12.72l.72-.72h-.24Zm.48,74.64-.24-.48h-.48l-.24.48v.24Zm-.72-73.2L85.68,13l-1.2,1.44v.24h.24l.72-.48ZM84.48,34.32l-.24-.72-1-.72-.72.24.24.72ZM84.24,6.48V5.28l-1-.72.48,2.16ZM84,16.08l.24-.72c-.87-.9-1.17-2.08-2.4-2.64l-2.4,1.44v.72l.72.48,1.2-.24c-.41,1.23.09.63-.24,1.44A7.86,7.86,0,0,0,84,16.08ZM83,6.72H82.8l-.24.72C83.05,7,82.73,7.44,83,6.72Zm-2.4,58.8L80.4,65l-.72-.24-.48.72.48.48ZM78.72,241.44l-.72-1.2C78.25,241.12,78.2,241,78.72,241.44Zm-1.44,1.2L75.6,241.2C76.06,242.1,76.41,242.19,77.28,242.64Zm-2.64-169L72.48,72l-1.92,1.2.48.72c-1,.11-.5-.24-1.2.48v.72H71l1.2-.24-.48-.72h-.48l.24-.48C72,73.82,73.59,74.54,74.64,73.68ZM73,74.88l1-.48h-1.2Zm.24,7.2-.48-.24c-.43-.74-1.29-2.27-2.16-2.64-.8,2.39-1.36,5-2.16,7l.72.24C69.28,83.64,70.84,82.62,73.2,82.08Zm-4.32,2.16V84l-1.2-.24v.72l.48.24ZM67,242.88l-1.2-1C66.18,242.56,66.22,242.55,67,242.88ZM59,75.36l3.6-1.92-1.44-.72c1.07-.65.56-.57,1-1.92l-.48-.24H61L59,72.24l-.24,3.12Zm-21.12,12-.48-1.68-3.12-1-1.2,2.4C35.25,87.45,36,87.84,37.92,87.36Zm-.48,158.16c-.43-.88-.18-.83-1.2-1.2C36.66,245,36.66,245.12,37.44,245.52ZM36.24,98.88l.24-.48a3.49,3.49,0,0,0-1-2.88c-.64,1.09-1.47,2.66,0,3.84Zm0-8.16v-.24l-.72-1.68-1.68,1v.48a4.85,4.85,0,0,1,1,1Zm-.72-10.08-.24-.48H34.8l-1.2.72.24.48H35Zm-1.2-40.08,1-1.44h-.72c-.55.54-.61.35-1,1.2ZM29,39.84l6.24-1.92-3.12-1.44-.72,1.44a2.63,2.63,0,0,0-1.2-.72c-.78.56-1,.43-1.44,1.44C29.67,39.45,29.3,38.7,29,39.84Zm6,3.84-.24-1.2-1.68,1.44Zm-.24,8.16H35c-.31-1.07.16-.48-.72-1Zm-.48-6,.48-1.2-1.2-.24c-.72.64-1.06.6-1.44,1.68Zm.24,4.56V48.72l-.72.48v1ZM31.44,33.6l2.88-1.44-1.2-.72Zm2.16,8.64v-.72l-1.92-.72.24,1.44.72.24Zm-1.2-1.92,1,.24-.48-.48Zm.72,37.44v-.48h-1l-.72.72v.24h1Zm-.48,6.48V84l-1.92-.72c.19,1.06.14.89.72,1.44ZM31,93.12l1.68-.24L31.2,91.44C30.59,90.29,29.27,90,27.6,90A6,6,0,0,0,31,93.12Zm1.92-19c-.38-1-1-1-2.16-1.44l-2.4.72-.24.72.24.72C29.47,73.67,30.73,74,32.88,74.16ZM31.2,37l-1-.48C30.71,37,30.33,36.73,31.2,37ZM29.52,68.4H30c-.3-.73,0-.29-.48-.72ZM29.28,31v-1.2l-1,1V31ZM27.6,83,29,80.4a30.66,30.66,0,0,1-3.84,0c-.55.58-.44.17-.72,1.2h.72c.64.64,1,.41,1.68.24l-.24,1.92Zm1.2-50.16V31.2l-.72,1v.48l.48.24ZM27.36,49l-.24-1.2h-1.2C26.42,48.62,26.43,48.53,27.36,49ZM25.92,76.8l1.2-1.44h-1l-.48.24Zm.48-31c.33-.51.44-.13.24-.72l-.48.24Zm.24-4.08v-1L25,40.56l.24,1.2,1.2.24Zm-1.2,6.48L25,48c-.59.47-.1.14-.72.24l.48.72v-.48C25.34,48.38,24.85,48.71,25.44,48.24Zm-.72,28.32-.24-.72-.24.24Zm-3.36,22.8v-1.2l-1.2-.48C20.27,99.08,20.19,99,21.36,99.36ZM12.72,97.2l-.24-.48h-1l.48,1Zm-.24-6.72-.24-1.92-1,.72Zm-2.4,4.08v-.24l-.48-.48-.24.24ZM9.6,98.4v-.24H8.4l-.24,1,.72.48ZM9.12,7.68l-.48-1.2c-1,.3-.7.19-1.92-.24l-1,1.44V8.4L7.92,9.6H7.68c-.16,1.06,0,1.35-.24,2.64H8.88V12c-.5-1.54-1.19-3.53-1-4.32Zm0,78-1.68-1C7.9,85.81,8.36,86.18,9.12,85.68ZM7.68,6.24h.48C8,5.37,8.06,5.51,7.68,5Zm0,225.84.48.48C7.83,232.1,8.14,232.42,7.68,232.08ZM7,12.48,6.48,12C6.81,12.46,6.5,12.14,7,12.48Zm-.24,5.28L6,17.28C6.43,17.77,6,17.45,6.72,17.76ZM6.24,86.88,6,86.16H5.52C6,87,5.39,86.44,6.24,86.88ZM4.08,10.8,5.52,9.6H5C4.39,10.16,4.44,9.83,4.08,10.8ZM3.84,102l1.2-.72L3.84,101l-.48.48Zm.48-5,.48.48C4.47,97,4.78,97.3,4.32,97Zm-1.2,3.6c.5-.55.28-.09.24-.72Zm.24-84.48v-.24H1.92C2.64,16.48,2.61,16.61,3.36,16.08ZM.48,102.24l1.68-.48c-.15-.87-.1-.73-.48-1.2H1Zm1-4.8L.48,97C1,97.46.57,97.21,1.44,97.44Zm0-1.44c-.22-.88,0-.49-.48-1-.08.47-.31.12,0,.48S1,95.66,1.44,96Z" transform="translate(0.06 0.66)"/><path class="cls-1" d="M460.8,107c-.35,14,0,33.77,0,50.16L457,158.64l1-1.2c-1.07-.13,0-.1-1-.48a3.45,3.45,0,0,0-3.36.24c.66.75,1.33,1.51,2,2.32a15.15,15.15,0,0,1,1.88,3c-.36.93,0,1.24-1,1.68,0,0-2.09-4.55-3.6-4.8v.24a5.16,5.16,0,0,1,.48,3.6l-1.2-1-.72-1.44L451,161l-.24,2.16h-1a7.11,7.11,0,0,1-1.44-2.64l-.48.24c-.85,1.85-1,4.34-2.88,5.28l-.24-.48-.72-.72c.22-2.62,1-4.92,1.44-7.68l-1.2.24c0,1.66-.13,2.15-1,2.88-.85-.72-1.55-1.06-1.44-2.88a17.73,17.73,0,0,0-2.88,1.68l-.72,1.44-1.2-.48,1-1.2c1.22-.68,1.31-2.18,2.4-2.88s1.67.29,2.64-.48c1.29-.89.85-1.07.72-2.64a8.75,8.75,0,0,1-2.4,0v1a4.37,4.37,0,0,0-3.12-.48l.72-.72.72-1.44,3.6-.48c-1.46-1.08-.94-1.73-1.68-2.64l1.92-1.2c-.48-.8-.59-.76-1.68-1-.5.89-.81,1.28-2.4.72l1,2.16-.72.48-1,.24.24-2.16-.72.48c.28-1.36.81-1.79.48-2.4-.33.46,0,.14-.48.48,0-.89-.19-1.08-.72-1.92a27.31,27.31,0,0,0-2.16,2.16l-1.2-.72c.24.9.46.19,0,1l-.24-.48-1-.48a9,9,0,0,1-.07-2.84,15.83,15.83,0,0,1,.31-1.72c1.19.21,1.49.45,1.92-1.2H433v-2.4c-.91-.16-.79.2-1.44-.24a17.24,17.24,0,0,0,1.2-5.76c-1.93.72-3.19,1.47-5.28,1.44l.48-.24,2.4-1.44c-2.59.59-6.45.7-8.64-.48l.24-.48c2.12-.7,5-.33,6.72-1-2.41-.8-2.18-2.34-3.12-4.56l-.24,1.68-.24-.48c-.13-.82.41-1.34.48-1.92l-.48.24h-1a11.5,11.5,0,0,1-.33,1.53l-.63-1-.54-.08.06-.4c.59-1.09,2.79-1.06,2.88-1.2a2.79,2.79,0,0,0-1.68-2.64l1.92-.24,1.44-.48.48-1.44,1.2,0a9.55,9.55,0,0,0,1,5h.24l7.2-2.4-.72-1-2.16-1.44c-.94.55-.62.54-1.92.48.35,1,.52.62-.24,1.44-1.77-1-1.9-2.57-1.44-5h-.1l.1-2.1c.87.12.23.2,1,.66,3.86-1.17,4.76-2.27,8.64-.24v-.72l-.24-.72c-3.34-1.38-5.31-2-7-5l1.2.48-1.2-1v-.24c5.69-.37,5.78,4.18,11.28,4.56l.24-.48.24-1.92h-.48c-2.08-1-4.43-1.08-5.28-3.36a10,10,0,0,0,5.28,1.68v-4.32l.48-.24,1.44,1a15.41,15.41,0,0,0,1.2,5.28,4.33,4.33,0,0,0-1.92.48v.24l.24,1.2h.72l1.2-1c1.36.44,1.34.82,2.16,1.68,3.4-1.47,1.23-5.56,5.28-7.44l1.2-.24c.45,2.81-.5,3.74-2.16,5h.48l1.44.24.48-1,1,1.2Zm-.48,47.28v-.24l-4.56-2.16-1.68,2.4a10.48,10.48,0,0,1,4.56,1l.72-1.44C459.92,154.76,459.35,154.38,460.32,154.32Zm-1.68-7.2h-.24l-.48.24C458.6,147.64,458.16,147.54,458.64,147.12Zm-1.92-33.6.48-.48H457Zm-2.88-1.92c.7-.39,1-.27.72-1Zm-1,40.08,1.44-1.2-1.68-.24-.48.72v1.2l-1.2.48c-1.31-.69-1.27-.46-2.88-.24-.25-1.2-.43-2.51-1.92-3.12-.33,1.89.41,2.79,1.92,3.6-.84.3-.62.42-.48,1.92l1-.24-.72,1c2.1-.7,4.76-.22,5.28-3.12C452.62,151.83,452.91,152.44,452.88,151.68Zm-1-10.8.72-.72h-.48l-.48.24Zm-.72-25.44.48-.72-1.2-.24.72,1.44Zm.24,44.16v-1l-1.44-1-.72,1.44,1.68.72Zm-1-2.88c.23-.42.22-.05,0-.48Zm-.72-10.8.72.48C450.05,145.91,450.48,146.23,449.76,145.92Zm-1,3.36h-.24l-.72,1A2.76,2.76,0,0,0,448.8,149.28Zm-1.2,11v-.24c-.51-.63-.36-.8-1.2-1.2l-.48.48a2.73,2.73,0,0,0,1.2,1.2Zm-.72-42.72.72-.72-1-.24Zm.24,25.2.24-.72h-.24Zm-1,9.84c-.05-.55.12-.37-.24-1l-.72,1.2Zm-.48,2.4c.35-.58.4-.57.24-1.2l-.48,1.2Zm0-18v-.24c-.3-.41-.32-.63-.72-1l-.48.72.24.72Zm-1,19-.24-.48-.24.48Zm-.24-17.28h-2.16l.24,1.68C443.76,139.67,444,139.61,444.48,138.72Zm.24,6.72c-.48-.38-.33-.31-1.2-.48C444,145.46,443.76,145.29,444.72,145.44Zm-1.2-29.76c.5-.55.28-.09.24-.72Zm-1,2.16-.72-1c-.46-.73,0-.39-1-.72l-.24.48Zm-1.68,39.36c.33-.51.44-.13.24-.72Zm-1-15.6,1.2-1.44c-.31-.82-.24-1-1-1.44a3.34,3.34,0,0,0-2.4-.48l1.44,3.6Zm-1.2-15.12,1-.72-.72-.48ZM439,141.6h-1l-1.44.48c.53.81.46.43.48,1.44C438.05,143,438.58,142.81,439,141.6Zm-.24-3.84c.23-.42.22,0,0-.48ZM437,135.12l.48-.48h-.24Zm-.48,4.32.72-1.2c-.37-.06-.67-1.57-1.44-2.4l-.48,2.64.48,1.44Zm0-13.68-.24-.72-.48,1Zm-.24,2.88h-.24c-.75.23-.72.76-1.2,0l-1.2-2.4-3.12.48a5.48,5.48,0,0,1-1.44,2.64l5-1a3.11,3.11,0,0,0,.24,1.68C435.1,129.68,435.91,129.41,436.32,128.64Zm-.72,7c.43-.32.36,0,.24-.48Zm-.48-20.16-.48.72C435.39,115.73,435,115.92,435.12,115.44Zm-.48-1,.24-.48h-.48ZM433.44,131h1.2l-1.68-1Z" transform="translate(0.06 0.66)"/><path class="cls-1" d="M216,51.36h.48c-.54,2.35-1.72,4.51-4.08,5Z" transform="translate(0.06 0.66)"/><path class="cls-1" d="M210.24,48.48v.24c-4.84.43-5.66,4.4-10.56,4.8v-.24l2.16-2.4c1.79-.88,4.1-1.79,6-2.88Zm-8.64,3.6h-.48l-.24.72A1.72,1.72,0,0,0,201.6,52.08Z" transform="translate(0.06 0.66)"/><path class="cls-1" d="M203.52,55.68H203l-1.68.48-2.64-1.68.48-.48,3.6.72V55l-1.44.24Z" transform="translate(0.06 0.66)"/><path class="cls-1" d="M199.2,43.92l1.17.34c-.79,3.08-.59,6.29-3.57,7.34l1.44,2.16H198c-.92-.27-.69-.21-1,0l-1.92-2.4c-1.17.14-1.59.25-2.16,1,.56.63.11.23-.72.48l-.24.72v1.2h1l-.72,1.68a2.38,2.38,0,0,0-1.44-.24c0,2-.16,2.07-1.2,2.88h-.72V58.8l-.72,1.44-.14.29-.1-.05-1.2.72v-.72c.16-.08-.74-1.88-.24-3.12l-.48.24a5.45,5.45,0,0,1-6.72,2.16l.72-1,1.92-1-.24-.72-.72-.24h-1.68l.4-2.37,1.28.21c-.5-1.21-.22-1.52.48-2.64l-4.08-.24-1.2-1.2L176.4,49a5.4,5.4,0,0,0-1-.68V46.8h0c.23-1.93,1.08-1.68,2.64-2.16h1.44v1.44l2.4,2.16.48-2.4-2.16-.48v-1.2l1.2-1-.24-.72h-1l-.37-1.68,1.09-.24c-.22-.88,0-.49-.48-1l-.55.21L179,37.44,178.8,37h-.24l2.88-.72,1.2-.24v-.24l-.15-.15,1.14-1.14a19.51,19.51,0,0,0,2.37,3l.72,1-.24.24,1.44,1,.24.24.72,1.2a6.38,6.38,0,0,0,2.4-.48l.24-3.12h1.2c.85,3.05-.33,3.26.24,6l.48-.24a3,3,0,0,1,1.92-2.4l1.2.24v1c-.79,1.53-1.85,2.15-2.88,3.36,1.55.56,1.32,1.41,2.88,1.92l.24-.72c-.07-.75-.06-2.49.72-3.12A2.56,2.56,0,0,1,199.2,43.92Zm-3.12,5.52.24.48C196.22,49.7,196.51,49.76,196.08,49.44Zm-3.6-4.08v-.72l-1.2-1.2A6.14,6.14,0,0,0,192,45.6ZM191,49.68h-.48c-.56.82-.54.81-1.2,1v1h.72C190.21,50.61,190.63,51.27,191,49.68ZM187.68,48l1.68-1-.72-.48-1.2.48v1Zm.48,10.8v-.24l-.72-.48v.72Zm-1.44-1.2.24-.72h-.24Zm0-8.64c-.32-.82-.15-.5-.72-1l-1,1v1h1C186.31,49.2,186.15,49.38,186.72,49Z" transform="translate(0.06 0.66)"/><path class="cls-1" d="M193.91,57.12c-.28-.17-.28.1-.23-.24.67-.76,1.1.22.72-.72.88.22.49,0,1,.48,1.51,1.63,3.18,6.2,1.2,8.4v.48a2.81,2.81,0,0,1-2.4-1.44c-1.21-1.59-.84-3.8,0-5.52l-6.24,4.08-.22-.08c.13-.38.22-.62.22-.64a2.25,2.25,0,0,0,.48-1.2l-.38-.19.14-.29.72-.24V59h.72l1.92-.72v.24l-1.44,1.68Zm-4.79,4.08.48-.72h-.48Z" transform="translate(0.06 0.66)"/><path class="cls-1" d="M192.72,65.28a8,8,0,0,1,.24,4.8h-.24l-1-.48a11.09,11.09,0,0,1,0-5.52Z" transform="translate(0.06 0.66)"/><path class="cls-1" d="M12.24,104.16h.23c0,1-.37,1.37-1.19,2.15l.72,1.2-1.44-.24-.24,2.4-.48.24-1-.24-.48-1.2,1.2-4.08.48.24.72,1.2v-.48C11.4,104.68,11.21,104.53,12.24,104.16Z" transform="translate(0.06 0.66)"/></svg>