<svg id="图层_1" data-name="图层 1" xmlns="http://www.w3.org/2000/svg" viewBox="0 0 461.26 259.52"><defs><style>.cls-1{fill:#84c2c5;}</style></defs><title>1-4</title><path class="cls-1" d="M331.2,0c.86.33.76.22,1.2,1C333.22,2,334,5.36,332.16,5c-.81-.12-.31.25-1-.48C331.42,3.82,330.87,1.77,331.2,0Zm.72,1.44-.24-1v1Z" transform="translate(0.43 0.32)"/><path class="cls-1" d="M337.68.24a9.64,9.64,0,0,1-3.84,4.08c-.3-1.87.49-2.71,1-4.32Z" transform="translate(0.43 0.32)"/><path class="cls-1" d="M438.48,97.44l-1,1h-.24v-.48c-.37-1.17.31-3,.72-4.08A4.66,4.66,0,0,1,438.48,97.44Z" transform="translate(0.43 0.32)"/><path class="cls-1" d="M433,86.16c-2.21-.11-7.08-3.75-7.2-4.32a8.87,8.87,0,0,1,7.2,4.08Z" transform="translate(0.43 0.32)"/><path class="cls-1" d="M389.76.72l.48-.48h-1Zm-.24,2.64a8.13,8.13,0,0,0,3.12,4.8h.24l1-3.36-1.68.48.24-1.2A4.85,4.85,0,0,1,389.52,3.36Zm-4.8,5.28V4.8c1.1.33,1.33.14,2.16-1l-1-.48,1.44-.48V2.64L385,.48V0c9,0,18,0,26.88,0v2l-.48,1.92,1.19.3L411.84,7l-.24.72-2.4,1c.23.21.27.27.28.27l0,1.89v4.08l-.24-.48c-1-.82-1.25-1.69-1.92-2.88l-3.6,3.84-2.4-.48c-.69-1.75-1.73-1.62-1.92-4.08a26.89,26.89,0,0,1,1.92-5c-1.59.22-2.08.59-3.36,0l1.2,4.32-.72,1.44c-1.11-.51-.24-.63-1.44,0-.33.46,0,.14-.48.48.62-2.74-1-4.89-.48-7.44L394.56,5c-.21,2-.83,3.91-2.16,4.8l-.72.48c-.28-1.59-2.67-4.39-3.6-6.24h-.48c-.26,1.72-1.28,4.3-2.4,5.28Zm23-2.64V5.28l-.48-.72V6Z" transform="translate(0.43 0.32)"/><path class="cls-1" d="M339.84,51.6l.48-1.44c1.15.28,3.63.05,4.8,1.44h-.48a4,4,0,0,1-4.32,0Z" transform="translate(0.43 0.32)"/><path class="cls-1" d="M349.92,59.52v.24c-5.11,0-7.73-3.75-9.36-7.2C345.17,53.07,345.84,58.1,349.92,59.52Z" transform="translate(0.43 0.32)"/><path class="cls-1" d="M296.64,77.52a12.61,12.61,0,0,1,4.56,2.4l.24,1.2a32.81,32.81,0,0,0-4.56-2.64Z" transform="translate(0.43 0.32)"/><path class="cls-1" d="M232.08,59.28a10.68,10.68,0,0,1-1-3.84c1.32.63,1.84,1.74,2.4,3.12L233.28,60H233Z" transform="translate(0.43 0.32)"/><path class="cls-1" d="M169.92,88.8c-1.19-3.37-4.69-3.69-5.76-7.2,3.05.9,6.16,3.59,6.24,7.44Z" transform="translate(0.43 0.32)"/><path class="cls-1" d="M39.12,98.64c.87,1.56-.59,4.12-1.92,5h-.72v-1A11.29,11.29,0,0,1,39.12,98.64Z" transform="translate(0.43 0.32)"/><path class="cls-1" d="M459.36,77c-.22-.88,0-.49-.48-1Zm-3.12-3.6h1.68l-.24-.48-1.44-1.2Zm-2.16,2.16v.72l.48-.48Zm-5-38.4v.72l.24-.72Zm0,40.08c.49-.43.17,0,.48-.72h-.24Zm3.84-1-.72.48V77C453.1,76.65,453,76.84,452.88,76.32Zm.48-73.44-1,1.68,1.2-1,.24-.72Zm-.72,84.72a9.7,9.7,0,0,1,4.8-3.6,7,7,0,0,0-.48-3.12c-.83-.44-.85-.84-1.44-1.44-.13,1.23,0,1.23-1,1.68v-.48L454.08,79l-1,3.84c2.39.65-.58,3.91-2.16,4.32v.24Zm.24-4.8c-.57-1.43.37-3.53-.48-4.56-.33-.46,0-.14-.48-.48-1.37,1.47-1.76,4.48-1.92,7Zm-6.48-4.08,1-1h-.48Zm2.64-.24H447.6c-.33,1.19-.57,1.3-1.68,1.68l.24.72h.24Zm-2.4,8.88,1.92-.24.24-.48c.05-1,.4-.6-.24-1.2l-2.16.48A2,2,0,0,1,446.64,87.36Zm-.72,1.92-.24.48.72.24v-.72ZM443.76,2.64c-.7.77-1.45.88-1.92,1.92,1.82-1.08,4.92-1.7,3.84-4.32l-3.12,1.2.24.48,1.44.72Zm-1,30-.72.72.48,1.44a14.85,14.85,0,0,0,1.92-1.92v-.24Zm-.48,50.16.72.72V84l.72-.24c.33-.46,0-.14.48-.48l-.48-.24c-.38-.65-.08-.33-.72-.72Zm-1-18-1.68.48v.48l1.68.48Zm-.72-31.44a1.78,1.78,0,0,0,.72-.72h-.24Zm.72,11-.48,1h.24C441.77,44.62,441.8,45.28,441.36,44.4Zm-4.56,8.4c.43.49,0,.17.72.48Zm-2.88,4.8.72-.72c-.48-.38-.33-.31-1.2-.48Zm0,20.64.24-.48h-.48Zm-3.12-24h.72l.72-2.16,1.2,1.2,1.44-1-4.56-1Zm-1-18.48.24-.48h-.48ZM422.4,19.2l.72-1.92h-1.68v1.2Zm.72.24-.48.48.48.72h.24l.24-1Zm1,20.64.48-.24,1-2.64c-1.66-.51-1.92-1.3-3.36-2.4C422.11,37.35,421.69,38,424.08,40.08Zm-7-31.44c.33.46,0,.14.48.48Zm.72,30,.48-.48-.48-.24Zm1-5.28.72,1.2.48-.48-.48-.24C419.09,33.35,419.52,33.67,418.8,33.36ZM419,9.12c-.79.9-.48.13-1.2.48l.24.72h2.16v-.24l-.48-.72Zm-3.36,26.16.24-.48.24-1.2-1.2-.24c-.14.78-.17.78.24,1.44l.24.48Zm.72-25.92-.48-1.2-.72,1.2Zm.48.24h-.24c-.62.68-1.21.81-1.68,1.68A4.74,4.74,0,0,0,416.88,9.6ZM414,12.24c-.14-1,0-.72-.48-1.2l-.48.24.48,1.2Zm-1,3.6c1,1.65.85,3.38,2.4,4.56v-.48l1-1.44L414.24,18v-.24a4.14,4.14,0,0,0,1.44-4.08h-.24l-.24,1.2C413.93,14.92,414,15.09,413,15.84Zm-.72,6.72.24,2.64.72-.24.48-.48v-.24ZM409.68,35c0,2.87-.61,5.86-2.4,7l-2.16,1v-1.2a13.84,13.84,0,0,0,1.44-6c-3.71,0-5.37-.64-8.88-1l.48-.24c2.89-1.48,5.3-4.05,8.88-4.32v.24l-1.44,1.68c2.18.09,5.56.1,6.72-1L410.88,31l2.4-.24V30l-.24-.48c-2.22-.6-10.9-7.67-8.4-11.52v-.48c2.62,1.52,4.75,2.11,7,3.36l.72-4.32-1.68.72c0-2.61,1-2.92,2.16-4.32l-.24-1.44h-.24l-1.2.72.48-1.2-2.16-.24,0-1.89s0-.11.44,0V8.64h-.72l2.4-1,.24.24,1-.72-1-.24.71-2.82,1.69.42-.72-1.2L415,3.6l-1.68-1.2c-1.31.76-.73.82-1.44-.48V0c15.14,0,29.9,0,43.92,0V.24c-.86,2.56,1,3,1.44,5.52,2.74-.15,3.78.48,3.6,3.36-.76.5,0,10.64,0,14.4V68.64h-1.92l-1,1.44a11.67,11.67,0,0,0,1.68,3.84c-1.1,0-1-.1-1.92.48v.24c1.07,0,.62-.12,1.44.48.88-.61.74-.21,1-1h.48c-.31-.84-.51-.83-1-1.44a3,3,0,0,0,1.2-.72c-.11,5.31.86,12.81-3.12,15.6-2.09,1.46-6.29,1.69-7.44,3.36,2.31.75,7.25,2.63,8.64,4.56l-.48.24c-4.11.79-6.28-2.29-9.84-3.36.46,2.54,1.65,5.84,1,8.16h-1c-1.18-1.57-2.43-2.67-2.88-5l1.2.24.72-2.64-1.68.24,1.2-1.2.24-.72a8.9,8.9,0,0,1-4.32-1c-.82.7-.66.92-1,1.68l-1.2-.48v.24L442.32,96l.72-.48,1.2-1.44v.48c1,2.08.3,5.27-.24,7.2l-2.16.72-.48-.48.24-3.84h-2.16c.93-1.15,1.8-1.06,1-2.16-.3-1.06-.51-3.39-1.2-3.84L436.8,90a4.72,4.72,0,0,1-.48,4.56l-1.44.48-.48-.72c-.39-2.76.67-4.16,1.44-6.24l3.36,1.44V88.08H439l-1,.48c-.12-1.82.05-.86.24-2.64h-2.16c.5-.51.62-.44,1.68-.48-1-.76-2.24,0-3.6-.72s-2.34-7.26-2.4-9.36H432c3.8,2,1.95,5.28,4.08,6.72.4-1.79,1.38-2.17,2.88-1.44,0-.73-.23-.34.24-1,.65.38.33.08.72.72.81,1.53-.25,2.29-.72,3.84l.72.24V84a5.3,5.3,0,0,0,2.64-4.56,2.42,2.42,0,0,1-1.92.24v-.24a6.57,6.57,0,0,0,1.92-2.88,9.07,9.07,0,0,1-1.2,1.2l.24-1.92-2.16.72c-1.68-2-3.63-1.8-4.8-4.56l5.76-1v-2.4c-1.16.52-1.82.61-2.64-.24l1-2.16a4.08,4.08,0,0,1-2.88.72l1.44-2.88c-1.63,1-1.79,2.65-3.12,3.84h-.24V67l1.2-1.68-1.92.48V67l-1.44-1.2-1.44,2.16-1.2-1a6.76,6.76,0,0,1,3.12-4.32h.24v1.68l2.64-1.68-1-.48c.86-.43.28.13.72-.72h-.24l-1.2.72-1.2-2.4-.48.48.24,1a5.35,5.35,0,0,0-1.2-.48,4.94,4.94,0,0,0,0,2.16c-1.28.49-2.5,1.13-4.08.72v-.24l1-4.8c-2.11,0-2.84-.57-3.6-1.92V56.4c2.41,0,2.93.81,4.8,1.2l1-.72v-.24a10.73,10.73,0,0,1-1.68-5,7.86,7.86,0,0,1-4.08-1.2l.48-.24c2.31-2.6,7.89-.07,11.52,0l-.48-.48c-1-2.45-3-3.45-4.32-5.52h1.44a3.41,3.41,0,0,1-.24-2.4h.24c5,.4,4.73,5.8,7.2,6.72V47a30,30,0,0,0-3.36-6.48c1.08-.29.77,0,1.2-1-.72-.31-.54-.15-1-.72l-2.16,2.4-3.36-.72v-.72c-.38-1.77.91-4,1.68-5.52v-.24h-1a14.22,14.22,0,0,1-1.92,2.16l-1.68-.72v.72c-.34.14.2,2.1-.48,3.12l-2.4,2.16,2.16,2.88-3.6-1.2c.46,2.69.09,4.83-1.68,6L420.24,48c-.69-2.64-1.8-4.4-2.16-7l-3.84,3.36-1.68-.24-.24-.72c.31-1.78,1.05-2.24,1.92-3.36L413.76,37a2.07,2.07,0,0,1-2.4,0c-.65-.54-.66-.75-.72-1.92Zm-2.16,4.32v.72H408Zm42,28.08-.24.48C449.73,67.62,449.41,67.71,449.52,67.44ZM445,70.8l-.48-.48C444.81,70.78,444.5,70.46,445,70.8Zm-1.44-12.24c.72-.52.64-.16.48-1ZM440.64,38.4l.24-.72h-.24ZM439,28.32l-.72-.48v.72C438.86,28.46,438.37,28.79,439,28.32Zm-1.2,28.8.48-.48-.48-.24Zm-11-50.4c-.39-.75-.22-.56-1-1A1.8,1.8,0,0,0,426.72,6.72Zm-6.72,18-.24-.48-1.68-.48.48,1.68h1Z" transform="translate(0.43 0.32)"/><path class="cls-1" d="M171.36,229.92c-.1-.22.19-.16-.24-.48Zm1.2-151c.23-.42.22,0,0-.48Zm-96.24-.48c-.38-.65-.08-.33-.72-.72Zm.48,152.88-1-1.2-.24.72,1.2.72ZM74.4,77.52c.68-1,0-.49,1.2-.24-.24-.93-.09-.72-.72-1.2l-1,1Zm.24,6c.17,1.35,0,1.12,1.2,1.44V83.52Zm-6-11-1.44,1.2,2.64,1C69.5,73.53,69.46,73.09,68.64,72.48ZM67.92,6.72c-.33-.46,0-.14-.48-.48Zm.48,63.12c-.31-.76.07-.55-.48-1l-.24.48Zm-.24,10.32,1.44-.72L69.36,79a40.57,40.57,0,0,1-3.84-1.68C65.73,78.48,67.21,79,68.16,80.16Zm.48,2.16.24-.48H68.4Zm1.2,1.44c-.78,1.42-.94,1.44-.24,2.88l.48-.24,1.44-1.68ZM69.36,6.24c0,1-.22.5.24,1.2l.48-.24V7A3.51,3.51,0,0,0,69.36,6.24ZM66.48,5,67,4.32V4.08l-1.2-.48-.24,1.2Zm0,5.52L67,12.24l.48.24.72-.72Zm.72,220.08a2.68,2.68,0,0,0-1-1A2.68,2.68,0,0,0,67.2,230.64ZM63.12,3.36l-.48-1.44.24,1.44Zm.48,79,.72.24.48-.48v-.24l-1.92-.72C63.09,82.21,62.85,81.83,63.6,82.32ZM63.6,11a14.7,14.7,0,0,0,2.16-2.16l-3.6-.48-.72.48Zm.48,1.68-1.2,1v.24h.72C64.1,13.36,64.18,13.34,64.08,12.72Zm42.48,63.84-.48-.48-.24.48Zm-8.4-1.68c.33.46,0,.14.48.48Zm1.68-4.08-.48-.48C99.69,70.78,99.38,70.46,99.84,70.8Zm.72,3.12H101l-1-2.4L99.6,74.4Zm.48,1.92.72-.24L101,74.16l-.24,1.68ZM94.8,72.48l-1.2,1.68,1.68-1.44ZM91.44,232.32c-.21-1.84-.19-1.62-1.19-2.62C90.65,230.57,91,231.45,91.44,232.32ZM77.28,78v.72l.48-.48Zm6,150.72.48,1.2.72.24C84.14,229.2,84.14,229.16,83.28,228.72ZM82.8,70.8c1.08.68,1.16,1.34,2.64,1.68l1-.72c-2.26-.29-2.57-1.77-4.56-2.4l-.48.72,1,1.44ZM457.44,230.4l.48-1h-.48Zm.72-.48a7.34,7.34,0,0,0,1.92,4.32v-.72A6.89,6.89,0,0,0,458.16,229.92Zm-2.16,1c.05,1,.06,1.16.48,1.68v-1Zm1.2-1.44c-.33-.46,0-.14-.48-.48Zm-11.52,5.76.48.24a4.07,4.07,0,0,0-1.44-2.16Zm0-4.8c.33.46,0,.14.48.48Zm-11.76,1.44c.39,2.1.65,3.69,2.88,4.08A22.12,22.12,0,0,0,433.92,231.84Zm-12.48,1.68.24.72h.24C421.62,233.51,421.92,234,421.44,233.52Zm-2.4-.24a2.73,2.73,0,0,0-1.2-2.16l.72,2.16Zm-3.36-2.88v.72l.48-.48Zm-5.28,0,1.44,2.16A3,3,0,0,0,410.4,230.4Zm-3.84,2.4c.19,1.06.14.89.72,1.44Zm-9.12-1.2c-.33-.46,0-.14-.48-.48ZM394.32,227l-.72,1c1.21.66,1.69,2,1.92,3.6l.48-.24.72.24A7,7,0,0,0,394.32,227ZM381.6,25l-1.2.24c.35.84.3.55.24,1.68h.24l2.16-.72-.72-.72C381.89,25,382.32,25.27,381.6,25Zm-.72-5.52.48.48L383,19v-.24h-1Zm.48-3.6a4.25,4.25,0,0,0-.24,1.68l.72.72,1-.24-.48-1c1.33.38,1.77.26,2.4-.72C383,16.62,382.93,16.14,381.36,15.84Zm-2.88,13.44c.12,1.34-.2.64.72,1.44l.48-.48v-.72Zm1.68,201.12c-.15-.85.52-4.29-2.16-4.8C378.35,227.42,378.78,229.2,380.16,230.4Zm-.72-207.12-.24.24.48.48v-.72Zm0-16.08h-2.88l-1.68.72v1A8.5,8.5,0,0,0,379.44,7.2Zm-5.76,22.32h-.48L373,30Zm-.48-.24.72-.24c-.32-.92,0-.5-.72-1Zm.24-2.4h.48c-.22-.88,0-.49-.48-1Zm-3.36,202.8c.33.46,0,.14.48.48Zm8.16-208.8-2.4,1.92c.54-1.46,1.42-1.69,2.4-2.64H374.4l.48,2.64c.66.14.7.37,1.44,1l3.6-1.92-.48-.72-.72-.24C378.61,21.35,378.25,20.89,378.24,20.88Zm-9.12,206.64c.47.57.49.31,1.2.72l-1-1.68h-.48C369,227.47,368.61,226.86,369.12,227.52Zm-6.24.72-.24-.48h-.24Zm.48-5-.72-.72A1.78,1.78,0,0,0,363.36,223.2Zm.48,5.52c.45.9.38,1.07,1.44,1.44v-.24ZM359.52,36.24l-1,.72a11.3,11.3,0,0,1,.24,3.36l.48-.24.72-1A6.16,6.16,0,0,0,359.52,36.24Zm.48,7.44v-1.2h-1l.72,1.2Zm-2.88-14.4-.48,5c.86-1.28,1.53-.43,2.4.24v-1l-.72-3.6Zm-.24-1.92.48-.24c.53-1.35,1.36-1.42,1.92-2.64a3.56,3.56,0,0,1-2.4-1c-.4,1.33-1,1.66-.48,2.64Zm.48,9.6-.24-.48h-.24l-.24.48.24.24Zm.72-26.64-1,1.2,1.2.72,1-1.44C358,10.88,358.9,11.32,358.08,10.32Zm-2.4,10.32-.72.48.72.48h.24Zm2.64-12-.48.24.48,1,.24-1Zm-1.92,5.28c.48.64.27.47,1.2.72v-.72Zm-.24,1.44c-.69.56-.67,2.1-1.2,3.12l2.4-1.44c-.44-1.34-.73-2.06-1.92-2.64ZM354.72,37H354v1h.24Zm-.24-27.84c-.42.58-.25.4-1,.72v.24a9.28,9.28,0,0,0,3.84-.24l-.24-.48C355.2,9.44,355.59,9.69,354.48,9.12ZM354,14.64c-.22-.88,0-.49-.48-1v1Zm-.48,1-.48-.24v.72Zm.72,7.44h-1v.48Zm.24,11a5,5,0,0,0-2.16-2.16C352.64,33.35,353.11,33.71,354.48,34.08Zm-2.16-3.36h1.2l.24-2.64-1.68,1.2Zm.24,9.12-1.44,1,.48.72H353v-.24Zm-1.44-24,.48-.24-.48-1Zm1,21.84-.48-1-.24.72.48.24Zm-.72-20.88a7.72,7.72,0,0,1,1.2,4.08l.72-.48A3,3,0,0,1,354.72,19c-.3-.79.08-2.61-.24-3.6L353.76,17c-.88-.45-.06-.39-1-.24L353,18l-1-.72c-.07-.64.09-.57-.48-1.2Zm-.72,215.28c0,1.75.73,3.1,1,4.32l1-.48ZM350.16,16.8c-.41,1.15-.55,1.17.48,1.92.42-1.19.35-.41.48-1.68Zm.24,7.44a2.67,2.67,0,0,0-.48,1.68,2.41,2.41,0,0,0,1.2-1.68Zm-1-9.84v-.72c-1.52-1.68-2.87-3.22-4.32-5L343.44,12l1.2-.48-.72,2.16c2-.06,2.54,1.13,4.08.72-.92-.48-.84-.37-1-1.68C348.3,13.1,348.5,13.75,349.44,14.4ZM347,25l-.72.48.24.48c1.11.55,1.22,1.26,1.92,2.16l.48-.48A5.28,5.28,0,0,0,347,25Zm-.48,6.24H348V29.76l-1-.48Zm-1.92-13.92-1,1.2,1.68-.24c-.27-.68-.21-.35-.24-1Zm-.72,14.88.24,1.2,1-.48-.48-.72Zm-2.4-7,4.08-1.44v-.24l-2.88-1c-1.19,1-1.39,1.3-2.88,1l.72,1ZM343,31h1.68a5.06,5.06,0,0,1-.72-3.36h1l1.68,1-.72-2.4h-.48l-2.16,1.68-.48,2.64ZM339.84,7.68v1l1,.24.72-.48.24-.72-1-.24Zm-2.16,55h-.48l-.24.48Zm0-54.48c.23-.42.22-.05,0-.48Zm.72,27.6-.72,3.12c1.69-1.29,2.89-.73,5-1.44V37.2l-1-.72c0-1.13-.12-1.39.48-1.92,1.11-.2,1.42.55,2.64,1l-.48-.72c-.24-.5-6.2-4.89-7.2-5,1,2.14,2.43,3.22,3.12,6Zm-1.92,19.68c.23-.42.22,0,0-.48ZM337,35l-3.36-3.12-.72,1.92,3.12,1h-.48l-.72.48,1.2,1.44.48-.24Zm-3.84,7.2,1.2.24-1-.72Zm1,.72,2.64,3.36-.48-3.12A6,6,0,0,1,334.08,43Zm.48,9.84,4.32,1.2c.83,2.63,1.72,10.27.48,13-3.32-1.73-3.93-5.39-2.88-10.08l-1.2.24-.72,1.68c-2,.14-2,.18-3.12-.72l2.64,16.32,1.44,17c2,12.71,1.47,25.07,3.6,36.72.87,4.75.66,9.74,2.16,13.68l.48-.24,5.76-16.08,10.8-49.92,1.68-25c-.66-1.54-4.11-3.28-2.88-5.52l1.68.72-.48-3.36c-.67.43-.41.35-1,.48a1.78,1.78,0,0,0-.72-.72L354,44.16l.24.48c.7.22,1.27.06,1,.72h-1c.91,1.37,1.17,1.17,2.16,1.44v1.68a5.52,5.52,0,0,1-1.2,2.64l-.72-.48-1.2-5.28-.72.72c-2.44,1.23-1.76,3.93-5.28,4.32v-.72c1.3-2,3.06-2.93,4.32-5l-.24-.24c-2.17,1-7.4.69-7.92-2.16l1.92-.24V39.6l.72.24-.24,2.4c2,.27,3,1.2,4.08.24h-.48a7.1,7.1,0,0,1-2.64-1.92v-.24l.24-.24,2.4.24-2.64-2.16,1-1.92h-.48V37l-2.4-.24-1,2.4-6,.24.48,1.2,2.16-.48v.48a3.79,3.79,0,0,1,.44,3c-.58,2.21-2.94,4-3.56,5.68l-4.08-2.88L333.12,48l.24.24,1.2-.48.48,2.16c-.56.07-1.92.41-1.2.72l-.24.72,1.68.48v.24h-1.2ZM330,40.56c.45-.3.13-.21.24-.48Zm1,12.24-.72,1,.48,1.2.48-.24,1-1.2Zm-.24-1-.24.48C330.93,52,330.61,52.11,330.72,51.84Zm-4.32-32.4c.44.84.2.65,1.2,1l.24-.72-1-.48Zm2.16,21.84a2.68,2.68,0,0,0-.24,2.16l.48.24,1.2-.48A2.38,2.38,0,0,0,328.56,41.28ZM325,22.08l-.48.72.72-.72Zm2.4-11.52c-1.45,1.49-2.53.18-4.8,1l.24,2.16.72-.48c0,1.44-.26,1.33,1,1.92l.72-2.4C326.73,13,327.77,11.43,327.36,10.56Zm-7.44,55.68.24-.72h-.72Zm.48,164.64v.48l-.48-.24.72.72h.24Zm.72-164.64v-.72h-.72Zm0,2.64A13.73,13.73,0,0,0,321.6,73h.48Zm1.2,159.36c-.56-1.46-.93-2.05-2.4-2.4ZM319.44,70.56l-.24,1,.72.24h.24l.24-.72V70.8Zm-5.76-66c.11.64-.15.36.48,1C313.94,4.64,314.17,5,313.68,4.56Zm2.16,65.52-.72,1v1h.72a4.6,4.6,0,0,1,1-1ZM311.28,31v-1.2h-.48l-.48.72Zm2.4,1-.72,1.2C313.78,32.69,313.93,32.76,313.68,31.92Zm-3.6,25.2c-1.79.1-3.72-.55-4.32-.24,1.23,2,4.69,4.28,3.84,6.72A4.24,4.24,0,0,1,313,65.28c-.82.5-.53,1.09.24,1.92.38-.65.08-.33.72-.72l-.24,1.44,3.12-1.2c-.07-1.34.38-1.55.24-1.92l-2.16-1.44h-.24c0,1.3.16,1.2-.72,1.68-.78-1.43-2.84-2.71-2.4-4.56l.72-1,.48.24,1.44,1.92,1.2-.72c0,1.1,2.05,3.46,2.64,3.12l1.92.24v-.24l-1.2-2.16a5.41,5.41,0,0,1,1.44-1.68c-.63-4-.9-4.54-4.08-5.52V50.88L314.4,54l-.72-.48v-2.4h-1c-.71,2.39-1.7,2.62-3.84,3.6l.24.72,2.16.48-1.44.24ZM307.68,1.2l.24-.72-1-.24-.48.72H307l.24.48Zm1.2-.48-2.4,1.68a6.31,6.31,0,0,1,1.2,3.84l-1.2-.72V6L306,8.4c2.15,0,4.21-.29,5,.24-.46,1.52-.24,1.78,1,2.64,0-.91-.48-.48.48-1,.66.73.1.65,1,.24a10.77,10.77,0,0,1-1.2-4.8,4.59,4.59,0,0,0-2.4,2.16l-.48-.24C309.4,5.92,309.5,1.46,308.88.72Zm-5.76,8.4,1,.72C303.62,9.11,304,9.45,303.12,9.12Zm.48,28.32.24.48.24-.48ZM301,35c1-.37.59,0,1-1h-.48v.48l-.48-.24Zm1.68,193a3.57,3.57,0,0,0-1.44-2.88l.72,2.64.48-.72ZM300,.24l-.24.48V1h1L301,.48Zm0,229.2h.24c-.3-.73,0-.29-.48-.72Zm0-192.72.47.23c-.41-.48,0-.16-.71-.47l-.24.48v.24C300,36.87,299.66,37.18,300,36.72Zm1.44-1-1.68,4.32c1.88-1,1.19-.71,3.36-.48v-.72c-.24-.93-.37-.11,0-1l-1.68-.48C301.78,36.66,301.94,36.68,301.44,35.76Zm-.72,1L301,36h-.24Zm-2.4-.48-1.44-.72-.24.48,1.68.48Zm-1.68,20.64-.72.24,1,.48.24-.72Zm-2.88-26.16v-.24h-1C293.38,31,292.78,30.62,293.76,30.72Zm-.24-2.16,2.4,1.44.48-.24v-1A13.47,13.47,0,0,1,293.52,28.56Zm2.4,24.72-1.2.72.48.48h2.16C297,53.35,297.18,53.5,295.92,53.28Zm-.48,17.52c-.14-1,0-.72-.48-1.2l-.48,1Zm-1.68-19.44,2.16.24.48-.72-.48-1.44c.71.43.65.65,1.44.48.9-.42.89-.39,1.2-1.44l-1-.24a1.71,1.71,0,0,0,1-2.4L295,47.52c-.45.5-.55,2.17-1.68,3.36Zm-2.64,173.28v-.24l-1.2-1C290.28,224.37,290.25,224.25,291.12,224.64Zm1.44-167L292.8,59H294l-.24-1.2ZM286.8,67.92l1.44.48c-.43-.79-.3-.81-1.2-1.2l-.48.24Zm-5.28-4.32v1.92h.72V64.8Zm-1.2-13c.4.77-.12.27.72.48l-.24-.48Zm.24,173,1.68,2.16A4.37,4.37,0,0,0,280.56,223.68Zm-1.2-.72h-.24l-.24.48Zm1.68,4.8a2.38,2.38,0,0,0-1.68-1.92Zm-.24-5.52c-.33-.46,0-.14-.48-.48Zm-1-163.68c.61.12.71.5,1.2,1.68-.76-.48-.86-.88-1.68-.72l.48.48.24,1c.76-.35,1.57.57,1.2-.72l1.68-2.4-.24-.48a2.8,2.8,0,0,1-2.4,0l-.72.72Zm-1.68-7.68c.33-.51.44-.13.24-.72l-.48.24Zm.24,177.36,1.44,1.68A2.13,2.13,0,0,0,278.4,228.24ZM275.76,30l1-.48L276,28.8Zm1.68,24.48c.38.38,0,.08.48.24v-.24c-.38-.65-.08-.33-.72-.72C277.3,54.38,277,53.89,277.44,54.48Zm-3.36-22.56.48.48C274.23,31.94,274.54,32.26,274.08,31.92ZM276,53.28c-.32-.92,0-.5-.72-1L275,53l.72.24Zm-.48,1.92L272.88,54l-.48.24.24.48,2.16,1.2.72-.48Zm-5.52-19,.72.24c1.18-.59.86-.51,1.2-1.44h-1.44l-.72.72Zm-1.2,192.48c.3.73,0,.29.48.72Zm-1.92,1v-1l-.48-.72.24,1.68Zm-2.16-2.88-.24-1v1Zm.48-205.92.24.24.48-.48V20.4h-.48Zm0,204.72c.25,1,.08.67.72,1.2Zm.24,4.08c-.2-1.16.16-1.19-.72-1.68Zm-6-7.44c.35,2,.42,2.14,1.44,2.88ZM260.16,29c.45-.3.13-.21.24-.48Zm5-6.48-2.64-.24a7.08,7.08,0,0,0-2.4,1.92C262.47,23.51,264.72,24.65,265.2,22.56ZM258.72,25V24H258c.11.64-.15.36.48,1Zm0,13.68c-.39.75-.22.57-1,1l.48.24.72.48V38.64Zm-.93-9.36.21.29v1.87a11.07,11.07,0,0,0-1.2,4.8c1.3.18,1,.7,2.16,1.44a2.76,2.76,0,0,1,.72-2.16c.73.69.78,1.35.72,2.88l.72-.24a7.84,7.84,0,0,1,1-4.8l.72.48a9.22,9.22,0,0,1-1.2,6.24,10.75,10.75,0,0,0,5.76-2.64V37.2a10.37,10.37,0,0,1-3.36.24l.24-.48a5,5,0,0,0,3.6-1.68c-1.67.1-2.84.07-3.6-.72a5.86,5.86,0,0,0,3.6-.48L265,32.88l.24-.72a8.36,8.36,0,0,1,3.6-1.68L267.6,29l-.48-.24c2.16-.56,5.57-.55,6.24-2.64l-.24-.24c-2.41.9-4-1.15-7,.24A62.35,62.35,0,0,1,264,32.88l-.24-.48c-1.08-1.81-.19-5.1.48-6.72a12.46,12.46,0,0,1-4.56.48c1.67,2.12,2.82,3.69,1.68,7l-.72-.72A9.3,9.3,0,0,1,258,29.57v-.29Zm-2,11.28c-.32-.92,0-.5-.72-1v1Zm-2.4-13h-.72l-.48.24v1l1.44-.72Zm-.72-12.24c.47.89-.1.39,1,.72C253.22,15.5,253.53,15.69,252.72,15.36ZM253.2,17v.72h.48C253.38,17,253.68,17.47,253.2,17Zm1.2,207.12L253.2,222c0,.79-.22.54.24,1.19S253.66,223.76,254.4,224.16ZM252.72,20.64l-1-.24c-.11.57,0,.3-.48,1h1.2Zm-4.08,4.08h-.24l-.24.48Zm1.2-23.28c-.11,1.2-.31,1.41.24,2.16l1.2-.72C250.75,2.28,250.6,1.86,249.84,1.44ZM245,18l1.2-.24-.24-.48L245,17a3.51,3.51,0,0,0-.72.72Zm1.68,8.64a5,5,0,0,1-2.4,2.4l.72.72,1.44-1.44h.24v2.16l3.6-.48c-.15-2.7-.41-5.09,1.2-6.48a2.56,2.56,0,0,0,1.68.72v-.72L253,23l-1.68-.48c-.63,1.77-1.9,2.44-3.6,3.12a4.85,4.85,0,0,1,1-2.64,10.23,10.23,0,0,0-4.32,3.36h2.4ZM243.6,19.2l.48-.48-.72-.24Zm-.48,1.44c2.14-.61,5.7-.72,7.68-1.44v-.48l-2.64-.48-.72,1.2a10.62,10.62,0,0,0-4.56.72v.48Zm.24,7-.24.48C243.55,27.76,243.48,28.12,243.36,27.6Zm-.24,2.88.48,1.2.72-.24v-.72Zm-1.44-1.68-.24-.48-.24.48Zm0-6,.72-.48v-1l-.72-.48Zm.48-6.48-.24.24,1,.48-.24-.72Zm-.24,12.24c.52-.67.55-.29,0-1ZM240.24,7l2.16-1.2L241.92,5,239.76,3.6Zm.24,38.88,2.88.24a4.22,4.22,0,0,0-1.92-1.44l-1.2.72Zm.72,177.84-.48-.48-.24.48Zm.72-187-1-.24.48,1.92.48-.24.24-.48Zm0-6L240,32.4h.48l1.2,1Zm-3.36-18-.24-1v1Zm1.68,26.88-1,2.64c1.38-.39,1.69-.56,1.68-2.4Zm-1,191.76c.33.46,0,.14.48.48Zm0-5.28c.14,1.71.63,2.76,1.92,3.36L240,228c.6-.4.39-.11,0-.72S239.8,226.51,239.28,226.08ZM240,10.8c-.56.64-.31.35-.24,1.44h2.4l1.44-1-1.92-.72c.81-1,1.81-2.4,4.32-1.2l1,.48c-.44.89-.55.34-.24,1l1,1.44-3.36-.72-.72,1.68,1.2.72c2.6-.73,3.65.77,5.76,1.2L248.64,12a3.56,3.56,0,0,0,1.68-.72c-2.47-.56-2.39-2.12-3.6-3.84-1,.54-1.33.06-2.88.48.19-1.17.57-.58-.24-1.44C242.73,8.53,239.78,8.72,240,10.8Zm-2.16,34.8.48.48C238,45.62,238.3,45.94,237.84,45.6ZM237.12,19l.24,1,2.4,1.2v-.24A7.41,7.41,0,0,0,237.12,19Zm-2.88-4.08-.72,1-.72-.24.48.72,5.28,1.2-.24.48-.72.24.24.48,1.68.48.72-1L240,16.32c-2.38.75-3.71-1-6.72-2.64l-.24.72Zm.72,7-.48,1.68h.24l.72-.72c.49-.43.17,0,.48-.72Zm1.2,14.64c-.1-1.25.16-1-.72-1.44.15.62-.19,1.4.48,1Zm-.24,10.08-.24.48,1,.24ZM231.6,227.28a4.42,4.42,0,0,0,1.68,2.16A3.69,3.69,0,0,0,231.6,227.28ZM233,22.08c.49-1.46.72-2.59-1-3.12l-1.68,1.68.24.48,2.4-1.2-.72,2.16Zm-4.56,210.24h.24c-.22-.88,0-.49-.48-1Zm-3.84-2.88c.6-.41.28-.14,0-.72Zm-.48-189.36a35.27,35.27,0,0,1,2.64,5.76H227a37.85,37.85,0,0,0,.24-4.53V41h0a3,3,0,0,0-.68-1.44C226.05,40,225.52,40.08,224.16,40.08Zm-1.92,1.68c.66-.17.47,0,.48-.48l-.48.24ZM222,45.6l.24-.72v-.24H221Zm-5.28-.24v-.24H215l.24,1.44.48-1Zm-3.84,179.28.48-.48-.48-.48-.24,1Zm.48-172.32c0,2.61-.79,4.47-1,5.76,6.52,2.64,12.12,7.23,19.68,9.6,14.85,4.67,33.19,2.44,47-1.2V64.8c-1-.7-.66-2.09-.72-3.36h-.24c-1.72,1.47-2.86,3-5.76,3.36l-.48-.48c2.6-.57,4.32-2.88,6.24-4.32v-.24H276c-.76,1.8-2.14,2.92-4.8,2.88l.24-.72c1.73-1.62,4.09-2.38,5.52-4.32-4.85.37-5.74-2.31-8.64-3.6l.48-2.64c1.93-2.57,5.35-3,7.2-5.76v-.24c-3.89-.12-4.72-1.75-7.68-.48V44.4c-.87-1.95.57-4.21,1.68-5-.64-.92-.78-.73-.72-1.92l-.48.24c-1.3,2.81-5,2-7,4.08h.48l3.36,2.64-.24.48a5.35,5.35,0,0,1-3.6-1c.4-.61.37-.66-.24-1.44l-.72.72V41.76l-2.4,1.44c.3,1.46,0,2.06,2.4,2.4l-.24-1.44A7.53,7.53,0,0,1,264,47.52l-.72,1c-1.93-.81-1.18-1.53-2.88-.48l.24-1.44c-2.33-.26-1.78-1-4.32-1v.24c1,.95,1.28,1.09,1.2,2.64l-1.44-.24a7.39,7.39,0,0,1-1.2-3.12l1.68-.48-.48-.48c-.74.19-1.6-1-2.4-.24l-1.2,1a9.66,9.66,0,0,1-1.6-.57A9.88,9.88,0,0,1,247.44,42c2.18-.36,2.8.15,4.56,1.2a8.61,8.61,0,0,1,.24-2.64h1.2c.33.63.62,1.92,1.2,1.68V42c-.43-3-3-3.52-2.4-6.48h.24l1,.24c1.28.72,1.44,2.06,2.64,2.88h.24c0-3.33-1-7,1.44-9.36h0a7.54,7.54,0,0,0-1.94-1.92,2.47,2.47,0,0,1,.24,1.68c-1.86,1.35-5,4.41-6.72,5.28,0-1.84-4.26-1-6.72-1.68V32.4c.67-.88.72-.61-.24-1.44a11.17,11.17,0,0,1-.72,4.8c1.6-.63,2-1.36,3.12-1.68l3.6,2.64v1.2l-2.64-.48c-.36,2.05-1.44,2.91-2.4,4.32a5.56,5.56,0,0,1,.24,4.32l5.52-1.44a3.21,3.21,0,0,1,1.39.49,3.25,3.25,0,0,0,2.21.71l-.24.48c-4.21,1-8.07.86-12.48,1.92,1.56,2,4.91,4.28,5.28,7.2h-.48c-1.87.52-4.94-1.42-5.76-2.88,1.07-.31.48.16,1-.72l-.48-2.4-1.68,1.2.48-2.64a34.94,34.94,0,0,1-4.8,1.68c.08,1.63.5,1.48.24,2.16h-1.2l.24.48A8.72,8.72,0,0,1,235.92,55l.48-.24.24-2.64,1,.72c1.43,2.76,4.37,5,1.92,8.4h-.24a5.12,5.12,0,0,1-2.4-3.84l-2.4,1.44v-.24l1-2.16c-1.86-1-2.95-1.15-3.36-3.6-1,.27-.53.34-1.44,0,0,.76.42.34-.24.72-.54-.9-1-1-2.4-1,1,1.31,1.81,1.72,1.92,4.08l-1,1.68c-2.72-1.73-2.23-3.53-3.12-7.2l3.84-.24c-.43-.79-.3-.81-1.2-1.2-.59.75-.21.6-1,0l-1-.24c.86-.62.6-.33.48-1.44-1.51.14-.51,0-1.44-.48-.06,1.88-3,7.18-5.52,6.24.85-1.47,1.93-1.81,3.12-2.88l-5.28-5.52c.06,2.76-.71,3.44-1.92,4.8a5.54,5.54,0,0,0,2.88-.48l.72-1.2h.24c.43,1.88.85,1.74,2.16,2.64v.24c-2.36.69-1.79,1.84-3.12,3.36l-.72-.48v-.48l-.24-2.16-2.64-.24,1.44,2.4A9,9,0,0,1,213.36,52.32Zm1.2-7.92c-.43-.49,0-.17-.72-.48Zm-.72,5,.48-1.44-1.92-1.2,1.2,2.64ZM209.52,228c.21,1.09,0,.71.72,1.2ZM209,47.28l-.24-.72-1-.72v1.68Zm.24,0c-.86,2.6-3,2.93-4.08,5L209,55c.05-3,2.33-6.7,2.08-8.56a1.28,1.28,0,0,0-.4-.8l-.24,2.4Zm-4.56,180.48c.23-.42.22,0,0-.48Zm0,3.12c-.07,1.31.36,2,1.44,1.92l-.48-.48C205.57,231.53,205.58,231.49,204.72,230.88ZM158.64,61.68a2.06,2.06,0,0,0,.24-2.64l-1,1.44.24,1.44.48.24Zm1.68,2.4c-.73,1-1,1.22-1,3.12l.72-.48.72-2.64Zm-3.6,3.84c.79.31.27.45,1,0Zm-5.28-8.16c.88,2.1,2.28,2.57,3.36,4.32l.48-.24c-.36-2.47.27-4,1-6.24l-.72-.72-2.16,2.88-1.92-.24Zm-3.36,20.16.48.48C148.23,79.94,148.54,80.26,148.08,79.92Zm1.2-8.4,3.6-.24-1.68,2.64,5,.24-.48-.72-.48-.24L157,72l-2.16-4.8-1.44,2.16-.48-.24V67.44l-2.64,1.68.72,1C149.5,70.21,149.56,70.23,149.28,71.52Zm.24,161.28c.55,1.13,1.34,2.34,2.16,2.64Zm.24-1-1.44-1,1.2,1.68h.24Zm-.24-145,.48.48.72,1,.48-.24-.48-1.68C150.07,87,150.38,86.92,149.52,86.88Zm-2.88-26.64c-.33-.46,0-.14-.48-.48Zm.24-2.88.48-.48-.72-.24Zm-3.12,13a5.29,5.29,0,0,0,2.16,2.16Zm2.16,7c-.62.77-.42,0-.24,1a20.69,20.69,0,0,0,6.72-.48l-.24-1.2h.24c2.51.54,3.58,2.65,6.48,1.44h-.48c-.8-1.07-3.16-1-2.4-2.64a9.11,9.11,0,0,1-5.52.24,3.33,3.33,0,0,1-1.2,2.16c-.4-.82-.33-.48-1-1,.72-.61.8-1.08.24-1.68a4.57,4.57,0,0,1-4.08,1C145,77,144.74,76.77,145.92,77.28Zm-2.64,156.48v1l1.68.48Zm1.68-161-1.44-1c-.06,1.32-.18,1.5.24,2.16l1.2-1Zm-1.44,159.36,1.68,1.44-.72-1.44Zm1-171.12-1-.24C144.06,61,144,61,144.48,61Zm-2.88-1.2,2.88.24a2.61,2.61,0,0,0-1-2.4L142.08,59l-1,.48v.24Zm0,19.2c.53-.49.45-.33.72-1.2h-.48Zm1-14.16a6.73,6.73,0,0,1-.24,3.6c1.68.17,2.89,2,4.32,3.12-.57-2.22-1.8-2.71-2.16-4.8H145c1.59-.79,2.56-1.45,4.08-2.16l1,1.68h3.6l-.48-.48c-1-3-3.73-5.51-5.76-7.68-.34,1.91-.75,3.77-1.2,5.52l1.2,1-1.44-.48L145,66l-.48-.24V63.84h-1.2C143.08,65,143.31,63.92,142.56,64.8Zm-.24,167.28,1.2,1.2A2.12,2.12,0,0,0,142.32,232.08ZM140.16,66v-.24l-.72-.48-1-.24C139,65.75,139.13,65.79,140.16,66Zm1.2,2.64-.72-.72-.48.72.48.48.72-.24Zm-1,163.92,1.68,1.2A2.41,2.41,0,0,0,140.4,232.56Zm-5.28.24,1,.48-.72-1.44c-.33.46,0,.14-.48.48Zm3.36.72c-.39-.75-.22-.56-1-1Zm.24.24c.7,1.3.84,1.05,1.92,1.68A3.54,3.54,0,0,0,138.72,233.76Zm.24,2.64-.48-1.2C138.63,236.07,138.58,235.93,139,236.4Zm.24-155.28c-.51-.87-.6-1.29-1.68-1.68a9.34,9.34,0,0,0-1,2.16H137C138,81.85,138.25,81.46,139.2,81.12Zm0-12.24-.24.24,1,.48-.48-.72Zm-5,3.6a2.52,2.52,0,0,0-1.2-1.92Zm-2.88-.72c.43.49,0,.17.72.48Zm1.2-2.4h.72l-.24-.48h-.24Zm2.64,165.36a3.55,3.55,0,0,0-2.4-1.68A4.12,4.12,0,0,0,135.12,234.72Zm-2.88-4.56,1.68,2.16h.24C134,230.82,133.61,230.51,132.24,230.16Zm.24-.24.72.24h.24c-.21-1.09,0-.71-.72-1.2C132.1,229.73,132.3,229,132.48,229.92Zm.48,2.4c-.33-.46,0-.14-.48-.48Zm-3.36-1c-.33-.46,0-.14-.48-.48Zm3.12-156.72-1.92.48-.48,2.16h3.6V77C133.48,76.23,133.46,74.82,132.72,74.64Zm-1,157-1-1.44.72,2.16h.24ZM126.48,69.84l-1,1a3.85,3.85,0,0,0,2.64-.48Zm3.36,159.6-2.4-2.16,1,1.92c-.52.11-.24-.06-.24.48l1.2.72v-1.2Zm36-163L165.6,65l-.48,1.44Zm24.24,158.64.48.24c-.43-.76-.34-.62-1.2-1,.07.69-.36.66.24,1.44l1,1.44a3.39,3.39,0,0,1,.24-1.44C190.07,225.68,190.43,226.08,190.08,225.12ZM114,72l-.24.72C114.09,72.21,114.2,72.59,114,72Zm.72,155.76V227l-1.2-.72,1,1.44Zm0-157.68.24-1.2h-.72C114.39,69.75,114.34,69.61,114.72,70.08Zm-4.56,153.36-1.44-1c.43.78.59.84,1.44,1.2Zm-.24,11.76.72.72A1.78,1.78,0,0,0,109.92,235.2ZM108.24,73.92a2.68,2.68,0,0,1-1,1c-.75-.69,0-.28-1-.48v.24l.24.48,1.44.48.48-.72ZM160.08,230.4a3.52,3.52,0,0,0-1-1.2ZM179.76,58.56v-1l-1.68-.48c.07.86.33,1,1.2,1.68Zm6,169.44-1-1.2C185.13,227.66,185,227.56,185.76,228Zm-11.28,1.68.24-.24a4.16,4.16,0,0,0-1-1v1Zm1-1.92,1-.24-.24-.48-.72.48Zm1,1c-.33-.46,0-.14-.48-.48Zm-.24,2.16.72.72C176.5,231,176.8,231.27,176.16,230.88Zm-13.68-4.08c.43.49,0,.17.72.48ZM163,57.36l.24-.72h-.48l-.72.24ZM43.44,77.76c.41.6.14.28.72,0ZM36,84l.72-.72h-.48ZM34.08,236.16l-2.4-3.84-.24,2.16Zm.24-149,.48.24c1.45.79,3.63.69,5.28.72l.24-.48-3.84-1.68v1.44Zm3.12,150a5.46,5.46,0,0,0-2.64-2.64A9.48,9.48,0,0,0,37.44,237.12Zm125.28-175c.3-1.82,1.38-2.65,0-3.36l-1.2,3.84Zm1.2,11.52-.24-.48-.24.48ZM164.4,59l.72,1.68h.24l1-.72-.48-.72c-.43-.49,0-.17-.72-.48Zm.24,9.84-.48,1.2.72.24Zm36.24-15.12.24.24h.24l.24-.72h-.48Zm-1.68,3.6,1.92.48-.72-1.44h.24l1,.72v1c.65-.54-.14-1.3-.24-1.92l1.92-.24c.05-1,.15-.65-.24-1.44h-.72a6.49,6.49,0,0,1-1.2,1.2,2.88,2.88,0,0,0-2.4-.48c.62,1.23.91.77,1.44,1.68l-1-.24ZM194.88,229l.72.48C195.17,229,195.6,229.27,194.88,229Zm1.68-170.4.48.72.24-.72Zm-1.44,167.52c.28,2.19,1,3.46,2.88,4.08-.77-1.41-.62-1.31-.48-2.88ZM119.76,72.72h1.92V73l-1.44.24v.24h1c1-.35,2.3-.57,2.88-1.44l.24-1.2-.72-.48.24,1.68-4.32-.24Zm-4.32-7.44.48-.24.24-.48-.72-.72Zm.24,164.64a2.41,2.41,0,0,0-1.68-1.2Zm.72,4.56-.48-.72v.72Zm-.24-155.76.24-1.92-1.92.72.24.48Zm.72-12,.72,1.92.72-.24.24-1-.72-.48Zm.48,8.64.48-.48h-.24Zm-.72,155.76,1.2,1.44c.75-.92.71-.28,1.68.48a1.78,1.78,0,0,0,.72.72,7.55,7.55,0,0,0-2.88-3.12l.48,1.2ZM60.24,74.64,60,73.92l-.48.72ZM61.92,22.8l-1-.24-.48.24.24.48Zm-.72-2.16,1.92.24-.72-1H61.2Zm-5.52,6.72.24-.72h-.24ZM55.92,30v1l.48.24v-.72ZM57.36,1.44,57.6,1c.75-.43.35-.24.48-.72L56.88,1Zm0,73.92V73.92C56.93,75,56.54,74.46,57.36,75.36Zm.24,157h.24c-.25-.88-.2-.71-.72-1.2Zm0-208.08h.24l.24-.48-1-1.68Zm-.24,72.48A8.89,8.89,0,0,0,63.6,94.8c-1.51-3.32,2-9.16,1.2-10.56-1.37,1.93-3.41,1-4.8,2.64,1.63.11,1.78.38,2.4,1.44l-.48.72H59.28L60,91.92l2.16.48c-.89,2.22-2.48,3.34-5.28,3.6Zm-1-26.16c.31,1.31.19,1.43,1.92,1.68V72ZM53.28,94.8l-.48-1.92-1,1.68v.24Zm.48-85.92.72-.24V7.44l-1,1.44Zm.48,85.68,1-1v-.24l-1.68-.24Zm1.44-70.32.24,2.16h.24C56.3,25.16,56.42,25,55.68,24.24Zm-5.76,210a1.78,1.78,0,0,0-.72-.72Zm.72-136.56-.24-1.44C50.15,97.16,49.9,96.83,50.64,97.68Zm0,137.28c.37.67.35.56,1,1A2.68,2.68,0,0,0,50.64,235ZM45.12,88.8v.48C45.35,88.86,45.34,89.23,45.12,88.8Zm0-1.44,1,.48-.72-1.2ZM47,80.64c.5-.47.25-.09.48-1l-1-.48-.24,1.92h.24Zm-.48-2.16c1-1.38.8-.48,1.92-1.2a2.76,2.76,0,0,0-1-1L46.08,78Zm-40.08,155A2.42,2.42,0,0,0,8.16,235ZM8.64,241c-.1-.22.19-.16-.24-.48ZM28.8,75.36l.48-.24-.48-.48Zm1.92,6.72v-.24l-2.16-3.36-.24,3.6Zm-.48-4.8c.54,2,2,3.37,3.12,4.8l2.4-1.44C33.35,79.86,32.58,78.16,30.24,77.28Zm1.2,9.84,2.4-1.2-6,1.44c-.12,11.08-2.73,25.4-1,37L28.08,149c1.48,9.27,1.52,22.92,1.68,32.64.23,13.76-1.23,43.2,3.6,51.84l.48-.24v-.72l1.68.48v-1a3.77,3.77,0,0,0,1.68,2.4l-.48-1,.72.48,1,1.44a9,9,0,0,1-.72-2.4,12,12,0,0,1,1,1.2l-.48-2.16L42,235.2l-1.68-2.4,3.6,2.88c-1.09-1.93-2.65-3-3.36-4.8-.23.93-.63-.12-1-.48.13-.8-.26-1.05-.72-2.4.85.6,1.42,1.14,1.44,1.92A5.1,5.1,0,0,1,43,233L41,231.36c1.06,1.68,2.17,2.14,3.6,3.36v-1c-1-1.23-2.72-2.18-1.68-3.36h.24c1.18,2.72,3.29,3.31,5,4.32V234l-3.36-4.32.48-.24c.76.59.77.88,1.92,1.2l-.24-1L51.36,233c.78-.87.41-.07,1.2-.72l1,1.44c-.06-2.36-1.11-2.34-1.68-4.56a41.21,41.21,0,0,0,4.56,2.64l-1.68-3.36,1.68,1.2c-.71-.9-1.33-1.08-1.68-2.4l.24-.48,1.2,1.2c1.53.63,1.34,1.9,1.92,2.4L64.8,234l-.48-.72.72.24-2.88-2.88h.48c.16-.74-.21-.48,1-.72l-.72-.72-1-1.68,1,.48c-.24-.93-.09-.72-.72-1.2l.48-.48c.91.73,1.14,1.49,2.4,1.92V227c.23.25.24.24.24.24,1.62,1.29,2.4,3.48,4.56,3.6v-.24l-2.4-2.88c.52-.67.38,0,.72-.72A9.1,9.1,0,0,1,72,229.68c0-.67.43-.44,1-.24-.16,1.07.3,1.25,1.2,1.44v-.24c-.75-.58-.75-1.62-1.44-3.36L73,227c1.11,1,1.62,1.73,2.64,2.64.5-.34.57.29,1.92,1v-.24l-2.16-3.12,3.36,2.4c-.75-2.79-2.75-3.77-2.16-5.52L78,225.84c.72-.24.44-1,.72-.24,1,.59,1.35,1.63,2.16,2.4l.24-1c.93,1.48,1.74.75,2.64,1.44-.27-1.47-1-2.51.24-3.12.78,1.86,1.77,1.16,2.4,1.68,1.89,1,2,3.1,3.84,4.08A7.05,7.05,0,0,1,88.56,227h.24c.68,1,.83,2.21,1.92,2.16v-1l.48.24.24,1.2.48-.48-.24-1.2.48.24c.38,1.61.78,3.58,1.44,4.32-.17-1.65-.37-2.4-.72-4.32,2.5,1.2,4.13,3.94,6.24,5.52,0-.53-.18-.77.24-.48,2,1.26,2.68,2.61,4.8,4.32-.24-1.07-2.2-6.5-1.2-7.68.27,1.63.87,1.94,1.44,3.12l.72-.48h-.48l.24-.48,3.12,1.44c-.52.84-.37.22-.48,1.2.35-.23.37-.77.48-.24l1.92,2.16-1.2-2.64c.91-.1.3.27,1-.24-1.18-1.68-2.27-2.17-3.12-4.32,2.5,1.77,4.09,4.86,7,6.72h.24v-1l-4.32-3.84,3.36,1.92c.15-.93,0-.37,1-1,.37,1.19.69,1.18,1.68,1.68l-2.16-2.88,1.92,1.68.48-.48c-2.28-4-8-7.12-7.44-11.76l.48.24c.14.83,1.27,1.64,2.16,2.4.34-.63.06-.29.72,0l.48,1.2h-1.44a7.26,7.26,0,0,0,3.12,4.08,6.78,6.78,0,0,1-1.68-3.84l.24-.24.48.24a12,12,0,0,0,4.56,3.6c.36-.52,0-1,.72-.72.39,2,2,2.4,3.6,3.84l.24-1-1.2-1.68c-.24.56-.58,1.15-1,.24.66-.44,0-.57-.24-1.44-.81-.27-.24.38-1-.24l.48-.48.24-.48c.47.59.14.1.24.72,1.25.31,1,.14,1.2,1.44l.48-.48v-1.2c.25.88.2.71.72,1.2v-2.64l4.32,4.8-1.92-.72.24.48c2.16.73,2.54,2.09,4.32,2.88-1.21-2.26-2.83-4.7-3.12-7.68l1,.24H127v-.24L125.28,222l4.56,4.08.24-3.12h.24v.48l.72,1.68c-.84.2-.35-.3-.72.48l2.88,2.4L131,225.12l.24-.24a19.1,19.1,0,0,0,2.64,1.68l-2.4-3.6c2,1.25,3.91,2.56,5.9,3.91,0,.14.07.27.1.41h.5l2.14,1.44v-1.44l1.68.48c-.09-1.47-.43-2.19.48-2.64.57,1,2.18,2.41,1.44,3.6a24.59,24.59,0,0,1,3.6,1c1.15.84,1.81,1.68,3.6,1.92l-1.2-1.44,1.2.48L149.52,228l.24-.24c1.94,1.51,1.34,2.33,3.36,3.6.66-.32.07-.15.72-.24-1.22-2.49-2.13-1.85-3.12-4.56,1.47.79,2,2.08,3.6,3.12l-.48-1.2c.71.31,2.1,1,2.4.72-.77-1.57-1.86-3-2.88-4.8l1.68.24A10.67,10.67,0,0,0,158.4,228c1-.24,1.46-.52,1.92,0a55.5,55.5,0,0,0,5,4.8c-.79-3.14-3.74-4-4.56-6.48-1.23.38-.62.48-1.44.72-.39-1.3-.69-1-1.2-1.68l1.44-.24-.48-1.2h.24l3.6,2.4-.24-1,2.4,1.68c-.4-1-.55-1.43-1.44-1.92l.24-.72,1.2,1c.49,1,1.24,1.68,2.88.72l-3.36-2.64.24-.24,6.24,3.6-.72-1,.24-.24c1.08.61.65.22,1.68.48l1.2,1.68-1.44-5.52h.24v.48l1.44,3.84c.88-.1.69,0,1.68.24l-1-3.84.48.24c2,.14,5.11,3.57,6.72,4.8-1-1.84-3.78-5.08-2.16-7.2l1,1-.24-1.92.48.24a9.8,9.8,0,0,0,7.2,7.68c-.38-3.36-.93-3.06-1.2-6.24l3.12,1.92v-.24l-2.54-4.44,3,3.48-.72-2.88.48.24c.53,3.22,2.06,7.06,4.8,8.16v-.24c-.65-1.55-1.89-4.05-1.44-5a4.9,4.9,0,0,0,2.16,1.2c0,.89-.19.82.24,1.68l2.64,1.92c-.63-1.86-2.14-2.17-2.64-4.56l.48.24a5.31,5.31,0,0,0,2.16,2.64l.24-2.16c0,2.91,2.49,6.91,5.28,7.92a4.1,4.1,0,0,0-1.44-2.88l1.2.24-1-2.64,1.68,1.2v-1.44l1.68,1.68-1.44-3.84,2.4,2.4c-.11-1.49-.21-.66.72-1.44a2,2,0,0,0,1.2,1.44v-.72l2.64,1.68-1-2.64c1-.4,1.49-.9,2.16-1.2.62.1.13-.23.72.24,1.17,1,1.2,2.58,2.64,3.36l-.24-1.68a8.31,8.31,0,0,1,2.4,4.56h.24l-.24-3.12c.49.58,0,.37.72.24l1.2,2.88h.24a38.18,38.18,0,0,1-.48-5.52l.72.48a27.88,27.88,0,0,0,2.88,7.2l.48-.24v-.24L222,227c.19-1.48.95-2,.24-2.88a1.78,1.78,0,0,1,.72-.72c.35,5,2.45,3.47,4.32,7.2h.24c.25-1,.08-.67.72-1.2.33.46,0,.14.48.48-1.76-2.67-2.76-3-3.84-6,2.91,1.73,4.17,3.21,6.48,5.28l-2.88-6.48c1-.19.4,0,1.2-.72l.24,1.2.72-.48-.48-1.68.48.24c.94,4.25,3.75,5.23,5.28,8.64h1l-.72-1-.48-.72.24-.48,2.16,1.68c-.18-1.66-1-6.24-.24-7.2v-.48h.24a7.3,7.3,0,0,0,1.92,4.08c.65-.32.11-.38.72,0a5.48,5.48,0,0,0-1.44-2.64c1.22-.19.52.17,1.2-1,1.14,1.35,1.56,2.38,3.12,3.36a4.09,4.09,0,0,1-.1-2.16h.1l-.06-.17a9.71,9.71,0,0,1,.54-1.27,5.78,5.78,0,0,0,2.64,3.84L245,221.52l.48.48c.65.59.63,1.18,1.44,1.68.38-.47,0-.3,1-.24A8.85,8.85,0,0,0,251,226.8l-2.88-5,1,.48V220.8c1.2.76.55.86,1.68.24.24,1.29.31,1.13,1.2,1.68l-2.64-5.52.48.24.24,1.2c.44-.52,0-.52.48-.48,2,2.16,2.09,2.52,4.56,5.28l-.24-1.2,1,.48-2.16-6.48h.24c.33,1.85.67,3.16,1.92,4.32.25-.71.21-.13.72-.72l.24,1.2a6.4,6.4,0,0,0,1.44,4.08l-1.2-3.36,1.2,1L257,217h.24v.48l.72,1.44.24-1.2v.48a3.72,3.72,0,0,1,.24,3.6,1.87,1.87,0,0,1,1.2.24c.09-.55.19-1.4,1-1.2.3,3.39,2,5.41,2.88,8.16h.24c0-3.76-1.28-4.57-1.44-8.16l.48.24,5,6.48h.24v-1l-1-1.68.72.48c1.13,2.82,3.63,6.88,5.28,7.92-.48-2.3-1.88-3.11-2.64-5l2.64,2.64-.24-1.2,4.32,3.84-1.92-3.84,1.2.72-.48-1.68.72-.24c.48,1.5,1.07,1.25,1,2.16h.72c-.65-2.43-2.71-3.34-4.08-5l.72-.24v-.48c1,.58,3.52,2.31,3.6,1.92l.48.24L276,222.72c.55-.19.33-.61,1.2-1.44.19,1.21.28.92.72,1.68l1.2-.24v-.24l-.72-1,.24-.24,1.2,1-1.2-1.92,1.44,1-.48-1c2.17.62,1.81,3.09,3.36,4.56l-.24-1c.68.52,1.71.85,2.16,2.4h.48v-1l-1.2-3.36c1.35-.66,1.6-.77,1.44-2.16l.72.48-1.44-3.12c1.73,1.33,1.4,1.64,2.88,3.12l-.72-2.4h.24v.48c1.2,1.26.86,2.37,2.16,3.36h.24v-1.92c1.71.89,4.28,2.63,5,4.32H295l.24-1.44c.24,1.31.22,1.71,1,2.4h.24l.24-1.2.72.24c-.1,2.34.27,3.09,1.44,4.08-.49-2.57-2.37-5-1.44-7.2a6.24,6.24,0,0,0,1.2,3.84c.43-.58,0-.25.72,0l.24-.72-.24-2.16,1.92,2.16-.24-1,.72.48,2.4,4.08c0-1-.14-1.54.72-1.92l.24.48c.11-1.19-.17-1.07.72-1l-2.16-5.52.24-.48.24.48c2.73,3.16,2.43,8,4.32,10.32a21.94,21.94,0,0,1-1.2-4.08c1.5,1.55.37,2.25,2.4,4.08l-3.84-8.88c1.73,1,6.14,6.62,6,7.2.86,0,.5-.22,1.2.24-.26-1.95-2.38-4.68-.72-6.48h.24a11.43,11.43,0,0,0,3.6,6.24c.35-1.15-.23-.54,1-.72l1.2,1.92-.72-2.64h.24l2.16,3.84c.45-.61,0-.35.72-.24l-2.16-7.44,1.2.72v-3.36h.24l2.4,6.48h.24v-1.92c.33,1.15.6,1.48,1.2,1.68l-1-3.6H323l.72,1.44-.24-2.4.24.48c1.19,1.66.51,3.3,1.92,4.56-.54-1.7-.75-4.44-1.2-5l1-.24a17.22,17.22,0,0,0,3.84,9.12l-1-3.6,1,.48c-1.36-3.2-2-7.92-2.64-11.28.65.38.33.08.72.72l1.68,6.48h.48v-1.44l.48.24,1,4.32h.24l.24-.72c-1.06-3.55.88-2.19.24-6l-.72-32.4-1.44-43.2.24-18.24c-1.59-9-1.8-17.49-3.84-25.68L322.56,78c-.34-.47-3.32-4.61-3.6-4.8l-.48-.48a3.78,3.78,0,0,1-1.68,2.88c-.83-.65-.95-1.68-1.68-2.4a4.13,4.13,0,0,1-1.44,2.88V75.6c-.85-1-.27-2.21-.48-3.36l-.72.24a7.89,7.89,0,0,1-1.92,5.28l-.72-.48-.24-.48c-.06-2.47,1.28-5.66,2.88-6.48v-.48c-3.1.07-4.27,1.62-7,1v-.24l.24-.48c2.42-1.36,4.89-.65,7-2.16-2.07-.83-2.65-2.87-4.08-4.32l-2.88-.72c-1.73-1.15-1.88-2.06-3.36-3.12a3.9,3.9,0,0,1-1.68,2.4l-.72-.48v-1a9,9,0,0,0-3.6,4.56l-.48-.24-.72-1.2L292.08,65v1l.24.24.48-.24c.47-.81.38-.71,1.44-1a5.3,5.3,0,0,1,.24,3.36h.24c2.27-1.05,2.5-2.94,5.52-2.64v1.68c-1.41,1-5.79,3.57-4.32,5.76a2.46,2.46,0,0,1,2.4-1.92l.24.24c-.3,1-.16,1.86-.48,3.36a5.54,5.54,0,0,1,5.52-.24l-.24.48c-3.51.86-5.78,2.45-7.68-.72a5.69,5.69,0,0,1-3.12.24v.24l1.68,1.44-2.4,2.88h-1.68c.1-1,.08-.94.48-1.44.51-.81.81-1,1.92-1.2-1.84-1.76-2.67-.24-5.28-.48l-.48,1.68v-.48l-.72-1a4.24,4.24,0,0,1-2.64,1.2V77l-.24-1c1.13-1.61,2.62-2.06,4.56-2.88l-.48,1.92,3.12-.72v-.24c-1.26-.75.77-.49-.24-1.44l-1.44-2.16h-.48l-.48,1.2h-.24v-1l-1.44,1.44.24.72a9.07,9.07,0,0,1-4.08-.48V72l.72-.48c1.45-.83,3.65-1.15,4.32-1.92l-1.68-1.44c-6.85,1-13.94,4.11-21.6,5.52-26.68,4.9-44.86-7.92-59-17.28-.23.59.09.35-1.2.48l.24.48,2.16,1.92a3.61,3.61,0,0,1-.48,1.92h-.24l-2.64-1.68-.48,1.2-.48-.24L201.6,59c-1.24.23-1.81-.25-2.88-.72-.33,1.08-.12.86-1.2,1.2a3.35,3.35,0,0,1,.72,2.64h-1l-3.12-2.88a24.37,24.37,0,0,1-2.64,2.64h-.24V61c.77-1.73,1.44-3.25,2.88-4.32l.24.48v.72l.48-.48c-.79-.89-.69-.92-1.68-.72v-.48l-.48.24c.31.79.22.29.24,1.2a14.57,14.57,0,0,0-8.88,2.88c-.57-1.36-1.17-1.66-2.64-2.16l-.24.24L181,60.24c1.76.91,4.16,4.62,3.6,6.24-2.76.44-2.2,2.21-3.84,3.6A2.51,2.51,0,0,0,179,68.16c-.24,2-.33,6.32-1,8.16v-.48c-3.19-3.1-.18-10.55-1.2-13.92h-.48c.19,2.47.34,3.67-1,5-.72-.4-.58-.4-1.2-.48-1.11,3-11.32,4.44-9.6,7.44.43.49,0,.17.72.48.56-1.49,2.94-2.69,4.32-1.2-.46.58-.15.39-1,.72A2.22,2.22,0,0,1,169,76.8c-1,.37-.85.17-1.2,1.2,4.11-.52,6.51-.59,8.4,2.16v.24c-3.89.56-8.59.75-11-.72l-.72-3.36c-1.2-.11-2.05-1.14-2.4.72a3.81,3.81,0,0,0-1.92-.48l.48-1.2-1.68.24,2.4,3.36c-1.15.46-1.75,1.14-1.68,2.16,2,.66,2.19.83,3.84-.24l.24.48V85l-.24.24L163,85a5.25,5.25,0,0,1-.24-2.88,28.24,28.24,0,0,1-8.88-.48,3,3,0,0,0,0-2.64h-.24l-2.4.72,2.16,11.52c-3.57-1.74-4.91-4-4.8-9.36h-1c-.19,1-.27,1.63-1,2.16-1.36.81-1.59.52-2.88,0-.11,1,.24.5-.48,1.2h-.48l-.48-.48c-.65-2.71.34-3.88,1.44-5.52-.65-.38-.33-.08-.72-.72l-.72.24c-.54,1.43-2.23,2.24-2.64,2.88-2.87,4.51.85,10.05-5,11.76L133,90.24c-.59-3.8,2.9-5.3,1.2-9.12-1.2,1.19-3.56,3.79-5.76,2.4a3.27,3.27,0,0,1-.72-.72l1.2-3.36-1-.48a8.63,8.63,0,0,1-4.56,1.92l.24-.48c-.46-2.66,2-2.88,1.68-5.52H125a9.58,9.58,0,0,0-3.84,4.56c-1.45-.81-3.2-.24-4.8.72-.89-1.64-3.15-1.8-5-2.4l-.24,1.44c-1.54,0-2.77,1.43-5,1.2l.48-1.2-2.64,1L103,79l-1.44.72L103,76.56,101,76.8v1.68l-1.2-1.2-1.68,1.44c-1.27-.27-1-.24-1.44-1.2l.72-1.92-1.2-.72-.48.24c-.65,3.39-2.75,4.62-6,5.52.3-4.38,2.79-7.17,3.6-10.8h-.24c-1,.61-1.36.73-1.2,1.92-3.84-.1-4.18.33-6.48,1.68v1.68H85.2l-2.4-.72c.75,3.82,2.76,4.28,5.52,6l-.24.48c-3.23.53-4.21.39-6.48,1.68l-.48-1.2c-.42.91-.47.68-1.2,1.2.5.47.25.09.48,1h-1c-1.61-.8-1.65-1.94-2.16-3.12h-.72l-.24.24c1.39,4.62,3,5,5,9.12l-.48,1.92-1.2.24c-2.94-1.31-3.17-4.08-6-5.52A5.87,5.87,0,0,1,73,90.72l-.72.24c-1.26-.79-1.51-2-2.64-2.88a5.93,5.93,0,0,1-1,4.08l-.48-.48c-.46-.33-.14,0-.48-.48-.86-1.29-.59-2.8-.48-4.08-1.74,1.22-1.55,5.4-1.92,7.92h2.64c-.49,4.38-9.14,6.18-13,4.32l-.48.48c2.59,3.55,6.24,5.17,8.4,9.12-5.7,0-7.53-5.36-11-7.92.09,2.56-1,8.59-1.68,9.36-.47.5-.09.25-1,.48-1.14-1-3-5.47-1.44-7.44.5,1,.27.55,1,.72l1.68-2.4v-.24L48.72,101l2.4-1.68c-2.43-.31-4-1.15-5-2.64l-.72.24-1.92,5.76,2.64-1.44.24.72c-1.25,3.35-1.76,5.71-3.6,8.16H41c-.92-.32-.5,0-1-.72-.64-1.71.9-3.43,1.68-4.56a4.47,4.47,0,0,1-3.12-1l2.88-.72c-.59-2.77-.22-3.53.48-6L40.8,97c.63-.43.33,0,.24-.72-.63,1.1-6.74,4.1-8.64,4.56V99.6c1-3.17,2.88-3.92,4.32-6.48-.74-1.29-1.21-1.48-.72-2.88C35.3,90.23,31.24,87.47,31.44,87.12ZM4.32,236.88c.23-.42.22,0,0-.48Zm1.68.24,1,.72C6.5,237.26,6.81,237.45,6,237.12Zm-3.12-11,.7,1.17,0,0,0,0C3,226,2.31,225.64,1.92,224.16h.24c.39.79.49.77,1.2,1.2.3-.73,0-.29.48-.72a3.44,3.44,0,0,0,1,2.88l.48-.24V227c-.44-1.27-1-1.25-1.2-2.88h.24v.48a11,11,0,0,1,3.6,5l1.44-.24a6.09,6.09,0,0,0,2.16,3.84h.24v-1.92l-1-1.44,1-.48c-1.85-23.72,1.94-54.14-3.12-75.6L6,145c-3.16-5.53-6-7.38-6-17l.24-6.24v.48c3.31,4.57,6.31,16.24,11.76,18,2.3-16,3.5-42.2-2.88-53.76-1-1.81-.1-4.85-1.44-6.24L5,82.56,3.6,82.32,3.12,80.4H2.64c-.09,4-1.31,6.51-2.4,9.36H0C-.12,62.46,0,30.13,0,0H247.92l-.72,1.44C251.49-.94,260.79,0,267.36,0h46.08l-.72,3.12,1.44-.24V0h6.48V.48c1,2.44,2.09,3.92,2.88,6l2.4.24a18.35,18.35,0,0,1,1.2-6.48L328.56,0V.24l-1,7.2L330.24,7c-.24.83.19,3.45.48,5l1.92-1v1.2h1V10.32l1.2,1c-.09-1.48-.39-2,0-2.63v.71c.33.34.15,1.12.48,1.92l.48-.24L336,5.76c2.43-1.34,5.44-1.69,8.16-2.64L345.36,0l3.84.24-.48,1.44h1.2c-.65,1.62-2.19,3.64-2.4,4.56l3.6,2.64L352.8,7v2.4l1.44-1.2L354,5h.24a8.3,8.3,0,0,0,4.56.72l-.48-2.16-2.64-1.92.24-.72c1.59-.48,17.53-2.32,19.92-.48a9.25,9.25,0,0,0-.72,3.84l.48.24c2.35-1.09,3.28-2.63,5.28-3.84l-1,2.4h1.44c.34-1.69,1-2.12.72-3.12H385V.48c-1.17.54-.51.5-1.68.24l-.72,2.88h1.92c-2.87,5.21-6.91,5.49-9.84,10.8l2.88.24v-1.2H379v-1.2l1.68,1.2V13.2a4.06,4.06,0,0,1-1-2.88h.24l.48.48c.46.33.14,0,.48.48a5.93,5.93,0,0,1,.48,3.12l.72-.48L384,11.76h.24v1a10,10,0,0,0-2.16,2.64c2.89.07,3.54-.17,6.24-.24-.83,3.34-4.39,3.65-5.76,6.72h.24c2.6-1,8.69-.21,9.12,3.12-3.13.38-5.06-1.41-7.44-1.2l-.24.48h.48c1.48.89,2.34,1,3.12,2.64v.24h-.48L384,26.64c.65,1.26,1.32,1.5,1.68,3.12a4.85,4.85,0,0,1-4.32-.24c.14,3.29,2.18,3.33,2.64,6.48l-1,1.2c-3.62-1.91-3.81-5.56-7.44-7.44l-.48.48v.24c1.26.54,1.77,1.21,1.92,2.88l-.24.48c-1.42-.14-2.68.34-3.6-1.2l-.48.24c.52,4.53-.5,8-1.44,12.72C369.18,56.2,370.19,67,368.16,77c-3.42,16.9-.72,35.51-5.28,50.64l-9.6,25.2c-2.52,4.28-6.32,7.72-7.68,13.2l-.24,11c-1.63,9.82-1.36,27.61.48,37,.71,3.62.72,13.2.72,13.2,1.51,1.23,2,2.93,2.64,5l-.48-.24-1.68-3.6c.39,1.76,1,3.83,1.92,4.56.35,0,.16,0,1,.72l-1.44-5.52h.24l.48.24,1,3.6h.24l-.48-1.92c.9.41.52-.28,1,.24l.48,1c1.6-.14,1.41,1,3.6,2.4a3.2,3.2,0,0,1-.72-1.68h.24c.33,1.07.38.94,1.2,1.44l-.72-1.44.72.48a6.47,6.47,0,0,1-.48-3.12c2,1.48,3.11,1.77,5.28,3.36L359,229.2l.72.48-.48-1a4.81,4.81,0,0,1,1,.95l-.24-.95a11.6,11.6,0,0,1,2.16,2.16c-1.19-2.85-2.44-3.89-3.36-7,1.88.76,4,3.12,4.8,3.12l.24.48c-.69-1.74-2.22-6.42-1.92-6.48.29-.54.26-.6.72-1v1.2a1.72,1.72,0,0,1,1,.24l-.48-2.16h.24v.48c2.27,2.25,2.58,5.65,5.28,7a6.65,6.65,0,0,1-.24-2.16l1.2.72,1.92,3.84-2.4-5c1.08.42.87.85,1.68,1.44v-2.88l.48.24.48,1.68H372a9.49,9.49,0,0,1-.72-3.84H372l.48.24c.69,2.45,2,3.1,3.36,4.8V224.4l-1-1.2c1.16.19,1.05-.1,1.68.24l-.24.72c1.8-1,2.83.7,3.84,1.92l-.24-1.68c-.93-.19-1.36-1-1.68-2.4l4.08,4.32-.24-1c1.26.86,1.82,1.5,1.92,2.64l.48-.24v-.24l-1.2-4.8c.86-.14.8,0,1.2-1.2h.24c0,1.22.11.86-.24,1.68l.72-.24.24-2.16v.48l2.4,5.28c-.06-.52-.6-2.08.21-1.47a2.76,2.76,0,0,1-.93-2.13h.24v.48c1.29,1.44.41,2.3,1.68,3.6l-.24-1.92.48.24,1.2,2.4.48-1a6.7,6.7,0,0,0,2.16,5l-.24-.48c.12-1.05-.34-1.75-.72-2.88l.72.48a19.53,19.53,0,0,1,.72-6c.56,1.94,1,4,2.88,4.8l-1.44-7,.48.24c1,4.46,2,11.81,5.52,14.4-.76-2.55-2-2.85-2.4-5.76h.24v.48l.48.24-.24-1c.57.55.69,1,1.44,1.44v-2.16l.48.24,1,2.88c.13-.7-.19-1.18.48-.72-.31-2-.11-2.2-1.2-4.08l.72.24-.48-1.44.48.24a37.75,37.75,0,0,1,1.2,4.8h.24c-.14-1.29-.46-1.24,0-1.92.64,2,1.05,1.63,1.68,3.84h.48l.72-1.44-1-2.4.24-.48,1.2.72-.24-3.36h.24a8.75,8.75,0,0,0,2.88,4.8l-1.2-1.92v-.24l1,.24.48,1.44h.24v-1.92l.48.24-1-1.44.48-.64c1.36,2.58,3.16,5.61,3.84,6.16l-2.4-6c.62-.1.13.23.72-.24l.48.24a7.4,7.4,0,0,0,2.16,4.32c.2-1-.18-.24.72-.72l-1-5.28H415l.72.24,2.64,5.52-1.2-3.36.48-.48v.48l2.64,5.52.72.24.24-1.68c-1.28-.56-1.56-1.2-2.4-3.36l1-1c.25,1.76,1.14,2,1,2.88-.33-.46,0-.14-.48-.48v1l1.68.48c-.31-.79-.22-.29-.24-1.2a5.78,5.78,0,0,0,1.92,1.2c0-1.33-.16-1.43.72-1.92l.72,1.44-1.2-3.36c1.88,1.14,2.6,3.88,4.32,5.76h.24v-2.4h.24l.72,3.36c.68-.27.35-.21,1-.24l-.48,2.4.24-.48.72-1.2.24.72V231.6c-.67.55-.34.5-.72.48a3.73,3.73,0,0,1,.24-3.12v.48c.78,1.3.66.79,1.2,1.44-.58,1.81-.08,2.68.48,4.32H433v-4.8l1.92,1.68c1-.36,1-.26,1.2-1.44,1,.42.8.33,1.92,0,.21,1.09,0,.71.72,1.2v-.24l-.72-1.68,1.2-.48.48,1.2.48-.24c-.06-1.32-.18-1.5.24-2.16-.06,2.76.67,3.81,1.44,5.52.3-.41.32-.63.72-1v.48c1,1.93-.2,2.13,1.2,2.64-.64-2.25,1.12-3.13.48-4.32s-2.22-1.36-2.64-3.12l.48.24.24,1,.72-1c2,1.32,3.26,1.25,5,3.84h.24l.48-.24a32.28,32.28,0,0,1-3.12-5c.35-.43.21,0,0-1,1.42-.23,1.28-.93,2.16-1.92v.48c2.17,2.79,3.41,6.06,6,8.4l-.48-2.88,2.4,1.92c0-2.67.49-1.46.72-3.12a4.27,4.27,0,0,1-.48-2.88c2.56,1.28.8,2.26,3.12,3.12l-1.44-6.24.48.24,2.64,5.76v30H0V233.28l1.68,1.92c-.93.41-.29.56.72.72l.24.72.48-.48c-1.85-1.85-4.9-6.12-2.88-10.8l1,.72,1,1.2c-.19-1.35.11-.62.24-1.44ZM335.76,14.88l.72.48C336.05,14.87,336.48,15.19,335.76,14.88Zm0,13.2L335,26.4l-.72,1.44.24.48Zm-6.48-3.36.48-.48h-.24ZM311.76,26.4v-.72l-1,.24Zm-6.72,23h.24c-.3-.73,0-.29-.48-.72ZM303.12,4.32c.37-.55.44-.29.24-1l-.72.72Zm-12.48,225.6,1,1C291.23,230.21,291.25,230.32,290.64,229.92ZM287.52,63.36v-.72c-.64-.16-.84-.72-2.16-1l.72,1.92Zm-45.36,170.4.48.48C242.31,233.78,242.62,234.1,242.16,233.76ZM226.32,22.56l.72,1C226.72,22.6,227,23,226.32,22.56Zm-3.84,4.08V26.4l-.48-.48-.24,1H222Zm-1.2,7-.24-.48h-.24v1ZM188.4,234.24l-.72-1C188,234.2,187.68,233.78,188.4,234.24Zm-13.44.48-1.68-1.92C173.62,234,174,234.18,175,234.72ZM82.32,64.32c.36-.4.38,0,.24-.48ZM79.44,75.6l-.24-1.2v1.2Zm-4.08-5.76-1-1.2-.48,1.68h1Zm-1-59.76-.24-.48h-.24c-.26.84-.48.13,0,1v-.48ZM72.72,25.44h1.2l-1.2-.72Zm-1.2,5.28c-.28-1.23-.36-1.44-1.68-1.68C70.15,30.22,70.35,30.41,71.52,30.72ZM62.16,69.84c.6-.41,1.24-.88,1-1.44l-1.44,1Zm-9.36,0h-.24L52.08,71C52.61,70.55,52.53,70.71,52.8,69.84ZM47.28,7.2l.24-.48L47,6.24l-.48.24L47,7.2ZM32.4,239.28l-.72-1C32,239,31.83,238.86,32.4,239.28ZM8.64,24.24v-.48l-.72-.48.24,1.2Z" transform="translate(0.43 0.32)"/></svg>