<svg id="图层_1" data-name="图层 1" xmlns="http://www.w3.org/2000/svg" viewBox="0 0 461.23 259.91"><defs><style>.cls-1{fill:#96d3d6;}</style></defs><title>1-5</title><path class="cls-1" d="M318.72,51.36h-.24L317,50.16l-.24-.48v-1.2A3.52,3.52,0,0,1,318.72,51.36Z" transform="translate(0 0.31)"/><path class="cls-1" d="M452.17,68.44c.54,1.48-.55,3.26-1.45,4h-.24v-.24c.55-1.27,1.11-2.53,1.66-3.8Z" transform="translate(0 0.31)"/><path class="cls-1" d="M443.52,61.2v.24c-1.11,1-1.38,2-3.12,2.4a5.89,5.89,0,0,1,2.16-3.36h1Z" transform="translate(0 0.31)"/><path class="cls-1" d="M443.52,73.68v.24h-1a5,5,0,0,1-2.64-1.68h.48l.24-.48A4.74,4.74,0,0,1,443.52,73.68Z" transform="translate(0 0.31)"/><path class="cls-1" d="M440.16,73.44c2,.87,3.41,5.54,4.32,7.44C441.51,79.63,440.79,77,440.16,73.44Z" transform="translate(0 0.31)"/><path class="cls-1" d="M370.08,84.72h-.24a4.82,4.82,0,0,1-2.4-4.32A4.23,4.23,0,0,1,370.08,84.72Z" transform="translate(0 0.31)"/><path class="cls-1" d="M358.56,77.28a2.15,2.15,0,0,1,.48,1.44c-1.2.69-1.27,1.5-2.88,1.92v-.72S357.74,78,358.56,77.28Z" transform="translate(0 0.31)"/><path class="cls-1" d="M299,66.48a2.21,2.21,0,0,1,1.68,1.92C299.43,68.07,299,67.44,299,66.48Z" transform="translate(0 0.31)"/><path class="cls-1" d="M305.76,67.44c-1.47-.34-5-.28-6-1.2l.72-.24C303.05,65.87,304.69,66.09,305.76,67.44Z" transform="translate(0 0.31)"/><path class="cls-1" d="M229,58.8c.14,1.7.51,2.49.24,4.08-.61-.39-.58-.3-1-1a4.18,4.18,0,0,1-.48-3.36C228.55,58.87,228.05,58.78,229,58.8Z" transform="translate(0 0.31)"/><path class="cls-1" d="M241,53.52v.24h-.48a4.57,4.57,0,0,1-4.8-1h.48l1.44-.48,3.12.48Z" transform="translate(0 0.31)"/><path class="cls-1" d="M256.08,40.56,258,43.2l-.48,1.92L254.88,48l-1.68-.72a11.58,11.58,0,0,1,0-5c-5.06,2.14-5.38,7.19-13,6.48V49l.48,2.64c-4.09-3.12-1.65-.09-7.2-.48l-.48-1a21.36,21.36,0,0,1,4.8-1.92l-.48-.72-2.16-1.44c2.62-.6,5.56-1.35,8.4-.48.79-3.64,4.1-4.5,5.9-7.12l1.3.16c.06,1.82.19,1.63,1.68,1.44h2.16l.72.48Z" transform="translate(0 0.31)"/><path class="cls-1" d="M21.6,113.52l-.24,1-.48.24-1-1a5.46,5.46,0,0,1-1.68,4.08v-1c.67-2.07,1.33-4.15,2-6.22.05-.17.11-.33.16-.5a4,4,0,0,1,.71,1.32A7,7,0,0,1,21.6,113.52Z" transform="translate(0 0.31)"/><path class="cls-1" d="M25,110.16c.64,1.51,1.33,2.28,1,4.32H25.2c-.52-.87-.89-.63-2.16-.72-.41-1.29-.94-1.37-1.29-2.38a3,3,0,0,1-.15-.5c.69.2.18.47.72,0-.9-.61-.83.05-1.2-1,2.28.14,3.12,0,3.84-1.44l.72,1.08.24.36C24.94,109.76,25.92,110,25,110.16Z" transform="translate(0 0.31)"/><path class="cls-1" d="M80.4,93.6v.24l-.48.72H77.76v-1c.68,0,.55.15,1.2-.24Z" transform="translate(0 0.31)"/><path class="cls-1" d="M79.92,86.88c.34.73.13,1.37-.72,2.16l-1.68-.24.72-1C79.59,87.57,79.7,87.57,79.92,86.88Z" transform="translate(0 0.31)"/><path class="cls-1" d="M78,92.9c-3.69,2.9-2.08,24.52-3.13,30.94-3.23,19.8,1.8,39.1,5,56.4l2.16,45.36A6.75,6.75,0,0,0,85,228l-1.68-1.92c2.07,0,3.42-.3,4.32,0l-.48-1.2,1.92.48c-.64-1-1.4-.63-1-1.44,1,.06.83-.47,1.68,0l1.92.72c.12-.57.34-.36,1-1l-.72-1c.76.07,1,.48.72-.24l1.44,1-1.44-2.16c2.24.46,2,1.52,3.6,2.16l-1-1.44,2.4,1.92L97,223c1.23-.08,1.49.11,2.16-.24l.48,1-.24-1.2a8.65,8.65,0,0,0,1.81,1.21c1.3.67,2.41.86,2.75,1.19l1.2,1.44-.24-1.68,1,.72c0,.68-.15.55.24,1.2.31-.69,0-.43.72-.24V224.4c.82-.13.25.15,1-.48,1.16.69.93.37,2.16.72l-1.92-2.4.48-.48,1,.24a7,7,0,0,0,3.84,2.64l-.24-.72a6.62,6.62,0,0,1-2.4-3.12c1.64.81,2,1.8,3.6,2.64l-.48-1.2.48.24c.16.79-.11,1.62.48,1.2l3.12,1c0,1-.49.29.24,1,1-.11,1.11.11,1.92.72-1-1.61-3.11-2.94-4.8-3.84l.48-.48,2.16.72-1-1,1.44.48-.72-.72c1.65.39,1.55.51,2.88.72l-3.12-2.16c3,.39,3.51,1,6,2.64l-.24-.72,1.68.72c-.15.7-.41.13,0,.72l1.44,1-1-1.2c1.59.34,1.3-.26,3.36.48a3.74,3.74,0,0,0-2.64-1.92c-.06,1,0,.05-.72.72l-3.6-3.12h1l2.91,1.87,0,.05h.11l.37.24v-.24h-.37l-.08-.05.45-.67a41.49,41.49,0,0,0,5.28,3.12c.62-.79.45-.38,1.2-.72L130.32,221l.72,1.44h-.24c-2.14-1.47-5.1-3.33-6.24-5.76l4.32,3.36c.38-.66,0-.42.72-.24a13.27,13.27,0,0,1,5.52,3.12l-1.2-2.16v-.24c1.42.22,1.7.07,2.4.48l-.48-1.2a25.07,25.07,0,0,0,5.52,3.6c-.41-3-.19-6,.72-10.8V197.76a75.73,75.73,0,0,0-.24-23.76l-.24-13.2-1.68-15.36c-2.28-8.91-5.55-16.51-8.16-25-1.22-4-1.21-7.6-2.64-11s-4.88-5.11-7-7.92c-3.45-4.66-6-9.62-9.84-13.92-1.72-1.94-4.25-2.21-5.76-4.56l2.4-.24,1.68.72.48.24,2.8-.15c2.87,4.92,9.06,13.29,11.36,14.55l1-.24.24-7.2a2.16,2.16,0,0,1-1.92-.24c-.92-3.46,1.83-4.38,1.68-7.44H126c-1.6.77-3.85,1.78-6,1.2.49-3.07,4.59-4.31,6-6.72l-1.2-.72c-1.07.86-1.41,1-1.68-1h-1.2l-.24,1-2.4-1c.06,2.32-.41,3.6-1.68,4.56a3.57,3.57,0,0,1-2.16-1.68c.12-2.56.74-4.24-.24-6l1.92-.48c-.21-2.31-.41-3.47.24-5.28l-.48-.48-1.44-.24,1.2,2.64-1.92-1v.48H112.8l-.72-1c-1.46.4,0,.06-1.44-.48l-1.2-.24-1.92,3.36H107V67.92l-.24-.24-1.92.24c.22,2.29-1.06,4.21-.77,5.6l-1.63.4-.24-.48c-4.83-.94-2.57-2.58-4.08-7-.78.77-.44,1.06-1.44.48-.6-.56-.63-1.58-1.2-2.16l-2.88,4.08c.75.39.56.22,1,1l-1.68-.24.24,1.92L90.72,73v.48L90,74.64v.24h.48l1,.48v.24c-5.15.11-7.26-2.37-11.28-3.12l-1.2,1,.24.48c3,.71,4.8,2,5.52,5l-3.6-.24c-.25,1.5-.79.33-.48,1.44-.7.24.23.52.48,1.44l-1.44,2.16-4.08-.24.24,4.8h.48l.24-4.08.48.24V85c.89,2.91-1.44,5.72,1.44,7.68A1.28,1.28,0,0,0,78,92.9ZM77.5,54.72l-.7-.24C77.32,55,76.78,54.85,77.5,54.72ZM452.16,68.41l0,0a2,2,0,0,1-1.42,0l.72-.72c-1.08.32-1,.55-1.68,1.2v-1a7.22,7.22,0,0,0,.72-4.08l-4.08-.48v-.24l1-1c1.79-.19,2.93.09,3.36-1.68l-2.16-1.92c-.82,1-.72,2.74-1.68,3.6.12-1.83.55-2.09.48-3.6A6.31,6.31,0,0,1,443.52,60v-.72l2.64-1.2h-1.92c.49-.53.33-.45,1.2-.72v-.24l-1-.72.72-1.68c-1.53,0-1.49-.07-1.92-1.2-1,.23-.8.28-1.44.72.5,1.2.58,1.32,1.92,1.68v.24c-1.68,0-1.46-.31-2.16.72l1,1.92h-.72c-1.07-.92-.85-1.45-1.92-.24l1.92,1.2h-.48l-1.92.48c.63,2.1-.94,4-1.2,5,1,0,.29-.49,1,.24-.66.74-.25,1.24,0,2.4h.24a3.34,3.34,0,0,1,2.16-3.12h2.16c-.86,3-2.1,4-4.8,5l-.48-.24L437,67.2h-.24l-.48.72c.78.93.6.69,1,1.92-1,.07-.63-.08-1.44.48.43,1,.13.64.24,1.68l2.4,1.44c.3,2.59-1.58,7.91-3.36,9.36l-1-1.68a9,9,0,0,1,1.92-5.76l-.48-.48-1.92,1c-1.3-1-.83-.8-2.4-.72v-1.2c.76-1.4,1.62-1.56,2.88-2.4l-.24-.72c-4.32.89-5.49,3.32-8.4,6l-1.92-.24-.72-.48c.18-4,3.38-4.2,4.8-7.2a11.41,11.41,0,0,1-4.32-.24l-.48-1.44L425,65.52,424.8,65l-3.36-.48v-1c.9-.55,2.25-1,2.64-2.16h-1.2l-2.4.48-1.68,3.6a7.55,7.55,0,0,1-3.12.48,23.05,23.05,0,0,1,2.88-4.8l-.48-.24a4,4,0,0,1-2.64.48c.55-1.24,1.31-2.16.72-3.12l-.72.48-1,3.6-.24-.48-1-1.2c-1.13.62-.61.72-1.68-.24-.5,3.07-2.47,4.52-3.36,7.2l-.48,3.12v-.48a7.07,7.07,0,0,1-.42-5.51,44.59,44.59,0,0,1,3.06-7.45c-2.84.7-4.25,2.21-7.92,2.64l.72,1a5.88,5.88,0,0,1,4.08,3.84c-2.88,0-3.66-1.23-5-2.64l-1.44.24L397,70.8c-4.17,9.45-8.08,17.12-13.68,24.72-2.5,3.39-5.46,7.71-11,7.92l-4.56,31.44c1-.95,1.36-1.48,2.88-.72l-1,18.72,2.16-17.28,1-.24.72,1-1.2,44.16c.2.49,1.23.66,1.44,1.44l-.72,37.2c.87.51,1.16,1.3,1.92,1.92v-1l1.44,1.2-1.2-2.88,1.2.72.24-1.92,1,2.64c.36-.52,0-1,.72-.72l1.44,2.64c-.15-.53-1.21-3.46-.48-2.64-.3-1.17-2-3-2.16-6h.24c.35,1.59,1.67,2.45,2.16,4.8l.72-.24v-1.2c.94.52,1.59,1.2,1.92.48h.48a2.71,2.71,0,0,0,1.44,2.4,2.38,2.38,0,0,1-.24-1.44l.24.48c1.26,1.89,2.51,4.31,4.08,3.84L384,215c2,1,3,4.16,4.56,5.76l-1-2.16.48.24a29.87,29.87,0,0,0,1.44,3.6c.43-.58,0-.25.72,0v-1l-1-2.64h.24v.48l2.16,1.92c.05-.53-.18-.77.24-.48L393.6,223h.24c-.66-2.81-3-4.12-4.32-6.48l3.36,1.92L391.44,215a2.54,2.54,0,0,0,1-1.2l.48.24a12.11,12.11,0,0,0,3.36,5.28L394.32,215l.24-.24,2.64,3.12-1.2-3.6,1.68-1.44A5.52,5.52,0,0,0,399.6,217l-.72-3.36h.24l2.16,4.32.24-4.32,1.68,1.92-.72-2.4c1.27.46,2.38,2.25,2.88,2.64s.94-.06.48-.48c.68-.32.21-.48,0-1.2l3.36,1.68,2.16,2.4a5.54,5.54,0,0,1-.72-3.36c.76.44.95.91,1.68.72-.51-.56-.11,0-.24-.72l.24.48.48,1,.72-.24c-.56-1.47-.26-1.8.24-3.12,1.24,1.4,2.25,3.9,3.6,5l-.48-3.36h.24a4.69,4.69,0,0,0,1.44,2.64l-.72-3.6.48.24.72,1.92c.71-.13.61-.89,1,0l.72,1.68H421v-1.92l.48.72V213.6l.48,2.4.72-1.2c.59,1.39.72.67,1.44,1,.05,1.1.83,1.5,1.2,2.88h.48c-.05-1.25-.13-2.16.48-2.88.15,1.37-.08,1.7,1,2.64l-.24-1.92,1,.72-1.2-2.88,2.16,1.68-.72-1.44a4.82,4.82,0,0,1,2.4,2.16l.48-.48-.48-3.84h.24v.48l2.88,3.6-1.92-3.6.48-.48c.46,1.81,1.78,2.76,3.12,3.84,0-.16-.11-.89.24-.48l-1.2-3.12c1.23,1.32,1.44,2.15,2.64,3.12l-.24-1.44c.94.52.51-.49,1,.48,1.75.51,1.86,1.71,3.12,2.64l-1.68-2.88,2.16,1.2c-1.23-2-1.39-2.95-1.92-5.52a7.64,7.64,0,0,1,1.92,4.56c.69.35.76.66,1.68,1.2-.55-1-2.4-6.37-2.4-6.48V209l1,.72,2.16,3.6v-1l-1.92-4.08.48.24,2.64,5c.67-.43.41-.35,1-.48l-.48-1.2.72.48a5.75,5.75,0,0,0,3.12,3.84l-2.88-5,1.44.72-.24-.72c1.56,1.44,2.31,1.6,3.84,3.12L450,210.48c1.19.28.58.29,1.68,0a5.28,5.28,0,0,0,2.4,3.84l-1-1.92h1l-.48-2.16h.24c.43,1.55,1.27,2,2.4,2.88l-1.92-6.24h.24v.48l1.44,1.2-.72-1.68.72.48a11.86,11.86,0,0,0,2.64,4.56l-2.16-7.2h.24c.79,1.88,3.4,2.52,4.08,4.56,1,2.88,0,10.4,0,14.88v35H200.88c-10.15,0-23.06,1.27-31.92-.72-.86-.19-2.06.7-3.6.72H87.84c-8.94,0-19.76,1-27.84-.48.67-1-.39-.15.24-1.2a3.06,3.06,0,0,0,1.92.48c-1.59-1.28-3.85-1.66-5.57-2.59l.29-.29h-.72s0,0,0,0a4.14,4.14,0,0,1-1.46-1.48h3.84c-1.58-1.1-1.74-1.86-3.84-2.4-.13.7-.19,1-1.2.72l1-.24c-1.49-1.35-4.66-1.13-6-2.64a4.24,4.24,0,0,0,2.64,0l-.48-.72-3.84-1.68c.76-.63.46,0,.24-1-.93-.62-.74-.87-1.2-1.68l1.92.72V245l-1-.24.48.72L50.4,247a5.81,5.81,0,0,0-2.64-1.68l.24-.48c2.07.42,2.49,1.63,3.6,2.16l-.24-.48h.48c-.27-.68-.21-.35-.24-1l-1.44-.24.24-.72,1.92.24c-1-.5-1.64-.4-2.16-1.44l.68-.23.07.08c.27.62.14.47.69.87a3.17,3.17,0,0,0-.69-.87.32.32,0,0,0,0-.09h0c-.44-.34-.93-.5-1.64-1l.72-.48-1-.24.24.48A7,7,0,0,1,47.28,240l2.64.72L48,239l.48-.48L50.64,240l.48-1-1-1,1.44.24c-.33-1-.16-.18,0-1.44h2.16c-.29-1.64.22-1.41-.48-2.4l2.64-.24c-.77-.82-.34-.87-1.2-1.2l1.2-1.44c1.92.26,2.42,1.72,3.6,1.2-.33-.87-.12-.64-.24-1.44l-1.2-.72,5,.72-4.32-2.64,5,1L62.64,228a41.12,41.12,0,0,0,4.8,1.68l-1-1c1.38-.11,1.07.21,1.44-1L66,226.32l1.2-.24c-1.48,0-1.87.09-2.64-.72H65l-.24-.48,2.88,1,.24-.24c-.62-1.53.49-2.9,0-6-1.81-11.51-.48-23.7-.48-36L66.72,155l-2.64-30c0-13,4.65-28.11,1.92-41.76-.82-.54-1-.39-1.44-1.2-1.15.67-1.13.67-1,2.16,1.71.72,2.22,2.31,1.68,4.56-1.52.3-1,0-1.44-1-1.24,1.09-1.23,1.09-3.6,1-.4-1.27-.54-1.77-2.16-1.92l.48,1.44v3.6l-2.16-.48.72,3.84c.72-.4.58-.4,1.2-.48V96l-1,.72c-.69-.4-.07-.35-1,0-.19,1.06-.14.89-.72,1.44l-.24-.48c-.49-3.29.14-5.9-1.44-8.16l-2.4.72v-.72c.84.18.81.23,1.44-.24l-.72-1,2.4.24v-1l-.24-.48c-1.23.13-1.55-.35-2.64-1a5.87,5.87,0,0,0-2.64,4.08,3,3,0,0,0-2.64.48h-.48c.58,1.56,1.69,1.76,2.16,3.6-.44.18-.39.2,0,.48V95c-.78,1.28-1.51,1.23-3.12,1.68a14.58,14.58,0,0,0,1.44,7l-2.16-1.92c-1.1.75-3.29,1.94-5,1.2.38-.22.32-2.48-.24-4.08h-.24v2.88l-1-.72L37.2,99.6H36l-1.2,4.08H35a3.82,3.82,0,0,1,3.6,0h-.48l-1.92,1.2.24,1a5.3,5.3,0,0,1,2.16.24v.24h-1.2v.24c2.35.39,5,1.53,6.24,3.12l-.48,1.2-1-.48a2.25,2.25,0,0,0,.48-1.2l-.72.48v.72l1.44,1.68H43.2A12,12,0,0,1,38.4,108H37.2l-.48.48c.71,1,.87.52.48,1.68,1.1-.21.94-.76,1.44.72l-.72-.48,1,1c.51,0,.08-.12.48.24l-.24,1h-1L36,110.64l-.48.24c.19,1.39.81,2.5,0,3.36-1.78.53-2.8-1.2-3.84-2.16v.72c-1.41,1.17,1,5.12-1,7.92h-.24c-3.29-3.36-.55-4.79-2.15-8.16.66.1.9.1,1.43,1,.75-.64,0-.25,1-.24v-.48l.24-.72L29,110.88l-.72,1.67c-.07-.15-.15-.31-.24-.47-.6-1.06-1.29-2-1.88-2.86A7.55,7.55,0,0,1,25,106.56c.55.17,1.62.28,1-.72,1.58-2.28,1-2.91,1.2-4.8l1.2-2.16c-2-.3-2.58.28-3.12,0L25,100.56v-.48l-.48-1.2c-1,.1-.94.08-1.44.48a9.92,9.92,0,0,1,.72,5.76l1.43-.71-1,1.19-1.44.48-.24-.72c-.85-1.38-.79-3.25-1-4.8L18,103c1.1,2.28,3,4.92,5.52,5.76V109h-1c-3.73-1.38-3.33-1.94-5.28-3.6-.69.65-.52.24-1.44.72,1.08,2,1.63,2,3.6,2.64h-1c.33,1.19.57,1.3,1.68,1.68v.24c-2.67-.34-4.61,1.54-7,.72l3.36-1.44a3.54,3.54,0,0,0-1.68-2.16c-.1,1.7-.45,2.58-1.44,3.36l-1.2-1.44A26.82,26.82,0,0,1,12,115.2h-.48l-.72-1.92c-.9.26-.29.42-1.2,0v-1.2l.24-.24.72.48.24.48c.3-1.57.89-2.92,0-4.08-.48.78-1.32.35-1.92-.24-.43,2.22-.89,5.9-1.2,8.4l-.48-.24C7,115.43,7,114.78,6,115l-.72-.48L5,113.76l.72-1,.48.72a6.1,6.1,0,0,0,1-3.6L5,110.16l.72-3.36L5,105.6c-.46.33-.14,0-.48.48l-1.68,2.64h-1c-.7-.69-1-1.06-1.92-1V0L93.36.24l-.48.48c-.62,1.51-1.71,2-2.64,3.12v.24l1,.24.72-.48c1.56-2.61,4-4,8.4-3.84-.44,2.72-1.82,3.42-2.88,5.28,1.13-.06.94-.27,1.68.48l-.48.48c-.8,1.18-1.72.81-2.4,2.4l2.4,1.92c-.71.87-.92.26-.48,1.2l1.92,2.88L97,15.36a86,86,0,0,1-9.84-3.6c.38,3.65,1.11,5.59,1.44,8.64l-.72,1.2H87.6c-3.07-1.16-3.37-3.94-5-6.48-.82.18-.06.33-1,0A22.35,22.35,0,0,1,80.88,23L79,24l-1.44-.72a14.77,14.77,0,0,1,.24-4.8l-1.44.24c.47,1.47.41,1.89-.72,2.88l-2.4-1.92,2.16,22.8V42L79,38.64h.24c.06,2.09-2.15,5.86-.48,7.2A7.54,7.54,0,0,0,83.28,47L83,46.32c-1.09-1-2.84-1.79-3.36-3.36l.72-.24,6.24,3.12.48-.24A18.46,18.46,0,0,1,83.76,41l-2.64.72,2.16-2.4c-1.77-.35-2.65-1.27-3.84-2.16.12-1.92.52-1.65,1.68-2.4,3.36.57,5.78,3,7.44,5.28v.24l-3.12.24.48.72,4.8.72v-.24C90,40.94,89.55,40,90,39.36c.29-.78.23,0,.72-.72A4.21,4.21,0,0,0,89,36.48c-.38.48-.31.33-.48,1.2l-1.2-1c-.61-2.16-1.45-4.13-1.2-6l.48-.24c1.91.75,2.08,2.4,3.84,3.36,1.88-1,2.7.72,4.08,1.2.61-3.11-.12-7.53,3.6-9.36.64,4.58-1.54,7.13-2.16,11.52,3.06-1.22,9.57-7.51,13.2-3.12l-1.68,1.44.24.48c2.13.7,1.57,1.55,3.12,3.12h.24c.7-1.08,1.58-1.29,2.16-2.64a4,4,0,0,1-3.84-1.68c1.8-3.09,3.07-4.24,8.16-4.08l-.24-.48c-2.36-1.39-2.49-4.07-1.92-7.2h.24c.68,1,1.06,1.05,1.92.72.34-2,1.2-1.23,1.92-2.64-4.37,0-7.4-.57-9.36-4.32v-.24l10.8,1.2a31.44,31.44,0,0,0-3.12-9.36l-.48,1.2c-.79-.29-1-.44-1.68-.24l.48.72c-2.71-.25-3.7-1.87-4.8-3.36l.48-1c.25,1,.25,1,1,1.44l.48-1.44c.6,1.09.43.23,1.68,0l-.72,1.92a10.34,10.34,0,0,0,2.64-.24c.5-.91.31-.23.48-1.2,1,.11.81.67,1.2,0l1,2.4L120,8.4V8.16c-.08-1.65.06-3.15-1.44-3.6.42-1.54,1-2.43,1.2-4.56h1.92c.2,2.77,1.1,2.86,2.4,4.32H122.4l.72,5.52.72-.24.48-.48c-.5-2.67.18-4.79.24-9.12h1.92l.24,5.28h1c1.2-.78.51-.85,1.92-.24l.72-1.68-.24-.24-1.68.48c0-1.54.41-2.53,1.2-2.88l-.24,1c2-.7,3.71,1.09,5.28,1,.06,1.07-.26.54.24,1.2l1-1.44c1.92.27.76.14,2.64.48v.24c-.63.43-.39.38-1.2.24-.71,1.05-2.05.84-3.36.72A2.52,2.52,0,0,1,134.4,6l-1.2-1.2H133L132,5V6.72l-.48-.48c-.14-.72.1-.55-1-1-.07.32.17.66-.48.48a5.74,5.74,0,0,1,.48,2.4l-2.88-.72.48.72.72-.24-.48.48c-.71.57-.68.14-1.44.24v1.2l.72.48.48-.48-.48-.72c1.6.2,3.25-.11,4.56,1.2v.24l-2.64.72.72.48-.48.48-1.2-.48c0,1.05-.76,1.51-1.44,2.4l.48,1c.12-.66-.16-.44,1-.72-.62.93-1.62,1.4-1.44,2.4v1.44c.64-1,.09-.19,1.2-.48a9.33,9.33,0,0,0-.72,2.16l1,.48c1-1.84,5.78-1.91,6-2.88-1.24-.08-.61.18-1.44-.48-1,.93-.67.93-2.4,1.2l-1.68-1.92c.79-.14.92-.11,1.2-1.44-.29-.18-.29.1-.24-.24.42-.73.13-.57,1-1,.13,1.3.15,1.65.72,1.92h1c.43-1.58.24-2.16,2.4-2.16,1.82,2.66,4.07,3.83,5.28,7.44l.48-.24v-.48c.43-1.34-.87-3.26-1.2-4.8-.24-1.14.4-4,.48-4.56.05-.38.05-.39-.07-.61l-.17-.35c1.2,0,.75-.16,1.44.24V8.88l-1-.24c1.22-.38.88-.14.72-1.2.81-1.79.52-4.41.48-7.44h8.88c-.17,7.89-1.73,18-1,22.8l1.92,1v-.24a6.57,6.57,0,0,1-.24-4.8l1.92-1.44h.24a9.58,9.58,0,0,1,.48,7.92l3.6-2.4v3.6l.72-.24.48-1.92a5.69,5.69,0,0,1,3.36.24V21.6c2.51-.25,3.23,1.58,4.8,2.88H167l.72-2.16,1.68.48v-.24L168,21.12a5,5,0,0,1-3.36.48V18.24c.66-1.53,4.25-5,5.76-4.8l-.24-1.2a14,14,0,0,0-6.48,1.68l1.2-2.16a13.86,13.86,0,0,1-6.48-2.4l.48-.24c2-2.51,8.25-4.68,11.52-6.24-1.32-1.4-3.08-1.83-4.8-2.88h53.28l-.24,1.2C222-1.22,231.44,0,236.88,0H460.8V38.4c-.84-.18-.81-.23-1.44.24h.48c1.58,1.31,1,5.6,1,8.4V70.32l-.72.24c-.75-.8-3.5-.78-5.28-1.2A8.27,8.27,0,0,1,456,73l-.48.72H455c-.65-2.28-1.88-3.46-1.2-5.76-.42.13-1,.38-1.67.52A0,0,0,0,0,452.16,68.41ZM233.52,52.32V53c-1-.17-1.39.39-2.16,1.68a9.63,9.63,0,0,1,4.8,0l1,1.44a3,3,0,0,1-.72,1.2c-3.15.47-4.86-.54-7.2-1.2l1.44-3.84-1.68.24c.4.72.4.58.48,1.2-1.84.14-1,0-2.88-.24l-.48,2.4V54.24l-.48.24V55c-.68,1.87-.1,3-1,4.32-2.79,1-6.57,2.47-9.84,2.64l.24-.72c2.9-4,3.58-2,7.44-4.32-1.71-1.21-2.87-1.2-2.16-3.6-.82-.07-.52.17-1.2-.48l.48-.72L221,51.6l3.36,1.2c.33-.46,0-.14.48-.48l-.24-.48a20.73,20.73,0,0,0-7.92-2.4c-.1.62.23.13-.24.72-.71-1.17-3.89-2.19-5.28-2.64-1,1.46-1.2,1-1.92,2.16l4.56-.72c-.35,4.24,2.23,6.17-1,10.56a4.76,4.76,0,0,1-2.16-2.16c-1.18-2.13.1-4.29,1-5.76-2.44.71-3.05,1.7-3.12,3.12l-1.92-1h-.24c.12,3.68-1.06,4.58-3.12,6l2.4,3.12-3.6-1.2c.16,3.17-.11,5-1.92,6.24l-2.64-1.68A21.58,21.58,0,0,1,199.92,54a7,7,0,0,0,2.16,4.56l3.12-6-.48-.24-1.2,1.2-.24-1c.3-1,.16-.88-.24-2.16-.73.59-.6.7-1.68.48v1.44c-2.76.07-2.28.07-4.32-1l.72,2.16-.48.48-1.92-1.44h-.24l.24,4.32h.24l1.68-.72A11.36,11.36,0,0,1,193,61.68l.24.48c2.35.61,3.37,2.08,4.1,4.16.08.21.15.42.22.64h-1.68a16.76,16.76,0,0,0-7.2-1.68c-.4.82-.33.48-1,1l.24.48,2.16.24-.24.48L187,67l.72,2.16L186,70.32c.78,2.44,1.38,3.61,1,6.48l-.24-.48c-1.13-2.56-1.78-4.91-3.84-6.48-.69.34-.35.38-1.2.24l-1-4.08-.48.24c-.08,1.45-.17,2-1.44,2.4a6.73,6.73,0,0,1-3.36,1.2l.48-1.68-1.92-1-.72,1.2a13.55,13.55,0,0,0-1-4.56c-.38-.6-.6-.49-1.2-1.2l-1.44,1c.07,2.18.93,2.56,1.2,3.84a9.74,9.74,0,0,0-4.32-.24v2.16l-.72-.48-.24-1.44-5.52-.24a13.79,13.79,0,0,0,2.4,7.92c-3.65-1.27-4.72-6.51-5.28-9.36l-1.92-1.2-.48.24c-.77,3.75-4.47,4.7-3.84,8.88l2.4.72-.24.72-1.92,1.44V83A3.87,3.87,0,0,1,154.32,85L151,84.24l-1.68,25.92v19a87.08,87.08,0,0,0,.24,23c1.53,10-.24,20.11,1.2,29.52,1.57,10.24,0,20.53,1.44,30,.46,3-.15,5.86,1,7.92a6.52,6.52,0,0,1,3.6.72l.24-.24-1.68-2.16.24-.48c.77.86.41,1.16,1.92,1.44l-.24-1,4.08,2.88.24-1a3.29,3.29,0,0,0,1.44,2.4v-.48h.48l-.72-2.16,4.56,4.56c1.08-.51.61-.63,1.68-.24l.72,1.44c-.47,0-.84-.16-.48.24,2.33.68,3.27,2.69,5,4.08l-2.4-3.36h.72l1.2,1.44-.48-1.2,1,.72-1.68-1.92,2.16,1c-.17,1.42-.21.63.72,1.44l-.48-1,.48-.24c1.38.65.93.1,2.16.24l-2.16-2.64,3.36,1.68-.72-1.68,3.6,1.92-2.38-2.62,3.58,2.14a9.73,9.73,0,0,0-5.76-3.36l1.2,1.2a9.68,9.68,0,0,1-4.8-3.12l5.52,2.16a10.16,10.16,0,0,0-3.84-3.36l.24-1.92c.75.13,1.09.57,1.92,1.2,1.29,2.37,2.62,2.66,5.52,3.12V221c.21-1.34-1.25-3.21-1.68-4.8h.24l1.44,1.2c0,1.2-.21,1,.24,1.68.2-.46,1.6.4,2.4,1a19.06,19.06,0,0,1-3.36-5.52c2.91,2.37,4.23,5.73,7.68,7.68l-4.8-7,1.68.24c.54,1.44.79,3,3.36,3.6l-1.68-2.64c1.1.28.89-.1,1.2.24l1,.24c-.21,1-.68.46.24,1.2H191v-1.68l.48.24V217c.06,1.56,1.17,2.12,2.64,2.88l.48-.48a5.42,5.42,0,0,1-2.64-1.92l4.32,1.92v-.24l-.72-1.2,2.88,1.92v-1a2,2,0,0,1-1.44-1.44c.49-.43.17,0,.48-.72l.24.48c.78,1,1,1.75,2.16,2.4l-1-2.88c.92.63,4.16,3.85,4.32,3.36.46-.33.14,0,.48-.48l1.44,1.2,3.12,3.84c.62-1.08.43-.48,1.68,0-.71-1.28-1.26-2-1.92-3.36l3.84,1.68c.2-1.29.35-.82,0-1.92,0-1-.38-1-1-1.92l.72.48L215,222l-.48-1,2.16,1-1.92-1.44.72-.24a5.35,5.35,0,0,0,2.64,1.2l-.24-.48L215,219.36l5.28,1.92V221c-1-1.68-3.09-2-4.08-3.6h.24l6,3.6-2.4-2.16c1-.11,1.14-.28,1.44-.24a4,4,0,0,0,2.16,1.44l-.72-1.92c1.07.8,2.51,1.33,3.12,2.64.89-.61.48-.35.48-1.2,1.2-.07.63.42,1-.72,1.22,1.36,1.52,3.3,3.6,3.84l-.24-.72a3.14,3.14,0,0,1-1.44-1.44c1.52.59,1.72,1.78,2.4.48l.48.24c.37,1.08.54,1,1.44,1.44l-.48-2.88.48.24a18.9,18.9,0,0,0,2.4,5.28l.48-.48c-.64-.42-.63-.46-1-1.2l.72.48L234.72,222h1l-.72-1.92.24-.24h.24l2.88,5.52c1.25-.23.77-.3,1.92.48-.71-1.5-1.73-4.18-3.12-5l.24-1h.24c2.63,2,4.3,5.51,7.44,6.48l-.24-1.44,1,.24a9.9,9.9,0,0,0-2.4-3.36l4.32,1.68c-.21-.81-.2-.32-.24-1l.24.24c.92.19,1.09,1,2.4,1.44.43-.49,0-.17.72-.48-.75-.66-1.63-1-2.16-1.92h.24l1.68,1a1.72,1.72,0,0,0-.72-.72l.48-.48.72.48,1.2,1.92c.31-.51,1.4-.5,1.44-.48l.72.72h1v-.24c-.25-1-.75-1,.24-1s1.58.71,3.12-.24c.75.43.86,1.55,1.68,1.68l.48.24-1-1.44c1.6-.18,1.35.19,1.44-1l1.92,1.68c-1-2.51-3.89-3.12-6.48-5,.9-.59.25-.35.72-1.2l3.12,1.44-.48-.72,2.64,1.2-3.12-2.4.72.24c.7-.21,2,1.44,3.12.72l-1.68-1.2.48-.24c1.76,1,2.9,1.74,4.32,1.92l-1-1.2-.48-.24c1.59.36,2,1.17,3.12,1.92v-.72a4,4,0,0,1-1.44-2.16l.24-.24.72.48a4.91,4.91,0,0,0,3.84,3.12l.24-.72-.48-.48c-.69,1-.35,1-1.2.24H271c-.68-.28-.86,0-1.44-.48l-.72-2.64c2.38,1.09,3.22,2.63,4.8,3.84-.09-1.25-.16-.46.72-1.2.86,1.36,1,0,1.44.72a9.73,9.73,0,0,0,2.16,1.92c-.24-1-.82-1.36-.24-1.68v-.48l3.12,1.68c-.87-1.22-1.51-1.64-1.92-3.12l3.36,1.68a2.59,2.59,0,0,1,.24-1.92l1.2,1,.48.72-1-2.4c1.21.36,1.33.75,1.68,1.92l.72-1a5,5,0,0,0,1.92,3.12c-.25-1.07-.33-1.28-.72-3.12H287c1,.64.6.27,1.44.48.9,2.77,2.27,2.13,4.08,3.84l-.24-1.2.72.48a2.12,2.12,0,0,0,1.2,1.2l-1.44-2.16.72-1.44v.48c1.4,1.21,1.84,2.11,3.36,2.88l-1.2-2.16.24-.72.48.24.48,1.68h.24l-.24-1.92,3.12,3.36h.24l-.24-1,1.44.48L301,221l-1-1.2a8.93,8.93,0,0,1,1.17.4l0,.08s0,0,0-.06a1.85,1.85,0,0,0,.94.06c0,1.55,0,2,1.2,2.4l-.24-.48-.72-3.12.48-.48.72.48-.24-1a15.81,15.81,0,0,0,3.84,2.64l-1.92-2.4h.24l1.2.24-.48-.72,4.32,2.16-.48-1,2.16,1.2-.48-1.44,1.68,1.2-.72-2.64,2.16,1.92-.72-1.92h.24l2.16,3.6v-.48H317l-1-1.44.24-.24c.59.34,1.18,1.25,1.44.48l.48.24c-.27-2.49.11-1.53.72-3.84l.24.48c2,1.83,3.74,4.07,7,5L324.48,215l.48.24,2.16,4.8c.05-1.07-.17-.14.48-1l-1-1.2h.72l-1.68-3.84.48.24a20.75,20.75,0,0,0,5,7.44c-.71-3.47-2.63-3.86-3.36-7.68h.24c.54,1,2.28,2,2.88,3.12-.46.33-.14,0-.48.48,1.15-.26.37-.22,1.68,0-.16,1.56,0,1.86,1.2,2.64a17.78,17.78,0,0,1-.72-1.92l.24-.72-1.2-4.32h.24l.24.48c1.08,1.6,1.67,4.68,2.4,5.28l-.24-1.68c1,.58,1.54,2.5,1.68,3.36l-.72-.48.24.72h.72c1-.09.74-.51,1.92,0l-1.2-4.56.24-.24.48.48v.48c2.23-1,1.47,2.21,3.6,2.88l-1.92-4.32,1.2-2.16h.24c.48,2.49,3.36,4.81,5,6.24a10.31,10.31,0,0,1,.24-5l.48,1.2c-.2.83,0,1.26.72,2.16.38-.38,0-.08.48-.24V215c.23,1.68.9,3.84,1.92,4.8a4.69,4.69,0,0,1,.24-3.36h.24l2.16,2.64-.48-1.68,1.2.24,1.44,2.64-.24-.72c1.38.53,1.05.88,2.4,1.44l-.24-.72-.24-1.44.72.48L354.72,216c.77-.89.59-.78.24-2.16l.72.48a7.38,7.38,0,0,0,2.88,2.88l-.48-1,1.44,1.2-3.84-5.52h.48l.72-.24,1.92,2.4c-.05-.8-.22-.55.24-1.2h.24l1,1.44c.07-3-.75-3.91-1.68-5.76l1.92,1.44c-.25-31.5.32-63.66,6.24-89,2-8.59,2.25-18.18,5.52-24.24l-5,3.84-1.44-.72v-1.2c3.94-4.37,8-8.44,11.82-12.8a88.84,88.84,0,0,0,7.86-10.24,8.84,8.84,0,0,1-1-6l.72.48.48,5,.24-.48c1.83-1.46,5.53-7.1,2.88-10.56-.62,1.87-2.09,2.64-4.56,2.64l-.48-1.2-.48.24L383,67.2l2.64.24c-.54,1.5,0,1.3,1,2.4l-.24.72c-1.08-.54-1.31-1-1.92-1l-.24,0c-2.43,1-3.17,4.07-5.25,5.5l0,0-.24-2.82a5.13,5.13,0,0,0-3.12-.48V72A27.15,27.15,0,0,0,379,75.06v.06l0,0a7.21,7.21,0,0,1,2.37,3.14l-.48.48c-2.68,0-5.06-.83-6.24-2.4l1.2-.24L374.4,73.2l-1,1.44-.24-2.4-.24.48c-.7.86-.42,1.49-1.68,1.92a3.36,3.36,0,0,0-2.4-.48c0,2.46.21,1.14-.48,2.88l3.84,2.4.24-.72V76.56h.24L374.16,78c1.39.6,3.65,3.68,3.12,5.28L376.56,85c-2.24-.56-2.33-1.67-3.36-3.36l-1.92,1.68.48-2.64A3.83,3.83,0,0,1,368.4,79c-.93.72-1,1.23-1.92.72-1.24-.65-1-1.35-2.64-1.68,1.19,1.26,2.19,1.73,2.4,4.08l-.48,1.2-.48.24c-2.3-1.49-3.51-3-3.6-6.72l3.12-.72-.48-1.2-.48.24v1l-1.92-1c.65-.38.33-.08.72-.72-1-.18-1.49-.27-1.92-.72-2.16.5-2.45,1.94-3.84,3.12.51,1.11.63.24,0,1.44a45.84,45.84,0,0,0-8.16,1.2l1-1.44,5.52-1.2.48-2.16c-1.92-.87-5.41-3.81-6.24-5.28v-.24c2.45-.09,4.53.47,6-1-3.65-1.75-3.15-5.21-3.36-9.12l-1.68,1.68-2.16-.24V59l1.68-2.64-1-.24h-.24l-1,4.32c-1-.66-1.2-1.46-2.4-1.92-.27,1.46-.21,2.52-1.44,3.36h-.24c.13-1.6.68-2.43.24-3.12l-.72,1.44-.48-.48v-1c-.72.3-.44.31-1.2.24,0-1.35.5-.88-.48-1.44v.48a58,58,0,0,0-3.12,8.64l2.64-.72v1c-.79.6-1.75,1.39-1.92,1.92h.24c1.7-.59,3-1.29,5-1.92l.24.48c-1.1,2.26-4.21,3.35-7,3.12,1.23,1.66,3,2.3,4.8,3.36l.24.72-.24.48c-2.9-.27-3.75-2.25-6-3.36.15,2.18.4,4.92-1,5.52V76.8l-1.44-2.88c.63-.65,1-.66,1.68-1.92-1.12-.42-.61-.19,0-1.2a5.06,5.06,0,0,1-2.88-1c-1.12.76-.3.56-1.44.48l.24,2.88,1.68-.72v2.4A5,5,0,0,1,331,77.76h-.24l-.72-1,.72-1.92L329,74.4l1.44-1c-.78-1.19-1-3.18-1.44-4.32h-.48c0,2-.54,2.27-1.92,2.88v-.48l-.24-1.44,1.92-2.64c.91.64,1.15,1.18,1.92.72-.51-.52-1.28-.69-.48-1.2-.5-2.09-1.63-1.29-2.64-2.64a11.52,11.52,0,0,1-.24-5.76l.48.48c1.52.93.81,2.52,1.44,4.32H329l1.44-4.8c-1.64.22-2.68-.69-3.84-.48-1.39.41-1.54.49-1.68,1.68L323,59.52l-.24,1.2,3.6,5c-1.53-.32-1.87.25-3.12-.24-1.59-.84-1.37-2.55-2.64-3.6l-.72-.24c-.41,1.37-.5,2.2-1.92,2.64l-1.44-2.16-1,2.88-.24-.48c-1-.83-.49-2.33-.72-3.36-1.29,1.25-1.25,4.41-2.4,5.76l-.72-.48A10.11,10.11,0,0,1,313.68,59l-.24-.24c-2.29.63-3.6,1.65-6.72,1.68l.24-.72c1.67-1.3,4.9-1.44,6.72-2.64v-.24c-1.46-.53-4.2-2.76-4.08-4.08-1.91.62-5.9-1.56-6.24-2.16-.65-1.82.15-2.91-1-4.08-.33.46,0,.14-.48.48.4,1.73.95,2-1,3.36h-.24l.72-3.84c-1.46.27-2.27.55-2.88,1.68-.92,2.26-1.16,3.63-2.4,5.28l-.48-.24-.48-1.92H295l-.48,1c-2.07-1.82-2.29-2.49-3.6-5.28l-1,.24c.91,1.7.71,1.55,0,2.88,1.51,2.86,2.19,6.41,4.08,8.64,1.46-1.35,1.31-3.46,3.12-4.56l1,.24c.41,3.52-1.63,4.43-1.68,8.16h.72c0-1.77.33-2,1.44-2.64h.24c.46,1.64.84,1.75,1,3.12,1.66-1.33,2-2.42,4.46-2.42l.58,0-.24.72L300,65c-1-.21-4.54-2.1-3.36.24l-.72.24c-.9-.24-.19-.46-1,0v.24l2.16.48-.72,3.36-1.2,1h-.48l-.24-.72c-.37-1.28.51-2,1.2-2.88H293c-.49,1.46-1,1.62-2.4,2.16l.24,1.44-1-.72A20.59,20.59,0,0,1,288,72l-.72-.48L287,70.8a6.5,6.5,0,0,1,2.88-4.32h.24l.24,1.68,1.2-1.2,1.2-.72h-1l.48-1.44-3.12-1.2.24,1.68-.72-1L288,66.24c.4.69.35.07,0,1l-3.36,1-.24-.24V67L288,63.6v-.24c-2.5-.42-5.62-.38-7-2.4,2.74-.33,4.37.81,7,1v-.24c-.91-1.11-2.87-3.54-3.12-5-.4-2.36,1.69-2.52,0-4.56a4.28,4.28,0,0,1-.72,3.12L282.24,55a10.3,10.3,0,0,1-1.44-3.84l-1.2,1L277,57.6l-1.68.24c-1.43-3,.38-4.11,1.2-6.48l-1-1.44c-2,.57-3.6.06-4.08-1.68,1-.48.83-.63,1.2-1.68l-.72-.48L270,47.76h-.24l-.48-1-1.92,1.92c.73.3.29,0,.72.48l-.48.24c-.92-.6-.56-.58-1.92-.48l1.2-1.44a6.07,6.07,0,0,0,2.88-2.64c-1.37-2.17-3.42-2.9-6-3.84l-.24.48A13.07,13.07,0,0,1,265.58,49c-.05,2.62-.9,5.06-3,6a33.71,33.71,0,0,1-.24-9.6l-1.44-1.2a6.85,6.85,0,0,1-2.16,6l-.48-.24v-.48l-.72-4.32L258,43.2l1.2-1.44a3.48,3.48,0,0,0-1.2-1.92c-.54.71-.66.69-1.92.72h-.72l-.72-.48h-2.16l.24-1-.24-.48H250.8l-1.3-.16a6.63,6.63,0,0,0,1.06-2.72l-1-.48c-2,3.42-2.9,1.26-5,2.88-2.29,1.74-3.32,5.68-7.68,6l.24-1.2L234,42.24l.48,2.16-2.4-1.68a15.7,15.7,0,0,0,.72,2.88,2.07,2.07,0,0,0-1.2,2.64l1,.48,1.2-.48c-.49.89-.78,1-.72,1.92l.48,1ZM457.92,216l-1.2-2.64A3.72,3.72,0,0,0,457.92,216ZM456.24,67.44l.24-.48H456Zm-5.76-8.16.72-.72h-1Zm.24.72c.23-.42.22,0,0-.48Zm-.48-1.68v-.24c-.33-1-.16-.18,0-1.44l-1.2-.48-.72,1.68c.95.21.45.19,1.2.72Zm-3.6-13.2.48-.48-.48-.48-.24.72Zm-.48,12,1-.48-.72-.24Zm-1.44-10.8.72-.72H445Zm-1.44,5.28.48.72C443.46,51.59,443.76,52,443.28,51.6ZM443,215l.48.48C443.19,215.06,443.5,215.38,443,215ZM439.68,49.2l-.24.48C439.89,49.38,439.57,49.47,439.68,49.2ZM437,64.08l.72-3.36-.48-.48c-1.9.06-1.8-.41-1.92-2.16-1,.37-.83.45-1.68,0l-1.44,1.44,1.44.48v.24l-2.16.48.48.72,3.12,2.64,1.2-1C436.63,63.84,436.47,63.66,437,64.08Zm-.72-7-.48-.72-.24.48v.24ZM435.84,54V52.8l-.24-1.68h-1.68c-.74,2-2.38,4.17-5,4.32-.31-.72-.15-.54-.72-1v.24c.88,2,2.14,2.66,2.64,4.56l.48-.24,1.44-3.6L431.28,55c.7-.55,1.16-.45,2.16-.24l.24-2.64h1.44Zm-.72-8.4.24-1.92-.48-.24h-.72c-.24.9-.46.19,0,1Zm-.24,2.64.24-2.4-2.4-.72,1,4.08ZM431,63.36c.5-.55.28-.09.24-.72Zm-1-12c-.7-2.55,1.67-6.47,1-7.44-1.73,1.36-3.34,1-4.8,1.2l-.24.24.24.48,3.36,2.64-.24.48h-5l-.24,1.2c3.27,0,3,1.41,5.28-.24l-.24,1.92Zm.72,19.44V69.36h-1.44V70.8Zm-1.68-4.56.48-1.92-1.92-.48A3.22,3.22,0,0,0,427,65C428.2,65.35,428.19,65.74,429.12,66.24ZM428.64,60l-.72-1.68-4.08-1,.48,1.68A41.82,41.82,0,0,1,428.64,60Zm-.24-23.28v-.24a5.4,5.4,0,0,0-3.12-1.92,4.08,4.08,0,0,0,1.44,2.4Zm-1.68,15.36.48.48C426.87,52.1,427.18,52.42,426.72,52.08Zm0,3.84-.48-.72c-2.11-.84-.55-1.33-2.4-2.4l-.72,1.44c.22.25.05.81,0,2.16l1.68-1.2v1.44Zm-1.2-12,.24-.48-1-.24-.24.48v.24ZM425,219.36l-.48-.72v.72ZM423.84,51.6l.24-.72h-.24Zm0,166.56-1.2-2.4-.24,1C423.37,216.65,422.74,217.25,423.84,218.16Zm-.72-187.68.48-.48-.72-.24Zm-.48,10.32.72.48C422.93,40.79,423.36,41.11,422.64,40.8ZM422.4,29l.72-.72-.48-.48Zm-.48,26.4-.48-.48C421.77,55.42,421.46,55.1,421.92,55.44Zm-.24-6.24L421.2,48h-.72c.62.94.53.14.24,1.2Zm-2.16,7.92V55.44l-1.44,1.68v.24Zm-.48,163v-.72l-.72-1.44.48,2.16ZM415.68,39.6h.48c-.3-.73,0-.29-.48-.72Zm-.48-28.8.72,1C415.6,10.84,415.92,11.26,415.2,10.8Zm-1.44,40.8v-.24l-1-1.44c-.43.86.13.28-.72.72l.24,1Zm-1-13.68c.37-.55.44-.29.24-1C412.42,37.73,412.62,37,412.8,37.92ZM404.88,218.4l-.72-2.64h-.72ZM402,17l.48-.48-.72-.24Zm-7.44,49c.47-1.2,1.52-2.14.72-3.12l-1,3.12Zm-.48-6.72.24-1.92-.48-.24h-.48a5.15,5.15,0,0,1-.24,2.88ZM391.2,222.72l-.48-.48C391.05,222.7,390.74,222.38,391.2,222.72ZM388.56,64.08l-.72-1-1.92.72c-.12-1.31.1-1.05-1-1.44l.24,3.12A2.43,2.43,0,0,1,388.56,64.08Zm-4.08-1.92,1.44-2.4-.24-.24h-1.2c-.56,1.12-1.23,1.3-1.2,2.4C384.26,61.75,383.72,61.84,384.48,62.16Zm-1.2,3.12c.5-.55.28-.09.24-.72ZM383.76,223a10.94,10.94,0,0,0-3.12-5A7.36,7.36,0,0,0,383.76,223ZM380.64,221l-.48-.72C380.46,221.05,380.16,220.61,380.64,221Zm-.24-1.44-.72-1,.24,1.44ZM379.2,67.2l.48-.48-.48-.48-.24,1Zm-2.64-38.4-.72-.48C376.27,28.81,375.84,28.49,376.56,28.8Zm-3.84,1.44,1.2-.72-1.2-.24ZM373.2,53l-1.68-1.44-1.92,1.92V55A10.22,10.22,0,0,1,373.2,53Zm-2.64-23.52V28.8l-.48-.48C370.23,29.19,370.18,29.05,370.56,29.52Zm-.24,28.08.24-1.2c-1.65-1.19-3.19-2.88-6.24-3.12l-.72.48a6.35,6.35,0,0,1,1,4.08l1.2.48L366,55l.48-.24c1.16.18,1.17.2,1.68,1l.72,3.36V57.36Zm-.24,11.52.24-.48h-.48Zm-.72,116.4c.72-.8,1.48-20.49.72-22.32l-1.2,12C369.16,177.85,370.31,182,369.36,185.52Zm.24-135.36v-.24l-1.44-1,.48,1.2ZM366.24,64.8l.24-.72L366,63.6C366,64.4,365.78,64.15,366.24,64.8Zm.24-3.6h-.72C366.17,61.8,365.9,61.48,366.48,61.2ZM366,62.4l-.48-.48C365.85,62.38,365.54,62.06,366,62.4Zm-1.2,1.68.72-.48-.72-.24Zm-1-1.92.24-1.68-1-.72.48,2.4ZM361.92,59l-.24-1.2-3.6-1.68c-.89,7.33,2.25,8.38-3.12,14.16L356.64,72c.58-2.85,1.64-2.42,1.68-4.8A11.24,11.24,0,0,1,361,68.88l1-.24c-.31-1.37-.1-1.08-.48-2.4l-1.44.48c-.85-2.48-1.62-5.4-.48-8.16ZM360,216l-.24-1.2-1-.48Zm-.72,5.28-.24-1.2a1.72,1.72,0,0,1-1-.24Zm-.48-2.64.48.48C359,218.66,359.26,219,358.8,218.64Zm-1.2-4.56,1,1A2.68,2.68,0,0,0,357.6,214.08Zm1,9.6c-.59-1-.82-.91-1.44-1.44A3.63,3.63,0,0,0,358.56,223.68Zm-2.16-1.2h.24c-.22-.88,0-.49-.48-1ZM354,54.24c.23-.42.22-.05,0-.48Zm0,1.2-.24-1-.24,1.2ZM353.52,54l.24-1h-1l-1,1.44Zm-3.6,1v-.24a3.65,3.65,0,0,0-1.68-1.92L348,55.2Zm-3.36,163.2,1,1.44A1.91,1.91,0,0,0,346.56,218.16Zm0-172.08v-1h-.48l-.24.72Zm-.24,12.24.24-.48h-.48Zm-1.2,161.76.72.48-2.4-2.4a6.4,6.4,0,0,0,1.92,2.88Zm-.24-173.76.24-.48h-.48Zm.24,1.68-.24.48C345.33,48.18,345,48.27,345.12,48Zm-1.2,1.68.72-1.68-.72.24a3.22,3.22,0,0,0,.72-1.2,2.5,2.5,0,0,0-.72-1.2L341,47.52l1.2,1.44c1.5.11,1.24-.09,1.2,1l.24.24Zm-1.2,1.92,1.2-.72-1-.24-.48,1Zm.48,167-1.44-2.4A4.05,4.05,0,0,0,343.2,218.64Zm-1.68,2.64.48.72C341.7,221.27,342,221.71,341.52,221.28Zm0-164.4.48-.24-.48-.48Zm.24,166.8A1.78,1.78,0,0,0,341,223,1.72,1.72,0,0,0,341.76,223.68Zm-1.2-2.88.24-.24-.72-.48Zm-1.2-176.64.48-.48h-.24Zm-.24,18v-.24l-.72-.48.48.72ZM337,67.44V67.2L335.28,67v1.2h1.44ZM337,60V55.92l-1.2,1.2c.3-1.84.77-4.21-.24-5.28-1.63,2-5.85,2.49-6.72,5l2.16,1,1-2.16.48.24c.48,3.31-.63,6.95-1.68,9.36,2.49-.75,3.39-4.29,4.32-6.48-1.48-.68-2.34-2.21-2.4-4.32l1,.24c.21-.73.34-.06.72.24.22,1.1,1.3,2.1,1,4.08C336.48,59.29,336.25,59.42,337,60Zm-1.68,3.84.48-.72h-.24ZM334.56,221c-.14-1,0-.72-.48-1.2C334.32,220.73,334,220.47,334.56,221Zm-.48-156.72h-.48l-.48.24.24,1C333.89,65,333.81,65.19,334.08,64.32Zm-.72-14.64-1.44-1-.24,1.68h-.24c-.13-.7.19-1.18-.48-.72-.55,1.51-1.21,1.93.24,1.68-.5,1.19-1.14,1.1-1.68,2.16C331.15,52.74,333,51.72,333.36,49.68Zm-.72,172.08-1.44-2.4.72,2.16ZM329,52.08c.51-.17.46,0,.24-.48Zm-1.68,170.4-.48-.48C327.21,222.46,326.9,222.14,327.36,222.48Zm-1.2-168-.48-1c-1.09.25-1.3.55-1.68.24l-1.44-1.68V50.64l-.48.72.24,2.4-1.92.48.72.72c.75-1,.67.39,1.68.48C324,55.67,324.55,54.75,326.16,54.48Zm-4.56-4.56L325.2,47c-5.13-1.33-10.81,2.42-13.92-1.68l1.2-2.16c-1,0-.53,0-1.44-.24l-1.68,1.2c.84.61.57,1.18,1,2.4h-2.16l-.48,1.68,2.16,4.32c1.54.45,3.11.66,4.08,1.68l-.72.24.72,1.92h.24c.31-.72.15-.54.72-1v1.68c.95-.59,2.48-1.19,2.88-2.4l-.48-.72h1l-2.64-1.68h-.24L315.12,54l-1-1L312,50.64l.24-1.92h1l1.44,1.92,1.44-1-.24,1.68c1.76.18,1.85.61,2.64,1.68a9.06,9.06,0,0,1,2.4-.24c-.83-.95-1.29-1.12-1.44-2.88l.24-.48.48-.24Zm3.12-6v-.24H322.8l.48,1ZM321.84,222l-1.44-1.44A3.9,3.9,0,0,0,321.84,222Zm-1.68-1.44v-.24l-1.92-2.16,1.2,2.64Zm-1.92,1,1,1A2.68,2.68,0,0,0,318.24,221.52ZM317,3.36l1.2-.48-1-.48C316.94,3.14,317.11,2.4,317,3.36ZM316.8,61l1.44-1.2L317,59l-.72,1,.24,1Zm1-19-1-2.4-1.68,2.64Zm-2.4,182.88-.48-1C315.1,224.8,314.87,224.41,315.36,224.88Zm-6.24-181.2.48-1.2-.72-.48-.24,1.44Zm.48,180.24-.48-.72C309.42,223.93,309.12,223.49,309.6,223.92ZM306.72,47l-.24-1.2C306.27,46.8,305.94,46.22,306.72,47Zm-.24-6L306,39.6c.21-.85.34-1.08-.24-1.68l-1.44,1,.48,1.92Zm-1.2-14.16h-.72C305.16,27.27,304.6,27.12,305.28,26.88Zm-1.2,194.4a3.9,3.9,0,0,0,2.4,2.64A5.71,5.71,0,0,0,304.08,221.28ZM301.92,223l-.48-.48C301.77,222.94,301.46,222.62,301.92,223ZM301.2,38.4c.63-.43.33,0,.24-.72Zm-.48,7.44V45.6l-1.92-.24-.24,1.2h1.2C300.18,46,300,46.16,300.72,45.84Zm-1.44-9.12v-.24A3,3,0,0,0,297.84,35l-2.4.72C297.32,35.43,297.81,36.14,299.28,36.72Zm-1.92,1.44,1.92,1.44C298.56,38.71,298.46,38.33,297.36,38.16Zm1.2-5.76h-.48l-.48.72C298.32,32.81,298.14,33,298.56,32.4Zm-1-3.12.72-.72h-.48Zm.24,15.84-1.44-2.64c.52-.36,1,0,.72-.72h-.48l-1.2.48c-.09,1.95.1,3.57,1,4.56l.48-.24ZM296.4,31c.45-.11,1.63-.43,1-.72Zm.72,8.4v-.72l-.24-.48H295.2A4.23,4.23,0,0,0,297.12,39.36ZM296.4,28.8l-.24-.48H295l.72,1Zm-.48-8.4h-.48l-.24-.24-.48.72v.24C295.6,20.87,295.43,20.92,295.92,20.4Zm-.48,2.16.48-.24-.48-.48ZM295,61l.72-.48a1.72,1.72,0,0,0-.72-.72c-.33.73-.2.08-.24,1.2Zm.24-10.56c-.05-1-.06-1.16-.48-1.68A2.17,2.17,0,0,0,295.2,50.4ZM295,16.08v-1h-.48l-.72,1v.24ZM293,49.44V48H291.6l1.2,1.44Zm-.72,172.8.48-.48h-.24Zm-1.2-160.8,1.2-.72-1.68-1.2-.24,1Zm.48-40.56.24-.48h-.48Zm-.48,37.2v-.24l-1.92-4.08h-1.44c-.5,2.22-.2,2.89.24,5.52l1,.24a5.94,5.94,0,0,1-.24-3.36h1l1,2.16Zm0-12.72V43.44h-.72l.48,1.92Zm-.72,175.92.48.48C290.55,221.3,290.86,221.62,290.4,221.28Zm-.72-192.72c.37-.55.44-.29.24-1l-.48,1Zm.24-14.16v-.24h-1.2l-1,1h.72Zm-1.44,13.2.48.48C288.63,27.62,288.94,27.94,288.48,27.6ZM288.24,48l.72.24c-.32-.92,0-.5-.72-1Zm.24-24v-.72h-1C288,24,287.57,23.67,288.48,24ZM288,18l.24-1L288,16.8l-.24,1.2Zm-.72.48v-.24l-.72-1.44c.05,1,.06,1.16.48,1.68Zm-2.64,32.16.48-.48c-.36-1.18-.41-1.84-1.44-2.4-.14,1-.54.76-.24,1.44C283.58,50,283.74,50.06,284.64,50.64Zm-.24,169.2-.48-.48C284.25,219.82,283.94,219.5,284.4,219.84ZM281.28,13.68h-1.44C280.88,14.23,280.89,14.34,281.28,13.68Zm-2.16,11.76c.36-.4.38,0,.24-.48Zm-1.44-10.56.48-.72h-.24Zm-.48,26.88h-.48a6.11,6.11,0,0,1-3.84,1.44l.72,1,2.16.72C276,43,276.32,43.16,277.2,41.76ZM275.76,48l.48-.48-.48-.24Zm-2.64-36c.18-1.93.66-3.24-.24-4.08l-3.12.72.72.72,1.92-.72A2.59,2.59,0,0,0,273.12,12Zm-.24,7.68a4,4,0,0,0-.24-3.12c-2-.77-2.56-2.11-4.8-2.88l.72,1.44-3.6-1.2v.24c.45,2.24.21,4.31,1.2,6.24l2.4.72c.21-1.19.08-1,1-1.44a2,2,0,0,1-.72-1.44h.48c1.6-.95,2.93.8,3.36,1.92Zm-2.16,22.56,1.2.48c-.29-1.06-.31-1.21-1.2-1.68Zm1-1.2L271,39.12l-3.12.72c.08-1.57.36-2-1-2.4l-2.4,1.2H265l2.4,2.16A11,11,0,0,1,271.68,41ZM264.24,8.4c2.07.16,3.31-.2,2.88-1.92l-2.88-.24A1.93,1.93,0,0,0,264.24,8.4Zm2.88,212.88V221l-.48-.24-.24.24.24.48Zm-1.2.72,1.2.72C266.62,222.19,266.79,222.27,265.92,222Zm.72-195.36V26.4L265,25.92l.48,1.44C266.32,27.11,266.15,27.16,266.64,26.64ZM264,28.08v-1.2l-.48-.72c-2.14,1.7-5.14-.14-6.48,1.2l-1,.72h.48c.92.28,1.38-.06,2.16.72-.31.79-.22.29-.24,1.2h.24C260.37,28.46,261.44,28.29,264,28.08ZM263.52,7.2l-.24-.48c-1.68.6-1.41,0-3.36-.48l-.72,1.44h.24C261.73,7.21,262.58,8.19,263.52,7.2Zm0,15.36-1-1.68,1,.24c-1.59-2.62-7.51-2.82-8.4-4.32l-1.92-2.88-1,1.44v.24c3,1.65,7.51,5.84,5.76,10.56l.72.24.72-.24,1-1.44c-.66-.28-.13-.07,0-.72C261.61,23.44,261.87,22.83,263.52,22.56Zm-.24,8.4v-.72h-1.2A4.44,4.44,0,0,1,259,31v1l1,.24-1.2,1.92c.89.49,1,.78,1.92.72C261.16,32.79,262.16,32.26,263.28,31Zm-1.2,8.88h-1C261.91,40.15,261.39,40.29,262.08,39.84Zm-2.4-1.68,1.2-.48-1-.24-.24.48Zm1-22.8V13.2l-2.4.72C258.71,15.12,259.45,15,260.64,15.36Zm0,204.24-1.92-.24A1.51,1.51,0,0,0,260.64,219.6Zm-6-195.12L251.52,18l-.72,1.92c2,.86,2.39,4.18,2.16,6.48l.48-.24Zm-.24,7.2-.24-.72h-.24v1Zm-2.64-.48,2.16-1-1.44-1Zm1.44-17.52v-.24l-.48-.72v1.2ZM251.52,25v-.24l-2.16-5.52-1.2,1.44c-1.66-.55-1.66-1.29-2.64-2.4l-1,1.2c.45,1.67.2,2.06,1,3.12a6.51,6.51,0,0,1-1.92,1.92h.48l2.88,1,.72-2.16,1.44,1.44-.24-1.92,1.2.24,1,2.16ZM252,225.12a3.62,3.62,0,0,0-1.2-1.2A3.62,3.62,0,0,0,252,225.12ZM249.36,27.84l1.2-.72a1.72,1.72,0,0,0-.72-.72ZM249.6,18c.85-.95,1.26-2.1.24-2.64a4.13,4.13,0,0,0-.24,3.12Zm0,207.36-1.92-1.2A2.9,2.9,0,0,0,249.6,225.36ZM247.68,29.28V29l-.72-.48-.24.24Zm-.24-2.16L246,26.88C246.52,27.41,246.69,27.41,247.44,27.12Zm-.72,198-.24-.48H246c.08.47.31.12,0,.48v.24Zm-1-1.2,1,.24-.48-.48Zm-.48,3.84,1-.24h-.48l-1.44-1Zm.24-191.28L245,35l-2.4-.24,1.44,2.88Zm-.24-2.88v-.24l-1-.72-.72.72ZM245,13.92v-.24H243.6v1.2Zm-5,14.16c1.88.56,2.73,1.25,5,1a19.63,19.63,0,0,1-3.36-2.64Zm2.16-5.76-1-2.16H241l-1.2,2.64L240,23h1Zm-.72,8.88.48-.72L240,30.24l.24.72Zm0-15.12v-.72H241C240.83,16.16,240.71,15.62,241.44,16.08Zm-.24,23v-.24L240,34.32h-.72c-.1,1.33.16,3.12-1,4.08l-.72-.48-1-3.12-1,.72c0,2.14-.55,2.13-2.16,2.64L233,41.28h.24A55.35,55.35,0,0,1,241.2,39.12Zm-2.4,182.64,2.4,3.12A4.2,4.2,0,0,0,238.8,221.76Zm2.4,6-.48-.48C241.05,227.74,240.74,227.42,241.2,227.76Zm-.72-203.28L239,22.8l-1,1.68-3.6.48v1.2l4.08,1.68V25.68l1.2,1Zm-2.64,5.28.48.48C238,29.78,238.3,30.1,237.84,29.76ZM236.16,29c.23-.42.22-.05,0-.48Zm-3.36,7.2-.72-2.4-1.68,1.44c-.14,1.53-.11,3.45.48,4.32h.24Zm-2.16-3.84h-.72C230.33,33,230.06,32.68,230.64,32.4Zm-1,9.84.48-.72h-.48Zm0,1.92.24.48C229.82,44.42,230.11,44.48,229.68,44.16Zm-1.92-10.8h.48a2.38,2.38,0,0,0-1.2-1.68Zm-.48,9.84v-1a3.36,3.36,0,0,0-2.16-1l.48,2.16Zm-6.48-3.6,3.36.72-1-1L221.76,37l-1,2.4Zm2.4,8.88.72-.24-1.2-1.2-1,.48C222.08,48.82,222.35,49,223.2,48.48ZM221,14.16l1.2-.48c-.21-1.09,0-.71-.72-1.2Zm-1.92,18.48,2.4-1c-.46-.58-.15-.39-1-.72l-2.16,1Zm.72,13.2-1.2-2.16-1.2,1.2v.24ZM218.16,5.76h-.72C217.85,6.36,217.58,6,218.16,5.76ZM216.72,6l.48.48C216.87,6,217.18,6.34,216.72,6Zm-.24,34.8c.42-2.22,0-3.07-1.44-4.56l-.48.24c.39,1.56.92,1.88,1,4.08Zm0-38.4-.24-.48L216,2.4Zm0,11.52-.24-.48-.24.48ZM216,44.64l-3.12-.48.72.72A4.34,4.34,0,0,1,216,44.64Zm-.72-30.24-.48-.72-.24.48v.24Zm-1.44,208.08,1.44,1.92A2.67,2.67,0,0,0,213.84,222.48Zm-1.44,1.2,1.68,1.68A3.08,3.08,0,0,0,212.4,223.68Zm.72-211-.24-.48c0-.33.07-.1-.24-.24v1.2Zm-2.64,21.84-.24-.72-.48.72Zm-1.2.48-.48-.48C209.13,35,208.82,34.7,209.28,35Zm-1,18.24h-.72C208.2,53.67,207.64,53.52,208.32,53.28ZM206.88,4.56h1c-.36-.82-.13-.77-1-1.2Zm-3.36,217.68.48-.48h-.24Zm-.24,2.88-1.44-1.44.48,1C202.77,225.15,202.51,224.79,203.28,225.12Zm-2.88-.48,1.2-.72h-.72ZM197,221c.55.77.94,1,1.68,1Zm.48-187,.48-.48h-.24ZM197,219.84l-.48-.48C196.89,219.82,196.58,219.5,197,219.84ZM191.76,64.08l2.64.24a3.09,3.09,0,0,0-1.92-2.16C192.67,63.33,192.47,63.29,191.76,64.08Zm1.92-12,.48-1h-.48l-.24,1Zm-1.2,1.68h-1.2l-.48,1.68c-.61.53-.14.29-1,.24.55,2.58-.68,3.43-.48,5.52l.48-.24C190.4,58.76,191.9,56.45,192.48,53.76Zm.72,166.56a3.82,3.82,0,0,0-1.2-1.2C192.39,219.94,192.39,219.92,193.2,220.32ZM189.84,53.76v-1l-.72-.72C189.24,53.27,189.23,53.18,189.84,53.76Zm-3.36-3.84.48-1h-1Zm.24,171.84H187c-.3-.73,0-.29-.48-.72Zm-.24-156.24.24-.48h-.48ZM183.12,223.2l1.2.72C183.82,223.39,184,223.47,183.12,223.2Zm.48-159.12-.48-1a2,2,0,0,0-.72,1.44Zm-1.2,159.6.48-.48-.48-.48Zm-.72-.48-.24-1h-.24l-.48.24Zm-3.6-164.4h1.44a2.52,2.52,0,0,0-1.2-1.92h-.72A3,3,0,0,0,178.08,58.8Zm0,161.76,1.44,1.2A2.05,2.05,0,0,0,178.08,220.56Zm1-200.4.24-.48h-.48Zm-.48,45.6.24-1-1.68.24v.24h.48Zm-1,162,.48-.48a1.72,1.72,0,0,1-1-.24Zm-.24-164.4-.48-.48C177.21,63.34,176.9,63,177.36,63.36ZM175,10.08l1-.48-1-.48ZM174.48,30l.48-.24-.48-.48Zm.24-14.88L174,14.4l-.72,1.92C174.38,16,174.13,15.87,174.72,15.12ZM173,62.64h1.44c-.48-.38-.33-.31-1.2-.48Zm-.72-30.48L172.08,29a4.77,4.77,0,0,0-.24,3.12ZM169,256.32l1,.72C169.46,256.31,169.87,256.65,169,256.32Zm-.24-192.48.72.48C169,63.83,169.44,64.15,168.72,63.84Zm.72,1.68-1.2-.24C168.81,65.68,168.72,65.74,169.44,65.52Zm-.72-31.44-.24-.48-.72-.24.48,1.2Zm-2.64,24.48,1.44.24c-.46-1.12-.27-.48-1-1Zm1-27.36.24-.48h-.48Zm-1.68,33.36v-.24l-.72-1-1-.72-1,1.2A6.35,6.35,0,0,0,165.36,64.56Zm0-31.44c-.46-.73-.05-.39-1-.72C164.88,33.36,164.67,32.68,165.36,33.12ZM163,62.4a3.85,3.85,0,0,0,.72-1.68c-.88.54-1.25.92-2.16.24a9.69,9.69,0,0,0-.72-5l-.72.72.72,1.2c-1.22.15-1.32.27-1.92,1V59c1.61.78,2.17,2.49,3.36,3.12-.31.79-.22.29-.24,1.2ZM161,31.68v-.24L157.92,31l-.48-2.88h1.92v-.24l-.24-.48c-1.67.5-2.38.18-3.36,1.44l-1.2,1,.48.48,1.44-.72c.5,1.63,2.4,2.72,4.08,3.12Zm-1.92,190.08a5,5,0,0,0-1.68-1.68A3.08,3.08,0,0,0,159.12,221.76Zm-1.2.24a3.22,3.22,0,0,0-1.68-1.44A3.22,3.22,0,0,0,157.92,222ZM156,35.52v-.24l-1-.72c.32.82.15.5.72,1Zm-2.64,186v-.24l-.48-.24-.24-.48v1ZM151.2,27.12l1.44-.72-3.36-1,.24,1.68,1.2-1Zm0,12.48-.48-.48C151.05,39.58,150.74,39.26,151.2,39.6Zm-9.84,82.08c.06-9.82.62-20.77-.72-29.52V82.8c-.88,3.53-1.11,5.31-4.08,6.72V89l-.48-.24c-.42-3,.86-3.68,2.4-5.28a42.27,42.27,0,0,1-4.56,0c-.49,1.82-1.32,1.68-1.44,4.08h.24l.72-.48a2.68,2.68,0,0,1,1-1h.24v1c-4.46,9.77,3.75,24.88,6.48,34.56ZM141.12,24l-.24-.72h-.24c-.9.53-1.55.61-2.16,1.44C140.08,24.74,140.38,24.79,141.12,24Zm-.24,52.8.24-6.72a10.49,10.49,0,0,0-1.2,7Zm0,5.76V79.44l-1-.24a4.37,4.37,0,0,0-.24,1.68l-1.44.72L138,80.4l-1,1v.24h.48Zm-2.16-60.72,1.44-.24a2.4,2.4,0,0,0-1.68-2.16l-.48,2.4ZM139,77c.5-.55.28-.09.24-.72Zm-1.44-3.12c1.22-.6,1.11-.43,1-1.92h-1c-.43.49,0,.17-.72.48l.24,1Zm0-32.64-1.2.48V42C137.71,41.81,137.43,41.7,137.52,41.28Zm-.24,28.32-.24-.48-1.68-.48.24,2.16ZM135.84,54l-.24-.48-.24.48Zm-1.68,18.72.72.72A1.78,1.78,0,0,0,134.16,72.72Zm0-41.28.48-.48h-1Zm0-7.92.24-1.44-1.68,1.2v.24Zm-.24-20.16h-.72C133.8,3.75,133.24,3.6,133.92,3.36ZM132.48,83l1.2-.72c-.76-.66-.69,0-1.2-1,1.08-1,.3-1.52-.72-1.92l.48,3.6Zm.24-66.24.72-.24-.48-.48ZM133.44,73l-2.16-1.2v2.4l.72.24C132.42,73.45,132.79,73.58,133.44,73ZM133,223.2l.48-.24-.72-.48Zm-1.2-177.12c.28,1.48.82,1.59,1.92,2.16A3.08,3.08,0,0,0,131.76,46.08Zm-.48-28.8.72-.48-1-.24-.24.24Zm0,17.52-.72-.48C131,34.81,130.56,34.49,131.28,34.8Zm-2.88-9.6h1.2l-1.2-.72Zm-2.16,56.64-.24-1-.24.72.24.24Zm-.24-7v-.72l-.48-.48h-.24c.15.87.1.73.48,1.2Zm-2.4-.24,1-2.16a3.71,3.71,0,0,0-1.44-2.16l.24,1.2-1.92,2.4.24.48Zm.72-55c0-1.13,0-1.64-.48-2.16Zm-.48-6.48.48-1h-.48l-.48.24.24.72Zm-1.2,55.92-.48-.48-1,.24c0-1.07.55-.68-.48-1.2-.24,1.93-.86,2.56-1.92,4.08.43.88.18.83,1.2,1.2A9.14,9.14,0,0,1,122.64,69.12Zm-1-41v-1.2l-.48-.48c-.72.64-1.06.6-1.44,1.68Zm-3.84,12.48v-.24l-.48-1.44a4.11,4.11,0,0,1-2.4-1l-1.2,1.92.24.72h1l1.2-1.44.72.48C117.25,40.61,116.84,40.19,117.84,40.56Zm-.24-12.48v-.24l-1-.24.24,1.2A1.78,1.78,0,0,1,117.6,28.08ZM107.52,227l1.44.72a4.24,4.24,0,0,0-1.92-2.64ZM103.68,70.32l.48.48C103.83,70.34,104.14,70.66,103.68,70.32Zm0-33.12V37h-1.2c-.63.26-1.48.28-1.92.72l-.72,1v.24h.24C101.26,38.44,102.89,38.08,103.68,37.2Zm-3.12,21.36-.24-.48h-.48l-.48,1.44h.24l.48-.24Zm-.72,4.08.24-.48H99.6ZM96.72,6.72,97,6c-.28-.94.28-.47-.24-1l-1.2.72L96,6Zm-.24,4.8.24-.72H96l-.24.48Zm-1,28.56.48-.72h-.48Zm0-33.6L95,5.76C95.34,6.49,95,6.05,95.52,6.48ZM94.8,6H93.6l-.48.72C94.07,6.51,94.23,7,94.8,6Zm0,57.36h-.24l-.87.49h-.33l-.17.28-.79.44c-.14-1.14-.11-1.64-.24-2.16-1.25,1.65-2.19,1-4.08,1.68l1,1.44-1.44-.24c.58,1.62.77,2.93,1.68,3.84,0-1.47.62-2.19,1.92-2.88l.24,1.2V67l1.75-2.84.5-.27C94.68,63.89,94.38,64.19,94.8,63.36Zm-.24-5.76-.48-.72-.24.48ZM93.6,11V10.8l-1-.48C93.1,11.05,92.69,10.71,93.6,11Zm-.48-2.4-.72-.72C92.78,8.57,92.48,8.25,93.12,8.64Zm-1.92,1h1.44L91,8.16l-.48,1Zm1,29.52.48.48C92.31,39.14,92.62,39.46,92.16,39.12Zm-.48,1.44-1-1.44A1.91,1.91,0,0,0,91.68,40.56ZM89,61V59.28h-.48l-.24,1.44.48.24Zm-2.4-2.64v-1.2h-.48c-.21,1-.54.38.24,1.2Zm-.72,10.56.72-3.36-1,.72.48-1.44H84.24l-2.88,1.92.24.48C84,67.21,84.53,68,85.92,68.88Zm.48-15.6-1.68-.72L83,54l-.24,1.68A3.49,3.49,0,0,0,86.4,53.28Zm-.48,9.36-2.16-.24-3.12,1.92.24.48h.24C83.24,64.63,85.19,64.2,85.92,62.64Zm-1,7,.48.48C85.11,69.62,85.42,69.94,85,69.6Zm-.72-54.48.48-2.88H83.28l1,.72-1,.48v.48c.48.35-.12.44.72,1.2Zm.72,54c-.43-.49,0-.17-.72-.48C84.67,69.13,84.24,68.81,85,69.12ZM83.76,58.8v-.72h-.48l-.48.72Zm-.48,169-1.2-1.44C82.41,227.39,82.46,227.26,83.28,227.76ZM82.08,55.2H81.6l-1.44,1.2C81.14,56.15,81.91,56,82.08,55.2Zm-.24-3.36V51.6c-.48-.73-.24-.62-1.2-1A2.68,2.68,0,0,0,81.84,51.84Zm-1,8.64-.72-1c-1.43-.08-2,.07-2.64-.24l-.24,1,1.92,1.68Zm-.24-6-.72-1-2.16,1.2c.38,1,.52,1.18,0,1.92a3.27,3.27,0,0,1-.72.72l-.48-.24L77,55.44l-2.16-.24v4.32c1.41-.59,3.15-.91,3.84-1.92L79,55.68l1,.48ZM79.92,9.6l-1.2-.48-1,.48.48.24c.3.45.21.13.48.24C79.36,10,79.29,10.17,79.92,9.6ZM79,78.24l.48.48C79.11,78.26,79.42,78.58,79,78.24Zm-.24.72.72.48C79,79,79.44,79.27,78.72,79Zm-1.2-10.08L78,68.4c-.46-.58-.15-.39-1-.72l-.24,1Zm0-57.84V10.8a1.72,1.72,0,0,0-.72-.72v1ZM76.32,45.6l.48-.24c-.09-1.19,0-1.15-.72-1.68l-.72,1.92Zm0,19.92V62.64l-1.44,3.12h.72Zm0-48.48V16.8l-.24-.24H74.64c.12.81-.08.56.72,1.2Zm-.48,36.24.24-.48H75.6ZM75.6,77h.48c-.24-.93-.09-.72-.72-1.2Zm-.72-64.32.48-1.44L74.88,11l-.24-.24-1,.72.48,1ZM65,26.4c0-1.3.16-1.2-.72-1.68a7.65,7.65,0,0,0-.48,2.88l1-.72ZM62.4,18.72l1.2.72C63.1,18.91,63.27,19,62.4,18.72ZM62.16,42l.72,1.2C62.63,42.32,62.68,42.49,62.16,42Zm.48-12.72-.48-.48-.72,1.68h.72C62.54,30,62.47,30.15,62.64,29.28Zm-1.92,45.6c-.73,0-.34.23-1-.24v-1.2L56.88,78H56.4c1,1,2,.9,2.88,2.16l.48-.24C59.49,76.89,60.44,77.81,60.72,74.88Zm-.24-33.36-.24-1v1Zm-.72-15.84c.85-.79,1.16-1.13.24-1.92l-.72,1.68.24.72Zm-.24,11.76L57.84,37l-.72,1.68h1.2C59.08,38.07,59.25,38.25,59.52,37.44Zm-1,217.44.48-.48h-1Zm0-20.88c-.48-.38-.33-.31-1.2-.48l-.24,1-1-.24,1,.48c.39.75.22.56,1,1C58,234.64,57.88,234.69,58.56,234ZM57.84,35.28l.24-.72H57.6l-.24.24Zm-.24,50.4c.37-.55.44-.29.24-1C57.5,85.46,57.67,84.72,57.6,85.68ZM56.88,69.6l1-.72h-1Zm-1.2,181.2H57.6c-.54-.67-.27-.58-1.44-.72Zm1.2,3.12.72.72C57.22,254,57.52,254.31,56.88,253.92Zm.48-170.4V80.4h-.24l-.72,1.44c-2.21-.69-4.21,2.11-4.56,4.08l2.64.24C55.58,84.73,55.17,84,57.36,83.52Zm0,3.12-.48-1v1ZM56.88,46.8V44.4l-1.44-1C55.55,44.88,55.66,46.33,56.88,46.8Zm-.72,193,.72-.48-2.16-.48ZM55.92,51.12V50.4c-1.2-.19-.81-.14-1.44-.72l-1,1,.24.48,1,.48C55.59,51.45,55.45,51.5,55.92,51.12ZM54.24,25l.72-.72L54.72,24ZM54,80.88l1-2.4h-.24c-.6.66-.62.9-1.68,1.2v.72Zm-.24,157.2-1-.72C53.26,237.94,53,237.75,53.76,238.08ZM53,52.32l-.24-.48-1-.48.24,1.44h.24Zm-.72,30.24.72-.48-.72-.24Zm0,163.92.48-.24-.72-.48Zm.24-198-.48-.72-1.2-.24,1,1.68h.48Zm-.48,31.2.48-1h-.48l-.24,1Zm.24-25.2v-.24l-1.2-2.64c-.53.71-.68.58-1,1.68,0,.51-.12.08.24.48l.72-.24c-.14.73-.69.62.24,1ZM50.4,42.72l1.68-1.92-.72-.24-1.2,2.16Zm1.2,199.44-1.44-1A4.78,4.78,0,0,0,51.6,242.16Zm-1-194.64V45.36A4.88,4.88,0,0,1,48,44.16l.72,2.64v-1c.48.67.23,1.1.72,1.68l-.24-.72Zm0,193.44-.48-.48C50.49,240.94,50.18,240.62,50.64,241ZM49,36.24l.24-.48-1.44-1v.72Zm0,17.52.24-.48h-.48Zm-.24,32.4L49,85h-.48l-1,1.2Zm-1.2-5,1-.72L47,79.92l.24,1.2ZM46.8,37h.72L47,36.48Zm0,50.64v-.24l-.24-.48h-1l-.24,1A22.7,22.7,0,0,0,41,85.92l.72.48a3.38,3.38,0,0,0,.72,3.12c1.57-.9,2-1.08,3.36,0l.48-1-1.2-.24h.48Zm-1.92-4.08.72-1.44a3.52,3.52,0,0,0-1-1.2l.24,1.2c-.63.77-.77.54-1,1.92h.24Zm.24-3.6.24-1.2L44.64,78l.24,1.92ZM44.4,101,43,95.52l-2.64-1.2-1,2.4L41,101h2.88c-.35.46-.61.5-1,1ZM41.52,83.52l1.68-.24-2.4-.72-.48.48,1,2.64h.24l.24-1.44C41.25,83.68,41.65,84.27,41.52,83.52Zm-1.68,7.2L41,90l-1.92-1.2C39,90,39,90,39.84,90.72Zm-.48,3.12-.48-.48c-.64-.61-1.53-.34-2.64-1-.89,1.16-2,1.52-3.12,2.4h.48l1.92.48L37,93.6C38.11,94.31,38.42,94.7,39.36,93.84Zm-3.6-6.24-.48-.72v.72Zm-.48,20.88-2.64-.72-.48,2.16a7.2,7.2,0,0,1,2.88.24C35,109.15,34.57,108.76,35.28,108.48ZM35,106.32l-.48-.72-1,1Zm-1.2,6,.48-.48h-.24Zm.24-7.92v-.24c-2.41-2-.36-5.33-1.2-7a2.62,2.62,0,0,0-1.44-1.92c.32,2.24-.19,3.94-.48,6-.78-.45-.58-.55-1.44-.48L29,102c.79-.31.29-.22,1.2-.24l.24,4.32C31.86,105,32.13,104.49,34.08,104.4Zm-1.2-9.12,1,.72C33.42,95.42,33.59,95.6,32.88,95.28Zm0,11.28c.15-1.19.53-.74,0-1.44l-1,.72.72.72Zm-.72,3.84v-.24l-.24-.24h-.48l-.48.24.24.48Zm-1.44,5.52v-.72H30c.17,1,0,.93-.24,1.92h.48Zm-2.16-4.56.24-.48-.48-.48-.24,1.2ZM19.92,97l1.2-.24c-.2-1.19.16-.71-.72-1.2l-1,1,.24.48Zm.48,1.92-.24-.48h-.48v.72Zm-.72-7,.48-.48-.48-.24Zm-1.44,9.36V101l-1-.24C17.84,101.72,17.53,102.08,18.24,101.28Z" transform="translate(0 0.31)"/><path class="cls-1" d="M226.8,59.76c1.15,1.36-2.62,7.45-3.6,9.12V68.4C221.76,65.16,225.18,61.61,226.8,59.76Z" transform="translate(0 0.31)"/><path class="cls-1" d="M208.32,56.64c1.5,1.53.83,4.69.24,6.72l-.48.24C206,62,207.31,58.58,208.32,56.64Z" transform="translate(0 0.31)"/><path class="cls-1" d="M168.48,68.4h.72c-.62,2.74-4.43,5.57-6.24,7.44V74.4a13.21,13.21,0,0,1,3.95-4.58C167.42,69.38,167.94,68.93,168.48,68.4Z" transform="translate(0 0.31)"/><path class="cls-1" d="M114.72,71.52l1-.24a4,4,0,0,1-.59,1.36,7,7,0,0,1-3.25,2.48c.2,1.07.86,1.53.24,1.92a10.88,10.88,0,0,1-1.68.72l.48.48c.78,1.13,2,1.35,2.64,2.64h-1a17.72,17.72,0,0,0,1.36,2.73l-2.8.15-.48-.24L109,82.8v-.24c-1.41-.29-2.52-.67-3.84,0l3.36,3.84a11.94,11.94,0,0,1-.48,4.32h-.72a21.94,21.94,0,0,0-4.08-4.56c-.12,1.19-.11,1.1-.72,1.68-.78-.18-.52-.69-1,0-.89,2.43-.58,4.49-1.68,6.24l-.72.24-.48-.24c.09-3.45,2.56-5.06,1.44-7.68a5.37,5.37,0,0,1-1.2,3.84h-.24c-1.53-.75-1.08-1.67-.72-3.36-2.41.47-2.85,1.94-5.76,2.16L90,87.84l.24-.48,1.92-1.44-.48.24c.76-2.85,1.71-3.4,4.56-4.56h-.48L95,80.88c-1.66.47-3.66,1.21-5,0l3.36-.48c0-2.23,1.6-2.05,3.6-2.88L96.48,77c-1.07-2.2-4.91-2.23-6.48-2.4l.72-1.2V73l1.44-1.44c.63-.15,8.91,2.91,10.08,3.36l.24-.72v-.24l1.63-.4a1.76,1.76,0,0,0,.77,1.12,16,16,0,0,1,5-.48,46.87,46.87,0,0,1,2.88-5.76h1.92Zm-6.24,7.92-1-.72C108,79.45,107.57,79.11,108.48,79.44Zm-.72,1.44c-.56-.78-.43-1-1.44-1.44-.35.83-.83.84-1.68,1.44l.24.48C106.31,81.47,106.88,81.64,107.76,80.88Zm-1.44-4.08c-.43-.79-.3-.81-1.2-1.2C105.51,76.42,105.51,76.4,106.32,76.8Zm-1.68,7.68,1.2,1.44C105.56,84.78,105.62,84.9,104.64,84.48Zm-5-8.88-.72-.48c-.48.49-.38.19-.72,1l.24.48C99.6,76.31,99.2,76.64,99.6,75.6Zm-1.2,5.52.48-.48-.48-.24ZM96.48,85l-2.16-.48-.72,1.2A4.72,4.72,0,0,0,96.48,85Z" transform="translate(0 0.31)"/><path class="cls-1" d="M82.08,89.28v1l-3.36,1.68L79,91.2l.72-.48c-.5-.68-.36-.3-.48-1L80.88,89Z" transform="translate(0 0.31)"/></svg>