<svg id="图层_1" data-name="图层 1" xmlns="http://www.w3.org/2000/svg" viewBox="0 0 461.13 259.41"><defs><style>.cls-1{fill:#bfe3eb;}</style></defs><title>1-6</title><path class="cls-1" d="M207.36,66.48a4.29,4.29,0,0,1,2.4,3.6h-1A6,6,0,0,1,207.36,66.48Z" transform="translate(0 0.21)"/><path class="cls-1" d="M217.68,63.6a7.61,7.61,0,0,1-4.56-4.32,5.58,5.58,0,0,1,4.56,2.88l.24,1.44Z" transform="translate(0 0.21)"/><path class="cls-1" d="M255.12,201.84c-1.65-1.13-2.78-3.85-3.36-6,1.6,1,3.26,1.72,4.08,4.08h-.24l-.24-.48-1.2-1.44-.24,1.92a6.49,6.49,0,0,1,1.44,2.4h-.24Z" transform="translate(0 0.21)"/><path class="cls-1" d="M343.68,198.72l1.92,2.88c-2.5-1.39-4.54-5-5.76-7.68,1.82.74,4.66,3.37,5.28,5.28h-.24l-1.2-.72Z" transform="translate(0 0.21)"/><path class="cls-1" d="M418.08,91c-.73,2.13-2.54,3-4.56,3.84l-.48-.24v-.24c1-2.24,2.4-2.3,4.56-3.36Z" transform="translate(0 0.21)"/><path class="cls-1" d="M202.56,79.68a3.58,3.58,0,0,1,2.88,2.64A3.38,3.38,0,0,1,202.56,79.68Z" transform="translate(0 0.21)"/><path class="cls-1" d="M96.24,12.72a13.86,13.86,0,0,1,1.68,1.68l-1,.48Z" transform="translate(0 0.21)"/><path class="cls-1" d="M98.4,7.68c1.46,1.45,1.09,5-.48,6.48l-.24-1A12.23,12.23,0,0,0,98.4,7.68Z" transform="translate(0 0.21)"/><path class="cls-1" d="M111.33,21.63c.93-1.08,1.3-2.32,3.39-3.39l-1.2-2.88L116.16,17h.24a5.76,5.76,0,0,1,2.16-4.56l1.68.72.48,2.4c-1,2.8-2.13,5.61-4.32,7.2l-1-3.12c-1,.76-2,1.91-2.85,2.67l0,0-.37-.18-.59-.3Z" transform="translate(0 0.21)"/><path class="cls-1" d="M140.16,85l1,1.2c-1.73-.33-2.42-1.33-3.36-2.4l.48-.72H139a4.69,4.69,0,0,1,2.16,2.64Z" transform="translate(0 0.21)"/><path class="cls-1" d="M149.52,84.48c-2.63-.72-8.28.12-10.08-1.92h.48l1.44-.48C145.18,81.92,148,82.38,149.52,84.48Z" transform="translate(0 0.21)"/><path class="cls-1" d="M126,90.72a13.45,13.45,0,0,1,2.4-4.08h.48c0,2.26-.91,4.28-2.64,4.8Z" transform="translate(0 0.21)"/><path class="cls-1" d="M88.32,103l-.48.24-.24,1.2h-.24A7.71,7.71,0,0,1,89,99.6l1.2,1a5.69,5.69,0,0,1-2.16,3.36Z" transform="translate(0 0.21)"/><path class="cls-1" d="M91.92,112.8c.24-4.39-2.17-7.19-1.44-11.52,3.31,1.92,2.87,8.33,1.68,11.52Z" transform="translate(0 0.21)"/><path class="cls-1" d="M6,121.44c-.27.3.64,2.54-.48,3.84l-.24-1.92H5L4.8,124.8v-.48a5.78,5.78,0,0,1-.24-3.84C5.48,120.86,5.54,120.65,6,121.44Z" transform="translate(0 0.21)"/><path class="cls-1" d="M1,123.36l2.16-1.92c1.66,1.78-2,5.21-3.12,6l.24-5Zm1.2-.24c.62-.27.41-.38.48-.48l-.48.24Z" transform="translate(0 0.21)"/><path class="cls-1" d="M458.16,52.8v.72h.48Zm-.24-6.24c.54.5.25.4,1,.24Zm1.2-2.88-.24-1h-.24l-.24,1.2h.24Zm.72,14.4-.72-.48-.72.24.48.24C459.67,58.39,459.15,58.53,459.84,58.08ZM457,35.28l-3.12-.72v1.68c1.29-.09,1.17-.53,1.68.48l1.68-1v-.24Zm-2.4,13-1.2-1-.48,1.92h.24l.48-.48Zm-6.72-9.36V38.4l-1.44-.24.72.72Zm1.2,1c.88-.25.71-.2,1.2-.72l-1.68-.24-.24.48ZM448.8,65l.72,2.4H450l.24-2.16ZM446.88,73c.43.49,0,.17.72.48Zm1-31-.24.48.48-.48Zm1-12-1.92,1c.88,1.69,1.31,4.16,3.84,4.32C450.17,34.2,449.35,30.67,448.8,30Zm-2.64,41.76.24-.48c.58-.55.52-.38.72-1.44l-.72-.48-1,1.44V71C446.09,71.42,445.77,71.12,446.16,71.76Zm.48-3.84h.24V67.2l-1-.24ZM444.72,65h-.48l.24.48Zm-.24-1.44,1.92-.24c-.53,1.1-.84.59-.48,1.44a1.72,1.72,0,0,1,1,.24l1-1.2c.44.84.2.65,1.2,1l.24-.48c-.63-.78-.66-.91-1.68-.72l.24-1.44c.7.29.74.46,1.68,0a8.87,8.87,0,0,0-3.84-1.44Zm1.2-17.28h-1l-.24.72Zm0-1.92,1.92.72C447,44.48,447,44.46,445.68,44.4Zm-5.52-14.64.24,1.2.48-.48Zm0,25v.48C440.39,54.78,440.38,55.15,440.16,54.72Zm-3.36,2.16.24,1.44.48-.48ZM438,51.6c-1.22.48-2.28.42-3.12,1.2,2.18.33,2.59,1.34,4.32,1.92l.24-1C438.64,52.81,438.37,52,438,51.6Zm-2.16-20.16.48.72C436,31.43,436.32,31.87,435.84,31.44Zm-1.68,9.12.48-1h-.24Zm2.64,8.16-2.4,1.68,3.12-1.2Zm-3.6.48.48.48C433.35,49.22,433.66,49.54,433.2,49.2Zm0,2.64v-1l-.24,1Zm-1.44-11.76c.57.4.48.46,1.2.24Zm.24,5.76-1,.24v.24l.48.48.48,1.44,2.4-1.2-.24-1Zm-1.44-5.76c-2.21,1.56-1.74,3.47-.48,5l2.4-1c-.9-.38-1.38-.18-1.92-1l-.72-1C430.3,41,431.07,40.89,430.56,40.08Zm-1.92-1.68c-.38.38,0,.08-.48.24V41l.48-.24c.5-.92,1.11-1.1,1.92-1.68Zm-1,3.6H427C427.37,42.6,427.1,42.28,427.68,42Zm2.88,6.72c-2.36-1.24-5.4-5.67-7.92-7.68l2.88.24c.2-1,.26-1.18,1-1.68L426,41.76l1-.48h.48c-.24-1.35,0-2.23-.72-2.88l-.48-.72-.72,1.92h-1V38.16L426,36.48c.66.37.81.65,1.44.48A4.19,4.19,0,0,1,427,34.8L425,34.08V29.52c1.59,1.13.91,2.11,1.44,3.84a7.59,7.59,0,0,1,2.16-1l.24.72-.48,1h.72l.48-.24,1.68-3.6c2.5.6.61,2.37.24,4.32l.72-.24c.9-2.42,1.37-1.68,3.36-1v-.24c-1.12-2.68-3.44-3-3.6-6.48h.48l1-.24,2.88,3.12,1-.24c-.1-1.67-.32-2.13,1.44-2.4l1.44,1.68.48-2.88c1.15.7,1.44,1.51,1.44,3.36l.48-.24a31,31,0,0,1,.72-5.76c.61.39.58.3,1,1,2.59,3.51-2.59,2.52,2.16,4.8.93.44,1.61-.28,3.36-.48.39,1.47,2.51,3.65,3.6,4.56l.48-1.2a4.31,4.31,0,0,1,0-3.12h1.92a5.5,5.5,0,0,1,2.88,3.84l.24-.48c1.69-1.59,1.33-4.8,1.68-7.68h.24c0,6.65-.22,13.92-.47,20.46,0,0,0,0,0-.06a4.23,4.23,0,0,1-2.64.72,1.72,1.72,0,0,0-.72-.72l-1,1.2.48,1.44.72-.24v-1a7.34,7.34,0,0,0,3.1-.4c-.08,2.07-.15,4.06-.22,5.92l.72-.72c.08,2.69.95,9.94-.48,11.52-1.07.42-2.55.57-3.36,1,.05-.8.22-.55-.24-1.2h-.48l-.24.48c1.33,1.75,2.6,3.63,4.8,4.56V71c-2.24-1.75-2.86-4.05-5.76-5.28-2.65.37-2.3,3.37-2.64,5.76,1.48-.75,3.89-3,5.76-1.68L457,71.52l-4.8,1v.24c.52,3.09,1.4,3.32,3.36,4.8v.72l-.24.24a8.33,8.33,0,0,1-4.8-1.2c-.47-1.72-1.06-1.8-1.68-3.36l-.48.48c-1.06.43-2.41.64-2.64,2.4l.72.48-1.2.24.48.24,2.88,1.68.24-2.16.72.72a5.12,5.12,0,0,1,3.12,4.8l-.48.72h-1l-1.68-2.4-.72.48a2.68,2.68,0,0,1-1,1l.24-2.16c-3.6-.33-2-1.66-6.24-1.68,1.25,1.24,2.33,1.76,1.92,4.08l-.48.24-1.2-.48a16.21,16.21,0,0,1-1.92-4.32V78l2.64-.72-.48-.72c-.75.46-.95.81-2.16.24s-.73-.58-1.2-1.2l.72-2.64v-.48c.52-.84.66-1.07.24-1.68a4.16,4.16,0,0,0-2.88-1l.24-.48,1.44-.48-.48-.72H438l-3.6,1.2c-.33-1-.46-.93-1.2-1.44.43-1.07,0-1.12.24-2.16h1.68c-1.07-1.38-.46-1.2.72-2.64l2.4-1-.72-.72h-1.68c-.91,1.81-2.45,1.75-4,1.79l0-1.07-.48-.24.48-1.44c.23-2.41,1.21-7.62,1.44-8.4-1.66,0-4.34-.13-5.52-1.68v-.24l2.4-.24A2,2,0,0,1,430.56,48.72Zm13-13.2.72-1.2-.72-.48-.72,1.68Z" transform="translate(0 0.21)"/><path class="cls-1" d="M254.16,47.76v1.68l1.2-.48A3.62,3.62,0,0,0,254.16,47.76Zm.48-9.84c.44.84.2.65,1.2,1v-.24Zm-2.88-3.36a4.16,4.16,0,0,0,1.2-1.2,1.72,1.72,0,0,0-.72-.72l-1.68,1.44v.24ZM253.2,53l.24-1.68-1.68-.24-.24,1.68Zm.24-16.32v.48C253.67,36.78,253.66,37.15,253.44,36.72ZM247.92,204c.33.46,0,.14.48.48Zm1-151.68-.24.48C249,52.4,249,52.84,248.88,52.32Zm1,154.08,1.2,1.44.24-.24ZM246.48,40.8l.48.48C246.63,40.82,246.94,41.14,246.48,40.8Zm0,167.52,1.2,1.2C247.29,208.7,247.29,208.72,246.48,208.32Zm.48-2.64v-.24l-1.44-.72,1,1.2Zm-.72.48,1.2,1.44C247,206.73,247.08,206.61,246.24,206.16Zm1.44-162-.24.48.48-.48Zm-3.12,5.52-.24-1-1.2.48Zm-.24,3.6,1,1.92.48-.24c.48-1.29,1.06-1.34,1.92-2.16l-2.16-1.44Zm-2.4-2.4c.62.69.31.38,1,0ZM241,205a11.41,11.41,0,0,0,3.12,3.36l.48-.24v-.24A10.6,10.6,0,0,0,241,205Zm-.48-3.6a3.62,3.62,0,0,0,1.92,2.4A3.17,3.17,0,0,0,240.48,201.36ZM240,47.52l1-1.68.48,2.88,1.44-1.44,3.36-1.92c-.3-.87-.33-1.16-1-1.68h-1.92V43.2L245,41.76l-1.92-.48c-.49,1.26-1,.84-1.44,2.16-2.13-.38-2.33-.9-3.84-2.16l-1,.72v.24c1.39.41,1.6.86,2.4,1.92l-1.44.24.72.72Zm-1.2,160.56,1-.72c.25,1.52.61.86,1.92,1.68a12.66,12.66,0,0,0-4.8-5.76Zm0-4.32,2.16,2.16A3.1,3.1,0,0,0,238.8,203.76ZM234.72,39.84l.72-.48.24-.72-1.2-.48Zm.48,163v-.24a5.67,5.67,0,0,0-1.68-2.88L235,202.8Zm-3.36-151c3.62-.33,5.21-1.94,7.92-2.64L237.6,48l-1.68,1.92c-2.59-1.41-1.73-3-3.36-5.28L229,46.8l.48.48c1,.12,2.71,1.63,3.6,2.64C232.09,50.9,232,50.39,231.84,51.84ZM233,40.32c-.42-.58-.25-.4-1-.72ZM230.4,204l.48-.72h-.48Zm0-2.4c.2.56,1.22,2,1.68,2.88-.86.27-.42-.09-.48,1.2l1,.24-.48-1.44c.66-.17.57.19.48-.48l1.68,1.44c-.44-2.12-1-4.27-3.36-5.76l.48,1.68c-.71-.55-.55-.58-1.2-.72l-.24.48Zm-1.2,3.12a3.9,3.9,0,0,0-1-2.16c0,1.22-.61.32.24,1.2ZM228.48,55c.5-1.37,1.29-1.71,2.16-2.64v-.24l-1.92-.48c-.31,1.32-.58,1.22-1,2.64Zm-3.6,151a2.54,2.54,0,0,0,1,1.2Zm.72-4.08A4.29,4.29,0,0,0,223,199.2Zm.48-2.88c.48.64.27.47,1.2.72ZM221.52,6c-.37,1.43-.06,2.59,1.2,3.12V7.92C222.38,6.84,222.46,6.52,221.52,6Zm.72,191.76.72.24.72-.24.24-.72A10.88,10.88,0,0,1,222.24,197.76Zm-2.16-144h1v-.24l-.48-1.44h-1.44ZM218.4,206.64c.33.46,0,.14.48.48Zm-1-.48a2,2,0,0,1,1.92,0l-1.68-1-.48.24Zm-4.32-4.56L214.8,203C214.36,202.09,214.14,202,213.12,201.6Zm2.4,3.12.48-.48-1-.72-.24.24Zm-4.8-2.4-1-1.2C210.09,202,210,201.88,210.72,202.32Zm1.2-194.16c-.74.41-1,.24-1.44,1l-.72,1.68L210,11h.24l1.2-.72Zm.48,196.08.48.48C212.55,204.26,212.86,204.58,212.4,204.24ZM212.88,55a22.19,22.19,0,0,1,2.64.24c.19-1.1.82-1.79.24-2.16-1.19.58-2.08.75-2.88,1.68ZM209.52,5.52,207.6,1.2l-.24,3.6.48.48Zm-1,192.24.72,2.4h.24v-.72ZM123.12,27.84c.43.49,0,.17.72.48C123.41,27.83,123.84,28.15,123.12,27.84Zm-5,168.48a1.91,1.91,0,0,0-1-1.44ZM115.2,93.6l.24-2.4h-1L114,92.64ZM115.68,203l1,1,.24-.24Zm0-9.12a2.11,2.11,0,0,0,1.2,1.68Zm-2.4-97.68c.49-.43.17,0,.48-.72h-.24Zm-2.64-70.8.48.48C110.79,25.46,111.1,25.78,110.64,25.44Zm.24,172.32c.33.46,0,.14.48.48ZM109.2,23.28v.48C109.43,23.34,109.42,23.71,109.2,23.28Zm1.2,174.24V197h.48v-.24l-1.68-.72Zm.24-173.28c-.16.23-.31.47-.46.7l.7-.7Zm-3.6,0,1.68-.48-1-.24-.72.24Zm1,.24-1.2,1v.72l.48.24.48-.24C108,25.24,108.63,24.88,108,24.48Zm-1.68,170.64.48.48C106.47,195.14,106.78,195.46,106.32,195.12Zm1,2.16-.72-1.44A1.51,1.51,0,0,0,107.28,197.28Zm-11-104.64-1-.48-.24.48ZM96,21.84a4.86,4.86,0,0,1-2.16,1.92l.24.48h2.64l-.24-2.64ZM95,99.36l.24-.48H94.8Zm1.44-73.44c-.65.56-.6.23-1,1.2l1.68-.24v-.24A1.72,1.72,0,0,0,96.48,25.92ZM93.84,201.6l-1.92-2.16A3.37,3.37,0,0,0,93.84,201.6Zm-2.16-2.88c.42.19.78.34,1.12.48a12.2,12.2,0,0,1,3,1.44l-4.08-3.84.48.72c-1,.19-.23-.23-1,.48Zm-2.4-110.4V89l.72-.48v-.24Zm0-4.8.48.48C89.43,83.54,89.74,83.86,89.28,83.52ZM90,86.4v.48C90.23,86.46,90.22,86.83,90,86.4Zm48.48-7.68H139l-.24-.48ZM135.12,22.8l.48-.48h-.24Zm.24,51.36c.49-1.69,1.6-1.6,2.4-2.88l-.24-.48-1.2-.48c-1.41.89-2.22.66-2.64,2.64l1.44,1.2Zm0-67a2.09,2.09,0,0,0,.72,2.4l1.68.24.24-.48-1.2-1.92Zm-1,16.32-1,1.2a2.14,2.14,0,0,1-1.2-.48l.24,1.2c1.35-.49,1.21-.6,2.16-.48Zm1.44,176.64L133,197.52A5.79,5.79,0,0,0,135.84,200.16ZM130.56,25.68v.72l1.68,1c-.53-1-.65-.56-.24-1.68Zm.48-1-.48-.48c-.33-.46,0-.14-.48-.48l-.48.24v.48h.48Zm0,57.12h1V81.6l-.48-.72Zm1.44,1-1.2-.24-.72.24V83Zm-9.12,2.88,3.12-2.16-.24-.48H124.8l-1.44.48Zm3.84-4.08v-.24L127,79.92,125,79.68l-.72,1.92ZM203,64.32c-.43-.49,0-.17-.72-.48Zm1.44,5.52-1-3.6c-.45,1.7-.67,2.44,0,3.6h1Zm-2.4-61-.24-.72-.48.24C201.79,8.89,201.36,8.57,202.08,8.88Zm-3.36,65.76V74.4l-.72-1,.24,1.44Zm-3.6,7.2c-.3-.73,0-.29-.48-.72l.24.72Zm1.44-12.48-.72,1,1.44.48v-.72A1.72,1.72,0,0,0,196.56,69.36ZM197,202.08l-.72-1.2C196.53,202,196.29,201.59,197,202.08ZM193,203l.72.72A1.72,1.72,0,0,0,193,203Zm3.6-129.12-2.88-1.44-.48,1.44.48.48C194.56,74.25,195.77,74.52,196.56,73.92Zm-2.64,2.16-.24-1.2h-1.2l.24,1.2Zm-1.68,5,1.2-.72-1-1.68L191,80.64l.48.24Zm.48-15.84h-.48l-.72-.24.48,1Zm1.44,2.64-1.68.72.48,2.64.72-.48,1.2-2.88Zm-1.68-5.28v-.72l-.72-.48C192,62.48,191.84,62.11,192.48,62.64Zm.72-54.72-3.36,2.16.48.24,2.88.72-.72-2.16C193.29,8.39,193.45,8.79,193.2,7.92Zm-6.48,9.6-.24-1-.48.72.24.48Zm.48-1.2-.24.24.24.48.72-.72ZM187,60.48c.33,1.65.12,2.52,1.44,3.6.08-2.3.86-1.59,1.2-3.84L187.92,60ZM174.72,35.76v1l.48-.24-.24-.72Zm1.92-21.12-.72,1.44.72-.24Zm8.88,191.52-1.44-1.2.72,1.44Zm-1-143.52,1-.48H185l-.48.24Zm-.72,139.68c.86.16,1.3.91,2.4,1.44l-2.4-4.08Zm.24,1.92.72.24-1-1.68ZM172.32,34.08v-.24l-.72-.48v.72Zm2.16-18.48-.72-.24v.72ZM166.8,41.52c.56.51,0,.11.72.24v-.24Zm.48-20.88c-.33-.46,0-.14-.48-.48ZM169,24l-.72-1.44-.72.48.24,1.2.48-.24Zm-1.44-3.6a12.3,12.3,0,0,0,7,3.6l-.24-1c-.84-1-1.3-2.32-2.43-3l0-.08h-.17a3,3,0,0,0-.55-.24v.24h.55l.14.08c-.38,1-.39.59-1.17,1.12l-2.88-1.68C167.42,20.18,167.59,19.44,167.52,20.4ZM169.44,29h.72l1.44-2.16-1.68-1.2-1,1.2Zm0,4.56V32.16l-.72-.48.48,1.92Zm7.44-16.8c-1.74-.17-5.86-.94-6.72.48,2.44.78,4.39,4.17,6.24,5.76Zm-5,49.44L170.16,66l1.44,1.68.48-.24V67.2Zm1.92-.24c-.21,0-1.92,6.24-1.92,6.24h-3.6L171.12,89c4.45-3.3,8.35-16.41,5.52-23.52-1.92-.16-2.37-1.83-4.08-2.64C172.71,64.06,173.54,64.05,173.76,66ZM165.6,202.8l-.24.48h.48Zm.48-166.08,1-.72c-1.38-.93-.85-1.18-1.92-2.16l.24,2.64Zm2.64,0-2.4.72.48.48,1,1.68.48-.24Zm-91.2,5-.72.72v.24H77l.24-.48C77.73,41.94,77.41,42,77.52,41.76Zm0,153.12c.48.58.51.53,1.44.72C78.42,194.93,78.69,195,77.52,194.88Zm-1.92-167-1,1.2L76.32,31l1.44-.72C76.69,29.69,77.21,28.47,75.6,27.84Zm.24,8.88-1,.24L77,39.84h.24c.08-1.48.15-2.31-.72-2.88ZM75.12,5l-.24.48C75.39,5.35,75.34,5.53,75.12,5Zm-1,27.36.24-.72-.72-.24Zm.24-13.68-.24.24.48.48h.48l.24-.72ZM74.16,7.2l.24-.48h.48A1.78,1.78,0,0,0,74.16,6c-.31.79-.22.29-.24,1.2Zm-.24,13.2.48-.48-.48-.24ZM340.56,204c-.33-.46,0-.14-.48-.48ZM341,63.12l.48-.24,1-2.4c-1.07-.23-.26-.26-1.2-.72A7,7,0,0,0,341,63.12ZM342,204l-.72-1.92C340.91,203.27,340.84,203.27,342,204ZM332.64,79a49.07,49.07,0,0,0,8.64-7c-.5-.82-.83-1.08-1-1.68l3.12-1.68-3.84-.24.24-.48,2.64-1.2c-.52-1-.55-2.46-1.2-3.36-.28.92-1-.53-1.44-1L339.12,67c-1.16.81-1.15,1-2.4.72L332.4,79ZM317.76,61.44c-.1-.71.2-1-.24-1.44-.48.38-.33.31-1.2.48l.24.48Zm.24-.72c.27.87.27.66.72,1.2h.48l.48-.24v-.24A3.2,3.2,0,0,0,318,60.72Zm5.76,9.12c-1,10.25-2.87,18.68-6,26.4,6.11-4.7,16.54-23.92,17.52-33.36l-1.2-1.44c-.94,1.63-1.28,1.68-3.12,2.88,0,1.76.74,4.24-.24,5.76v.48c-2.53-.31-3.5-1.62-3.84-4.08l-.72.48-.24,1h-.24l.72-2.64-.72-.24a35.3,35.3,0,0,0-1,5.52ZM315.6,1h-.48l-.24.72A1.78,1.78,0,0,0,315.6,1ZM317,205.68c.36,1.26.51.77,1.2,1.2ZM311.76,67l1.2-1-2.16-3.12C310.68,64.9,310.74,66.1,311.76,67Zm1.92-64.32c-.21,1-.54.38.24,1.2l.24-1ZM296.64,73l-.24-1-.24,1h.48Zm1.44-1.44V70.08h-1l.72,1.44Zm14.64,25.2-2.16,2.88.24,3.36Zm-1.44-1,4.08-7.44,6.48-21.84-1.44,1.2c-.38,2.53-.73,3.4-2.4,4.56l-.24-3.36-5,1.92c.95-2.75,1.84-3.62,4.8-4.32-.24-1.19-.17-.9-1-1.44L315.36,67c-1.62-.6-2.82.27-4.56,1l.24,3.84,1.68,1.68-.24,1.44-1.68.72V96ZM294,209.52c-.1-1-.08-.94-.48-1.44C293.62,209.05,293.6,209,294,209.52Zm.48-3.84.72,1.92.48-.24c0-1.28-.07-2.06-.48-2.4l-.24,1.68ZM294,64.08a3.39,3.39,0,0,0-1-1.44l-.48.24.24.72Zm-2.16-6.24c1-.27.53-.34,1.44,0a2.76,2.76,0,0,0-1.68-2.16Zm.24,13.2.48.24L293,71c1.23.09,1.68-.41,2.4-1.44-1.18-.39-1.06-.84-1.92-1.44Zm-2.4,135.84-.24-1v1Zm2.64-133.2c-1.07.74-3.77.86-4.56,1.92l-.48,1.2C289.27,76.44,292.73,75.8,292.32,73.68Zm-.48,131.52a5,5,0,0,0,1,3.12l-.24-.72A2,2,0,0,0,291.84,205.2ZM282.48,61.44l.24-.48h-.48Zm0,2.4v1H283Zm2.64,14.4.48-.48.48-.24-1.2-1Zm.72-14.4c-.5,4-.37,6.44,1.92,8.64l2.64-1.2V71l-3.6-1-.24-1.44,1-1.2,3.6-1.44Zm10.32,11-.48.24c-1,2.65-7.2,5.76-10.8,5.52.44,9.51-.74,20.57,1.2,29.28,1.64,7.34,8.82,27.55,13.2,31.92l-.48-67.2c-.2,3.39-.48,8-1.68,11l-1.44,1C294.89,81.91,297.36,79.38,296.16,74.88Zm-9.84-16.8c1.72,3.39,6.23,3.6,10.08,3.12l.24-1h-1c-2.26-.56-2.63-.68-3.84-2.16l-.48,1.68c-1.76-.86-2.58-2.06-4.8-2.4Zm-6,16.08c-1.27-.84-1.78-2.61-2.16-4.32l-.48.24c-2.75,7,2.48,22.33,4.32,29.52h.24c.28-7.06-1.17-15.36,0-23.28.33-2.22.71-6.3,0-7.92l-1.44-.48a9.5,9.5,0,0,1,.72,5.52l-.72,1.2C280.34,74.31,280.66,74.62,280.32,74.16Zm0-13h.24c0-1.62,0-3-.48-3.6-.1,1-1.08,2.21-.48,3.36Zm-1,2.4c.54.29.47.31,1,.24ZM272.64,41l.48-.24.24-.48-1.2-2.64C272,38.77,272.39,39.72,272.64,41Zm-1.92,26.88V67.2l.48-.24c-.31-.82-.24-1-1-1.44L269,66l.48,1.68ZM265,51.84c.41.6.14.28.72,0Zm1.2-6,1.44-1c-.29-.54-.26-.6-.72-1l-2.16,1.2.24.48ZM266.4,42l-.24.72C266.49,42.21,266.6,42.59,266.4,42Zm-4.8-7c.23-.42.22,0,0-.48ZM263,36l-.24,1.92,1-.72V37C263.45,36.24,263.61,36.42,263,36Zm.24-1.92c.49-.21.27,0,.24-.48Zm.24,25.2,2.4,1.2c.73-.64,1.24-.41,2.16-1.44-.36-1.28,0-.38.72-1.68l-1.44.48-1.68-1.2L265.44,54h-1C264.25,56.45,262.74,57.34,263.52,59.28Zm0-16.56.48-1.44h-.72a4,4,0,0,0-1,1.68l.48.24Zm-2.4,15.84c-.05-.55.12-.37-.24-1l-.48,1.2Zm-1.92-1.2c-.3-.73,0-.29-.48-.72l.24.72ZM259,208.8c.69-.31.07-.6.72-.24l.48.24-1.2-1.44Zm-2.4-157.68v-.24h-1.68l-.48.24.48.72Zm1.92,1.44-2.64,1.2.48,1,.48.24c1.4,0,2.13.1,2.64-.48,1.8-2.43,1.54-3,4.56-4.56l4.08.72,1.68-2.16a6.09,6.09,0,0,1-.24-2.4h-3.36v.24c1.41.23,2.41.71,2.88,1.92-1.43.2-1.5.42-1.68,1.2-1.43-.23-5.83-.8-6-.72l-1.92,1.2C260,51.39,259.38,51.41,258.48,52.56Zm-3.12,149.76,2.88,1.92v-1c-.81-.27-1.53-2-1.68-3.84l.72.48,2.16,2.64a7.32,7.32,0,0,1,.72-3.6c-.18,3.9,1.32,4.95,2.64,7.68H263l-1-1.92,1,.24-2.4-3.6c.37,0,.68.09.61-.06l3,4.14c-.45-1.7-2-4.78-1.2-7,.41,2.73,1.27,6.05,2.64,7.2l-.24-2.16.72,1.2a1.78,1.78,0,0,1,.72-.72,2.6,2.6,0,0,0,.72,1.68l1.68.48-2.4-5.52h.24c1.74,1.61,2.21,2.59,4.32,3.6l-.48-.72,1.2.24a2.89,2.89,0,0,1,0-2.64l1,1.2-.48-2.88h.24v.48c1.37.92,1.6,3.44,2.64,4.56h.24l-.48-1.44.72-.24h.24l2.16,4.08c.28-.66.07-.13.72,0L276.48,199h.24l.72.48a5.92,5.92,0,0,0,1.92,3.6c-.05-.88-.17-.92.24-1.68l1.68,1.68c-.26-1-.45-1-1-1.68.73-.41.42-.34,1-.48l.48,1-.48-1.2.24-.48c.69.15.39.64.72,0,.67-.56.7-.9.72-2.16l.48.24c.22,2,1.56,6,2.88,7.2l-1.2-3.6.24-.24h.24a15.34,15.34,0,0,0,3.6,5.28l-.72-2.4,2.4,1.2c-.54-2.19-1-2.82,0-4.32l.48.24c.49,2.29.86,1.81,1.2,3.84h1.2c-.31-1.59-1-2-1.68-3.12l.72-.24c.3.73,0,.29.48.72-.22-1.56-.72-2.09-.24-3.36v.48c1,2,.86,3.4,2.64,4.56v-1.2l-1.44-2.64.24-.48,1,.72-.24-1.2.72.48.72-40.08-6.48-13.2c-6.1-9.61-14.24-17.5-21.12-26.4-2.07-2.67-6.43-5.17-7-9.12l.24-.24.48-.72c5.41.4,7.27,5.06,9.84,8.4,3.26,4.23,8.17,7.48,11.52,11.76,2.83,3.62,4.59,8.65,8.16,11.52l-5.76-14.16c-3.32-10.59-5.85-21.63-8.88-31.68L272.4,69.12l-.72.72c-2.61,1.45-1.66,5.78-4.56,7.2l-1.68.48c-2.53-5.23,2.84-8.38,2.4-14.64,1-.21.39.27,1-.72a11.25,11.25,0,0,1-2.16.24c0,1.81-.25,3.39-1.44,4.08l-1.44.72-.24-1.2c.46-.33.14,0,.48-.48h-1.44l-1-1.44.72-2.16-.48-.24c-1.48,1.18-2.2,2.73-4.08,2.88v-1.2l-1.44,1.44V65l2.16-.24-.24.48c-2,.8-2.65.65-5.28.48l.72-.72c.89-1.35,2.46-1.75,3.36-3.12v-.24c-3.08-1.33-3.61-5.16-6.48-7,.12,2.35-.13,4.36-1.44,5.28l-.72.48c-1.56-1-1.66-2.63-3.12-3.6a10,10,0,0,1-1.44,5l-.72-.72c-1.54-1-1.21-3.58-1-5.76l-1.44,1c.15,4-.19,7.68-2.16,9.6-4.91-2.94.3-11,1.44-14.16-4.29.65-5.82,2.44-9.84,4.08a4.94,4.94,0,0,1,1.44,3.84h-.24c-1.84-.81-2.31-1.87-3.6-3.12-.18,21.15-6.85,65.69,12.24,68.16V125c-22.08,3-15-44.13-14.88-63.84l-.72.24c-.66,1.42-1.29,2.36-3.12,2.64.11-2.13.46-4.32-.48-5.28l-.48.24-1.2,2.16-.48-.24-.24-3.12c-2.49.83-5.19-.27-7.92.24l.24.48c1.68.83,3.35,2.17,3.36,4.8l-1.68-.72c-.39,1.62-.88,1-1.92,1.2l.24,2.16L209,65.76c-1.54-.73-1.52-1.79-2.4-3.12h-.24l-.24.48c-.5,2.62-.12,4.15-.48,7l2.16.48-.24.48-1.92.48c1,1.34,2.09,2.44,1.2,4.32l-1.68-.24c-1.34-.71-1.64-2.1-2.64-3.12-.74.34,0,.17-1,.24l.72-1.68-1,.48c.12-2.36,1-3.56,1.44-6.24l-1.68-.72a10.12,10.12,0,0,1-2.16,3.6c.62,1,.52,2,1.2,3.36.67-.43.41-.35,1-.48,0,.18,0,.34,0,.49a9.37,9.37,0,0,1-.26,3.35c2.23.5,3.94,1.41,4.32,3.84l-1.68.24c-1-.8-1.65-1-2.16-2.4h-.24l-.48,3.36c1.24.57,1.48,1.28,1.44,3.12H204l-1.44,1.2.24.48,1.92,1.44v1.2l-.72.24h-1.2A7,7,0,0,1,199,83l2.16.24-1.68-3.36c-.63.52-1.7-.07-1.92.48l-2.16,2.88,1.92.48h-.48l-.72.48.24.48,1.92,1c.47-.73.08-.25.72-.48v.48c.59,1,.78,3.6,0,4.56l-.72-.24a19,19,0,0,0-3.36-5.52V85c-2.06,2.3-1.68,5.84-4.8,7.2.09-3.22,2-5.22,3.12-7.92L193,84a17,17,0,0,1-7.44,2.4c-1.08-.65-1.71-.55-2.16-1.92,1-.28,5.83-.63,6.72-1.44l.48-.48c-2.36.13-3.46-.07-4.32-1.44,1.95-.42,3.35-.36,2.88-1.68l-1.68-.72v-1l.72-.48,3.12-.48-.24-.72a5.48,5.48,0,0,1-4.32-5.52l1.92-.48-1-1.2-2.16.72v-.24a2.16,2.16,0,0,0,.24-1.68l-1.2-.72h-.24c.21,16.58-4.65,23.34-12.24,31.92C174.1,108,173.21,121,175,131l3.84,36,4.8,32.4c.66-.11,1.43-.43,1.68,0,1.35,1.14.79,1.25,1.68,1.92l-1-2.4c1.16-.18,1.46-.13,1.92-.48l-.48-.72c1.76.6,2,2.18,3.12,3.36h1l-1-1.68,2.16,1.44A14.85,14.85,0,0,1,191,197c1.67.58,2.65,2.56,3.36,4.08l1.2-.24-1.44-2.4c2.43,1.67,3.4,2.78,6.24,4.56a3.87,3.87,0,0,1-.48-1.92c.47.08.12.31.48,0l2.16,1.92c-.55-2.54-.49-1.56-.48-5h.24v.48l.72,1v-1.2l.48.24c.12,1.39.31,1.61,1.2,2.16l-.72-2.16,4.8,5.76.48-.24v-.24c-.67-1.82-2.81-7-2.16-7.44.49,1.3.54,1,1.68,1.2-.53-.5-2-.91-1.68-1.92a39.17,39.17,0,0,1,6.72,5c-.82-2.42-2-3.12-3.36-4.8,4.06,1.76,6.75,5.44,10.32,8.16-.33-2.41-2.31-3.24-3.6-5.28,2.6.91,3.53,3.72,5.52,5.28l.24-.72c-1.53-2.37-2.59-2.84-3.36-5.28,1.88,1,2.57,2.53,4.08,3.84l.24-.48c-.87-1.27-1.28-2.39-2.88-3.12l1-1c-1.27,0-1.16-.21-2.16-1,.24.9.46.19,0,1l-2.16-1c.15-.95-.18-.79-1-1.92l.24-.24c.85.44,1.54.93,2.4.72h-.48c-1.1-1.6-3.37-1.27-4.32-3.12l1.44.48-.24-1.44c2.36,2.08,3,3.58,5.76,4.8-.66-1.49-1.16-1.13-1.2-2.88l.24.48a13.62,13.62,0,0,0,2.88,1.68c-.85-1.28-2.05-1.5-2.4-3.6l.48.24a17.2,17.2,0,0,0,4.56,4.56l-.48-1.68,2.14,2.62-.7-.22.72.24,0,0,3.14,1v-.72l-2.64-.24c-.1-2.35-.77-3.12-.48-3.6l.48-1.68c-.08,2.82.3,4.25,1.68,5.28h.24v-4.56c.42,1.83,2.09,5.84,3.6,6.72h1.68c.58,2,1.85,2.7,2.88,4.32l.24-1a8.89,8.89,0,0,0,3.12,1.68l-.72-.72-3.84-6c1.19-.58.4-.8,1.44-.48l.24-1.44v.48c.79.95.79.9.48,1.92.69-.15.39-.64.72,0l3.84,5.28-.72-1.68c1.24,1,1.85,2.08,3.6,2.64.38-1-.06-.75,1-.48-.2-2-.7-2.38-.48-3.84h.24c.28,1.72,1.87,3.49,3.36,4.56a10.74,10.74,0,0,1-.24-4.32c-.9.34-.86.38-1.68-.48v-.24c.91-.1.3.27,1-.24l-2.16-5.52.48.24,2.64,6,.48-.72c.74,4.11,3.39,5.18,4.32,7.68h.24l.24-2.4-1-1.68Zm2.4-.24.24.48.24-.48Zm.24,7c-.15-1.42-.55-2.3.24-3.12-.25-1-.25-1-1-1.44-.49,1.73,0,2.82.24,4.56Zm193.2-9.84,1,1v-.72Zm0-2.88a2.83,2.83,0,0,1,1.68-.24l-1-1.2-1-.24,1,1.2-1.2-.48v.72Zm-8.88,1.92a3.85,3.85,0,0,0,.48,2.64ZM439,86.88h-.48v1Zm-.48,113.28-.24.48C438.69,200.34,438.37,200.43,438.48,200.16Zm-5.28,1.2a1.72,1.72,0,0,0,.72.72A1.72,1.72,0,0,0,433.2,201.36Zm0-7c.33,1.57.58,3.23,2.16,4.08C434.85,197.19,434.19,194.92,433.2,194.4Zm0,6.24c-.33-.46,0-.14-.48-.48Zm1.92-5-1-1.92.72,2.88ZM432,92.64l-.24-.72-.48.72Zm-2.16,108,.24.48.24-.48ZM57.12,4.08l.48-.72-.72-.48C56.91,3.83,56.66,3.38,57.12,4.08Zm-2.4,89,2.88-.48a8.61,8.61,0,0,1-.24-4.56h-.72a14.77,14.77,0,0,0-2.88,5ZM54,36.48l1.44.48.24-2.4H54.24C54,35.55,53.78,35.51,54,36.48ZM51.84,27.6h.24a3.68,3.68,0,0,1,2.4-1.68V23c-1.08.87-2,1.23-1.68,2.88Zm.48,13.68c.51-.56.45-.16.24-.72l-.72.72.48.48Zm.48-1.44c.45.78.55.58.48,1.44A4.69,4.69,0,0,1,55,41a1.72,1.72,0,0,1,.72-.72L54,39.12ZM51.12,18.72l.48-.24c.21-1.3.41-1.1,1-1.92l-.48-.24A4,4,0,0,0,51.12,18.72ZM52.56,52.8l-1-.24C52.14,52.85,52.07,52.87,52.56,52.8Zm-1.2-32.64v-.24l-.72-.48v1Zm1,29.52.24,2.4.72-.48ZM.24,1.2l.48.48C.39,1.22.7,1.54.24,1.2ZM88.32,89c.33.46,0,.14.48.48Zm1,107.52-.48-.48C89.13,196.54,88.82,196.22,89.28,196.56ZM89,94.56a6,6,0,0,0-1.44-3.12ZM87.6,86.64l.48.48,1.68-.48V85l-.48-.72v.48l-.48-.24Zm-1.68-4.56c.33.46,0,.14.48.48ZM85.2,80.4c.42.92.07.7,1.2,1Zm1.2,5.52-.48,1,.72-.72Zm1,1.2h-1l-.24.48.72,1,.72-.72ZM83,85.44l2.4,1.44h.24C86,85.05,87.3,84.25,87.36,83a6.5,6.5,0,0,1-4.56,1.68ZM84.72,199.2l1,1C85.29,199.41,85.46,199.6,84.72,199.2ZM80.16,29.76v.72l1-.48Zm.72,14.4.72-.72L81.36,42c1.33,0,1.06.17,1.92-.48-.18-1.9-.13-2.87-.24-3.84,1.61,1,2.28,3,4.32,3.36l-.24-1c-1.07-.61-.83-1.77-1.68-2.4-2.52-1.88-4.72-.8-4.8-5.28l1.2-.72L79,31l-2.4,1.2c3.81,3.35,3.25,6,3.6,12Zm.24.48.24.72h1l-.72-1ZM151,46.08h.24c-.14-1,0-.72-.48-1.2Zm.24,32.4v.72l.24-.72Zm.48-27.84v.72h.48C151.86,50.63,152.16,51.07,151.68,50.64Zm.24-.72c-.15-.87-.1-.73-.48-1.2l.24,1.2Zm2.16,148.56-2.4-1.2a6.06,6.06,0,0,0,2.88,3.12l-1.44-1.68ZM149.52,15.12v.48C149.75,15.18,149.74,15.55,149.52,15.12Zm0,187.44v.72l.24-.72Zm.72-8.4-.48-.48C150.09,194.14,149.78,193.82,150.24,194.16Zm.24,6.48c-.16-1.13,0-1.4-1-2.16.06,1.07-.26.54.24,1.2Zm-.24-4.8c.25.88.2.71.72,1.2v-.72Zm.24-146.16.48-.24.24-.72-1.2-.48Zm-2.4-7.2c.75-1-.12-.53,1.2-.72L148.8,41l-1.44-.24Zm.24.24c.38.65.08.33.72.72Zm.48,157.92c-.33-.46,0-.14-.48-.48Zm0-187.2c.12,1.31-.1,1.05,1,1.44v-1Zm-2.16,190.32a1.87,1.87,0,0,0,.24,1.2l1.2.48v-.24Zm.24-196.32c0,1.46-.14,1.51,1,1.92ZM149,201.6l-1.44-1A2.57,2.57,0,0,0,149,201.6Zm-2.88-156,.48-.24-1-1.68C145.64,44.81,145.78,44.54,146.16,45.6Zm-.24,156.24.72,1h1v-.24l-.72-.48Zm0-1c-.1-.22.19-.16-.24-.48Zm-3.12.24v-.24l-1.68-.72A2.21,2.21,0,0,0,142.8,201.12Zm2.88,1.2c-.33-.46,0-.14-.48-.48Zm-.24-154.8-2.64-1.2L139.68,48C141.49,47.81,144.58,48.15,145.44,47.52Zm-1.2,26.64-.24-.24-.48.48.48.72.72-.72Zm-.24,44.4a14.1,14.1,0,0,0,5.28,8.16A22.48,22.48,0,0,0,144,118.56ZM139.44,65l.48-1.2h-1a3.24,3.24,0,0,0,0,2.64h.24C139.55,65.87,139.74,65.84,139.44,65Zm1-.72.48,2.88.72-.48.72-1.2ZM429.6,90.48l1.2.24c-.49-1.18-.82-2.27-1.92-2.88C428.8,89.28,428.75,89.92,429.6,90.48Zm-1-16.8-.72,1.68h1.2l.48-.48Zm.72,7.68-1.44,2.88a1.72,1.72,0,0,1,1,.24l2.64-3.12Zm-.48-12c-.77.76-1.27.7-1.68,1.92h1l1-1.92ZM428.16,89l-1.68,1v.24l1.92.24.24-.24C428.5,89.28,428.65,89.52,428.16,89ZM427,84c.45-.3.13-.21.24-.48Zm-1.68,117.36-1-1.44-.24.24ZM423.36,60.72v-.24l-1.2-1v1.2h1.2Zm-1.92,138.72.48,1.68h.48v-.72ZM420,195.36c-.45-1.34-1.23-1.23-2.16-1.92l1.92,2.88-1-1.68Zm-1.92-109.2.48.72.24-.72Zm-2.64-6.72-.72,2.4,1.68-1A3.39,3.39,0,0,0,415.44,79.44Zm.48,7.68v-.24c-.79-.59-.86-.75-1-1.44h-.72l-1,2.4Zm-4.8,110.16c.08.82-.08,1,.72,1.68Zm2.16-117.12-1.68,1.92v.24l2.88.72V82.8ZM409,41.52l-.48.72c.91-.46.49-.1.72-.72Zm0,37a4.34,4.34,0,0,0,4.32-.24h-1.2l1.2-.24-1.92-2.4-1.44.24.48,1.44c-1,.22-1.5.37-1.92,1.2Zm2.88-7.2-1.44,1.2.72.48,3.12,1-1-2.64ZM407,44.64l.24.72h.24C407.22,44.63,407.52,45.07,407,44.64Zm-1-2.16c.33-.51.44-.13.24-.72Zm-1.92-2.16.48-.24-.72-.48Zm1.68,35c.32.82.15.5.72,1Zm1-38.4a2.81,2.81,0,0,0-2.16.24v-1l-.72.48V37c1,.71.93.93,1.92,1.92V38.4C406.65,37.43,405.69,37.84,406.8,37Zm-7.2-8.16-.48,1,1-.24V28.8Zm-1.2-.72-.24.24.24.48.48-.48Zm-1.92-.72-.48-.72-.72,1.44Zm-3.6,27.12,1.92-1-1-.24Zm-1.92,12,1-.48-.48-.48c-.38-.65-.08-.33-.72-.72l-.72,1Zm1.92-43.68-1.92,1,.24.72.48.48,1-1,1-.72Zm.24,39.6L390,61.92l-.24.48.24.72c9.3,3.05,4-.17,7.92-5.76-1.47-.22-.84-.54-2.64-1-1.28.79-2.89.8-3.84,1.92l3.6-.24-.24.48a2.6,2.6,0,0,0-1.68.72,1.86,1.86,0,0,1-.24,1.68c1,.11.5-.24,1.2.48l-.48.72Zm-3.84-9.84a6.35,6.35,0,0,0-1.2,3.84h.24l.48-.24,1-1.44C389.74,53.59,389.89,53.16,389.28,52.56ZM385,69.36l-.72-.48-.48,1Zm-.48-35.76c.33.46,0,.14.48.48ZM385,199.68l-.72-1.44.24,1.44Zm0,.24.48.48C385.11,199.94,385.42,200.26,385,199.92Zm.24-139.2,1.44-.48-.48-.48h-1.44Zm0-3.6v-.24l-1-.24.48,1Zm1.2-2.88c.15-2.29,1.72-3,2.88-4.32l-.72-1h-.48l-.24,1c-.95-.19-.32-.54-1.2,0l.72,1.2-1.92-.48a7.2,7.2,0,0,1-3.12,3.6L384,55.92a5.72,5.72,0,0,1,1.2-3.36l.72.48.24,1.2Zm1.92,14.64c-.65.64-.76.64-1.68.48.4,1.46.82,1,.48,2.16l1.68.24Zm-1.44-13,.24.72.48-.24Zm0-22.56c.67.44,0,.17,1,.24v-.48h-.72ZM379.2,45.6c.54.73.68.8,1.2,1v-.24l-.24-.48Zm.48-5.76v.72l.72-.48Zm1.68,161.28a5.55,5.55,0,0,0-1.44-3.12A3.78,3.78,0,0,0,381.36,201.12Zm.24-135.84-1.2,1.2a2.12,2.12,0,0,0,1.68-1.2Zm-.72,4.08,1.68.48V67.2c-.5,1.26-.84,1.07-1.92,1.68Zm1,2.64h-.72l-.48.24.48,2.16h.24Zm-2.4-46.8.48-.24v-.24l-1.68-1.92C378.11,24.35,378.56,24.18,379.44,25.2ZM378,60.48c1,1,1,.71,1.2,2.4,1.31,0,1.12.1,1.92-.24v-.48c.47-.55,0,0,0-.72.89,0,.8.05,1.44-.72L378.48,60Zm-1,1.68h-.24l-.24.48Zm.48-4.56a2.67,2.67,0,0,0-.48,1.68l.48-.24V57.6Zm-.24-38.4-.72.48v.72l1.44.72Zm-.48,36.72c.54.5.25.4,1,.24Zm1.44,9.6-.48.24.48.72h.24l.24-.72Zm-.72-14.4,1-1.44h-1.2Zm0-3.36c.43.49,0,.17.72.48Zm-2.64,22.56-.24,1,1-1Zm1,4.08.24-1h-.48l-.48.48.48.48Zm.72-20.16h-.48c-.47-.5-.09-.25-1-.48l-.48,1.2Zm-.24-1c.55.37.29.44,1,.24ZM373,53l.48-1.44H373l-1.68-.24-.24,1Zm.48,11.52.72.48C373.73,64.55,374.16,64.87,373.44,64.56Zm-1.92-37.92-.72.48v.48H372l.48-.48ZM372,59.52c-1,2.22.12,3.39-1,6,.74-.36.77-.27,1.2-1C373,63.77,372.74,60.88,372,59.52Zm0,10.8c-.32-.92,0-.5-.72-1C371.6,70.18,371.43,69.86,372,70.32Zm-3.6,2.16.48.48C368.55,72.5,368.86,72.82,368.4,72.48Zm-1,127.92a1.72,1.72,0,0,0-.72-.72Zm.48-133c-.4,1.19.42.93.72,2.64-1.19.2-.71-.16-1.2.72a9.9,9.9,0,0,1,3.6-1V69.6l-1.68-2.16Zm.48-39.12-.24,1.44h.24Zm-.48,36.48.48-.24,1-1.2h-1c-.55.54-.62.23-1.2.48l.24.72Zm-3.6,131.28c.33.46,0,.14.48.48Zm.48-132c-.33-.46,0-.14-.48-.48ZM365,198.24h.72c-.27-.68-.21-.35-.24-1H365Zm.48-166.56-.24.48C365.73,31.86,365.41,32,365.52,31.68Zm-.24-1.2-1.44-1,1,1.92H365l.24-.72ZM365,64.08l-1.2,1.2,2.4,1.2Zm-2.4-49.92.24-.48h-.48Zm0,180a4.12,4.12,0,0,0-2.4-1.44ZM361,199l-1.44-1.2c.43.89.45.76,1,1ZM360,23.28l1.44.72-1-.24.24.48c1.86.8,2,2.83,2.64,4.56.46-.33.14,0,.48-.48l.72-.72a4.1,4.1,0,0,0-.72-2.64c-.77-.7-1.26-.38-2.16-1l1-.48-.48-.72a3.48,3.48,0,0,1-1.92,0Zm.48-2.4c-1.19-.37-1.19-.44-1.92.72l3.36.72V19.44l-1.44-2.88-1,1.92,1.44.24A3,3,0,0,0,360.48,20.88ZM360,23.76l-1.44-1C359,23.55,359.07,23.48,360,23.76Zm-4.32,45.12v-.24h-1l.71,1.41c-.07-.31-.15-.62-.23-.93Zm-3.36-40.8,1.44,2.4c1.56-.62,4.07-.56,4.56-1.92l-.72-.24C355.59,29.7,354,28.81,352.32,28.08Zm1,166.32.48,1.44h.72l-.72-1C353.43,194.42,353.74,194.74,353.28,194.4ZM350.4,60.72l1-.48-1.2-.24Zm-.24,139.92,1,1C350.75,200.93,350.77,201,350.16,200.64Zm1.2,2.64c-.33-1-.24-.71-1-1.2Zm-.48-136.8c.33.46,0,.14.48.48Zm.72-38.88c-.14-1,0-.72-.48-1.2C351.27,27.27,351.22,27.13,351.6,27.6ZM351.36,204l.48.48C351.51,204,351.82,204.34,351.36,204ZM351.6,4.08c1-.37.59,0,1-1h-.48l-1,.48v.24Zm-4.08,57.36-1-.72.24.48h-.48l.24,1H348Zm1.2-13.92c.88-.25.71-.2,1.2-.72h-.48Zm.72,20.4-.48.72.72.24h.24Zm0,137.52v-1l-.72-.24v1Zm-3.6,1.92a1.72,1.72,0,0,0,.72.72A1.72,1.72,0,0,0,345.84,207.36Zm-.72-10.8c.93.55,1.18,1.45,1.92,2.16a4.75,4.75,0,0,0-1.68-2.64Zm-.24-3.6-.72-.72A1.78,1.78,0,0,0,344.88,193ZM42.72,43.44l.48.48C42.87,43.46,43.18,43.78,42.72,43.44Zm.48,7-.48.72C43.42,50.61,43.34,51,43.2,50.4Zm-1-5.28c1.08-.29.77,0,1.2-1h-1ZM39.36,4.56v.72l.24-.72Zm.24,194.88a4.19,4.19,0,0,0,2.64,1.68C41.11,199.93,41.27,199.89,39.6,199.44Zm1,5.52.48.48C40.71,205,41,205.3,40.56,205ZM38.88,43h.72v-.24l-.72-.48Zm.24.24c.65.64.52.45,1.2,0ZM37.92,5.76l.48.72.24-.24ZM72.72,79l-.24,1.2,1.2.72Zm1-76.32H73.2l-.72.48v.24h1.2ZM73.2,76.8l.24-.48a3.51,3.51,0,0,0-.72-.72l-.48,1.2Zm2.88,120-2.64-1.68a5,5,0,0,0,2.64,2.4ZM72.24,40.56c.85-.73.21-.42,1.68-.24L72,38.64Zm.24-28.8H73c-.37-1,0-.59-1-1Zm-2.88.48.48-1h-.72Zm1.92-3.12-.24,1.2L72,9.6ZM70.8,3.84l.48,1.68c-.66.18-.8-.12-.48.48.75-.12.41,0,.72.24L73,5.52,72.48,5ZM71,33.36l.72,2.4,2.16.48-.48-1.92a1.39,1.39,0,0,0-.24-1.68C72.47,33.5,72.26,33.52,71,33.36Zm1.2-21.12c-.61-.64-.8-1.26-1.68-1.68l-.24,2.16L72,13.2h.24ZM68.88,36.48l.72-1.2L69.12,35C68.89,35.9,68.81,35.72,68.88,36.48ZM69.36,5,67.92,2.88V5.76h.72ZM67.68,34.56l1.68-1.2-.24-.48H68.4Zm.48-15.12L67,18.72l-.48,1.2h1.2l.48-.24Zm-1-8.16c-.08,1.45.08.68-.48,1.68h1c.33-.42-.05-.29.48-.24ZM65.52,1.92c.33.46,0,.14.48.48ZM66,24c0-.83.45-.42-.48-1v1.68l.48-.24ZM64.8,34.32l2.16,1a7.88,7.88,0,0,1,.66-4.06l.3.46,1-1.2-1,.17a8,8,0,0,0,.77-2.33l-1.68-1c.21-.81,0-1.3,1-1.92l1.44-.24c-.2-1.87.54-1.14-.48-2.64l-.72-.24c.25,1.46.61,1.51-.24,2.4-1.15-.57-.53-.63-1.68,0l-.48.72c.82,2.79,1.5,5.38-1.2,8.4ZM64.32,53v.72L64.8,53ZM65,35.52c-.39-.77-.44-1-1.2-1.44l-1.44,1.2,2.64.48Zm.24,15.12c-.38-.65-.08-.33-.72-.72l.24.72ZM61.92,24v2.64l1-.48.24-1.2Zm1.2,4.8c-1.75.21-2.39.61-2.16,1.68l2.16-.24Zm-1.2,20.64c.43.86-.13.28.72.72l.24-1H62.4Zm-2.4.72h-.24l-.24.48Zm0-.72L60,49l-.48-.24ZM60,41.52l.48.48C60.15,41.54,60.46,41.86,60,41.52ZM60,1.2c.11.66,0,.61.72,1.2V1.2Zm1.2,37-.48,2.64L61,41c1.45-1,1.95-.66,3.36-.72v1c-.66,1.06-1.47,1.55-1.44,2.64l1.2-1c.73-1.88,1.23-4.61,2.16-6.48h-1Zm-3.84-1v-.48h-.72c-.45.43-1.07.37-.72,1,.07.82-.17.52.48,1.2C56.6,37.85,56.66,37.7,57.36,37.2Zm2.88-15.12-2.4-.24,1,1.44Zm-1.92,7.68-1-2.4c-.6.79-1.18,1.15-1,2.16Zm1,12.48c-.5,1.2-.58,1.32-1.92,1.68v1h1c1.06-.82,1-.89,3.12-.48l-.24-.48V43Zm-.72,7.2.24-1h-.24l-.24,1Zm.24-10.32h.48L59,38.64ZM59,37l-.24-.24L57.36,38.4l.48.48h.24Zm0-11.28h-1l-.24,1.44,1.68,1.44ZM48.72,57.6l.48.48C48.87,57.62,49.18,57.94,48.72,57.6ZM50.16,30c-.46.7-1.29.12-1,1.68-.31.67-.48.68-.24,1.44,1-.57,1.32-.38,2.4,0V32.4ZM49,94.56l1.68,2.64c.69-.31.14-.36,1-.24Zm1.92-39.12-.72.48.24.48.48.24c.53-.49.45-.33.72-1.2ZM49.44,51.6H48c.33.77.12.37.24,1.44h.24l1.2-1ZM48,6c.89,1.06,1.62,1.11,1.92,2.88l1.92-1.2L51.12,7c-.38-1.12-.36-1.21-1.68-1.44Zm.48,59L46.56,63.6C47,64.61,47.33,64.72,48.48,65Zm-1.2-53.52L46.56,11l.24.72Zm1.68,0v-.24l-1-.48C48.47,11.69,47.9,11.19,49,11.52Zm1.2,34.08c-1.87.94-3.22,2.24-5.28,3.36l.72,1,2.64.72V49h1.2l2.4,2.4c-.44-1.36-.23-2.61,1-3.12l.72,1.92c.55-4.79,2.71-9.29-3.84-7.2,0-1.26.41-.76-.48-1.44l-1,.72c.46,1.8-.64.41.48,2.16ZM45.84,199.44l1.68,1.44v-.24Zm.48-163.68-.72,1L45.12,36a4.54,4.54,0,0,0,2.4,2.64h.72v-.48L45.84,37l.48-.24c.38-.59.38-.1,1-.72Zm1.44,8.4L46.08,43l-1.2,1.44.48.48h2.88ZM47,54.72l-1-1.68c-.84.89-.86.67-.72,2.16h1ZM43.68,201.6a1.78,1.78,0,0,0,.72.72ZM44.4,50.16l-.24-.48h-.24Zm1.92-40.8c-1,.47-1.22,0-1.68,1.2,1.56.11,2.36.25,2.88-.72ZM20.88,109.68v.72c.62-.1.13.23.72-.24Zm-1.2,2.64-1-1.92c-.7,1.36-2.23,1.28-3.12,2.4l-.72,1.44a18,18,0,0,1,5.76.24l.48-.72-.72-1.2-.72.72L18,112.08v-.24Zm-5.28-6-2.64,3.6.48.72c1.06-.72,2.26-1.69,2.4-2.64A1.51,1.51,0,0,0,14.4,106.32Zm-1.2-2.64c.33-.51.44-.13.24-.72Zm-5.28,96,1.44,1.92-.24-.48v-.72C8.75,200.45,8.78,200.31,7.92,199.68ZM6,199.92l1,1.44,1.2.48A4.8,4.8,0,0,0,6,199.92ZM35,47.76V47l-1.92-.72C33.65,47.33,33.71,47.5,35,47.76Zm1,2.4-.24.48C36.21,50.34,35.89,50.43,36,50.16Zm.24-42.48c.32.92,0,.5.72,1ZM32.88,58.56c.12-1.49.06-1.8-1-2.64a2.23,2.23,0,0,0,.72,2.64ZM31.44,103.2l-.48-1-.48.24.72.72Zm-6.24,3.12v-.72l-.72-1.2-1.68-.48-.24,1.92Zm.48-104.4-.48.72.48.48V3.6l.48-.24.48-1.2Zm2.88,97-.24.24,1,.72.48-.48v-.24ZM4.32,205.2c-.43-.49,0-.17-.72-.48Zm-.48,2.88L1,206.16A4.69,4.69,0,0,0,3.84,208.08ZM105.12,25.44l-.72.72h.48c.72.24.64.17,1.2-.24ZM105.36,198l.72.72C105.7,198.07,106,198.39,105.36,198ZM103.92,12l-.48.24.48.72.48-1Zm-.24,181.92,1,1.68,1-.24h-.72A2.07,2.07,0,0,0,103.68,193.92Zm-1-173.28.24.48.48.24.48-.24v-.24c-.32-.82-.15-.5-.72-1Zm-.24,2.88-.72,1.68,1.68.48v-.24Zm-.72,80.88v-1l-.72-.72c-.33.46,0,.14-.48.48.33,1,.24.71,1,1.2ZM99.12,90.72l.72-.72H99.6Zm-1.2,115.92v-1a5,5,0,0,1-1.44-.48C96.84,206.35,96.94,206.18,97.92,206.64Zm-4.32-6.48A5.54,5.54,0,0,0,97.68,203Zm4.32-7.44c.83,2.17,3.27,3.59,4.8,4.32l.24-.24-3.84-5.52.24-.72,1,.72c.49,1.09.65.54,1.2,1.2-.06.73,1.56,3.91,3.84,4.32l-1.68-1.68c-.67-1.92-2.08-2.39-2.64-4.32l2.88,2.64a3,3,0,0,1-.72-2.64l.24.72c1.3.66,1.77,2.74,1.92,3.36l.48-1,1,.72v-.24l-.72-1h1.2l.48.48c-.59.47-.1.14-.72.24l.48,1.92.48-.24-.24-1.68c1.66,1,1.31,1.4,3.6,1.92.48-1.44,1-.82,2.4-.48.43.87.49.85,1.44,1.2l-.48-.72,1.2.48c-1.82-2.27-5-3.18-6.48-5.76,3,.56,3,2.19,5.76,3.36v-1.44c1.55.83,1.34.79,2.4.72.69,1.06,3.14,2.3,4.32,2.88-1.28-2.13-3.6-2.84-5.28-5h.48l1.68.48c-.25-.63-.38-.4-.24-1l1.68,1.44-1.2-.72a8.32,8.32,0,0,0,4.8,4.32c-.64-.88-1.18-1.52-1.92-1.68l1.2-1-.24-1,.48.24a4,4,0,0,0,2.64,3.36L124.56,192l6.48,4.56.24-.72a4.6,4.6,0,0,1-1-1l.72.48c1.41.75,2.63,1.57,3.84,2.16.1-.91-.27-.3.24-1V197c.78.84,1.22,2.43,2.64,3.36l-1.2-4.08c1.6,1.08,2.45,2.81,4.56,3.36l-.48-1-1-.72c2.27.41,3.32,1.51,4.8,2.64h.24l.48-1,2.16,1a4.59,4.59,0,0,0-3.12-2.16c.23.86.31.68.24,1.44l-.48-.48-6.48-3.36-.24-.72c1.16,0,.82.23,1.44-.24-1.72-.4-4.13-.36-5-1.68.76,0,.83.25,1.44-.24-.7-.56-.55-.42-.72-1l4.08,2.4-.24-.72,2.88,1.44-1.2-1.44.48-.24,2.16.48c-.95-1.17-3.22-1.81-3.36-3.36,1.11,1.1,4.83,3.91,6.24,3.6l-.72-1.2,3.12,2.16c-.42-1.26-1.46-3.44-1.44-3.6l.24-1.2,1.2,3.6,1.68.48a20.74,20.74,0,0,0-.72-3.12c2.56.91,3.43,4.2,5.76,5.52v-.24c-.5-1-.83-.55,0-1.44v-.48l.48.24c1.24,3.26,5.63,5.36,7.44,6-1.53-2.07-3.29-3.25-5-5l.24-.48c2.62,1.5,3.92,4.38,7,5.28l-.24-.72a2.63,2.63,0,0,1-1.92-1.44v-.24l1.2.24-.24-1.68c1.38,1.6,1.11,3.59,3.12,4.08l-1.2-3.84h.24l2.88,2.64c.09-10.39-1-29.23-3.84-38.4-3.42-11.15-9.81-21.43-15.6-30.72l-5.28-6-3.84-9.12-7-8.4.24-1.2.48-.24c2.27.46,2.57,2,4.08,3.12,4.42,3.26,8.85,7.33,11.76,12,3.84,6.15,7.3,16.92,12.72,21.12.73-.3.29,0,.72-.48,1.8-1.93,1.62-15.17,1-19.2-2.73-16.75-5-30.65-7.44-47.76-2.74.43-2.13-3.18-3.12-6l-.72.48c-.38.65-.08.33-.72.72.55,2.61-.24,10.08-.24,10.08l-1-.48c-1.83-1-2-3.49-1.82-6.18s.76-5.31.62-7.26h-.72a8,8,0,0,1-3.36,3.36l-.24-1.2-.72.72L145.2,71c-2.81-.31-3.23.11-6.48.24v.24A9,9,0,0,1,139.2,77l.48.24c2.9-2.38,3.13-4.35,8.4-4.08l-.24.72c-1.93,1.5-7.41,8.18-9.6,5.76-1.14-.38-1.39-1-2.16-.48-.22.41-.2.82-1.2.48.69,2.87.23,9.37-3.84,10.08l-.72-2.64a10.43,10.43,0,0,1,2.4-3.36H128.4c-1.35,1.16-1.11,3.13-4.32,3.36L124.8,90l-2.4-1.68a5.81,5.81,0,0,1-5,4.8c-.33-.46,0-.14-.48-.48v1.92c.71-.58.49-.7,1.68-1v1l-1.44,1-1-.72-.24,1.44c1.12,1.47.79,2.27.24,4.32l-.72-.48.48-2.4h-1.68c.31-1,.45-.81,1-1.44h-1l-2.16,2.4c-2.14,0-2.26-.48-3.12-1.68l-2.16.72L107,93.6l-.72.48a5.76,5.76,0,0,1-2.16,2.64c-.73-.3-.29,0-.72-.48l.24-4.32-.48-.24c-2.46.78-5.51.85-8.4,2.16v.24c.66-.17,4.13-.64,5.52,0,1,.47,2.38,2.5.24,2.16l-.24.24c.35,1.37-.3,1.68-1,2.64a3.85,3.85,0,0,0-2.64.48l.24.48a10.29,10.29,0,0,1,6.48,4.56l.24,3.12c-1.9-.85-9.85-5.39-10.56-7-.78-1.73,1.92-3.46.48-5.52-.6,0,.4-.52-.72-1-1.45-.57-1.48.18-2.88-1l1-1.2-2.16-.72a12.64,12.64,0,0,1,.72,4.8c-4.28.59-6.74.33-9.36-1.68l.72-.72a5.69,5.69,0,0,1,1.2-1.2c3.12-.08,3.69.79,5.52,1.68l-1-2.88h-1l.72-1c-2.51-.7-4.07-2.76-5.52-4.56l-2.64,1.44.24-1c-.76.65-.86,1.58-1.2,2.64,2.45-.3,4.44.23,5.76,1.68V91h-.48c-1.92.8-4.58-.61-5.76-.72.06,2.2.08,4.73-.48,6.24L75.6,96c-.38-1-.88-1.16-1.68-1.68,0-1.91-.28-1.5-.48-3.36h.24v.48l1.2,1.68.48-.48.48-2.4c-.54.29-.6.26-1,.72-.88-.25-.71-.2-1.2-.72l1-4.08-.48-.24c-1.13.41-1.14,1-1.92,1.68-2.2.06-1.7-.19-3.12-1v.24l.72,2.64c-3-.91-1.71-4.46-1.92-7.2l-3,3.27-.17.09v.11l-1.2,1.33.48,1.44.72.24v-3c.06-.07.12-.13.17-.2l.79-.39.48.24a5.6,5.6,0,0,1-.48,3.6l1.92,1H67.2l-1.44.24c.4,1.47,1,1.76,1.2,3.6l-1,.72c-2.34-.72-2.27-2.42-3.36-4.32l-.48.24-2.88,4.8c-1.44-.08-3.08-.11-3.84.48a4.66,4.66,0,0,1,2.4,2.88,6.13,6.13,0,0,1-3.6,0c.66,1.14,1.23,1.44,1.44,3.12h-.24v-.48l-4.08-3.36c.41,1.86,2.69,3.25,1.68,4.56l-1,.24c-1.62-1.19-3.68-1.64-4.32-3.84.91,0,.48.48,1-.48l-.48-2.64L46.8,97,47,96a6.67,6.67,0,0,0-2.16,1.68l-.72,1.2.72,1v-.48l.48-1,.48.24c1,2.64,3.56,5.53,1.44,8.64H47c-2.24-.44-1.85-2-2.4-4.08a3.84,3.84,0,0,1-2.16,1c.37-1.46.47-1.72-.72-2.64l-1.44.24V102a4.26,4.26,0,0,1,.48,3.36h-.24l-.72-.48A4.15,4.15,0,0,0,38,101.79a.08.08,0,0,1,0,0c1.56-.48,1.24-.75,3.31-.71a5.48,5.48,0,0,0-1.44-3.12l-.48.24c-.47,1.2-.93,2.39-1.39,3.59h0l0,0-.27.69c1.26.39.48.22,1,1-1.59-.5-1.48-.55-2.88-.24a5.11,5.11,0,0,1-1,3.6l-.72-.48c-.19-2.4.71-2.68-1.92-2.16.43,2-1.19,1.52-1,3.36l-1.2-.24-.48,2.16h-1a6.86,6.86,0,0,0-2.4-2.64,7.1,7.1,0,0,1,.72,3.12l-2.4.72c1.38,1.77,1.36,3.92.24,6.72-1.2-1-1.38-2.15-3.36-2.4l1,2.4h-.24l-1.2-1.44a3.09,3.09,0,0,0-1.68,1.2v-1.2c-2.6-.11-3.58-1.43-5-1l-.48.72.24.48c1.55.54,1.85,1.36,2.4,2.88l-.72.48c-3.18.62-7.68-.19-8.88-2.88.85,0,0-.37,1-.24,0-1-.22-.5.24-1.2.62.86.73,0,1.68-.72l.24-1L7.92,115c.14-1.15.47-.91,0-1.44l-1-.24.48,1c-2.23.44-3.42,1.06-5,.72v.48c-.57,1.47-.24,3-1,4.56L0,120.72v-8.64a5.34,5.34,0,0,0,2.88-.72l-1.2-.72c.08.24.16.47.23.71L0,109.92l.24-75.6a3.24,3.24,0,0,0,.24.91v.05h0a4.19,4.19,0,0,0,.7.49h.24l-.24-1-.7.47,0,0L0,28.08V0H43.2L43,.48,42,.24c.42,1.07.47.71-.24,1.68-.84-.22-.76-.38-.72.48a2,2,0,0,0,.24,2.16c.64.56.35.31,1.44.24l.48-.72L43,5.52c-.49.43-.17,0-.48.72,3.29-.46,3.83,1.62,5.76,3.12-1-2.17-1.25-3.65-4.08-4.08l.72-1L47,3.6C45.76,2.46,45,2.17,44.16.48L44.4.24c.85.67,1.68,1.21,2.64.48h.48c-.43-.49,0-.17-.72-.48V0l2.4.48.24,1.68-1.68,1.2c2.29.2,3.36,1.19,5.28,1l-.24-1a3.74,3.74,0,0,1,1.68.72c.2-.84-.3-.35.48-.72A4.64,4.64,0,0,1,53,0h2.4l.48,3.12,1-.72L57.36,1l1.92.48L58.08,0c3.35-.1,5.6.17,7.44,1.2-.1-1.4,1.83-1.84,3.36-1L71,0V.72a18.15,18.15,0,0,1-1.2,1.92l1.2,1A5.65,5.65,0,0,1,75.36,0a9,9,0,0,0-1.2,3.6c2.5.24,4.25,1.21,6.24,1-1.26,1.22-3.71,1.08-5,1.92.49.55.61.41,1,1.2l-1.68.24A5.44,5.44,0,0,0,76.8,9.6v1H75.6L77.28,13,77,13.2l-1.44-1,.24,1-1.2-.48.72-.48-.48-1.44-.72,1c-.19,2.11-2,3.2-2.8,4.73a3.19,3.19,0,0,0-.32.79L70.56,17l.24-1.92H69.6v.24c.58,1.35,1,2.08.24,2.88a3.11,3.11,0,0,1-1.44-1.92l-.48.48-1,.48.24.48c1.7.6.91,1.17,2.88,1.2l-.72,1.2c2.11.25,2.09,1.5,3.6,2.16v-.24c-.21-1.71-.37-3.07.48-4.32L83,14.4a20.41,20.41,0,0,0-1.2,2.88h-1v-1l-2.4.72.72,1.68-3.6.72v.72l.24.48c2,.05,1.94.49,2.64,1.68l-.72,1.2c1.24.08.61-.18,1.44.48l-.48.72c-1.89.54-2.75.07-4.56-.48-.37,1-.58.8-1.2,1.44v.24h.48c2.37.17,3.23,1.24,5.52,1.92,1.91.56,3.72-1.06,5.76-.24l.24.24.24.24A4,4,0,0,1,86.88,30l-.48.48c-.48,1.05-.84,1.23-2.16,1.44l.24.48,3.6,2.88,2.4.24c-.74-2.26-2.66-1.44-4.32-2.64l3.6-.24v-1l-1.68-3.12L90.24,30l1.2-.24V28.08l1.44,1,.48-.72.48-1.92-4.08.24-1.2-1.92a5.47,5.47,0,0,0,3.6-.72l-.72-1.2,1.92.48c.52-1.68,1.48-1.47,2.64-2.4l.48-2.64c-.82.59-1.78,1.31-2.88,1l-1.2-.72c1.06-1.42,2.4-1.57,5-1.44l-.72,2.88H97c.24-.75.2-.77.72-1.2l-.48,1.2,1.44-.48c-.27-.91-.52-.25,0-1a10.06,10.06,0,0,1,1.68-1.2c-.57-2.57-.68-2.74.72-4.56,1.92-.59,2.7-1.76,4.32-2.64l-.24,1,.24.48c-1,1.66-2.91,2.12-3.6,3.84,1.89-.35,2.29.94,2.88,1.68l-.72,1c-2-.13-2.29-.08-2.88,1.2,1.17-.42,1.95.24,3.36,0,.46-1.75,1.81-2.9,3.12-2.4l.48,1.44h1.68a5.9,5.9,0,0,1,2.16-4.32v.48c1.85,4.66-4,6.54-5.76,8.64,1.71-.17,4.2-.4,4.8-1,.16-.14.31-.3.45-.45l.27.21.59.3.37.18,0,0c-.19.17-.36.33-.51.45a25,25,0,0,1,2.64,3.84l3.84,1.2c-.49-2.21-1-3.21-.24-5h1.92l-1-.72c.4-.84.34-1.5,1.2-1.68a10.83,10.83,0,0,1,2.64-1l-1-1.92c2.43-.91,3.06-2.4,6.48-1.68l.48-1.92h.24l.24,2.16,1,.48,3.12-1.92-.48-.24a10.29,10.29,0,0,0-4.08-.53c-2.68,0-5.52.26-7-1.39h.48c2-3.28,7.42.22,10.08-.48v-.24c-.38-1.06.34-1.78.24-2.64C132.71,7,130.62,6,130.32,3.6l.24-.48h.24c2.4.33,3.7,1.93,5.28,3.12l-.48-2.16c1.31-.23.68-1.81.48-4.08h7.2l.48,1.44c.72-.4.58-.4,1.2-.48l1.92,6h.24a4.35,4.35,0,0,1,1-3.12c1.24.15,1.26.71,2.4,1.44L150.72,0h12.72c.26,5.13.27,14,2.16,18.48l1.92-.48c.13-1.17.37-2.57,1.2-3.12,2.1-1.33,5.59-.22,8.4-1L177.36,0h7.2c0,6.46.22,10.87.24,15.12H185c1.16-.63,4.84,1.21,5.76-1,.82-.32.5-.15,1-.72l-.24-.24c-2.21,1.18-4.4,1.1-5.76-1l.48-.24c.59-1.06,1.29-1.15,2.64-1.44-.77-3.34-1.69-5.91.24-8.64l.72.24,1.2,1.2c.54,2.51,0,3.47-.72,5.52L193.2,7.2c-.59-1.18-.94-1.91,0-2.88.05.94-.17.72.48,1.44v-1l1.2,1.68c.06-3.19,1.94-4.35,1.68-6.48h5.52l-1.44,4.56-.48-.24c-.37-1.15-.69-2-1.92-2.4l-2.4,5.76c1.38-.06,8-2.49,8.64-4.8h-.24l-1,.48V2.16L205,0c2.71-.1,5,0,6.48,1L213.6,4.8V4.32l.72-1.2c-.33-1.42-1-2-1.68-3.12h3.84c.1,1.51,1.4,4.69,2.4,5.52l1-1c1.8-.61,2.36-3,2.88-4.56h53.76C287,0,300.4-.46,308.64,1l-.48.72c2.9-.38,4.15-1.69,9.6-1.68l1,2.4h1V0h2.88c.3,1,.53,1.72,1.44,2.16L323.52,0h5.76V.24c-.51,1.22-1.41,3.29-1,4.56l1.2,1.68c1.23-1.21,1.39-1.94,3.6-1.68V4.08c-.48-.86-.44-1.6-1-2.64l1.2-.48-1-1h10.08V.24l-.24,1.68.72-.48L343.44,0l8.16.24-.72,1.2h1c.87-2,4.33-1.6,7.2-1.44,0,2-.38,3.19-1.44,4.08l-.48-1.44-1,1-1,.72,2.4.48C357,6.37,356,6,355,7l-.48,2.16c1.19.5,1.58,2.13,2.64,3.12l2.64-1.2c.16,1.18.05.88.72,1.44V12c.73-1.63,1.28-3.82,2.16-5.76L358.56,7l.24-.48c.34-2.13,2.65-4.47,3.84-6.48h5.76c-.51,2.24-2.1,2.88-3.36,4.32v.24a4.4,4.4,0,0,1,2.88,1.68v.24l-3.6.24c.93,3.3-1.33,4.35-2.4,6.24l1.44.72c-.18,1.05-.74,2.75.48,4.08.42-3.07,2.66-4.87,6-4.32l.48.48.48,6.48c-.37,1.33-.59,1-.72,2.64l-.24-.48c-1.07-1.81.58-4.26-.24-6.48v.48l-3.36,3.12v.24c2,1,2.56,3.3,4.56,4.08l1.44.24c-.4-.83-.56-3.86.72-5.28a2.68,2.68,0,0,1,1-1c2,.9,1.74,1.18,3.36,0l1-2.88.48.48c2.13.76,2.8,3.28,2.88,6l1.2-1,.24-.72a18.4,18.4,0,0,1-.72-10.32h1c3.05,2.89,3.25,7.37,2.88,12-.13,1.58-1.54,1.92-1,3.12l1-1.92c7.3-1.87,4.61-4.7,9.36-7.44a4.56,4.56,0,0,1,1.92,1.92c1.26,2.61-.17,6.26-.24,9.6h.72c.87-2.07,2.49-2.86,4.56-3.6a3.68,3.68,0,0,0,2.64,3.6l.48.24,1-2.88,1.68,1,.48-1.92-1.92,1c.51-1.44,1.29-1.84,2.4-2.64l2.16-.24v.24l-2.16,4.08c1.37,0,1.62-.08,2.16.72,1.31,1.94-.31,3.64-1,5a9.92,9.92,0,0,1,6.72-.24v.24c-3.31,0-4.56,1.23-7,1.92l-.24,1.92h.24L415,36c3-.82,2.52-2.24,7.2-1.68-2.36,3.43-9.24,2.79-10.8,6.72l5,.48-.48,1.2c3.79.5,7.22,2.64,6.72,6.72h-.24c-3.82-1.36-5.43-2.91-8.16-5l-1.92.24.24.48c3.53,1.48,4.33,6.64,5.76,10.08l-3.12.24.72,1.68c1.76.12,2.77-.12,4.56.48-.41-1.18-.4-1.75-1.68-2.16.52-1.86.59-4.45,2.4-5.76,2.88,1.47,2.33,3.32,2.88,6.48l2.35.24H426c-.57.45-1,.49-2.16.48.29,3.17,1.39,3.43,2.4,5.76h.24l.72-.24c-.39-1.52-1.07-2.23-.72-4.32l1-1,.72.72-.24.48c1.38-.41,1.63-.27,2.88.48.09,1.33,0,1.25,1,1.68l-.48,1.44.48.24,0,1.07a5,5,0,0,0-3.15.85l1.44.24-2.16.24c.22,1.42.6,1.13.24,1.92l-.24,1.2-1.2-.72-.24,1.2.48.24,3.6-1.2,1.44,5c1.44-.95,4.32-1.68,6.24-1,.9.48.88.93,1.44,1.68L439,75.6l-2.16,1.68c.94,2.5-1.6,3.12-3.36,4.32.95,1.13-1.13,1,.48,1.68l.24.48c0,2.26-.45,2.29-1.44,3.36l.24.72c3.72-1.82,7.51-2.75,10.08.48-3.85,1.13-7.88,2.74-12,2.4V91c2.72.51,7.32,5.57,7.68,8.4-2.53-2-5.71-3.59-8.4-5.52h-.24v2.88l-.48-1v1l-.72-.48a5.45,5.45,0,0,0-1-2.4l-3.36-1.2-1.44,1.44v.48c1.83,1,5.1,6,3.12,8.4-.35-3.24-2.81-5.88-4.56-7.92l-1.44,1.44-.24-.72c-.06,1.07.26.54-.24,1.2v-.48c-.54-.55-.35-.61-1.2-1-.23-2.53.95-3.18,1-4.8a5,5,0,0,0,3.6-.48c-1.2-.28-2.63-1.5-3.6-1,.73.3.29,0,.72.48l-.48.24c-1.06-.38-6.26,1.37-7.44,2.64-.51-1.26-1.51-1.58-1.44-2.64-.74.48-3.9,3.16-5,1.44-2.39-3.59,4-6.29,7-6.48l-4.8-1.2-1.44,1.68c0-1.09,0-1.41-.48-1.92l-4.56-1.44c0-2.1.57-2.84,2.4-3.12.58-.89,1-.26,2.16-1-.27-.68-.21-.35-.24-1-.95.4-.73.42-1.68,0l-.24-.72.48-.24,1,.72.24-.72-.24-.72L403.2,73l2.16-1.68a5.94,5.94,0,0,1-.72-3.12,13.17,13.17,0,0,1,4.56,2.64,3.7,3.7,0,0,0,3.12-1.68A11.36,11.36,0,0,0,407,65c0,1.27.33.7-.48,1.44a6.07,6.07,0,0,1-3.36-2.88c-.95,1.06-1.48,1.84-2.64,1.44.06-3,.45-3.86.24-6.72l-1,1c-1,.84-1.89,4-2.4,5.28,1.51.25,3.72,1.78,2.88,2.64-1.4,2.79-6.27.62-8.88,1.2l.48.24,2.16,3.12-.24.72-.48.72c-2-.07-2-.48-3.6-.48a11.09,11.09,0,0,1,2.4,4.08l-.48-.24c-1.94.5-3.69-1.1-4.32-2.64h-.24l-.24,1.68c2.51,1.61,3.72,3.65,5,6.48h-.48l-2.88-.24a44,44,0,0,1-4.8-8.4l-.48.24c-.51,2.25-2.09,7.78-3.84,9.12v-.48c-1.68-1.83,0-4.63,1-6L378,73.44h1c-.57-.45-1-.49-2.16-.48v.24c1,2,1.52,4.15.24,6h-.24c-1.25-.52-1.29-1.07-1.2-2.88l-1.68.24v-.24c.9-1.79-.48-1.62-.72-4.32-1.11,0-1.06-.39-2.64-.72l1,3.36c.62-.55.45-.56,1-.72v.48a3.26,3.26,0,0,1-.24,3.6l-2.64.48a16.22,16.22,0,0,1-7.68-7v-.24h3.84V71c-1.06-1.23-4.76-4.43-6.72-4.56-.61,3.21-1.59,3.45-3.36,5.76h4.08v.24l-2.4,1.44v.24l3.6,1.68c.42-.53.42-.64.48-1.68l1.2,1c.61,1.83,2.3,5.17,1.44,7.44l-.72,1c-3.52-1.73-5.19-6.71-7.92-9.36-.18,2.27-1.42,2.53-1.92,4.08-1.7,5.22.08,7.94-4.56,10.08h-.24V87.6c-1.14-4.22,2.69-6,3.36-8.88.28-1.21,0-3,.24-4.32l-.48-.24c-2.22,2-7.81,5-11.28,5.28L337.92,79c-2.7,1-3.05,4.6-7,5l-.48-.72c.89-.81,2.24-1.31,3.12-2.88-4.55,2.12-5.5,5.81-6.68,9.88l0,0,0,.06A26.4,26.4,0,0,1,324.24,97c-4.21,6.9-9,14.85-11.76,23.28l-2.64,14.4.72,10.08.48,24c0,10.94-1.9,24.83,1,33.84l.48-.24-.24-1,1,.72V205c.73-.47.25-.08.48-.72.4-.66-.06-1-.24-2.4l1,1,.24-.24c-.21-.86-.35-.7,0-1.44l1,.72,1.44,3.6.48-.48-2.4-4.08,1-1.68.24,1.44V199.2l.48.24.24,1.2c.7-.15.13-.41.72,0l1.44,2.64c.9-.7.27-.39,1.68,0l-.24-1,.48.24.72,1.44.24-.24c.34-2.26-.27-2.49-.48-4.8l.48.24,1,1.68v-1l-1-2.88h.24a8.48,8.48,0,0,0,2.16,4.32L324,199h.24a7.49,7.49,0,0,0,1.68,3.6c0-.62-.05-.62,1-1l.24,1.68h.24v-1.92c-1-.3-1.15-.82-1.44-1.44l.48-.24,2.64,2.4c-.14-1.29-.46-1.24,0-1.92a7,7,0,0,0,1.92,1.92c.05-.53-.18-.77.24-.48,1,.91,1.15,2,1.44,3.6h.24c-.05-1.27-.2-1.24.24-1.92l.48,1c.1-1.25-.16-1,.72-1.44l1,1.44c-1.14-2.28-2.54-3.59-2.16-5.76h.48c.33,1.65-.3,1.55.24,2.16l.48.72c.75-.69-.05-.28,1-.48l1,1.44c.59-.95-.06-.47,1.2-.48v-.24c-.4-.8-.76-1.27-.48-2.16v.48l2.16,3.36c.63-1,0-.24,1.2,0v-3.84l.48.24,3.84,5.76.24-.48c-.31-1.1-.37-.43.24-1.44l-.72-.72,2.16.24-1-1.2a5.93,5.93,0,0,1,2.64,2.16l.48-.48-3.6-4.32,1,.24h.24v-.24a43.8,43.8,0,0,1-4.08-7.92l1.44,1.2-.24-1.68,1.68,1,2.88,4.32-1.2-.72a13.45,13.45,0,0,0,4.8,4.56v-.72c.77-.4.27.12.48-.72L348,193.92c1.81.59,2.46.86,4.08,1.44-.14-1.58-.29-3.15-.43-4.73a8.37,8.37,0,0,0,2.83,3.05l-.72-3.6H354c.69,2.93,1.65,5.23,4.08,6.48a5.47,5.47,0,0,1-.48-2.88h.24c1.52.66,5.49,5.47,5.76,6.24h.24l-.48-1.2.72.24c-1.21-3.31-4.44-4.77-5.76-7.92l1.92.48a3.1,3.1,0,0,1-1.2-2.16c1.38,1.11,1.91,2.79,3.6,3.6l-.48-1.2,2.88,2.88-2.4-4.08c.82.5,0-.26,1,0a5.43,5.43,0,0,0,2.64,3.12l-3.36-5,.72-.24h.24c.86,2.28,3.76,5.07,6,6.72-1.15-3.34-4-5.16-4.56-8.64H366c.18,1.17,3.78,7.25,5,8.4l.24-.72c.12-.75-.27-.16.24-.72-1.7-1.42-3.65-3.47-4.08-6h.24v.48l2.88,4.08.24-1,.72,1,.24-1.2H372c0,2.58.7,3.22,1.44,4.8h.24l-.24-4.32,1,.72,2.4,4.32c-.14-1-.28-1,.24-1.68h.24l.72,3.6.48-.48c-.53-1.32-.4-2.21-.24-4.08l.24.48,1.2,2.4v-1.68c-.42-.18-.52-.89-.72-2.16l3.84,4.56-.48-1.92h1c.89.56,2.11,2,4.08,2.88l.24-.48-1.44-3.12.72.48,1,1.68c.33-.46,0-.14.48-.48l-.24-1-1-1.44c1.51.93.41.46,2.4.24l1.2,2.16c.43-.63,0-.33.72-.24,0,.6,1.19,1.5,1.68,3.36l.48-.24V199l-.3-.72-.9-2.16.48-.24c.68.27.35.21,1,.24l-.24-1.2c1.25,1.09.37,2.88,1.92,4.8h.24a18.08,18.08,0,0,1-.48-5.52l.48.24a7.87,7.87,0,0,0,1.92,4.32l-.48-.72c1.27-1.13,0-3.23-.48-4.8a27.89,27.89,0,0,1,3.14,5.29h0l.05.08,0,.06v0c.85,1.7,1.57,3.28,1.83,3.92l.48-.48-1-1.44H402l-.48-1.44,2.64,2.4-1.92-3.12c-.93.34-.29.52-1,.24l-1.92-3.6.48-.24.48.24a3.94,3.94,0,0,0,1.92,1.68v-1.2l-1.2-1.92c1.9,1.21,2.43,3.6,4.08,5l-.24-1,1.44,1.44V199c-1.22-2.74-3.18-4.9-3.84-8.16h.24c.63,1.08,2.65,4.85,4.07,6-.39-.72-.79-1.43-1.19-2.15h.72c.38-.38,0-.08.48-.24a3.77,3.77,0,0,0,1.68,2.64c.63-.53-.05.21,1.44.48l-.48-.72-1.92-4.8c.46-.33.14,0,.48-.48l.48.24c.19,1.44.59,2.94,1.68,3.6v-1.2l.72.48,1,1.68c0-1.08-.22-1.19.48-1.92l1,1.44-.48-1.68.48.24c.84,2.35,2.15,2.68,3.36,4.08l-.24-1.2.48.24c.32,1.23.75,2.9,1.68,3.6v-.48c.55-1.81-.87-2.38-1.44-4.8l2.4,2.88a39,39,0,0,0-2.64-6.48,34.65,34.65,0,0,1,5.28,2.64l-.48-1.44c1.15,1,1.42,2.34,3.12,2.88v-.24l-1.44-1.92v-.24c1.51.45,1.88,1.52,3.12,1.44l.48.24c-1-2.09-2.88-3.41-3.6-6l.72.48c.47,2.22,4.08,6.22,6.24,7.2l-.24-1.68c1.3,1.09,1.52,2.5,3.12,3.6l-1.2-5.28c.77-.17.38-.08,1-1h.24c.21,1.09,0,.71.72,1.2v-.72l-1.44-4.08.48.24a23.88,23.88,0,0,0,5.52,8.88h.24l-.48-1.68c1.81,1,1.6,2.27,2.4,3.36v-.72l1.2.72-3.6-6.72c2.07,1.08,4.75,4.65,7.44,5.28v-.24l-2.4-4.8c1,.16.07-.36,1,0a4.08,4.08,0,0,0,2.64,2.64l-.72-1.92.72.24a8.77,8.77,0,0,0,3.12,4.8l-.72-2.64.24-.24,1.2,1-1.44-4.8.24-.24,1,.48v-2.88h.24l1.44,3.36h.24l.24-1.2v.48l2.16,3.36c-.26-1.63-.9-2.38-1.44-4.08l.48.24.72,1-1-2.64.48-.24c.36,2.6,1.72,4.49,2.64,6.48h.48c-.57-2.53-2.58-4.26-1.92-6.48l.24.48,1.44,3.36.48-.48-.24-.72c.87,1,1,2.08,2.16,2.88V194.4a20.53,20.53,0,0,1-2.16-5.76h.24l.24.48c3.4,3.74,3.12,12.65,3.12,21.36V259.2H0V219.6c0-4.46.51-12.27,0-14.4a15.73,15.73,0,0,1,6,3.12c-1.15-2.57-4.66-3.51-6-6l1.44.24c-.68-.49-1-.37-1.44-1.2,1.81.45,1.3.08,3.12,1.2L1,200.16l2.64,1.2c-.94-1-3-1.67-3.6-2.88,1.42.66.57-.14,1.92.24.76,1.37,2.84,2.28,4.32,2.88-1.37-2.06-4.07-3.59-5.52-6.24,2.77,1,3.81,3.49,6.72,4.32v-1c2.09.92,4.51,3.67,6,4.08.44-.6,0-.36.68-.25l.52.73-.48-.72h0l-.68-1c1.14.2.58-.2,1.68.48a8.31,8.31,0,0,0,2.64,4.32l.72-.24-2.88-4.32.24-.24c2.8,2.19,3.63,3.3,7,4.08-1.26-1.07-2.84-1.78-3.6-3.36,2.09,1.08,3.44,1.72,5.52,2.88-.44-2.06-2.08-2.52-2.88-4.32,1.63,1.22,2.89,4.29,4.32,4.8.18-.29-.1-.29.24-.24l1.68,1-1.2-1.68.48-.24c.67.45,1.55,2.11,3.12,2.64l-.24-.72-1-1,3.6,1.92c-.48-1.45-1.24-1.34-1.68-2.88l3.6,1.44c-1.64-2-3.31-4.38-5.28-7l4.08,2.88v-1a16.68,16.68,0,0,0,5.52,4.32c.74-.35.2-.29,1.2-.24l-.48-.72c.84-.2.35.3.72-.48-1.1-1.35-2.92-2.55-3.6-3.6,1-.19.33-.52,1.2,0-1,.23.43,1,1,1.2-.63-1-.77-.62-.48-1.44.47.73.08.25.72.48v-.24c-.6-1.38-1.43-2.2-1.68-2.88l3.36,1.2-.48-1,1.2-.24c.42.58.25.4,1,.72v-.24L41,195.6l.24-.24,8.4,5.28-4.08-3.12,2.88,1.2c.13-.7-.19-1.18.48-.72l-2.4-2.88c1.11-1,.45-.54.72-1.92l4.56,2.88-1.2-1.44,2.4,1.44-2.4-2.88c1.66.39,2.51,1.35,4.8,2.64-.95-2.47-4.31-2.94-4.32-5.52,3,2.32,4.57,4.68,8.4,6l-.72-1.2.24-.24c1.41.74,1,1.21,2.64,1.68l-.24-.48.48-.24-6.24-6.24.24-.24c1.78,1.36,3.12,2.94,4.8,3.84l.24-1.68V192c1,1.83,1.24,3.13,2.88,4.32h.24l-1.2-4.56c.92.58,2,1.77,1.92,2.64l1.44-.24a4.11,4.11,0,0,0,2.88,3.36c-.13-.77-.29-.33.48-.72l-3.12-3.36c3,1.12,4.1,3.33,7.44,5.28l-2.64-2.88.24-.48,1,.72a5.77,5.77,0,0,0,2.4,1.92c-1.14-1.51-3-3.34-3.12-5l2.88,1.68,1.68-.48v-1.44a3.22,3.22,0,0,0,2.4,1.44l-.24-1,.72.48a2.5,2.5,0,0,1,0,.25h0s0,0,0,0c0,.59-.18.43.7.94-.24-.31-.47-.63-.7-.94h0l3.1,1.67L79.44,193l.48-.24.48.48,1.92,1.2.48-.24-2.88-2.88,6.48,3.36-1-1.44,1.92,1.2-.24-1,1.2.72a6.13,6.13,0,0,1-1.2-3.12h.24v.48l1.2,2.64,1.44.24c-.24-1.45-.84-2.51-.48-3.12h.24l1.92,2.4h-1.2l.24.48,1.2.48.24-1.44,1.68,1.44.48.72c1.14-.77,1.19,0,2.4,1a4,4,0,0,0,2.16,2.16l-3.12-4.08h.72l-.48-1c1.78,1,2,3,4.08,3.84l-3.6-4.8L97,192Zm316.8-131V60.24C414.52,61.05,414.19,60.9,414.72,61.68ZM409.92,60v-.24l-1-.48-.72,1.44ZM389.28,43.44,389,43h-1.2l-.48.72v.24l1.68.24Zm-5.52,161.28-.24-.48h-.24ZM363.84,54.48h-1l-.72.72v.24h.24A2.54,2.54,0,0,0,363.84,54.48Zm-1.92-10.32-.48-1,.24,1ZM359,36.48l.24-.72H359ZM349.44,13c.23-.42.22-.05,0-.48Zm-1.68,59.28L347,72l-1,1.92C347.19,73.54,347.26,73.16,347.76,72.24Zm-3.6-63.36c-.43-.83-.49-.87-1.44-1.2L343,9.12C344,8.61,343.3,8.59,344.16,8.88Zm-12,3.6-.48-1-1,.72v.24l.72.24ZM316.08,56.64l.24-1.2L314.88,54c.11,1.1-.31,2.14.48,2.88Zm-.48-6.72c.43-.32.36,0,.24-.48Zm-39.36,6.72c.33-1.12.72-1.52.24-2.16L275,55.68ZM257,43.92h-.72C256.73,44.52,256.46,44.2,257,43.92Zm-3.84-1.44-.72.24V43C253.33,42.8,253,42.77,253.2,42.48Zm-3.84-11.76-.48.24v.24C249.5,30.93,249.29,30.82,249.36,30.72Zm-8.16,5.52.48-.72h-1l-.24.48Zm-11.76,6.24-.48-.72h-.72v.48l-.48-.24C228.26,42.51,228.38,42.44,229.44,42.48Zm-11.28-28.8-.48-.48C218,13.66,217.7,13.34,218.16,13.68Zm-6.72,30.48.72.72C211.78,44.23,212.08,44.55,211.44,44.16Zm-3.12,11.28c-.25-.88-.2-.71-.72-1.2C207.67,55.39,207.1,54.91,208.32,55.44Zm-5.76-4.8,1.2.48c-.24-1.06-.16-1-1-1.44Zm-3.12,4.56c.23-.42.22-.05,0-.48Zm-3.6-4.56.48-.48-.48-.24Zm-41.76,7.92-1.44-.24v1.44C153.73,59.48,153.68,59.55,154.08,58.56ZM148.56,28.8l.48-.48h-.24Zm-.72,27.84-.24-.48h-.72l-.24.48.72.24Zm-5,4.56-.24-1v1Zm-.24-7-.72-1-.72-.24c.15,1.35.12,1.11,1,1.68ZM141.12,6.72l-1-1.44-.24.24ZM121.68,31l.24-.72h-.72Zm-5,57.36v-1.2l-.24-.48h-1c0,.93.12,1,1,1.68Zm-4.08-49.2-.24-.72-.48-.48h-1.2A2.86,2.86,0,0,0,112.56,39.12Zm-43.44,8.4v-.24l-2.16-1c.14,1,0,.72.48,1.2Zm-13,7,.72-1H56.4l-.48,1ZM52.8,12l.72-.48H53Zm-7.2,8.4h.72c-.22-.88,0-.49-.48-1Zm-1.92,7.92c.23-.42.22-.05,0-.48ZM36.48,93.6l-1.2-.24V95l1.2-.24C36.29,93.85,35.94,94.48,36.48,93.6ZM21.6,96.48l1.2.72c-.15-.87-.1-.73-.48-1.2ZM12,207.6l-.24-.48h-.24Z" transform="translate(0 0.21)"/></svg>